<?xml version="1.0" encoding="utf-8"?>
<!-- Generator: Adobe Illustrator 17.1.0, SVG Export Plug-In . SVG Version: 6.00 Build 0)  -->
<!DOCTYPE svg PUBLIC "-//W3C//DTD SVG 1.1//EN" "http://www.w3.org/Graphics/SVG/1.1/DTD/svg11.dtd">
<svg version="1.1" id="Layer_1" xmlns="http://www.w3.org/2000/svg" xmlns:xlink="http://www.w3.org/1999/xlink" x="0px" y="0px"
	 viewBox="143.1 801.5 612 269.1" enable-background="new 143.1 801.5 612 269.1" xml:space="preserve">
<path fill="#5BC3EE" d="M572.8,927.7c2.1-0.6,4.1-1.1,6-1.5c6-0.9,11.8-0.6,15.6,4.9c1.3,1.7,2.3,4.1,1.9,6
	c-1.9,15.4-16,19.6-26,15.6c-1.7-0.8-3.2-2.4-4.5-3.9c-2.6-2.8-3.9-2.6-6,0.8c-5.6,9.6-11.3,19-17.3,28.2
	c-6,9.2-12.6,18.2-18.2,27.6c-3.2,5.5-6.2,11.5-5.3,18.2c0.2,1.5,0.4,3,0.9,4.5c1.5,3.8,3.2,4.5,7.1,3.2c10.3-3.6,12-4.7,13.9-14.7
	c1.5-7.7,4.9-14.9,7.5-22.2c2.3-6.4,5.1-12.6,7.5-19c2.8-7,10.9-11.5,18.1-10.2c3.8,0.6,5.3,3.2,4.1,7.3c-1.3,4.3-3,8.7-4.7,13
	c-2.3,5.6-4.9,11.3-6.8,16.9c-2.4,6.6-4.5,13.2-6.4,19.7c-0.8,2.6-0.6,5.8-0.2,8.7c0.4,3.8,3.6,5.3,7.1,4.1
	c5.5-1.7,10.2-4.9,14.5-8.7c1.5-1.3,2.4-3.4,2.8-5.3c2.4-10.7,4.5-21.3,7.1-32c1.5-5.6,3.4-11.3,5.6-16.9c1.5-3.8,4.3-6.4,8.7-7.3
	c5.5-0.9,9.2,1.7,9.2,7.1c0,3.6-0.6,7.1-1.5,10.7c-1.3,5.3-3,10.3-4.3,15.6c-0.4,1.5-0.2,3.2-0.4,5.3c3.9-1.1,5.3-3.8,6.4-6.2
	c4.1-9.4,9.8-17.9,15.8-26.1c3.2-4.3,7.5-6.2,12.8-6.4c4.3-0.2,6.2,1.3,7.9,5.1c1.5,3.6,1.9,7,0.8,10.9c-2.8,9.4-5.5,19-7.7,28.6
	c-1.3,4.9-1.9,10-2.3,15c-0.2,1.9,0.8,3.9,1.7,5.6c1.5,2.3,3.8,2.8,6.2,1.7c4.5-2.1,7.9-4.3,8.7-10.2c1.1-8.5,5.5-15.6,9.4-22.9
	c5.6-10.7,13.7-19.4,23.5-26.5c5.5-4.1,12-6.4,18.6-7.9c3.2-0.8,5.8,0.2,7.5,3c2.1,3.4,5.1,4.3,8.7,4.1c0.8-0.2,1.7,0,2.6,0
	c4.5,0.4,7.1,3.4,6,7.7c-1.9,8.3-4.3,16.4-6.6,24.6c-1.9,7.3-3.9,14.7-5.6,22.2c-0.9,4.1,2.8,7.1,7,5.8c5.1-1.5,9-4.9,12.6-8.3
	c2.6-2.4,4.9-5.3,7.3-7.9c0.6-0.6,1.3-0.9,2.6-1.9c0.8,1.9,1.7,3.2,1.7,4.7c0.4,3.4,0.6,6.8,0.4,10.2c-0.2,1.7-0.8,3.8-1.9,5.1
	c-6.6,7.9-14.9,13.9-24.4,18.1c-7.5,3-14.7,0.2-18.6-7c-0.4-0.8-0.8-1.5-1.1-2.3c-1.7-3-3-3.2-5.6-1.3c-1.7,1.1-3.2,2.6-4.9,3.8
	c-6.6,3.9-13.2,7.7-21.3,7.7c-4.9-0.2-8.8-1.5-12.4-4.9c-4.3-4.1-4.3-3.8-9.8-1.5s-11.1,4.7-16.7,6c-6.4,1.5-8.8-0.6-11.1-6.8
	c-2.4-6.4-2.8-13-1.5-19.6c1.3-6.4,2.8-12.8,4.1-19.4c0.4-1.5,0-3,0-4.7c-3,0.6-4.3,2.6-5.5,4.5c-7.5,12.4-14.7,24.8-22.2,37.2
	c-1.3,2.1-2.6,3.9-4.1,5.6c-4.5,4.9-10.3,4.5-14.3-0.9c-3.9-5.6-2.8-6.4-10.2-2.6c-5.6,2.8-12,4.9-18.2,6.4
	c-5.3,1.3-10.5,0.9-14.9-3c-2.3-2.1-4.5-2.1-7.5-0.9c-4.5,1.7-9.4,3-14.1,4.1c-5.8,1.5-10.2-0.8-13.5-5.6
	c-4.5-6.4-6.8-13.5-7.1-21.4c-0.2-3.4-0.9-6.8-0.9-10.2c0.2-6,0.6-11.8,1.3-17.9c0.4-3.4-0.6-5.5-3-7.5c-2.1-1.5-3.8-3.4-6-4.9
	c-0.8-0.6-2.6-0.8-3.2-0.4c-0.6,0.6-0.9,2.4-0.6,3.2c3.9,7.1,3,14.9,1.9,22c-1.5,10-5.6,19.4-12.4,27.6
	c-5.5,6.8-12.6,11.3-20.7,14.3c-11.3,4.3-26-3-29.9-14.7c-0.9-2.6-1.7-5.3-2.6-7.7c-0.6-1.9-1.9-2.6-3.9-2.6
	c-2.3,0.2-4.3,0.2-6.6,0.2c-7.3,0.2-12.6-3.8-15.2-10.5c-1.7-4.3-2.8-8.7-2.4-13.4c0.4-2.8,0.2-2.8-2.1-5.3c-2.6,0.9-3,3.4-3.9,5.5
	c-6.2,13.5-12.2,27.1-18.4,40.4c-0.9,2.3-2.6,4.3-4.1,6.4c-3.4,3.9-7.9,3.9-11.5,0.4c-3.8-3.9-3.9-4.1-8.5-0.9
	c-5.1,3.6-10.3,3.8-16.2,3.4c-3.8-0.2-5.6-3-7.5-5.5c-0.9-1.3-1.7-3-2.6-4.3c-1.9-3-3-3.2-5.6-0.9c-4.9,4.1-10.2,7.3-16.2,9.2
	c-6.6,2.3-13.4,3.2-19.6-1.3c-2.6-1.9-4.7-4.9-6.8-7.5c-1.9-2.4-3.2-2.8-5.3-0.8c-6.4,6.4-13.9,11.3-22,15.6
	c-8.8,4.7-18.1,8.7-28.2,10.2c-8.7,1.3-17.5,3.4-26.3,3.2c-13-0.4-24.6-5.3-33.1-15.6c-12-14.9-15-31.8-11.1-50.4
	c2.8-13,7.1-25.2,13-37.1c9.2-18.6,21.4-35.4,36.7-49.5c11.8-10.9,25-19.4,40.8-22.9c8.7-1.9,17.3-2.1,25.6,1.3
	c7.7,3,13.2,8.8,16.6,16.6c5.5,12.4,2.8,24.3-2.8,35.9c-4.5,9.6-11.1,17.5-19,24.3c-7.5,6.4-16,11.7-26,13.5
	c-4.3,0.8-9.2,0.6-13.7,0c-6.2-0.8-8.8-5.5-7.7-11.7c0.4-1.3,0.8-2.6,1.3-3.9c1.9-4.5,3.2-5.5,8.1-4.5c15.2,3,26.3-3.4,35.4-15
	c4.5-5.8,7.3-12.6,7.7-19.7c0.6-10.3-4.1-17.5-16.6-18.4c-7.9-0.6-15,2.1-21.6,6.2c-7.5,4.9-13.5,11.3-19.4,17.9
	c-9.6,10.7-16.6,23.3-22.8,36.1c-3.2,6.6-5.3,13.9-7.9,20.9c-3.4,9.4-3.9,19.2-3.8,29.2c0.4,13.9,10,24.1,23.9,25.4
	c10.2,0.9,19.9-0.6,29.5-4.1c10.2-3.9,19.6-9.2,28.6-15.6c5.1-3.6,10.3-7,15.8-10.3c2.8-1.7,4.9-3.9,6.2-7.1
	c4.3-10.2,9.8-19.7,17.5-28c8.1-8.8,17.3-15.8,29.2-18.6c4.1-0.9,7.3-0.8,9.8,3.2c1.7,2.8,4.5,3.4,7.5,3.4
	c8.8,0.4,10.2,1.9,8.5,10.5c-1.3,6.4-3.2,12.8-5.1,19.2c-2.4,8.1-5.5,16.2-6.2,24.8c-0.6,5.1,2.4,7.5,7.1,5.6
	c6.8-2.6,11.7-6.6,13.2-14.7c1.7-9.6,5.1-19,7.9-28.4c2.1-6.4,4.7-12.4,7.1-18.6c1.3-3.4,4.1-4.9,7.5-5.5c4.9-0.9,7.9,2.4,6.8,7.3
	c-0.9,5.1-2.1,10.3-3,15.4c-0.4,1.5-0.6,3,1.3,3.2c0.9,0.2,2.4-0.9,3-2.1c3.8-7.1,7.5-14.3,14.1-19.2c2.8-2.1,6.2-3.8,9.4-4.9
	c4.9-1.5,10.3,4.7,9,10c-1.1,4.3-2.6,8.5-4.1,12.6c-1.5,4.7-2.6,9.6-1.5,14.5c0.9,3.8,3,5.6,6.2,5.6c3,0.2,5.3-1.5,6.4-5.5
	c1.9-6.8,4.9-13,9.2-18.6c6.2-8.3,14.3-13.7,24.1-16.2c11.1-2.8,22.4-2.4,32.5,3.8c2.8,1.7,5.5,3.4,8.1,5.1c3,1.9,5.1,1.7,5.6-1.7
	c1.9-10,6.2-19.2,9.8-28.4c7.7-20.7,18.4-39.3,35.4-54.2c4.5-3.9,10-6.2,15.6-6.8c7.5-0.9,13.2,4.1,13.4,12
	c0.4,8.5-1.7,16.6-5.1,24.3C572.5,923,571.3,924.7,572.8,927.7z M471.8,998.4c0-1.7-0.2-3.4,0-5.1c0.4-4.9-2.3-8.1-6-10.5
	c-1.3-0.8-3.9-1.1-5.1-0.4c-3,1.7-6.4,3.6-8.5,6.4c-8.3,10.9-12.4,23.3-11.1,37.1c0.9,8.5,10,12.4,16.7,7.5c1.5-0.9,2.8-2.6,3.9-3.9
	C468.6,1020.3,471.7,1009.9,471.8,998.4z M290.7,1025.3c0,1.5,0,2.1,0,2.6c-0.2,3.4,1.1,6,4.3,7.5c3,1.5,5.3,0,7.5-1.7
	c6.2-4.9,9.2-11.5,11.8-18.6c3.2-9,6.4-18.2,9.2-27.5c0.6-1.5,0.8-3.6,0-4.7c-1.3-1.9-3.2-0.9-5.1-0.2c-6.4,3.2-11.5,7.3-15.4,13.5
	c-2.8,4.9-5.6,9.6-8.5,14.5C292.2,1015.7,291.7,1021,290.7,1025.3z M682.1,1030.4c-0.6,4.1,2.8,6.8,6.8,5.3c1.9-0.8,3.4-2.1,5.1-3.4
	c5.5-4.9,7.9-11.8,10.3-18.4c3.2-8.7,6.2-17.5,8.8-26.5c0.4-1.5,0.6-3.6-0.2-4.7c-1.3-1.9-3.4-0.8-5.1,0.2
	c-5.3,2.8-10.2,6.2-13.7,11.1c-5.6,8.1-11.5,16-12.2,26.3C681.7,1023.6,682.1,1027,682.1,1030.4z M523.9,979.4
	c2.3-2.1,4.1-4.5,5.6-7.3c4.3-7.7,8.7-15.4,13-23.1c6.6-11.8,12.2-24.3,15-37.6c0.4-2.1,2.1-4.5-0.6-6c-2.6-1.3-3.9,1.3-5.5,2.8
	c-5.3,5.1-8.1,11.5-11.3,18.1c-7.7,15.6-12.6,32.2-17.5,48.9C522.4,976.4,521.5,977.9,523.9,979.4z"/>
<g>
	<path fill="#83CFEF" d="M505.5,880.5c3.4-0.9,5.1-3.2,6.2-5.6c1.5-3.4,4.1-6,7.5-7.5c1.7-0.8,3.4-0.8,4.7,0.8
		c1.5,1.5,1.5,3,0.8,4.7c-1.1,2.6-1.9,5.5-2.6,8.3c-0.2,0.8-0.4,1.7-0.6,2.4c-0.4,5.6,3.6,8.5,8.8,6.4c2.4-1.1,5.1-2.3,7.5-3.4
		c1.1,3.6,0.2,7-3,8.8c-3.4,2.1-7,3.9-11.1,3.9c-4.3,0-7.3-2.1-8.5-6.2c-0.6-2.1-0.8-4.1-1.3-6.2c-0.2-0.8-0.9-2.1-1.7-2.3
		c-0.8-0.2-2.1,0.4-2.6,1.1c-0.8,0.8-1.3,2.1-1.9,3.2c-2.8,6.2-5.5,12.2-8.3,18.4c-0.6,1.1-1.1,2.3-1.7,3.2
		c-2.4,3.6-4.5,3.8-7.3,0.6c-3-3.2-3-3.2-7-0.9c-5.6,3.2-11.7,4.3-17.9,2.6c-1.7-0.6-3.4-1.5-4.9-2.6c-4.7-3.4-6.2-3.4-11.1-0.2
		c-1.9,1.3-3.9,2.1-6,2.8c-3.8,1.7-6.6-0.2-9.2-2.6c-0.6-0.6-0.8-1.1-1.1-1.7c-2.4-3.2-3.6-3.4-7-1.1c-3.2,2.3-6.4,4.7-10.3,5.6
		c-7.1,1.7-12.4-1.7-13-9c-0.4-4.1-0.6-4.3-4.5-4.7c-4.3-0.4-7.9-3.9-8.1-8.5c-0.2-1.3,0.2-2.8-0.2-4.1c-0.2-0.9-0.8-2.4-1.3-2.4
		c-1.1-0.2-2.4,0.6-3,1.3c-1.3,1.5-2.3,3.2-3,4.9c-2.4,5.3-4.5,10.5-7,15.6c-1.1,2.3-2.3,4.3-3.8,6.2c-1.5,1.9-3.4,1.7-4.9-0.2
		c-1.5-1.7-2.1-3.6-1.7-5.8c1.5-7.1,3-14.3,4.7-21.3c1.1-4.5,2.6-9,4.5-13.2c0.6-1.7,2.1-3.4,3.2-4.5c1.5-1.5,3.4-0.8,3.8,1.3
		c0.2,1.5,0,3.2-0.4,4.5c-0.4,1.3-1.1,2.6-1.3,3.9c-0.2,1.1,0.2,2.6,0.8,3c0.8,0.4,2.4,0,3.2-0.6c1.1-0.9,2.1-2.4,2.6-3.8
		c1.7-3.2,3.8-5.6,6.8-7.7c1.9-1.3,3.8-1.7,5.6-0.4c1.7,1.3,1.5,3.4,0.9,5.3c-0.9,3.2-1.7,6.4-2.4,9.4c-0.4,1.1-0.6,2.6-0.2,3.6
		c0.8,1.5,1.9,3.4,3.4,4.3c1.7,1.1,3.4-0.2,4.5-1.5c1.1-1.3,2.3-2.6,3-4.1c2.4-4.5,5.6-8.5,10-11.3c2.3-1.5,4.7-2.6,7.3-3.4
		c3.2-0.9,5.1-2.6,6-5.8c2.4-7.5,4.7-15.2,7.5-22.6c2.4-6.4,6.4-11.8,11.5-16.6c0.9-0.9,2.3-1.7,3.6-2.3c6.4-2.8,10.9,0.2,11.1,7.1
		c0.2,8.5-2.3,16.4-5.5,24.1c-4.5,11.5-10.7,22-16.7,32.7c-1.7,3-2.6,6.4-3.4,9.8c-0.6,2.6,0.4,5.3,2.6,7c2.1,1.5,4.3,0.9,6.2-0.6
		c0.8-0.6,1.5-0.9,2.3-1.3c2.8-1.1,3.8-3,4.1-6c1.1-9,4.5-16.9,10.9-23.5c2.6-2.8,6-4.1,9.4-5.1c5.5-1.5,11.1,1.7,13,7
		c0.6,1.5,0.6,3.4,0,5.1c-3,8.8-9.4,14.3-17.7,17.9c-0.6,0.2-1.3,0.4-2.1,0.6c-1.7,0.6-2.6,1.7-2.4,3.4c0,1.7,1.1,3,2.6,3.4
		c1.1,0.4,2.4,0.4,3.6,0.6c6,0.4,11.1-2.4,16-5.3c2.6-1.5,4.5-4.3,4.5-7.3c0.2-4.1,1.9-7.7,3.2-11.5c0.9-2.8,1.7-5.6,2.8-8.3
		c0.8-1.9,2.1-3.6,3.4-5.1c0.6-0.6,2.3-0.8,3.2-0.4c0.6,0.4,1.1,1.7,1.1,2.6c0,1.1-0.6,2.3-1.1,3.4
		C504.2,875.2,504,877.7,505.5,880.5z M458.5,836.7c-0.2-1.1,0-1.7-0.2-2.3c-0.8-1.3-1.3-3.2-2.4-3.6c-1.1-0.4-3,0.6-3.8,1.7
		c-1.5,1.7-2.6,3.6-3.6,5.6c-4.5,11.1-6,22.9-9,34.6c-0.2,0.8,0.6,2.1,1.3,2.4c0.6,0.4,2.1,0.2,2.6-0.4c0.8-0.8,1.5-1.9,2.1-3
		c3.4-8.1,7.1-16.2,10.2-24.4C457.2,844,457.7,839.9,458.5,836.7z M418.4,904.6c0.6-0.2,2.1-0.2,3.2-0.9c3-2.4,6.2-5.1,7-9.4
		c0.8-5.3,1.3-10.5,1.9-15.8c0.2-2.3-1.3-3.6-3.6-3c-1.5,0.4-3,1.3-3.9,2.3c-5.5,5.6-9.2,12.4-10.7,20.1
		C411.1,902.3,413.2,904.4,418.4,904.6z M481.8,879.8c-0.2-4.7-3.9-6.6-7.5-4.7c-5.3,2.8-7.5,7.9-9.2,13.2c-0.6,2.1,0.8,3.4,2.8,3.4
		c1.3,0,2.8-0.4,3.8-1.1c2.8-2.1,5.5-4.1,7.9-6.6C480.9,882.6,481.4,880.7,481.8,879.8z"/>
	<path fill="#83CFEF" d="M338.9,827.3c3.9,0.2,7.9-0.6,11.7,1.5c7,3.6,11.7,8.8,13.7,16.7c1.1,4.3,2.3,8.8,1.7,13.2
		c-0.4,3.4-1.3,6.8-2.1,10.2c-3.6,17.3-10.9,32.7-24.4,44.6c-5.3,4.5-11.1,7.9-18.4,8.8c-3.8,0.4-7.3,0.6-11.3,0.2
		c-8.8-0.9-18.2-11.7-19.7-20.9c-2.1-12-0.9-23.5,3.2-34.6c3.8-10.9,9.4-20.9,18.1-28.8c5.6-5.3,12.4-8.8,19.9-10.5
		C333.6,826.9,336.2,827.3,338.9,827.3z M356,856.4c-0.6-3.8-0.9-6.6-1.5-9.2c-1.9-7.5-11.3-12.8-18.2-11.1
		c-6.4,1.7-11.3,5.1-16,9.2c-9.2,8.3-14.9,18.6-18.6,30.1c-2.6,8.1-4.1,16.4-1.1,24.8c1.5,4.3,3.8,7.9,7.5,10.3
		c6.8,4.5,13.9,4.3,20.7,0.2c4.3-2.6,8.1-6.6,11.3-10.5c6-7.5,9.8-16.4,12.2-25.6C353.9,868.5,354.9,861.9,356,856.4z"/>
	<path fill="#83CFEF" d="M285.3,916.8c1.5,1.5,3.2,3,4.7,4.7c8.5,9,18.8,12,30.7,8.5c4.1-1.3,8.3-2.4,12.4-3.8
		c0.6-0.2,1.1-0.6,1.5-0.4c1.1,0.2,2.6,0.4,3.2,1.1c1.1,1.3-0.2,2.6-1.3,3.4c-1.3,0.8-3,0.9-4.3,1.5c-1.7,0.6-3.6,1.3-5.1,2.3
		c-1.7,1.3-1.1,3.4,1.1,3.8c1.3,0.2,2.8,0.2,4.1-0.2c8.7-2.4,15.6-7.1,20.7-14.9c2.1-3,4.1-5.8,6.2-8.8c2.4,1.3,2.1,2.6,1.5,4.3
		c-4.1,10.9-10.3,20.3-20.7,26.5c-0.4,0.2-0.6,0.6-0.8,0.6c-6.6,2.1-12.8,5.6-19.9,4.3c-3.6-0.6-7-2.1-10.2-3.4
		c-10.9-4.9-19.2-12.2-22.6-24.1c-0.4-1.5-1.1-3.2-1.7-4.7C284.5,917.4,284.9,917.2,285.3,916.8z"/>
	<path fill="#83CFEF" d="M308.6,830.9c6.6-10.5,16.2-14.7,26.3-17.1c10.3-2.4,20.7-3.9,31.4-3.2c6,0.6,12,1.1,18.1,1.7
		c0.8,0.2,1.5,0.4,2.1,0.2c10.2-1.9,20.9-1.9,28.6-10.5c0.2-0.4,0.9-0.2,1.5-0.4c0,0.6,0.2,1.3-0.2,1.5
		c-5.3,8.8-13.2,14.3-22.4,17.7c-4.1,1.5-8.8,2.1-13.2,2.1c-11.3,0.4-22.4-1.1-33.5-2.6c-8.1-1.1-16.4-0.8-24.1,2.3
		C318.4,824.3,314,827.7,308.6,830.9z"/>
</g>
</svg>
