<?xml version="1.0" encoding="utf-8"?>
<!-- Generator: Adobe Illustrator 17.1.0, SVG Export Plug-In . SVG Version: 6.00 Build 0)  -->
<!DOCTYPE svg PUBLIC "-//W3C//DTD SVG 1.1//EN" "http://www.w3.org/Graphics/SVG/1.1/DTD/svg11.dtd">
<svg version="1.1" id="Layer_1" xmlns="http://www.w3.org/2000/svg" xmlns:xlink="http://www.w3.org/1999/xlink" x="0px" y="0px"
	 viewBox="-160.1 813.2 1086.3 261.4" enable-background="new -160.1 813.2 1086.3 261.4" xml:space="preserve">
<path fill="#5BC3EE" d="M212.4,930.1c1.8-0.5,3.6-1,5.2-1.3c5.2-0.8,10.3-0.5,13.5,4.2c1.1,1.5,2,3.6,1.6,5.2
	c-1.6,13.4-13.9,17-22.5,13.5c-1.5-0.7-2.8-2.1-3.9-3.4c-2.3-2.4-3.4-2.3-5.2,0.7c-4.9,8.3-9.8,16.5-15,24.5
	c-5.2,8-10.9,15.8-15.8,24c-2.8,4.7-5.4,9.9-4.6,15.8c0.2,1.3,0.3,2.6,0.8,3.9c1.3,3.3,2.8,3.9,6.2,2.8c9-3.1,10.4-4.1,12.1-12.7
	c1.3-6.7,4.2-12.9,6.5-19.2c2-5.5,4.4-10.9,6.5-16.5c2.4-6,9.5-9.9,15.7-8.8c3.3,0.5,4.6,2.8,3.6,6.4c-1.1,3.7-2.6,7.5-4.1,11.2
	c-2,4.9-4.2,9.8-5.9,14.7c-2.1,5.7-3.9,11.4-5.5,17.1c-0.7,2.3-0.5,5.1-0.2,7.5c0.3,3.3,3.1,4.6,6.2,3.6c4.7-1.5,8.8-4.2,12.6-7.5
	c1.3-1.1,2.1-2.9,2.4-4.6c2.1-9.3,3.9-18.4,6.2-27.7c1.3-4.9,2.9-9.8,4.9-14.7c1.3-3.3,3.7-5.5,7.5-6.4c4.7-0.8,8,1.5,8,6.2
	c0,3.1-0.5,6.2-1.3,9.3c-1.1,4.6-2.6,9-3.7,13.5c-0.3,1.3-0.2,2.8-0.3,4.6c3.4-1,4.6-3.3,5.5-5.4c3.6-8.2,8.5-15.5,13.7-22.7
	c2.8-3.7,6.5-5.4,11.1-5.5c3.7-0.2,5.4,1.1,6.8,4.4c1.3,3.1,1.6,6,0.7,9.5c-2.4,8.2-4.7,16.5-6.7,24.8c-1.1,4.2-1.6,8.6-2,13
	c-0.2,1.6,0.7,3.4,1.5,4.9c1.3,2,3.3,2.4,5.4,1.5c3.9-1.8,6.8-3.7,7.5-8.8c1-7.3,4.7-13.5,8.2-19.9c4.9-9.3,11.9-16.8,20.4-23
	c4.7-3.6,10.4-5.5,16.1-6.8c2.8-0.7,5.1,0.2,6.5,2.6c1.8,2.9,4.4,3.7,7.5,3.6c0.7-0.2,1.5,0,2.3,0c3.9,0.3,6.2,2.9,5.2,6.7
	c-1.6,7.2-3.7,14.2-5.7,21.4c-1.6,6.4-3.4,12.7-4.9,19.2c-0.8,3.6,2.4,6.2,6,5.1c4.4-1.3,7.8-4.2,10.9-7.2c2.3-2.1,4.2-4.6,6.4-6.8
	c0.5-0.5,1.1-0.8,2.3-1.6c0.7,1.6,1.5,2.8,1.5,4.1c0.3,2.9,0.5,5.9,0.3,8.8c-0.2,1.5-0.7,3.3-1.6,4.4c-5.7,6.8-12.9,12.1-21.2,15.7
	c-6.5,2.6-12.7,0.2-16.1-6c-0.3-0.7-0.7-1.3-1-2c-1.5-2.6-2.6-2.8-4.9-1.1c-1.5,1-2.8,2.3-4.2,3.3c-5.7,3.4-11.4,6.7-18.4,6.7
	c-4.2-0.2-7.7-1.3-10.8-4.2c-3.7-3.6-3.7-3.3-8.5-1.3c-4.7,2-9.6,4.1-14.5,5.2c-5.5,1.3-7.7-0.5-9.6-5.9c-2.1-5.5-2.4-11.2-1.3-17
	c1.1-5.5,2.4-11.1,3.6-16.8c0.3-1.3,0-2.6,0-4.1c-2.6,0.5-3.7,2.3-4.7,3.9c-6.5,10.8-12.7,21.5-19.2,32.3c-1.1,1.8-2.3,3.4-3.6,4.9
	c-3.9,4.2-9,3.9-12.4-0.8c-3.4-4.9-2.4-5.5-8.8-2.3c-4.9,2.4-10.4,4.2-15.8,5.5c-4.6,1.1-9.1,0.8-12.9-2.6c-2-1.8-3.9-1.8-6.5-0.8
	c-3.9,1.5-8.2,2.6-12.2,3.6c-5.1,1.3-8.8-0.7-11.7-4.9c-3.9-5.5-5.9-11.7-6.2-18.6c-0.2-2.9-0.8-5.9-0.8-8.8
	c0.2-5.2,0.5-10.3,1.1-15.5c0.3-2.9-0.5-4.7-2.6-6.5c-1.8-1.3-3.3-2.9-5.2-4.2c-0.7-0.5-2.3-0.7-2.8-0.3c-0.5,0.5-0.8,2.1-0.5,2.8
	c3.4,6.2,2.6,12.9,1.6,19.1c-1.3,8.6-4.9,16.8-10.8,24c-4.7,5.9-10.9,9.8-17.9,12.4c-9.8,3.7-22.5-2.6-25.9-12.7
	c-0.8-2.3-1.5-4.6-2.3-6.7c-0.5-1.6-1.6-2.3-3.4-2.3c-2,0.2-3.7,0.2-5.7,0.2c-6.4,0.2-10.9-3.3-13.2-9.1c-1.5-3.7-2.4-7.5-2.1-11.6
	c0.3-2.4,0.2-2.4-1.8-4.6c-2.3,0.8-2.6,2.9-3.4,4.7c-5.4,11.7-10.6,23.5-16,35.1c-0.8,2-2.3,3.7-3.6,5.5c-2.9,3.4-6.8,3.4-9.9,0.3
	c-3.3-3.4-3.4-3.6-7.3-0.8c-4.4,3.1-9,3.3-14,2.9c-3.3-0.2-4.9-2.6-6.5-4.7c-0.8-1.1-1.5-2.6-2.3-3.7c-1.6-2.6-2.6-2.8-4.9-0.8
	c-4.2,3.6-8.8,6.4-14,8c-5.7,2-11.6,2.8-17-1.1c-2.3-1.6-4.1-4.2-5.9-6.5c-1.6-2.1-2.8-2.4-4.6-0.7c-5.5,5.5-12.1,9.8-19.1,13.5
	c-7.7,4.1-15.7,7.5-24.5,8.8c-7.5,1.1-15.2,2.9-22.8,2.8c-11.2-0.3-21.4-4.6-28.7-13.5c-10.4-12.9-13-27.6-9.6-43.7
	c2.4-11.2,6.2-21.8,11.2-32.1c8-16.1,18.6-30.7,31.8-42.9c10.3-9.5,21.7-16.8,35.4-19.9c7.5-1.6,15-1.8,22.2,1.1
	c6.7,2.6,11.4,7.7,14.3,14.3c4.7,10.8,2.4,21-2.4,31.1c-3.9,8.3-9.6,15.2-16.5,21c-6.5,5.5-13.9,10.1-22.5,11.7
	c-3.7,0.7-8,0.5-11.9,0c-5.4-0.7-7.7-4.7-6.7-10.1c0.3-1.1,0.7-2.3,1.1-3.4c1.6-3.9,2.8-4.7,7-3.9c13.2,2.6,22.8-2.9,30.7-13
	c3.9-5.1,6.4-10.9,6.7-17.1c0.5-9-3.6-15.2-14.3-16c-6.8-0.5-13,1.8-18.7,5.4c-6.5,4.2-11.7,9.8-16.8,15.5
	c-8.3,9.3-14.3,20.2-19.7,31.3c-2.8,5.7-4.6,12.1-6.8,18.1c-2.9,8.2-3.4,16.6-3.3,25.3c0.3,12.1,8.6,20.9,20.7,22
	c8.8,0.8,17.3-0.5,25.6-3.6c8.8-3.4,17-8,24.8-13.5c4.4-3.1,9-6,13.7-9c2.4-1.5,4.2-3.4,5.4-6.2c3.7-8.8,8.5-17.1,15.2-24.3
	c7-7.7,15-13.7,25.3-16.1c3.6-0.8,6.4-0.7,8.5,2.8c1.5,2.4,3.9,2.9,6.5,2.9c7.7,0.3,8.8,1.6,7.3,9.1c-1.1,5.5-2.8,11.1-4.4,16.6
	c-2.1,7-4.7,14-5.4,21.5c-0.5,4.4,2.1,6.5,6.2,4.9c5.9-2.3,10.1-5.7,11.4-12.7c1.5-8.3,4.4-16.5,6.8-24.6c1.8-5.5,4.1-10.8,6.2-16.1
	c1.1-2.9,3.6-4.2,6.5-4.7c4.2-0.8,6.8,2.1,5.9,6.4c-0.8,4.4-1.8,9-2.6,13.4c-0.3,1.3-0.5,2.6,1.1,2.8c0.8,0.2,2.1-0.8,2.6-1.8
	c3.3-6.2,6.5-12.4,12.2-16.6c2.4-1.8,5.4-3.3,8.2-4.2c4.2-1.3,9,4.1,7.8,8.6c-1,3.7-2.3,7.3-3.6,10.9c-1.3,4.1-2.3,8.3-1.3,12.6
	c0.8,3.3,2.6,4.9,5.4,4.9c2.6,0.2,4.6-1.3,5.5-4.7c1.6-5.9,4.2-11.2,8-16.1c5.4-7.2,12.4-11.9,20.9-14c9.6-2.4,19.4-2.1,28.2,3.3
	c2.4,1.5,4.7,2.9,7,4.4c2.6,1.6,4.4,1.5,4.9-1.5c1.6-8.6,5.4-16.6,8.5-24.6c6.7-17.9,16-34.1,30.7-47c3.9-3.4,8.6-5.4,13.5-5.9
	c6.5-0.8,11.4,3.6,11.6,10.4c0.3,7.3-1.5,14.3-4.4,21C212,926,211.1,927.5,212.4,930.1z M124.8,991.4c0-1.5-0.2-2.9,0-4.4
	c0.3-4.2-2-7-5.2-9.1c-1.1-0.7-3.4-1-4.4-0.3c-2.6,1.5-5.5,3.1-7.3,5.5c-7.2,9.5-10.8,20.2-9.6,32.1c0.8,7.3,8.6,10.8,14.5,6.5
	c1.3-0.8,2.4-2.3,3.4-3.4C122,1010.3,124.7,1001.4,124.8,991.4z M-32.2,1014.7c0,1.3,0,1.8,0,2.3c-0.2,2.9,1,5.2,3.7,6.5
	c2.6,1.3,4.6,0,6.5-1.5c5.4-4.2,8-9.9,10.3-16.1c2.8-7.8,5.5-15.8,8-23.8c0.5-1.3,0.7-3.1,0-4.1c-1.1-1.6-2.8-0.8-4.4-0.2
	c-5.5,2.8-9.9,6.4-13.4,11.7c-2.4,4.2-4.9,8.3-7.3,12.6C-30.9,1006.4-31.4,1011-32.2,1014.7z M307.1,1019.1
	c-0.5,3.6,2.4,5.9,5.9,4.6c1.6-0.7,2.9-1.8,4.4-2.9c4.7-4.2,6.8-10.3,9-16c2.8-7.5,5.4-15.2,7.7-23c0.3-1.3,0.5-3.1-0.2-4.1
	c-1.1-1.6-2.9-0.7-4.4,0.2c-4.6,2.4-8.8,5.4-11.9,9.6c-4.9,7-9.9,13.9-10.6,22.8C306.8,1013.3,307.1,1016.2,307.1,1019.1z
	 M170,974.9c2-1.8,3.6-3.9,4.9-6.4c3.7-6.7,7.5-13.4,11.2-20.1c5.7-10.3,10.6-21,13-32.6c0.3-1.8,1.8-3.9-0.5-5.2
	c-2.3-1.1-3.4,1.1-4.7,2.4c-4.6,4.4-7,9.9-9.8,15.7c-6.7,13.5-10.9,27.9-15.2,42.4C168.7,972.3,167.9,973.6,170,974.9z"/>
<g>
	<path fill="#83CFEF" d="M154,889.2c2.9-0.8,4.4-2.8,5.4-4.9c1.3-2.9,3.6-5.2,6.5-6.5c1.5-0.7,2.9-0.7,4.1,0.7
		c1.3,1.3,1.3,2.6,0.7,4.1c-1,2.3-1.6,4.7-2.3,7.2c-0.2,0.7-0.3,1.5-0.5,2.1c-0.3,4.9,3.1,7.3,7.7,5.5c2.1-1,4.4-2,6.5-2.9
		c1,3.1,0.2,6-2.6,7.7c-2.9,1.8-6,3.4-9.6,3.4c-3.7,0-6.4-1.8-7.3-5.4c-0.5-1.8-0.7-3.6-1.1-5.4c-0.2-0.7-0.8-1.8-1.5-2
		c-0.7-0.2-1.8,0.3-2.3,1c-0.7,0.7-1.1,1.8-1.6,2.8c-2.4,5.4-4.7,10.6-7.2,16c-0.5,1-1,2-1.5,2.8c-2.1,3.1-3.9,3.3-6.4,0.5
		c-2.6-2.8-2.6-2.8-6-0.8c-4.9,2.8-10.1,3.7-15.5,2.3c-1.5-0.5-2.9-1.3-4.2-2.3c-4.1-2.9-5.4-2.9-9.6-0.2c-1.6,1.1-3.4,1.8-5.2,2.4
		c-3.3,1.5-5.7-0.2-8-2.3c-0.5-0.5-0.7-1-1-1.5c-2.1-2.8-3.1-2.9-6-1c-2.8,2-5.5,4.1-9,4.9c-6.2,1.5-10.8-1.5-11.2-7.8
		c-0.3-3.6-0.5-3.7-3.9-4.1c-3.7-0.3-6.8-3.4-7-7.3c-0.2-1.1,0.2-2.4-0.2-3.6c-0.2-0.8-0.7-2.1-1.1-2.1c-1-0.2-2.1,0.5-2.6,1.1
		c-1.1,1.3-2,2.8-2.6,4.2c-2.1,4.6-3.9,9.1-6,13.5c-1,2-2,3.7-3.3,5.4c-1.3,1.6-2.9,1.5-4.2-0.2c-1.3-1.5-1.8-3.1-1.5-5.1
		c1.3-6.2,2.6-12.4,4.1-18.4c1-3.9,2.3-7.8,3.9-11.4c0.5-1.5,1.8-2.9,2.8-3.9c1.3-1.3,2.9-0.7,3.3,1.1c0.2,1.3,0,2.8-0.3,3.9
		c-0.3,1.1-1,2.3-1.1,3.4c-0.2,1,0.2,2.3,0.7,2.6c0.7,0.3,2.1,0,2.8-0.5c1-0.8,1.8-2.1,2.3-3.3c1.5-2.8,3.3-4.9,5.9-6.7
		c1.6-1.1,3.3-1.5,4.9-0.3c1.5,1.1,1.3,2.9,0.8,4.6c-0.8,2.8-1.5,5.5-2.1,8.2c-0.3,1-0.5,2.3-0.2,3.1c0.7,1.3,1.6,2.9,2.9,3.7
		c1.5,1,2.9-0.2,3.9-1.3c1-1.1,2-2.3,2.6-3.6c2.1-3.9,4.9-7.3,8.6-9.8c2-1.3,4.1-2.3,6.4-2.9c2.8-0.8,4.4-2.3,5.2-5.1
		c2.1-6.5,4.1-13.2,6.5-19.6c2.1-5.5,5.5-10.3,9.9-14.3c0.8-0.8,2-1.5,3.1-2c5.5-2.4,9.5,0.2,9.6,6.2c0.2,7.3-2,14.2-4.7,20.9
		c-3.9,9.9-9.3,19.1-14.5,28.4c-1.5,2.6-2.3,5.5-2.9,8.5c-0.5,2.3,0.3,4.6,2.3,6c1.8,1.3,3.7,0.8,5.4-0.5c0.7-0.5,1.3-0.8,2-1.1
		c2.4-1,3.3-2.6,3.6-5.2c1-7.8,3.9-14.7,9.5-20.4c2.3-2.4,5.2-3.6,8.2-4.4c4.7-1.3,9.6,1.5,11.2,6c0.5,1.3,0.5,2.9,0,4.4
		c-2.6,7.7-8.2,12.4-15.3,15.5c-0.5,0.2-1.1,0.3-1.8,0.5c-1.5,0.5-2.3,1.5-2.1,2.9c0,1.5,1,2.6,2.3,2.9c1,0.3,2.1,0.3,3.1,0.5
		c5.2,0.3,9.6-2.1,13.9-4.6c2.3-1.3,3.9-3.7,3.9-6.4c0.2-3.6,1.6-6.7,2.8-9.9c0.8-2.4,1.5-4.9,2.4-7.2c0.7-1.6,1.8-3.1,2.9-4.4
		c0.5-0.5,2-0.7,2.8-0.3c0.5,0.3,1,1.5,1,2.3c0,1-0.5,2-1,2.9C152.9,884.6,152.7,886.7,154,889.2z M113.2,851.2c-0.2-1,0-1.5-0.2-2
		c-0.7-1.1-1.1-2.8-2.1-3.1c-1-0.3-2.6,0.5-3.3,1.5c-1.3,1.5-2.3,3.1-3.1,4.9c-3.9,9.6-5.2,19.9-7.8,30c-0.2,0.7,0.5,1.8,1.1,2.1
		c0.5,0.3,1.8,0.2,2.3-0.3c0.7-0.7,1.3-1.6,1.8-2.6c2.9-7,6.2-14,8.8-21.2C112.1,857.6,112.6,854,113.2,851.2z M78.5,910.1
		c0.5-0.2,1.8-0.2,2.8-0.8c2.6-2.1,5.4-4.4,6-8.2c0.7-4.6,1.1-9.1,1.6-13.7c0.2-2-1.1-3.1-3.1-2.6c-1.3,0.3-2.6,1.1-3.4,2
		c-4.7,4.9-8,10.8-9.3,17.4C72.2,908.1,73.9,909.9,78.5,910.1z M133.5,888.5c-0.2-4.1-3.4-5.7-6.5-4.1c-4.6,2.4-6.5,6.8-8,11.4
		c-0.5,1.8,0.7,2.9,2.4,2.9c1.1,0,2.4-0.3,3.3-1c2.4-1.8,4.7-3.6,6.8-5.7C132.6,891,133.1,889.4,133.5,888.5z"/>
	<path fill="#83CFEF" d="M9.5,843.1c3.4,0.2,6.8-0.5,10.1,1.3c6,3.1,10.1,7.7,11.9,14.5c1,3.7,2,7.7,1.5,11.4
		c-0.3,2.9-1.1,5.9-1.8,8.8c-3.1,15-9.5,28.4-21.2,38.6c-4.6,3.9-9.6,6.8-16,7.7c-3.3,0.3-6.4,0.5-9.8,0.2
		c-7.7-0.8-15.8-10.1-17.1-18.1c-1.8-10.4-0.8-20.4,2.8-30c3.3-9.5,8.2-18.1,15.7-24.9c4.9-4.6,10.8-7.7,17.3-9.1
		C5,842.7,7.3,843.1,9.5,843.1z M24.4,868.3c-0.5-3.3-0.8-5.7-1.3-8c-1.6-6.5-9.8-11.1-15.8-9.6c-5.5,1.5-9.8,4.4-13.9,8
		c-8,7.2-12.9,16.1-16.1,26.1c-2.3,7-3.6,14.2-1,21.5c1.3,3.7,3.3,6.8,6.5,9c5.9,3.9,12.1,3.7,17.9,0.2c3.7-2.3,7-5.7,9.8-9.1
		c5.2-6.5,8.5-14.2,10.6-22.2C22.6,878.8,23.4,873.1,24.4,868.3z"/>
	<path fill="#83CFEF" d="M-36.9,920.7c1.3,1.3,2.8,2.6,4.1,4.1c7.3,7.8,16.3,10.4,26.6,7.3c3.6-1.1,7.2-2.1,10.8-3.3
		c0.5-0.2,1-0.5,1.3-0.3c1,0.2,2.3,0.3,2.8,1c1,1.1-0.2,2.3-1.1,2.9c-1.1,0.7-2.6,0.8-3.7,1.3c-1.5,0.5-3.1,1.1-4.4,2
		c-1.5,1.1-1,2.9,1,3.3c1.1,0.2,2.4,0.2,3.6-0.2c7.5-2.1,13.5-6.2,17.9-12.9c1.8-2.6,3.6-5.1,5.4-7.7c2.1,1.1,1.8,2.3,1.3,3.7
		c-3.6,9.5-9,17.6-17.9,23c-0.3,0.2-0.5,0.5-0.7,0.5c-5.7,1.8-11.1,4.9-17.3,3.7c-3.1-0.5-6-1.8-8.8-2.9
		c-9.5-4.2-16.6-10.6-19.6-20.9c-0.3-1.3-1-2.8-1.5-4.1C-37.6,921.1-37.2,921-36.9,920.7z"/>
	<path fill="#83CFEF" d="M-16.7,846.1c5.7-9.1,14-12.7,22.8-14.8c9-2.1,17.9-3.4,27.2-2.8c5.2,0.5,10.4,1,15.7,1.5
		c0.7,0.2,1.3,0.3,1.8,0.2c8.8-1.6,18.1-1.6,24.8-9.1c0.2-0.3,0.8-0.2,1.3-0.3c0,0.5,0.2,1.1-0.2,1.3c-4.6,7.7-11.4,12.4-19.4,15.3
		c-3.6,1.3-7.7,1.8-11.4,1.8c-9.8,0.3-19.4-1-29-2.3c-7-1-14.2-0.7-20.9,2C-8.2,840.4-12,843.4-16.7,846.1z"/>
</g>
<g id="N0EH6D.tif">
	<g>
		<g>
			<path fill="#1E2F5D" d="M845.2,1045.5c-4.8,1.7-9.5,3.7-14.4,5.2c-7.5,2.3-15.1,3-22.9,2.6c-0.6,0-1.3,0-1.9,0
				c-4-0.6-6.9,0.9-9.8,3.9c-6.8,7-15.6,10.9-24.9,13.7c-14.7,4.3-29.4,5.3-44.3,1.1c-14.9-4.3-25.8-13.3-32-27.6
				c-0.4-0.9-1.3-1.6-2.2-2.2c-7.3-4.5-14.1-9.5-19.1-16.7c-1.7-2.5-3.3-5.2-5-7.7c-0.3-0.6-0.9-1.2-1.5-1.3
				c-6.6-0.9-9.8-5.3-11.2-11.2c-0.8-3.2-0.9-6.6-1.4-9.6c-3.2,0-6.5,0.2-9.8,0c-5.7-0.4-11.4-1-17.1-1.7c-3.2-0.4-6.3-1.7-8.8-3.9
				c-4.3-3.7-4.1-9.1,0.4-12.5c2.6-2,5.7-2.8,8.9-3.2c6.1-0.6,11.8-2.5,16.5-6.8c-3.2-4.2-5.9-8.6-7.5-13.7
				c-4-12.6-1.3-22.1,9.3-30.1c4.4-3.3,9.4-6,14.1-8.9c-1.3-4.5-2.9-9.3-4-14.3c-2-8.8-2.5-17.7,0.1-26.5
				c2.6-8.6,8.2-14.2,16.6-17.3c1.1-0.4,2.1-1.1,2.9-2c9.2-10.4,20.3-18,34.1-20.7c5.2-1,10.6-0.9,15.8-1.2c1.2,0,2.1-0.3,2.9-1.2
				c1.2-1.4,2.6-2.6,3.7-4.1c0.6-0.8,1.3-1.7,1.4-2.6c0.2-2.5,1.5-4.3,3.3-5.7c5.2-4.3,11-6.7,17.8-6c1.7,0.2,3.6,0.9,5.1,1.9
				c1.3,0.9,2.4,1.1,3.9,0.9c9.2-1.3,18-0.3,26.2,4.3c1.8,1,3.6,2.3,5.2,3.7c1.2,1.1,2.3,1.3,3.8,1c5.5-1,11.1-1.7,16.7-0.7
				c0.1,0,0.1,0,0.2,0c7.2,1.5,9.3,3.4,9.1,10.6c-0.2,6.6-1.5,12.9-4.5,18.9c-0.2,0.5-0.3,1.1-0.2,1.6c0.7,2.7,1.5,5.3,2.1,7.5
				c7.6-2,15-4.5,22.7-6c16.4-3.1,32.4-1.9,47.2,6.6c13,7.5,21.5,18.7,26.4,32.7c4.1,11.7,5,23.8,4.1,36.1c-0.2,2.2,0.3,4.5,0.7,6.7
				c6,29.2-2.1,53.6-24.4,73.4c-5.8,5.2-12.3,9.6-19.3,13.2c-1.1,0.6-1.6,1.2-1.7,2.5c-1.5,12.1-6.9,22.1-17.1,29.1
				c-3.6,2.4-7.6,3.9-12,3.3c-6.3-0.9-8.9-5.4-6.5-11.2C843.8,1047.9,844.6,1046.7,845.2,1045.5z M720.4,848.8
				c-3.9,1.7-7.9,3.1-11.6,5.1c-3.2,1.7-5.4,4.6-6.3,8.3c-1,3.9,1.2,6.8,5.2,6.9c1.5,0,3.2,0.1,4.7-0.1c9.2-1.4,17.7-4.8,26.1-8.7
				c1.4-0.6,1.6-1.4,0.5-2.7c-0.7,0.3-1.4,0.6-2.2,0.9c-6.2,2.2-12.3,4.6-18.6,6.5c-2.8,0.9-5.9,0.9-8.8,0.8
				c-2.5-0.1-3.5-1.9-2.6-4.2c0.6-1.7,1.6-3.7,3-4.7c2.6-2,5.6-3.5,8.6-4.9c1.3-0.6,2.2-1.2,2.3-2.7c0.1-0.1,0.2-0.2,0.2-0.3
				C720.7,848.8,720.5,848.8,720.4,848.8z M892.1,875.1c0.2,0,0.4,0.1,0.6,0.1c-0.1-0.2-0.1-0.3-0.2-0.5c-1-0.8-2-1.6-3.1-2.3
				c-11.8-7.1-24.8-9.1-38.3-7.6c-17.4,1.9-33.2,8.3-47.7,18c-0.4,0.3-0.8,0.7-1.2,1c0.2,0.2,0.2,0.3,0.3,0.3
				c0.5,0.2,0.9,0.4,1.4,0.6c8.2,3.7,15.4,8.5,19.9,16.6c1.7,3.1,3.3,6.3,5.1,9.3c2.4,3.9,4.7,8,7.5,11.5c2.9,3.7,7,4.4,11.3,2.6
				c2.7-1.1,5.2-2.8,7.9-4c2.5-1.2,4.9-2.6,7.6-3.2c5.8-1.5,11.8-1.5,17.7-0.4c10.6,1.9,19.1,7.1,24.7,16.4
				c7.2,11.8,8.3,24.5,4.5,37.7c-3.8,13.5-12,24-22.4,32.9c-3.7,3.2-7.8,6.1-11.8,9.2c0.6,1.4,1.1,2.9,1.9,4.7
				c4.1-2.9,8.2-5.3,11.9-8.3c17.9-14.4,29-32.1,27.7-56c-0.3-6.2-1.1-12.3-3.8-18c-6.5-13.8-17.7-22-32-26.3
				c-2.2-0.7-4.5-1.1-6.9-1.7c3.4-4.9,4.1-10.1,3.6-16.1c6.3,4.3,8.7,10.3,9.3,17.5c4.9-1.4,6.6-5.5,8.6-9.5c2.7,2.2,4,5.1,4.5,8.3
				c0.3,2.1,0.3,4.2,0.3,6.3c0,1.8,0.4,2.2,2.1,1.5c0.8-0.3,1.5-0.8,2.2-1.3c1.2-1.1,2.2-2.3,3.5-3.7c0.6,1.4,1.4,2.7,1.8,4.1
				c0.6,2.1,0.7,4.3,1.2,6.5c0.5,2.2,1,4.4,3.1,5.8c0-2.2,0.2-4.1,0-6.1c-0.6-5.5-0.9-11.2-2-16.6c-1-5.2-3.7-9.7-7.8-13.1
				c-1.2,1.4-2.3,2.6-3.8,4.2c-1.4-6.4-3.2-11.9-9.5-14.7c0,2.6,0,4.9-2.2,6.9c-3.1-7-6-14.2-15.3-14.7c1,3.2,1.9,6.3,0.8,10
				c-4.4-6.4-10.1-10.6-16.9-13.6C870.2,867.5,881.6,868.7,892.1,875.1z M830.1,1033c-5.9-2-11.7-3.7-17.3-5.9
				c-8.5-3.3-16.3-7.6-22.4-14.6c-7.4-8.5-8.6-19.3-3.1-29c4.9-8.7,12.4-14.4,22-16.9c3.7-1,7.5-1.3,11.3-2
				c-5.7-6-10-12.7-10.9-21.4c1.6,0.8,3.5,1.5,4.2,2.9c1.6,3.3,3.7,6.1,6.4,8.6c6,5.7,13.4,8.4,21.2,10.1c2.4,0.6,4.8,0.9,7.1,1.4
				c0.6-1.9-1.6-3.4,0-5.3c6.3,2.6,12.7,3.5,19.4,3.7c3.7,0.1,7.5,0,11.3,0c0.9,0,1.9,0.4,2.8,0.6c0,0.3,0,0.5,0,0.7
				c-7.2,5.8-15.8,7.6-25,7.7c1,2.8-1.3,3.7-2.6,5.2c1.7,2,3.6,3.7,5.2,5.7c1.4,1.8,3.2,2.4,5.2,1.8c3.2-1,6.4-2.2,9.5-3.6
				c1.2-0.6,2.5-1.7,2.9-2.9c0.3-0.9-0.5-2.3-0.9-3.7c0.6,0,1.4,0,2,0.2c0.8,0.1,1.7,0.6,2.5,0.5c6-0.6,10.8-3.2,13.9-8.6
				c0.9-1.6,0.7-3-0.5-4.2c-0.8-0.8-1.7-1.5-2.7-2c-3.7-1.7-7.4-3.2-11.1-4.8c-10.1-4.2-20.3-8-30.1-12.7
				c-12.4-6-21.3-15.5-26.2-28.8c-4.6-12.4-13.3-21.2-25.6-26.4c-1.7-0.7-3.2-0.7-4.8,0.3c-4,2.3-8.1,4.4-12.1,6.6
				c-11.4,6.3-22.8,12.6-35.4,16.5c-5.9,1.9-12,3-18.2,2.4c-2.7-0.3-4.8-1.4-5.7-4.2c-0.9-2.6-2.1-5.1-3.4-7.6
				c-1.7-3.4-3.5-6.7-5.4-10.3c-4.7,4.9-8.5,9.9-11.6,15.7c5.2,1.5,8.2,4.9,10.4,9.2c1.1,2.3,2.2,4.6,3.2,6.9
				c0.9,2.1,1.7,4.2,2.6,6.3c0.8,1.8,1.9,3.3,4,3.3c2.2,0,3.1-1.8,3.7-3.6c0.5-1.4,0.7-2.9,1.1-4.7c1.5,4.5,2.1,8.7-0.3,12.8
				c-2,3.4-5.5,4.2-8.7,1.9c-1.5-1.1-3.1-2.4-4-4c-2.1-3.5-3.8-7.2-5.7-10.9c-0.9-1.6-1.5-3.4-2.5-4.9c-1.3-2.1-3.3-2.9-5.7-2.4
				c-0.5,0.1-1.1,0.7-1.2,1.1c-0.3,5.3-2.6,9.8-4.8,14.4c-2.9,6.1-4.2,12.4-3.7,19.2c0.3,4.3,1.1,8.5,2.6,12.6
				c0.8-0.3,1.3-0.6,2-0.8c-0.1-0.4-0.3-0.7-0.3-1.1c-2.4-8.4-2-16.5,2.9-24.1c0.6-0.9,0.7-2.4,0.6-3.6c0-1.4-0.4-2.9-0.7-4.4
				c0.4,0,0.6,0,0.7,0c10.9,2.2,22.3,13.7,24.5,24.5c1.2,5.8-2.3,12.6-9.8,12.6c-3.1,0-6.1,0.3-9.1,0.5c-4.3,0.4-8.6,1.1-12.2,3.8
				c-2.3,1.7-2.3,3,0.2,4.5c3.2,1.9,6.5,3.9,10.5,2.3c1.2-0.5,2.6-0.6,4-0.8c4.9-0.8,9.8-1.6,14.8-0.6c3.2,0.6,5.2,2.5,6,5.6
				c0.5,2-0.2,3-2.1,3c-4-0.1-7.9-0.3-11.8-0.7c-5.5-0.5-10.9-0.7-15.8,2.7c-0.5,0.3-1.1,0.4-1.7,0.7c-0.1-0.6-0.1-1-0.1-1.4
				c-0.1-3.3-0.3-3.7-3.5-4.8c-0.5-0.2-0.9-0.3-1.4-0.5c-2.8-0.9-5.6-1.7-6.8-4.9c-4.8,2.6-8.4,5.7-9.6,11.2c0.5,0,0.8,0.1,1.1,0.1
				c13.5,0.3,26.8,2.1,39.8,6c14.4,4.3,27.6,10.7,38.5,21.3c1.8,1.7,3.7,3.7,4.6,6c1.8,4.5,0.8,9.1-0.4,13.8c-1.7-2.4-3-4.7-4.7-6.8
				c-10.9-13.5-25.3-22.2-41.2-28.3c-8.7-3.3-17.9-4.8-27.2-5.4c-5.3-0.3-10.8-0.1-16.1,0.6c-4.8,0.7-4.8-0.3-4,5.6
				c0.7,5.7,3.1,7.5,8.7,6.9c1.7-0.2,3.5,0,5.8,0c-1.2,1.4-2.1,2.3-2.8,3.2c-0.7,0.9-0.7,1.8,0.2,2.8c12.1,14.6,26.9,24.7,46,27.3
				c4.2,0.6,8.4,1,12.6,1.5c-1.1-5.1-0.9-10.2-3.4-14.7c2.7,1.8,5.2,3.7,7.5,6c3.2,3.3,6.2,6.9,9.3,10.2c2.4,2.5,5.2,4.3,8.8,4.9
				c10.1,1.5,18.7-1.5,25.9-8.7c1-1,1.7-1.1,3.1-0.8c4.9,1.2,9.9,2.4,14.9,3.2c3.1,0.5,6.3-0.1,9.3-1.3c-1.4-2.9-5.1-4-5-8
				c1.1,0.2,1.9,0.3,2.7,0.4c4.3,0.4,8.6,1,12.9,1C824.3,1036.8,827.5,1035.5,830.1,1033z M858.1,1044.8c-1.4-0.4-3.3-1.4-3.7-0.9
				c-2,2.1-4,4.3-4.2,7.5c-0.1,1.8,0.7,2.6,2.5,2c1.9-0.6,3.9-1.4,5.5-2.6c9.9-7.3,12.9-17.6,11-29.2c-2.2-13-9.1-23.4-20.3-30.7
				c-7.3-4.7-15.3-7.4-24.1-6.4c-6.3,0.7-11.5,3.4-15.2,8.7c-0.6,0.8-1.2,1.6-1.7,2.2c-3.7-2.3-7.4-4.4-11-6.6
				c2.7-0.6,5.5-0.7,8.3-0.6c1,0,1.6-0.1,2.3-0.9c1.6-1.5,3.5-2.9,5.3-4.1c0.9-0.6,2-0.9,3.2-1.4c-2.3-1.6-4.3-3-6.4-4.4
				c2-0.5,3.9-0.7,5.7-0.4c4.1,0.7,8.1,1.4,12.3,1.4c6,0,11.9,1.4,17.5,4.9c-2.2-4.2-5.3-6.6-9-8.2c-4.2-1.8-8.7-2.6-13.2-2.7
				c-8-0.2-15.9,0.5-22.7,5.5c-7.2,5.4-12.1,12-10.4,21.7c1,5.5,3.7,9.9,8.7,12.9c-1-3.6-1.9-7-2.9-10.4c2.7,1.4,5,2.9,7.2,4.5
				c0.3,0.2,0.5,0.7,0.5,1c-0.2,3.2,1.7,5.5,3.7,7.6c5.3,5.9,12.2,8.9,19.6,10.9c7.7,2.1,15.5,2.6,23.3,0c2.3-0.8,2.6-1.7,1.4-3.7
				c-2.3,0.4-4.6,1-6.9,1.2c-7.8,0.7-15-1.3-22.1-4.3c-5.5-2.3-8.7-6.5-10.2-12.1c-2.5-9,1.7-15.9,10.7-17.5
				c6.8-1.2,13.3,0.3,19.7,2.6c0,0.2,0.1,0.3,0.1,0.6c-2.1,0.8-4.2,1.6-6.6,2.5c5.8,3.5,12.1,5.7,18.6,7.5c-1.7,0.9-3.4,1.7-5.1,2.6
				c1.7,6.5,7.4,8.4,12.6,10.8c0,0.2,0,0.3,0,0.5c-2,0.6-4.1,1.1-6.4,1.8c1.1,5.7,5,9.2,10.3,11.8c-3.2,1.7-6,0.7-8.8-0.2
				c-0.2,1.7-0.2,3.3-0.6,4.8c-0.6,1.7-0.3,3.2,0.6,4.6C858.3,1041.3,858.8,1043.2,858.1,1044.8z M686.3,961.6
				c-2.9-0.3-5.6-0.7-8.3-0.8c-0.7,0-1.6,0.4-2.1,1c-3.2,3.2-5,7.2-6.3,11.4c-0.2,0.7-0.4,1.4-0.7,2.1c-0.3,0.1-0.5,0.2-0.7,0.3
				c-1.2-1.4-2.4-2.8-3.6-4.2c-2.1-2.6-2.2-3.2,0.3-5.2c2.9-2.3,6-4.3,8.6-6.2c-3.2-1.4-7.1-2.9-10.8-4.7c-1.8-0.9-3.5-2.4-4.9-3.9
				c-1.9-2-1.4-3.8,1.1-5.1c0.4-0.2,0.9-0.3,1.4-0.6c4.1-2.5,8.2-5,12.3-7.5c0.5-0.3,1-1.2,0.9-1.6c-1-2.8-1.9-5.7-3.2-8.3
				c-1.9-3.6-4.8-4.8-8.7-4.1c-4,0.7-7.5,2.6-10.6,5.1c-7.8,6.5-10.2,15-6.9,23.7c5,13.2,15.4,21.4,26.6,29
				c4.5-5.6,10.1-9.7,16.2-13.1c0.5-0.3,1-1.1,0.9-1.6C687.3,965.3,686.8,963.3,686.3,961.6z M682.2,929.8
				c-2.5-4.9-5.1-9.8-7.3-14.7c-3.9-8.8-6.5-17.8-5-27.6c0.8-5.2,2.6-9.8,7.2-12.7c2.2-1.4,4.5-1.9,7.1-0.9c2.9,1.1,5.6,2.7,7.3,5.2
				c2.7,4,5.1,8.3,7.5,12.6c1,1.7,1.9,3.4,2.9,5.3c2.7-3.5,5.2-6.8,7.8-10.1c-1.4-1.9-2.8-3.8-4.2-5.5c-2.7-3.4-5.5-6.6-8.3-10
				c-1.4-1.7-1.9-3.5-1.7-5.7c0.4-6,3.6-10.5,8.1-14.1c5.7-4.6,12.4-7.3,19.1-10.1c0.4-0.2,0.7-0.4,1.1-0.6
				c-16.1-0.1-28.9,6.6-39.7,18.1c4.3,2,4.2,1.9,7.2-1.2c2.3-2.3,4.8-4.3,7.3-6.4c1.1-0.9,2-0.5,2.3,1.1c-5.2,3.6-8.4,8.8-11,14.4
				c-1.9-0.6-3.6-1.3-5.4-1.8c-7.1-1.9-14.6,1.4-17.4,8c-2.7,6.4-3.9,13.2-3.4,20.1c0.6,7.7,2.9,14.9,6.2,21.8c2.9,6,6,12,9,18
				C680.2,931.8,681.2,930.8,682.2,929.8z M789.4,830.2c-0.1-0.3-0.1-0.4-0.2-0.5c-0.4-0.4-0.9-0.7-1.3-1.1
				c-7.4-5.2-15.7-6-24.4-4.5c-0.7,0.1-1.4,1-2,1.6c-5.5,7.1-12.4,10.9-21.6,9.2c-0.6-0.1-1.6,0.1-2,0.6c-3.4,3.7-6.9,7.3-10,11.2
				c-2.2,2.8-3.6,6.2-4.4,10.3c2.9-1,5.5-1.7,7.9-2.7c9.3-4,18.5-8.2,27.8-12.3C769,837.7,778.9,833.1,789.4,830.2z M705.6,1046.6
				c3.4,6.6,8,11.5,14.5,14.5c6.7,3.1,13.8,5,21.2,5.7c17,1.5,32.3-2.8,45.6-13.5c1.4-1.1,2.7-2.4,4-3.6c-1.7-1.3-3-1-4.5-0.2
				c-3.7,2-7.5,3.6-11.2,5.6c-2.1,1.2-4,2.8-5.9,4.3c-0.6,0.5-1,1.3-1.5,1.9c-1.9-1.4-3.2-2.9-2.3-5.3c-2.2,0.3-4.1,1-6,0.9
				c-2.2-0.1-3.2,0.7-4.1,2.6c-0.9,2-2.1,4-4.5,4.8c-2.3-2.3-3.1-4.7-1.7-7.6c0.8-1.8,0.3-2.9-1.5-3.6c-1.2-0.5-2.4-1.2-3.6-1.9
				c-2.1-1.1-3.1-0.6-3.4,1.7c-0.7,4.1-4.7,8.5-8.6,8.7c-1.4-3.8-0.9-7.6,1-11.4c-2.6-0.1-4.7-0.2-6.9-0.4c-1.2-0.1-1.9,0.2-2.4,1.4
				c-1,2.4-2.7,4.3-5.4,6.2c-0.8-3.2-1.5-5.9-2.3-8.9C712.9,1047.8,709.3,1047.2,705.6,1046.6z M766.1,891.2
				c-2.1-5.7-4.2-11.1-6.4-17c0.9,0.6,1.4,0.9,2,1.2c5,3.3,9.9,6.6,14.9,9.8c0.5,0.3,1.3,0.7,1.8,0.6c2-0.7,3.9-1.7,5.9-2.6
				c-3.6-9.5-7.1-18.9-10.7-28.3c-2.3,1-4.4,1.9-6.5,2.9c2.1,5.7,4.2,11.2,6.4,17.1c-5.9-3.9-11.3-7.5-16.8-11.1
				c-0.6-0.3-1.4-0.9-1.9-0.7c-2,0.7-4,1.7-6,2.6c3.6,9.5,7.1,18.8,10.6,28.2C761.8,893.1,763.9,892.2,766.1,891.2z M744,868
				c-2.3,1-4.4,2-6.6,2.9c1.9,5,3.7,9.8,5.5,14.5c0.6,1.6,1.1,3.2,1.4,4.9c0.4,2.4-0.8,4.2-2.9,5c-2.2,0.8-3.9,0.2-5.2-2.1
				c-0.9-1.4-1.4-3.1-2.1-4.6c-1.8-4.6-3.5-9.2-5.3-14c-2.3,1-4.4,2-6.6,2.9c2.6,6.6,4.9,13.2,7.7,19.5c2.3,5.2,6.7,7,12.1,5.5
				c8.2-2.4,11.5-8.3,8.7-16.4C748.7,880.2,746.3,874.3,744,868z M887.9,946.9c3.2-0.1,6.8-0.5,10.1-2.3c3.3-1.8,4.2-4.5,2.5-7.8
				c-0.6-1.3-1.4-2.5-2.2-3.6c-3.5-4.7-8-7.9-14-8.9c-5.9-0.9-9.8,2.3-9.6,8.2c0,1.8,0.3,3.7,0.9,5.4
				C877.9,945.3,879.1,946.6,887.9,946.9z M800,854.1c-1-2.6-1.8-5.1-2.8-7.4c-0.2-0.5-1.1-1.1-1.7-1.1c-3-0.1-5.7,0.9-8,2.8
				c-7.4,5.9-7.8,17.8-1,24.8c5.5,5.6,14.1,5.7,19.6,0.1c0.4-0.4,0.7-1.1,0.6-1.6c-0.9-2.6-1.9-5.2-2.9-7.8
				c-3.3,5.4-6.5,6.9-10.2,5.1s-5.6-7.5-3.9-11.5C791.2,853.8,794.8,852.5,800,854.1z M696.3,905.6c-0.6-1.2-1.1-2.4-1.6-3.5
				c-2.5-5.1-5.1-10.1-9.2-14.2c-1.7-1.7-3.6-2.9-6.1-2.1c-2.3,0.8-3.2,2.8-3.7,5.1c-0.9,4.7-0.1,9.3,1.5,13.7c0.8,2,2.2,3.6,4.3,4
				C686.9,909.8,692.1,910.4,696.3,905.6z M873.9,1006.7c3.7-2.6,7.6-5,11.3-7.8c1.8-1.3,3.5-2.9,4.9-4.7c1.9-2.4,1.8-5,0-7.5
				c-1.8-2.4-3.8-3.1-6.9-2.1c-1.3,0.4-2.6,0.9-3.7,1.5c-4.3,2.5-8.6,5.1-12.9,7.7C868.8,997.8,871.2,1002.1,873.9,1006.7z
				 M884.6,952.6c0,0.2-0.1,0.4-0.1,0.6c1.3,0.5,2.5,1.1,3.8,1.5c1.7,0.5,3.6,0.8,5.4,1.3c5.5,1.8,8,6.9,6,12.4
				c-0.6,1.5-1.3,3-2.2,4.3c-1.6,2.2-3.4,4.1-5.2,6.1c-1.8,2-1.3,4.1,1.3,4.8c1.2,0.3,2.7,0.1,3.8-0.3c1.1-0.5,2.1-1.4,2.9-2.4
				c5.2-6.3,7.3-13.7,6.3-21.8c-0.4-3.4-2.4-5.7-5.5-6.9C895.5,949.8,890,950.9,884.6,952.6z M650.6,975.2c-5,3.5-10.5,6-16.7,7
				c-1.9,0.3-3.8,0.6-5.6,1c-1.3,0.3-3.4,0.5-3.2,2.1c0.1,0.9,2.1,2,3.4,2.3c7.8,1.4,15.6,2.4,23.5,1.5c3.7-0.4,7.4-1.1,10.5-3.2
				C658.5,982.3,654.6,978.8,650.6,975.2z M685.9,937.9c-8.7,1.5-14.5,8.7-22.6,11.5c6.9,4.6,15.9,7.3,20.9,6
				C684.7,949.5,685.3,943.8,685.9,937.9z M828,1001.4c0.4,2.9,0.2,3.7-1.3,6.4c-0.3,0.6-0.7,1.2-1.1,1.8c-1.3,2.4-1,3.5,1.3,4.9
				c4.2,2.5,8.6,3.4,13.4,2.9c3.5-0.4,4.3-1.7,2.7-4.9c-0.3-0.7-0.8-1.4-1.2-2C838.5,1005.8,833.8,1003,828,1001.4z M704.9,951.7
				c2.4-2.1,4.7-2.6,7.5-1.7c-2-4-5.2-6-8.7-7.7c-5.8,6.2-7.2,17.1-3.1,22.4c0.3-3.3-0.5-6.7,1.7-9.7c2,2.9,4.6,3.7,7.8,3.8
				C708.3,956.4,706.6,954.1,704.9,951.7z M744.6,829.7c4.5-0.5,8.1-2.3,10.7-5.7c0.6-0.7,0.9-2.2,0.5-2.8c-0.5-0.8-1.8-1.5-2.7-1.4
				c-4,0.3-7.8,1.4-10.6,4.6c-1,1.1-2.3,2.5-1.4,3.9C741.8,829,743.5,829.2,744.6,829.7z M869.8,945.5c-0.6-4-1.5-7.8-4.1-10.9
				c-1.3-1.6-3-2.6-4.9-2.3c0.9,2.9,1.7,5.8,2.6,8.7C864.4,944.4,866.1,945.7,869.8,945.5z M682.1,916.7c1.2,3.7,4.9,5.7,8,4.7
				c0.4-0.1,0.9-0.5,1.1-0.9c0.7-1.5,1.2-3.1,2-5.1C689.2,915.9,685.7,916.3,682.1,916.7z M819,1010.1c2.1-2.6,3.6-5.5,3.3-8.9
				c-0.1-0.8-1.2-1.8-2.1-2.2c-0.5-0.2-1.8,0.4-2.2,1C816.2,1002.4,816.8,1007.7,819,1010.1z M893.3,876.1c0-0.1,0.2-0.3,0.1-0.3
				c0-0.1-0.2-0.2-0.3-0.3c0,0.1-0.1,0.3-0.2,0.4C893,875.9,893.2,876,893.3,876.1z"/>
			<path fill="#FAFBFC" d="M830.1,1033c-2.6,2.6-5.8,3.8-9.2,3.8c-4.3,0-8.6-0.6-12.9-1c-0.8-0.1-1.6-0.3-2.7-0.4
				c-0.1,4,3.6,5.1,5,8c-3,1.2-6.2,1.8-9.3,1.3c-5-0.8-10-2-14.9-3.2c-1.4-0.3-2.1-0.2-3.1,0.8c-7.2,7.2-15.8,10.3-25.9,8.7
				c-3.5-0.6-6.4-2.3-8.8-4.9c-3.2-3.4-6.1-6.9-9.3-10.2c-2.2-2.3-4.7-4.2-7.5-6c2.6,4.6,2.4,9.6,3.4,14.7
				c-4.3-0.5-8.5-0.9-12.6-1.5c-19.2-2.6-33.9-12.7-46-27.3c-0.9-1.1-0.9-1.9-0.2-2.8c0.7-0.9,1.5-1.8,2.8-3.2c-2.3,0-4-0.2-5.8,0
				c-5.6,0.6-8-1.2-8.7-6.9c-0.8-5.9-0.8-4.9,4-5.6c5.3-0.8,10.7-1,16.1-0.6c9.3,0.6,18.5,2.1,27.2,5.4c16,6.1,30.3,14.9,41.2,28.3
				c1.7,2.1,3.1,4.4,4.7,6.8c1.2-4.7,2.2-9.3,0.4-13.8c-0.9-2.3-2.8-4.2-4.6-6c-10.9-10.6-24.1-17-38.5-21.3
				c-13-3.8-26.3-5.7-39.8-6c-0.3,0-0.6,0-1.1-0.1c1.1-5.5,4.8-8.6,9.6-11.2c1.1,3.2,4,4,6.8,4.9c0.5,0.1,0.9,0.3,1.4,0.5
				c3.2,1.1,3.4,1.4,3.5,4.8c0,0.3,0.1,0.7,0.1,1.4c0.7-0.3,1.3-0.4,1.7-0.7c4.9-3.4,10.3-3.2,15.8-2.7c3.9,0.4,7.9,0.6,11.8,0.7
				c2,0,2.6-1,2.1-3c-0.8-3.1-2.7-5-6-5.6c-5-0.9-9.9-0.1-14.8,0.6c-1.3,0.2-2.7,0.3-4,0.8c-4,1.6-7.3-0.4-10.5-2.3
				c-2.5-1.5-2.4-2.8-0.2-4.5c3.6-2.7,7.9-3.4,12.2-3.8c3-0.3,6.1-0.5,9.1-0.5c7.5,0,11-6.9,9.8-12.6c-2.2-10.8-13.6-22.4-24.5-24.5
				c-0.1,0-0.3,0-0.7,0c0.3,1.5,0.6,2.9,0.7,4.4c0,1.2,0,2.7-0.6,3.6c-4.9,7.6-5.3,15.6-2.9,24.1c0.1,0.3,0.2,0.7,0.3,1.1
				c-0.6,0.3-1.2,0.5-2,0.8c-1.5-4.1-2.3-8.3-2.6-12.6c-0.5-6.7,0.8-13.1,3.7-19.2c2.2-4.6,4.6-9.2,4.8-14.4c0-0.4,0.7-1,1.2-1.1
				c2.4-0.4,4.4,0.3,5.7,2.4c0.9,1.6,1.7,3.3,2.5,4.9c1.9,3.7,3.6,7.4,5.7,10.9c0.9,1.6,2.5,2.9,4,4c3.2,2.3,6.7,1.5,8.7-1.9
				c2.4-4.1,1.8-8.3,0.3-12.8c-0.4,1.8-0.7,3.3-1.1,4.7c-0.6,1.8-1.5,3.5-3.7,3.6c-2.1,0-3.3-1.4-4-3.3c-0.9-2.1-1.7-4.2-2.6-6.3
				c-1-2.3-2-4.7-3.2-6.9c-2.2-4.3-5.2-7.8-10.4-9.2c3.1-5.8,6.9-10.8,11.6-15.7c1.9,3.6,3.7,6.9,5.4,10.3c1.2,2.5,2.4,5,3.4,7.6
				c1,2.9,3,3.9,5.7,4.2c6.3,0.6,12.3-0.5,18.2-2.4c12.5-3.9,23.9-10.2,35.4-16.5c4-2.2,8.1-4.3,12.1-6.6c1.7-0.9,3.1-1,4.8-0.3
				c12.3,5.2,21,14,25.6,26.4c4.9,13.3,13.8,22.8,26.2,28.8c9.8,4.7,20.1,8.5,30.1,12.7c3.7,1.6,7.5,3.1,11.1,4.8
				c1,0.5,1.9,1.2,2.7,2c1.3,1.2,1.4,2.6,0.5,4.2c-3.1,5.4-7.9,8-13.9,8.6c-0.8,0.1-1.6-0.3-2.5-0.5c-0.7-0.1-1.4-0.1-2-0.2
				c0.4,1.5,1.3,2.9,0.9,3.7c-0.5,1.1-1.7,2.3-2.9,2.9c-3.1,1.4-6.3,2.6-9.5,3.6c-2,0.6-3.8,0-5.2-1.8c-1.6-2-3.4-3.8-5.2-5.7
				c1.4-1.5,3.7-2.4,2.6-5.2c9.2,0,17.8-1.8,25-7.7c0-0.3,0-0.5,0-0.7c-0.9-0.2-1.9-0.6-2.8-0.6c-3.7-0.1-7.5,0-11.3,0
				c-6.6-0.1-13.1-1.1-19.4-3.7c-1.5,1.8,0.7,3.4,0,5.3c-2.3-0.4-4.7-0.8-7.1-1.4c-7.8-1.8-15.2-4.5-21.2-10.1
				c-2.6-2.5-4.8-5.3-6.4-8.6c-0.6-1.4-2.6-2.1-4.2-2.9c0.9,8.6,5.2,15.4,10.9,21.4c-3.9,0.7-7.7,1-11.3,2c-9.6,2.6-17,8.2-22,16.9
				c-5.5,9.7-4.3,20.5,3.1,29c6.1,7,13.9,11.3,22.4,14.6C818.5,1029.2,824.2,1031,830.1,1033z M794,930.8c-3.4,2.2-6.5,4.6-10,6.3
				c-9.5,4.7-19.2,9.1-28.7,13.8c-4.4,2.2-8.8,4.6-13,7.1c-1.2,0.7-2.1,2-3.4,3.4c1.1,0,1.6,0,2,0c3.3,0,4.7,1,5.1,3.6
				c0.2,1,0,2.1,0.2,3.2c0.3,1.7,0.3,3.5,1,4.9c3.2,6,11.5,10.1,18.3,9.5c7.2-0.7,12.8-4,17.2-9.7c7.3-9.2,10.3-19.2,5.9-30.7
				c-0.2-0.5,0.1-1.3,0.5-1.7C791.2,937.5,792.9,934.4,794,930.8z M803.7,926c0.3-1.6,0.7-2.6,0.8-3.6c0.7-7.2-5-12.9-12.7-12.6
				c-5.4,0.2-10.2,2.3-14.8,4.9c-10.5,5.9-19.3,13.8-27.8,22.2c-1.6,1.6-3.5,3.1-5.5,4.3c-1.7,1-3.7,1.3-5.4,0
				c-1.7-1.3-1.7-3.3-1.4-5.3c0.2-1.1,0.4-2.2,0.6-3.3c-0.3-0.1-0.5-0.2-0.8-0.3c-1.1,2-2.6,3.8-3.4,5.9c-2.6,7.1,2.4,13.1,9.9,12.3
				c5.2-0.6,8.7-3.7,12-7.4c4.2-4.7,8.4-9.5,13-13.7c5.7-5.2,12.1-9.1,19.9-10.4C794.3,918.1,800.5,918.7,803.7,926z M721.6,1021
				c-10.5-7.6-21.6-12.4-34.8-10.7c1.1,1.1,2.3,2.2,3.6,2.3c4.2,0.5,6.9,2.7,8.8,6.2c0.7,1.3,1.4,2.7,2.1,3.9c2-0.9,3.7-2,5.5-2.6
				c2.6-0.9,5.2-1.2,7.5,0.7C716.6,1022.7,718.9,1022.4,721.6,1021z M770,1019.7c2,7.9,1.8,15.5,0.2,23.3c3.4-1.7,5.9-4.2,8-7.2
				c0.3-0.4,0.4-1.1,0.3-1.6C777.4,1028.6,775.1,1023.5,770,1019.7z M787.1,901.3c3.7,0,7.3-0.3,10.9,0.1c3.9,0.3,6.9,2.6,9.5,6.2
				c0.3-2,0.8-3.4,0.9-4.9c0.1-2.7-1-4.3-3.3-5.3c-4.6-1.9-14.3-0.1-17.8,3.4C787.1,900.9,787.1,901,787.1,901.3z"/>
			<path fill="#A6B0B7" d="M892.1,875.1c-10.5-6.4-21.8-7.7-33.8-5.7c6.7,2.9,12.4,7.2,16.9,13.6c1.1-3.7,0.3-6.8-0.8-10
				c9.4,0.6,12.3,7.7,15.3,14.7c2.2-2,2.2-4.3,2.2-6.9c6.2,2.8,8.1,8.3,9.5,14.7c1.5-1.6,2.6-2.8,3.8-4.2c4,3.4,6.7,7.9,7.8,13.1
				c1.1,5.5,1.4,11.1,2,16.6c0.2,2,0,3.9,0,6.1c-2.2-1.4-2.6-3.7-3.1-5.8c-0.5-2.1-0.6-4.3-1.2-6.5c-0.3-1.4-1.1-2.7-1.8-4.1
				c-1.3,1.4-2.4,2.6-3.5,3.7c-0.6,0.6-1.4,1-2.2,1.3c-1.7,0.7-2.1,0.3-2.1-1.5c0-2.1,0-4.3-0.3-6.3c-0.4-3.2-1.8-6.1-4.5-8.3
				c-2,4-3.7,8.1-8.6,9.5c-0.6-7.2-2.9-13.2-9.3-17.5c0.5,5.9-0.3,11.2-3.6,16.1c2.5,0.6,4.7,1.1,6.9,1.7
				c14.4,4.3,25.5,12.5,32,26.3c2.7,5.7,3.4,11.8,3.8,18c1.2,23.9-9.8,41.6-27.7,56c-3.7,3-7.8,5.5-11.9,8.3
				c-0.7-1.8-1.4-3.3-1.9-4.7c4-3.1,8-6,11.8-9.2c10.4-8.9,18.6-19.5,22.4-32.9c3.7-13.2,2.6-25.9-4.5-37.7
				c-5.6-9.3-14.1-14.5-24.7-16.4c-5.9-1.1-11.9-1.1-17.7,0.4c-2.6,0.7-5.1,2-7.6,3.2c-2.7,1.3-5.2,2.9-7.9,4
				c-4.3,1.8-8.4,1-11.3-2.6c-2.8-3.6-5.1-7.6-7.5-11.5c-1.8-3-3.4-6.2-5.1-9.3c-4.5-8.1-11.8-12.9-19.9-16.6
				c-0.5-0.2-0.9-0.4-1.4-0.6c0,0-0.1-0.1-0.3-0.3c0.4-0.3,0.8-0.7,1.2-1c14.5-9.6,30.3-16.1,47.7-18c13.5-1.5,26.4,0.5,38.3,7.6
				c1.1,0.6,2,1.5,3.1,2.3C892.3,874.9,892.2,875.1,892.1,875.1z M861.9,891c2.2,7.5,0.1,14.1-2.9,20.7c3.4-1.2,6.5-2.3,9.6-3.4
				c0.4-0.2,0.9-0.9,1-1.4C870.4,901.5,867,894.2,861.9,891z M841.3,920.1c0.1,0.2,0.3,0.3,0.4,0.5c2.6-1.5,5.1-2.9,7.6-4.5
				c0.6-0.4,1.1-1.3,1.2-2c1.2-5.5-2-11.8-7.3-14.2C845.4,906.9,843.7,913.6,841.3,920.1z M836.5,874.7c0,0.3,0.1,0.5,0.1,0.8
				c7.7,2,15.5,3.9,22.1,9.7c-2.3-6.3-6.5-10.1-11.7-12.9c-0.3-0.2-0.9-0.2-1.2-0.1C842.6,872.9,839.5,873.8,836.5,874.7z
				 M839.4,890.8c0-0.4,0-0.6-0.1-0.8c-2.4-5.2-6.6-8.5-11.7-10.9c-0.3-0.1-0.7-0.3-1-0.2c-3.4,0.6-6.6,1.9-9.8,4
				C824.9,884.4,832.7,885.7,839.4,890.8z"/>
			<path fill="#A5AFB6" d="M858.1,1044.8c0.6-1.7,0.2-3.5-0.8-5.3c-0.8-1.5-1.1-2.9-0.6-4.6c0.5-1.4,0.4-3.1,0.6-4.8
				c2.8,0.9,5.7,1.9,8.8,0.2c-5.2-2.5-9.1-6-10.3-11.8c2.3-0.6,4.3-1.2,6.4-1.8c0-0.2,0-0.3,0-0.5c-5.2-2.4-10.9-4.3-12.6-10.8
				c1.7-0.9,3.4-1.7,5.1-2.6c-6.6-1.8-12.8-4-18.6-7.5c2.3-0.9,4.4-1.7,6.6-2.5c0-0.2-0.1-0.3-0.1-0.6c-6.4-2.2-12.9-3.7-19.7-2.6
				c-9,1.6-13.2,8.5-10.7,17.5c1.5,5.5,4.8,9.7,10.2,12.1c7.1,3,14.4,5,22.1,4.3c2.3-0.2,4.6-0.8,6.9-1.2c1.1,2,0.9,3-1.4,3.7
				c-7.8,2.6-15.5,2.1-23.3,0c-7.4-2-14.3-5-19.6-10.9c-2-2.2-3.9-4.4-3.7-7.6c0-0.3-0.2-0.9-0.5-1c-2.3-1.6-4.5-3.1-7.2-4.5
				c0.9,3.4,1.9,6.8,2.9,10.4c-5-3-7.7-7.3-8.7-12.9c-1.7-9.7,3.2-16.3,10.4-21.7c6.8-5,14.7-5.7,22.7-5.5c4.6,0.1,9,0.9,13.2,2.7
				c3.7,1.6,6.9,3.9,9,8.2c-5.7-3.5-11.5-4.9-17.5-4.9c-4.2,0-8.2-0.8-12.3-1.4c-1.8-0.3-3.7,0-5.7,0.4c2,1.4,4.1,2.9,6.4,4.4
				c-1.2,0.5-2.3,0.8-3.2,1.4c-1.8,1.3-3.7,2.6-5.3,4.1c-0.8,0.7-1.3,0.9-2.3,0.9c-2.8-0.1-5.6,0.1-8.3,0.6c3.6,2.2,7.2,4.3,11,6.6
				c0.5-0.6,1.1-1.4,1.7-2.2c3.7-5.3,9-8,15.2-8.7c8.9-1,16.9,1.7,24.1,6.4c11.2,7.2,18.1,17.6,20.3,30.7c2,11.6-1,21.8-11,29.2
				c-1.6,1.2-3.6,2-5.5,2.6c-1.8,0.6-2.6-0.3-2.5-2c0.2-3.1,2.2-5.4,4.2-7.5C854.9,1043.5,856.7,1044.4,858.1,1044.8z"/>
			<path fill="#A6AFB7" d="M686.3,961.6c0.4,1.8,1,3.8,1.3,5.8c0.1,0.5-0.4,1.3-0.9,1.6c-6.1,3.4-11.7,7.5-16.2,13.1
				c-11.2-7.6-21.6-15.8-26.6-29c-3.3-8.7-0.9-17.2,6.9-23.7c3.1-2.6,6.6-4.4,10.6-5.1c4-0.7,6.9,0.5,8.7,4.1
				c1.4,2.6,2.3,5.5,3.2,8.3c0.1,0.4-0.4,1.3-0.9,1.6c-4,2.6-8.2,5.1-12.3,7.5c-0.4,0.3-0.9,0.3-1.4,0.6c-2.5,1.3-3,3-1.1,5.1
				c1.4,1.5,3.1,3,4.9,3.9c3.7,1.8,7.5,3.3,10.8,4.7c-2.6,1.8-5.7,3.8-8.6,6.2c-2.5,2-2.4,2.6-0.3,5.2c1.1,1.4,2.4,2.8,3.6,4.2
				c0.3-0.1,0.5-0.2,0.7-0.3c0.2-0.7,0.5-1.4,0.7-2.1c1.3-4.3,3.1-8.2,6.3-11.4c0.5-0.5,1.4-1,2.1-1
				C680.7,960.9,683.4,961.3,686.3,961.6z M665.3,932c-4.8,0.3-9.1,1.7-12.5,5.1c-4.7,4.7-4.8,10.6-0.2,15.8
				C653.3,943.7,657.5,936.7,665.3,932z"/>
			<path fill="#A5AFB6" d="M682.2,929.8c-1,1-2,2-3.3,3.2c-3-6-6.1-11.9-9-18c-3.3-6.9-5.6-14.1-6.2-21.8c-0.5-7,0.6-13.8,3.4-20.1
				c2.8-6.6,10.3-9.9,17.4-8c1.7,0.5,3.4,1.1,5.4,1.8c2.6-5.7,5.8-10.9,11-14.4c-0.3-1.6-1.2-2-2.3-1.1c-2.5,2-5,4.1-7.3,6.4
				c-3.1,3.1-3,3.2-7.2,1.2c10.7-11.5,23.6-18.1,39.7-18.1c-0.3,0.2-0.7,0.4-1.1,0.6c-6.7,2.7-13.4,5.4-19.1,10.1
				c-4.5,3.7-7.7,8-8.1,14.1c-0.1,2.2,0.3,4,1.7,5.7c2.8,3.3,5.6,6.6,8.3,10c1.4,1.7,2.7,3.6,4.2,5.5c-2.6,3.4-5.1,6.6-7.8,10.1
				c-1-1.9-1.9-3.7-2.9-5.3c-2.5-4.2-4.8-8.5-7.5-12.6c-1.7-2.6-4.4-4.1-7.3-5.2c-2.6-1-4.9-0.6-7.1,0.9c-4.6,2.9-6.4,7.5-7.2,12.7
				c-1.4,9.8,1.1,18.9,5,27.6C677.1,920.1,679.7,924.9,682.2,929.8z"/>
			<path fill="#98BDE1" d="M789.4,830.2c-10.6,2.9-20.4,7.5-30.3,11.9c-9.2,4.1-18.5,8.3-27.8,12.3c-2.4,1.1-5,1.7-7.9,2.7
				c0.8-4.1,2.2-7.5,4.4-10.3c3.1-3.9,6.6-7.5,10-11.2c0.4-0.4,1.4-0.6,2-0.6c9.2,1.6,16.1-2.2,21.6-9.2c0.5-0.7,1.2-1.5,2-1.6
				c8.6-1.5,17-0.7,24.4,4.5c0.5,0.3,0.9,0.7,1.3,1.1C789.3,829.8,789.3,829.9,789.4,830.2z"/>
			<path fill="#97BCE0" d="M705.6,1046.6c3.8,0.6,7.3,1.2,10.3,1.7c0.8,3,1.5,5.8,2.3,8.9c2.7-1.8,4.4-3.7,5.4-6.2
				c0.5-1.2,1.2-1.5,2.4-1.4c2.2,0.2,4.4,0.3,6.9,0.4c-1.9,3.7-2.3,7.5-1,11.4c4-0.2,8-4.6,8.6-8.7c0.4-2.3,1.4-2.8,3.4-1.7
				c1.2,0.6,2.3,1.4,3.6,1.9c1.8,0.7,2.3,1.8,1.5,3.6c-1.3,2.9-0.6,5.4,1.7,7.6c2.3-0.8,3.5-2.8,4.5-4.8c0.9-1.9,1.9-2.7,4.1-2.6
				c1.9,0.1,3.7-0.5,6-0.9c-0.9,2.4,0.5,3.9,2.3,5.3c0.5-0.6,0.9-1.4,1.5-1.9c1.9-1.5,3.8-3.2,5.9-4.3c3.7-2,7.5-3.7,11.2-5.6
				c1.5-0.8,2.9-1.2,4.5,0.2c-1.4,1.2-2.6,2.5-4,3.6c-13.3,10.7-28.6,15.1-45.6,13.5c-7.4-0.7-14.5-2.6-21.2-5.7
				C713.6,1058.1,708.9,1053.2,705.6,1046.6z"/>
			<path fill="#98BEE2" d="M887.9,946.9c-8.7-0.3-10-1.6-12.3-9c-0.6-1.7-0.8-3.6-0.9-5.4c-0.1-5.9,3.7-9.2,9.6-8.2
				c5.9,0.9,10.4,4.1,14,8.9c0.9,1.1,1.6,2.3,2.2,3.6c1.7,3.4,0.8,6-2.5,7.8C894.7,946.4,891.1,946.8,887.9,946.9z"/>
			<path fill="#98BDE1" d="M696.3,905.6c-4.3,4.8-9.5,4.2-14.7,3.1c-2.2-0.5-3.6-2-4.3-4c-1.7-4.4-2.4-9-1.5-13.7
				c0.4-2.3,1.3-4.3,3.7-5.1c2.5-0.9,4.4,0.4,6.1,2.1c4,4.1,6.6,9.1,9.2,14.2C695.3,903.2,695.7,904.4,696.3,905.6z"/>
			<path fill="#98BDE1" d="M873.9,1006.7c-2.6-4.6-5.1-8.8-7.4-12.7c4.3-2.6,8.6-5.2,12.9-7.7c1.1-0.7,2.4-1.1,3.7-1.5
				c3.1-1,5.1-0.3,6.9,2.1c1.8,2.4,1.9,5.1,0,7.5c-1.4,1.7-3.1,3.4-4.9,4.7C881.5,1001.7,877.6,1004.1,873.9,1006.7z"/>
			<path fill="#97BCE0" d="M884.6,952.6c5.4-1.7,10.9-2.7,16.5-0.5c3.2,1.3,5.2,3.6,5.5,6.9c0.9,8.1-1.1,15.5-6.3,21.8
				c-0.8,1-1.8,2-2.9,2.4c-1.1,0.5-2.6,0.6-3.8,0.3c-2.6-0.7-3.1-2.8-1.3-4.8s3.6-4,5.2-6.1c0.9-1.3,1.7-2.8,2.2-4.3
				c2-5.5-0.6-10.6-6-12.4c-1.7-0.6-3.6-0.8-5.4-1.3c-1.3-0.4-2.6-1-3.8-1.5C884.5,953,884.6,952.7,884.6,952.6z"/>
			<path fill="#A3ADB5" d="M650.6,975.2c4.1,3.7,8,7.2,12,10.7c-3.1,2.1-6.8,2.8-10.5,3.2c-7.9,0.9-15.7-0.1-23.5-1.5
				c-1.3-0.2-3.3-1.4-3.4-2.3c-0.2-1.6,1.8-1.8,3.2-2.1c1.8-0.5,3.7-0.7,5.6-1C640,981.2,645.5,978.7,650.6,975.2z M647.7,979.9
				c0,1.4-0.1,2.6,0,3.8c0.3,2.6,1.4,3.4,4,2.9c1.1-0.3,2.1-0.6,3.4-1C652.6,983.7,650.3,982,647.7,979.9z"/>
			<path fill="#97BDE1" d="M828,1001.4c5.7,1.6,10.4,4.4,13.8,9.1c0.5,0.6,0.9,1.3,1.2,2c1.5,3.2,0.8,4.4-2.7,4.9
				c-4.8,0.6-9.3-0.4-13.4-2.9c-2.3-1.4-2.6-2.5-1.3-4.9c0.3-0.6,0.7-1.2,1.1-1.8C828.2,1005.2,828.4,1004.4,828,1001.4z"/>
			<path fill="#94B9DD" d="M720.7,849.1c-0.1,1.4-1.1,2-2.3,2.7c-3,1.4-6,3-8.6,4.9c-1.4,1.1-2.4,3-3,4.7c-0.9,2.3,0.2,4.1,2.6,4.2
				c2.9,0.2,6,0.1,8.8-0.8c6.3-1.9,12.4-4.3,18.6-6.5c0.7-0.3,1.4-0.6,2.2-0.9c1.1,1.2,0.9,2-0.5,2.7c-8.4,3.9-16.9,7.3-26.1,8.7
				c-1.5,0.3-3.1,0.2-4.7,0.1c-4-0.2-6.2-3-5.2-6.9c0.9-3.6,3.1-6.5,6.3-8.3c3.7-2,7.7-3.4,11.6-5.1
				C720.5,848.9,720.6,849,720.7,849.1z"/>
			<path fill="#F2F3F5" d="M704.9,951.7c1.7,2.4,3.4,4.8,5.1,7.2c-3.1-0.1-5.8-1-7.8-3.8c-2.2,3-1.4,6.4-1.7,9.7
				c-4-5.3-2.7-16.2,3.1-22.4c3.5,1.7,6.8,3.7,8.7,7.7C709.6,949.1,707.3,949.6,704.9,951.7z"/>
			<path fill="#96BCE0" d="M744.6,829.7c-1.2-0.5-2.9-0.6-3.4-1.5c-0.9-1.4,0.3-2.8,1.4-3.9c2.8-3.2,6.6-4.3,10.6-4.6
				c0.9,0,2.3,0.6,2.7,1.4c0.4,0.6,0,2.1-0.5,2.8C752.7,827.4,749.2,829.2,744.6,829.7z"/>
			<path fill="#A3ACB5" d="M869.8,945.5c-3.7,0.1-5.4-1.1-6.4-4.5c-0.9-2.9-1.7-5.7-2.6-8.7c1.9-0.3,3.6,0.7,4.9,2.3
				C868.2,937.8,869.2,941.5,869.8,945.5z"/>
			<path fill="#96BBDF" d="M682.1,916.7c3.7-0.4,7.2-0.9,11.1-1.3c-0.8,2-1.3,3.6-2,5.1c-0.2,0.4-0.6,0.7-1.1,0.9
				C687,922.4,683.3,920.4,682.1,916.7z"/>
			<path fill="#95BADE" d="M819,1010.1c-2.1-2.4-2.7-7.8-1.1-10.1c0.4-0.6,1.7-1.2,2.2-1c0.9,0.4,2.1,1.4,2.1,2.2
				C822.5,1004.7,821.1,1007.5,819,1010.1z"/>
			<path fill="#A6B0B7" d="M893.3,876.1c-0.1,0-0.3-0.1-0.3-0.2c0-0.1,0.1-0.3,0.2-0.4c0.1,0.1,0.2,0.2,0.3,0.3
				C893.5,875.9,893.4,876,893.3,876.1z"/>
			<path fill="#A6B0B7" d="M892.5,874.8c0.1,0.2,0.1,0.3,0.2,0.5c-0.2,0-0.4-0.1-0.6-0.1C892.2,875.1,892.3,874.9,892.5,874.8z"/>
			<path fill="#94B9DD" d="M720.4,848.8c0.2,0,0.3,0,0.5,0c-0.1,0.1-0.2,0.2-0.2,0.3C720.6,849,720.5,848.9,720.4,848.8z"/>
			<path fill="#1F2F5D" d="M794,930.8c-1.1,3.5-2.8,6.6-4.9,9.6c-0.3,0.5-0.7,1.3-0.5,1.7c4.4,11.5,1.4,21.5-5.9,30.7
				c-4.5,5.6-10.1,8.9-17.2,9.7c-6.8,0.7-15.1-3.4-18.3-9.5c-0.8-1.4-0.8-3.3-1-4.9c-0.2-1.1,0-2.1-0.2-3.2
				c-0.4-2.6-1.8-3.5-5.1-3.6c-0.4,0-0.9,0-2,0c1.4-1.4,2.3-2.7,3.4-3.4c4.3-2.5,8.6-4.9,13-7.1c9.5-4.7,19.2-9,28.7-13.8
				C787.5,935.4,790.6,933,794,930.8z M783.9,956.4c1.3-2,2-4.1,1.7-6.4c-0.4-3-3.1-4.5-5.9-3.4c-2,0.9-4,1.7-6.1,2.5
				c-6.3,2.4-12.4,5-17.6,9.5c-3.2,2.8-4,6.2-3.7,10.1c0.3,4.1,4.1,8,7.7,8.3c-3.1-6.5-2.6-11.3,1.4-15.1c2.7,3.6,6.1,5.5,11.2,4.3
				c-3.4-2.5-5.8-5.2-7.2-8.7C771.7,951.8,778.8,951.4,783.9,956.4z"/>
			<path fill="#1F305E" d="M803.7,926c-3.2-7.4-9.4-8-15.5-7c-7.8,1.3-14.2,5.2-19.9,10.4c-4.6,4.2-8.9,9-13,13.7
				c-3.3,3.7-6.8,6.8-12,7.4c-7.5,0.8-12.5-5.2-9.9-12.3c0.8-2.1,2.2-3.9,3.4-5.9c0.3,0.1,0.5,0.2,0.8,0.3c-0.2,1.1-0.4,2.2-0.6,3.3
				c-0.3,2-0.3,3.9,1.4,5.3c1.7,1.4,3.7,1,5.4,0c2-1.2,3.9-2.6,5.5-4.3c8.5-8.4,17.3-16.3,27.8-22.2c4.6-2.6,9.4-4.7,14.8-4.9
				c7.7-0.3,13.4,5.4,12.7,12.6C804.4,923.4,804.1,924.5,803.7,926z"/>
			<path fill="#20315F" d="M721.6,1021c-2.7,1.4-5,1.7-7.3-0.3c-2.2-1.9-4.9-1.7-7.5-0.7c-1.8,0.7-3.6,1.7-5.5,2.6
				c-0.6-1.2-1.3-2.6-2.1-3.9c-1.9-3.5-4.7-5.7-8.8-6.2c-1.3-0.1-2.5-1.2-3.6-2.3C700.1,1008.6,711.2,1013.3,721.6,1021z"/>
			<path fill="#223360" d="M770,1019.7c5.1,3.8,7.4,8.9,8.5,14.6c0.1,0.5,0,1.2-0.3,1.6c-2,3-4.6,5.5-8,7.2
				C771.8,1035.2,771.9,1027.6,770,1019.7z"/>
			<path fill="#21325F" d="M787.1,901.3c0-0.3,0-0.5,0.1-0.6c3.5-3.5,13.3-5.3,17.8-3.4c2.3,1,3.4,2.7,3.3,5.3
				c-0.1,1.4-0.5,2.9-0.9,4.9c-2.6-3.6-5.6-5.8-9.5-6.2C794.4,901.1,790.8,901.3,787.1,901.3z"/>
			<path fill="#1F305E" d="M861.9,891c5.2,3.2,8.6,10.5,7.7,15.8c-0.1,0.5-0.5,1.2-1,1.4c-3.1,1.2-6.2,2.3-9.6,3.4
				C861.9,905.1,864,898.4,861.9,891z"/>
			<path fill="#20315F" d="M841.3,920.1c2.4-6.6,4-13.2,1.9-20.3c5.3,2.5,8.6,8.8,7.3,14.2c-0.2,0.8-0.6,1.7-1.2,2
				c-2.5,1.6-5,3-7.6,4.5C841.6,920.5,841.5,920.3,841.3,920.1z"/>
			<path fill="#20315F" d="M836.5,874.7c3.1-0.9,6.2-1.8,9.3-2.6c0.4-0.1,0.9,0,1.2,0.1c5.2,2.9,9.5,6.6,11.7,12.9
				c-6.6-5.7-14.4-7.7-22.1-9.7C836.6,875.2,836.5,874.9,836.5,874.7z"/>
			<path fill="#20315F" d="M839.4,890.8c-6.6-5.1-14.4-6.3-22.6-7.9c3.2-2.1,6.3-3.4,9.8-4c0.3,0,0.7,0,1,0.2
				c5.1,2.4,9.3,5.6,11.7,10.9C839.3,890.1,839.3,890.3,839.4,890.8z"/>
			<path fill="#20315F" d="M665.3,932c-7.8,4.8-12,11.7-12.7,20.9c-4.6-5.2-4.5-11.1,0.2-15.8C656.1,933.6,660.5,932.2,665.3,932z"
				/>
			<path fill="#20315F" d="M647.7,979.9c2.7,2,5,3.8,7.5,5.7c-1.3,0.4-2.4,0.7-3.4,1c-2.5,0.6-3.7-0.3-4-2.9
				C647.5,982.6,647.7,981.4,647.7,979.9z"/>
		</g>
	</g>
</g>
</svg>
