<?xml version="1.0" encoding="utf-8"?>
<!-- Generator: Adobe Illustrator 17.1.0, SVG Export Plug-In . SVG Version: 6.00 Build 0)  -->
<!DOCTYPE svg PUBLIC "-//W3C//DTD SVG 1.1//EN" "http://www.w3.org/Graphics/SVG/1.1/DTD/svg11.dtd">
<svg version="1.1" id="Layer_1" xmlns="http://www.w3.org/2000/svg" xmlns:xlink="http://www.w3.org/1999/xlink" x="0px" y="0px"
	 viewBox="0 0 346.5 78.5" enable-background="new 0 0 346.5 78.5" xml:space="preserve">
<path fill="#282828" d="M68.7,60.6c0,6.6-5.4,12-12,12H12c-6.6,0-12-5.4-12-12V15.9c0-6.6,5.4-12,12-12h44.7c6.6,0,12,5.4,12,12
	V60.6z"/>
<path fill="#FCCD08" d="M17.3,68c-1.2-0.1-2.9-0.3-4.5-0.5c-0.5-0.1-1-0.3-1.5-0.5c-1.8-0.9-2-3.5-0.2-4.6c0.7-0.4,1.5-0.7,2.3-1
	c0.9-0.3,1.9-0.6,2.9-0.9c1-0.3,1.8-1,2.3-1.9c1.3-2.6,2.7-5.2,4.1-7.8c0.8-1.5,1.8-3,2.6-4.6c0.5-1,0.8-2.1,1.3-3.2
	c0.1-0.3,0-0.5-0.2-0.7c-0.6-0.6-1.2-1.3-1.8-1.9c-1.6-1.6-2.3-3.7-2.6-5.9c-0.4-3,0.8-5.5,2.9-7.5c1.8-1.7,3.9-2.9,5.9-4.3
	c1.1-0.7,2.2-1.5,3.3-2.2c2.3-1.5,4.3-3.4,5.8-5.7c1.4-2.1,2.7-4.1,4.1-6.2C44.2,8,44.6,7.5,45.1,7c0.6-0.6,1.2-0.5,1.8,0.1
	c0.5,0.5,0.8,1.1,0.8,1.8c-0.1,1-0.2,2-0.3,3c-0.1,1,0.1,1.5,1.1,1.7c0.2,0.1,0.5-0.1,0.6-0.2c0.5-0.6,0.9-1.2,1.3-1.9
	c0.4-0.6,0.8-1.1,1.2-1.7c0.4-0.5,1-0.8,1.7-0.6c0.7,0.2,1.2,0.7,1.2,1.4c0.1,0.8,0,1.7,0,2.5c0,0.3-0.1,0.7-0.2,1
	c-0.1,0.5,0,0.9,0.5,1.2c1.3,0.8,1.9,2.7,1.4,4.3c0,0.1,0,0.2-0.1,0.3c-0.4,0.7-0.3,1.2,0.5,1.8c0.8,0.6,0.9,1.6,0.6,2.5
	c-0.5,1.8-1.5,3.2-2.8,4.5c-0.1,0.1-0.3,0.3-0.5,0.4c-0.4,0.3-0.5,0.6-0.2,1.1c0.4,0.7,0.4,1.5,0,2.2c-0.3,0.7-0.7,1.4-1.1,2
	c-0.2,0.3-0.2,0.4,0.1,0.6c0.7,0.4,0.8,1,0.7,1.7c-0.2,0.8-0.6,1.5-1.2,2c-0.5,0.4-0.8,0.9-0.9,1.6c-0.2,2.2-1.7,3.4-3.6,4.2
	c-0.8,0.4-1.8,0.5-2.7,0.7c-0.4,0.1-0.5,0.2-0.4,0.6c0.3,1.1,0.5,2.2,0.6,3.3c0.2,2.2-0.9,4.3-3,5.1c-2.1,0.9-4.2,1.6-6.3,2.4
	c-0.4,0.1-0.8,0.4-1,0.7c-1.3,1.6-2.7,3.2-3.8,4.9c-2.3,3.6-5.8,5.2-9.9,5.6C20.1,67.8,18.9,67.9,17.3,68z M17.8,66.5
	c1.8-0.2,3.5-0.3,5.1-0.6c2.6-0.4,4.7-1.6,6.3-3.7c1.2-1.6,2.4-3.2,3.5-4.9c0.2-0.2,0.2-0.6,0.1-0.9c-0.3-1.2-0.8-2.2-1.6-3.1
	c-1.6-1.7-3.6-2.5-5.8-2.9c-0.5-0.1-0.8,0.1-1,0.5c-0.8,1.4-1.6,2.9-2.5,4.3c-1,1.7-1.9,3.4-2.9,5.1c-0.4,0.6-1,1-1.5,1.4
	c-0.5,0.3-1.2,0.5-1.8,0.7c-1.1,0.4-2.3,0.7-3.4,1c-0.4,0.1-0.7,0.3-0.8,0.7c-0.3,1,0,1.5,1,1.7C14.3,66.1,16.1,66.3,17.8,66.5z
	 M52.9,10.9c-0.1,0-0.1-0.1-0.2-0.1c-0.3,0.3-0.5,0.6-0.8,1c-1.4,1.8-2.7,3.7-4.1,5.5c-1.5,1.9-3.1,3.8-5.2,5.2
	c-1.8,1.1-3.6,2.2-5.4,3.2c-2.1,1.3-4.3,2.4-6.2,4.1c-1.1,0.9-2,2-2.2,3.4c-0.3,2.3-0.1,4.6,1.4,6.6c0.5,0.6,0.9,1.2,1.4,1.8
	c0.6,0.8,1.3,1.5,2,2.2c0.4,0.4,0.8,0.2,1.2,0c0.4-0.2,0.2-0.6,0.1-0.8c-0.2-0.9-0.7-1.6-1.6-2c-1.2-0.6-1.9-1.6-2.1-2.9
	c-0.1-0.9-0.2-1.9-0.2-2.8c0.1-1.1,0.4-2,1.2-2.8c1-0.9,2-1.9,3.1-2.6c2.2-1.5,4.5-2.7,6.7-4.1c2.8-1.8,5.4-3.8,7.5-6.4
	c1.8-2.2,3.1-4.6,3.4-7.5C53,11.6,52.9,11.3,52.9,10.9z M23.2,33.4c0.1,2,0.9,5.2,3.4,7.2c0.7,0.6,1.1,0.6,1.9,0.2
	c0.3-0.2,0.3-0.4,0-0.6c-0.2-0.2-0.4-0.4-0.7-0.5c-2.3-1.2-3.3-5.9-1.3-8.1c1-1.1,2-2.3,3.1-3.2c1.8-1.4,3.6-2.6,5.5-3.9
	c2.7-1.8,5.3-3.8,7.2-6.4c1.5-2,2.9-4,3.4-6.5c0.2-0.9,0.2-1.7,0.3-2.6c0-0.2-0.1-0.4-0.2-0.5c-0.2,0.1-0.3,0.2-0.5,0.3
	C45.3,9,45.1,9.3,45,9.6c-1.6,2.8-3.5,5.4-5.5,8c-1.2,1.6-2.7,2.9-4.3,4c-1.7,1.1-3.5,2.2-5.1,3.4c-1.6,1.1-3.2,2.3-4.7,3.6
	C23.9,29.8,23.1,31.4,23.2,33.4z M39.4,44.5c-0.3,0-0.5,0-0.8,0c-0.3,0-0.5,0.1-0.7,0.1c-2.8,0.5-5.3,1.5-6.6,4.3
	c-0.3,0.7-0.4,0.8,0.2,1.3c1.3,1.1,2.4,2.3,3.1,3.9c0.4,0.8,0.6,0.9,1.5,0.7c0.7-0.2,1.5-0.4,2.2-0.7c1.2-0.4,2.3-0.8,3.4-1.4
	c1.5-0.8,2.4-2.3,2-3.9c-0.2-1.1-0.7-2.1-1.1-3.1c-0.1-0.3-0.4-0.5-0.7-0.6C41.1,44.6,40.3,44.5,39.4,44.5z M42.8,29
	c0.3-0.1,0.5-0.2,0.8-0.3c2-1.2,4.1-2.4,6.1-3.7c1.3-0.8,2.4-1.9,3.4-3.2c0.7-0.9,1.3-1.7,1.6-2.9c0.2-0.9,0-1.6-0.7-2.2
	c-0.3-0.3-0.5-0.3-0.7,0.1c-0.3,0.5-0.7,1-1,1.4c-0.9,1.2-1.7,2.5-2.8,3.6c-1.8,1.9-3.9,3.6-6.1,5C42.5,27.5,42.3,28,42.8,29z
	 M55.7,23.4c-0.2-0.2-0.3-0.6-0.5-0.7c-0.2-0.1-0.6,0-0.8,0.2c-0.2,0.1-0.4,0.4-0.6,0.6c-1.7,1.9-3.8,3.4-6,4.7
	c-1.1,0.6-2.2,1.2-3.2,1.8c-0.1,0.1-0.3,0.3-0.3,0.3c0.2,0.5,0.5,1,0.8,1.4c0.1,0.1,0.6,0.1,0.9-0.1c2.2-0.9,4.3-2.1,6.4-3.4
	c1.4-0.9,2.4-2.1,3-3.6C55.4,24.2,55.5,23.9,55.7,23.4z M33.4,39.1c0,0.1,0,0.2,0,0.2c0.5,0.3,1,0.5,1.4,0.8
	c0.4,0.2,0.7,0.3,1.1,0.1c0.5-0.2,1-0.4,1.6-0.6c1.8-0.7,3.5-1.4,5.3-2.1c0.6-0.2,1-0.6,1.3-1.2c0.2-0.5,0-0.8-0.3-1.2
	c-0.3-0.3-0.6-0.2-0.9,0c-0.2,0.1-0.4,0.2-0.6,0.3c-2.4,1-4.8,1.9-7.2,2.9C34.5,38.7,33.9,38.9,33.4,39.1z M32.7,37.7
	c0.7-0.3,1.3-0.5,1.9-0.7c2.4-1,4.7-2,7.1-3c0.6-0.3,1-0.8,1.4-1.3c0.2-0.3,0.2-0.7-0.1-0.9c-0.2-0.2-0.3-0.4-0.5-0.5
	c-0.2-0.1-0.4-0.1-0.5,0c-0.5,0.3-1,0.8-1.5,1.1c-1.8,0.9-3.7,1.7-5.6,2.5c-0.7,0.3-1.3,0.5-2,0.9c-0.6,0.3-0.7,0.7-0.5,1.3
	C32.5,37.2,32.6,37.4,32.7,37.7z M31.5,44.1c-0.1-0.2-0.1-0.3-0.2-0.4c-0.3-0.4-0.6-0.7-0.8-1.1c-0.7-0.8-1.8-0.7-2.3,0.3
	c-0.1,0.2-0.1,0.3-0.2,0.5c-0.5,1.3-1,2.6-1.5,3.9c-0.2,0.5-0.2,0.6,0.3,0.8c0.4,0.1,0.9,0.3,1.3,0.5c0.3,0.2,0.5,0.1,0.7-0.2
	c0.8-1.3,1.7-2.5,2.6-3.8C31.4,44.4,31.5,44.3,31.5,44.1z M52.2,31.6c0-0.9-0.3-1.1-1-0.8c-0.1,0.1-0.3,0.1-0.4,0.2
	c-1.9,0.9-3.8,1.9-5.8,2.8c-0.3,0.2-0.3,0.3-0.2,0.6c0.2,0.3,0.5,0.6,0.7,1c0.2,0.4,0.5,0.5,1,0.3c1.3-0.5,2.5-0.9,3.8-1.5
	C51.6,33.7,51.9,32.6,52.2,31.6z M37.6,43.1C37.6,43.1,37.6,43.1,37.6,43.1c1.4-0.2,2.8-0.4,4.2-0.8c0.4-0.1,0.8-0.4,1.1-0.7
	c0.4-0.4,0.5-1.1,0.2-1.5c-0.3-0.5-0.8-0.4-1.3-0.3c-0.2,0-0.3,0.1-0.5,0.1c-1,0.4-2.1,0.8-3.1,1.1c-0.5,0.2-1.1,0.4-1.6,0.7
	c-0.2,0.1-0.4,0.4-0.4,0.6c0.1,0.2,0.3,0.4,0.5,0.5C37.1,43.1,37.3,43,37.6,43.1z M44.9,39.3c2.3-0.3,4.4-0.9,6.2-2
	c0.2-0.1,0.4-0.4,0.6-0.6c0.1-0.2,0.2-0.6,0.1-0.7c-0.1-0.2-0.5-0.2-0.7-0.2c-1.7,0.5-3.4,1.1-5.1,1.7c-0.5,0.2-1,0.5-1.4,0.8
	c-0.2,0.1-0.2,0.5-0.2,0.7C44.4,39.2,44.8,39.3,44.9,39.3z M43.6,43.4c2.2,0.4,4.7-0.7,5.7-2.3c0.1-0.2,0.2-0.4,0.3-0.6
	c0.1-0.4-0.1-0.6-0.4-0.5c-0.2,0-0.3,0.1-0.5,0.1c-1,0.3-2,0.5-3,0.8c-0.3,0.1-0.7,0.2-0.8,0.4C44.5,41.9,44.1,42.6,43.6,43.4z
	 M41.2,28.3c-0.2,0.1-0.3,0.1-0.4,0.2c-1.5,0.9-3.1,1.8-4.6,2.8c-0.8,0.6-1.6,1.2-2.4,1.9c-0.2,0.2-0.4,0.5-0.5,0.7
	c0,0.1,0.1,0.1,0.1,0.2c0.4-0.2,0.8-0.3,1.2-0.5c1.8-0.9,3.6-1.8,5.4-2.7c0.3-0.1,0.6-0.4,0.7-0.7C41,29.6,41,29,41.2,28.3z
	 M42.3,20.7c0,0,0.1,0.1,0.1,0.1c0.2-0.1,0.4-0.2,0.5-0.4c1.3-1.5,2.7-2.9,4-4.4c0.2-0.2,0.3-0.4,0.4-0.6c0.1-0.2,0-0.5-0.1-0.7
	c-0.1-0.1-0.5-0.1-0.6,0c-0.3,0.3-0.6,0.7-0.9,1c-1,1.4-2,2.9-3.1,4.3C42.6,20.3,42.4,20.5,42.3,20.7z M27.2,33.9c0,0-0.1,0-0.1,0
	c0,0.5,0,0.9,0,1.4c0,0,0.1,0,0.1,0C27.2,34.8,27.2,34.3,27.2,33.9z"/>
<g id="Ow7l5A_1_">
	<g>
		<g>
			<path fill="#981B1E" d="M320.5,76.7c-0.7-0.9-1.7-1.2-2.6-1.7c-0.6-0.4-1.3-0.4-2,0c-1.6,0.8-3.3,0.8-5.1,0.3
				c-1.1-0.3-2.2-0.5-3.3-0.8c-0.2,0-0.4,0-0.6,0.1c-0.9,0.7-1,0.7-1.8,0.1c-0.8-0.7-1.6-0.8-2.5-0.2c-0.2,0.1-0.4,0.2-0.6,0.3
				c-1,0.6-2.2,0.9-3.3,1c-0.9,0.2-1.1-0.1-1.1-0.9c-0.1-1.1-0.4-2.1-0.6-3.2c-0.1,0-0.2,0-0.2,0c-0.2,0.5-0.4,1.1-0.7,1.6
				c-0.4,0.9-1.3,1.2-2,0.9c-1.2-0.6-2.3-1.3-2.9-2.5c-0.3-0.5-0.8-1.2-1.3-1.4c-1.2-0.4-1.6-1.3-1.8-2.4c-0.1-0.4-0.4-0.8-0.7-1.1
				c-0.4-0.3-0.9-0.4-1.4-0.7c-0.6,0.5-0.1,1.6-1,2c0-0.4-0.1-0.6-0.1-0.9c-0.1-1.3-0.3-2.6-0.2-3.9c0.1-0.8-0.1-1.3-0.6-1.8
				c-0.3-0.3-0.7-0.6-1.1-0.8c-1.5-0.7-2.9-1.3-4.4-1.9c-0.3-0.1-0.7-0.2-1-0.4c-0.7-0.4-1.4-0.9-1.3-1.7c0.1-0.5,0.9-1,1.5-1.2
				c0.9-0.2,1.9-0.3,2.8-0.1c2,0.3,3.9,0.2,5.8-0.7c0.6-0.3,1.3-0.2,1.9,0.2c0.8,0.7,1.2,0.6,1.9-0.2c0.4-0.4,0.7-0.9,1.1-1.3
				c0.5-0.5,1.1-0.9,2-0.4c0.2,0.1,0.6,0,0.7-0.2c0.6-0.9,1.2-1.7,1.7-2.6c0.5-0.8,0.5-1.1-0.3-1.9c-0.5,0.6-1.1,1.2-1.6,1.8
				c-0.1,0.1-0.3,0.2-0.4,0.3c0-0.2-0.1-0.4,0-0.5c0.5-1.2,1.1-2.4,1.6-3.6c0.8-1.7,1.6-3.3,2.4-5c0.1-0.2,0.1-0.5,0.1-0.7
				c-0.1,0-0.2,0-0.3-0.1c-0.2,0.4-0.4,0.8-0.6,1.1c-0.7,1.2-1.3,2.3-2,3.4c-0.2,0.3-0.6,0.5-0.7,0.1c-0.2-0.8-0.5-0.7-1.1-0.6
				c-0.5,0.1-0.6,0.4-0.7,0.8c-0.1,0.2-0.4,0.4-0.5,0.4c-0.2,0-0.5-0.3-0.5-0.4c0-0.8,0.1-1.5,0.9-2c0.3-0.2,0.7-0.5,0.8-0.9
				c0.2-0.6,0.6-0.9,1.1-1.1c0.5-0.2,1-0.3,1.4-0.5c0.5-0.2,0.6-0.6,0.2-0.9c-0.5-0.4-1-1-1.6-1.2c-1.8-0.6-3.6-1.2-5.5-1.6
				c-2-0.4-4-0.2-5.6,1c-0.9,0.6-1.6,0.7-2.4,0.1c-0.1-0.1-0.3-0.2-0.4-0.2c-0.6-0.2-0.9-0.7-0.9-1.3c0-0.4,0-0.8-0.1-1.2
				c-0.2-0.7-0.8-0.9-1.3-0.4c-0.5,0.6-1,1.3-1.5,2c-0.5,0.7-0.9,1.4-1.3,2.1c-0.2,0.4-0.5,0.4-0.9,0.2c-0.6-0.4-1.2-0.7-1.7-1.2
				c-1.5-1.2-2.8-2.6-3.5-4.5c-0.6-1.7-0.2-3,1.2-3.9c1.3-0.8,2.9-1,4.4-1c4.1,0,8.1,0.6,11.9,2c5.4,2,10.6,4.3,16,6.5
				c0.4,0.2,0.7,0.3,1.1,0.4c0.6,0.1,1.2,0.1,1.6-0.5c-0.3-0.3-0.6-0.5-0.9-0.7c-0.3-0.2-0.6-0.5-0.9-0.7c-0.4-0.3-0.5-0.7-0.1-1.2
				c0.4-0.4,0.7-0.2,1,0.1c0.4,0.5,0.7,0.4,1-0.2c0.1-0.2,0.1-0.4,0.2-0.5c0.2-0.4,0.4-0.5,0.7-0.2c0.2,0.2,0.5,0.4,0.7,0.5
				c0.1-0.1,0.1-0.1,0.1-0.2c-0.3-0.5-0.7-1.1-1-1.6c0.4,0.1,0.7,0.3,1,0.3c0.4,0,0.8-0.2,1-0.4c0.2-0.3,0.1-0.8,0.1-1.2
				c0-0.2-0.1-0.4-0.2-0.6c0.3,0,0.5-0.2,0.8-0.1c0.6,0.2,1.1,0.1,1.5-0.2c0.5-0.4,1.1-0.7,1.7-1.2c-0.2-0.4-0.4-0.8-0.6-1.2
				c-1.5-2.4-3.6-4.2-5.9-5.8c-3.1-2.2-6.8-2.9-10.6-3c-3.5-0.1-6.9,0.5-10.2,1.8c-0.2,0.1-0.6,0.2-0.6,0.1
				c-0.6-0.8-1.5-0.9-2.3-1.3c-0.6-0.3-1.3-1.6-1.2-2.3c0-0.2,0.2-0.4,0.3-0.5c0.2-0.2,0.4-0.3,0.5-0.4c0.4-0.3,0.4-0.5,0.2-0.9
				c-0.9-1.4-2-2.4-3.4-3.2c-1.9-1-3.9-1.4-6-1.7c-0.3,0-0.6-0.1-0.9-0.3c-0.4-0.2-0.5-0.6-0.1-1c0.5-0.4,0.9-0.9,1.4-1.2
				c1.8-1.1,3.7-2.2,5.6-3.3C281,3,284.6,2,288.2,1c0.4-0.1,0.8-0.2,1.2-0.3c3-0.6,6-0.7,9-0.7c0.4,0,0.9,0.3,1.3,0.4
				c0.2,0,0.4,0.1,0.6,0c1.5-0.6,2.9-0.2,4.3,0.5c0.3,0.1,0.6,0.4,0.8,0.3c1.2-0.2,2.5,0.4,3,1.2c0.4,0,0.7-0.1,1,0
				c0.6,0.2,1.2,0.4,1.8,0.7c0.7,0.3,0.7,0.6,0.2,1.2c-0.9,1.1-1.8,2.2-2.8,3.5c0.3-0.1,0.5-0.1,0.6-0.1c0.2-0.2,0.5-0.5,0.7-0.7
				c0.6-0.8,0.8-0.8,1.6-0.2c0.3,0.2,0.5,0.3,0.8,0.1c0.2-0.2,0.3-0.5,0.3-0.8c0-0.3-0.2-0.6-0.3-0.9c-0.1-0.7,0.4-1.1,0.9-0.9
				c1.1,0.5,2.1,1.2,3.1,1.7c0.4,0.2,0.4,0.5,0.1,0.8c-0.1,0.1-0.2,0.2-0.2,0.2c0.6,0.1,1.4,0,1.9,0.3c1.4,0.9,2.8,2,3.6,3.6
				c0.1,0.1,0.2,0.3,0.3,0.4c1.6,1,2.7,2.5,3.5,4.2c0.1,0.1,0.1,0.4,0,0.5c-0.1,0.1-0.4,0.1-0.5,0.1c-0.3,0-0.5-0.1-0.8-0.2
				c0,0.1,0,0.2-0.1,0.2c0.6,0.2,1.2,0.4,1.9,0.6c0.9,0.3,1.5,0.8,1.7,1.8c0.2,0.7,0.5,1.4,0.7,2.1c0.1,0.4,0.3,0.7,0.5,1.2
				c-1-0.1-1.8-0.7-2.8-0.2c0.5,0.3,0.9,0.4,1.2,0.7c0.3,0.3,0.6,0.7,0.6,1c-0.1,0.7,0.2,1,0.6,1.4c0.3,0.2,0.5,0.6,0.8,0.9
				c0.2,0.2,0.4,0.5,0.7,0.6c1.2,0.4,2,1.7,1.7,3.1c-1.5-0.7-3-1.4-4.5-2.1c0,0.1-0.1,0.1-0.1,0.2c0.5,0.4,1,0.8,1.6,1.1
				c0.6,0.3,0.5,0.7,0.3,1.2c-0.2,0.4-0.4,0.7-0.5,1.1c-0.2,0.6,0.1,0.9,0.7,1c0.2,0,0.4,0,0.5,0.1c1.2,1.2,2.4,2.5,3.6,3.7
				c0.2,0.2,0.2,0.5,0.3,0.7c-0.1,0-0.1,0.1-0.2,0.1c-1.2-0.9-2.4-1.8-3.6-2.7c-0.1,0.1-0.1,0.1-0.2,0.2c0.2,0.2,0.3,0.5,0.6,0.6
				c0.2,0.2,0.5,0.2,0.7,0.4c0.2,0.2,0.4,0.5,0.5,0.8c0,0.1-0.2,0.2-0.3,0.4c-0.2-0.2-0.4-0.4-0.6-0.5c-0.2-0.1-0.4-0.2-0.6-0.3
				c0,0.3,0,0.5,0.1,0.8c0.1,0.2,0.4,0.4,0.4,0.6c-0.2,0.9,0.4,1.3,0.9,1.7c0.4,0.4,0.9,0.8,1.2,1.2c0.3,0.3,0.4,0.7,0.6,1.1
				c0.5,1,1.1,2.1,1.7,3.1c-0.1,0-0.2,0.1-0.2,0.1c-0.1-0.1-0.3-0.2-0.4-0.3c-1-1.1-2-2.1-3-3.1c-0.2-0.2-0.6-0.3-0.9-0.4
				c-0.4-0.2-1-0.4-1-0.6c0.1-1-0.6-1.5-1.1-2.1c-0.4-0.4-0.8-0.8-1.4-0.9c0.1,0.8,0.2,1.5,0.3,2.4c-2.5-1.3-4.8-2.5-7.1-3.7
				c0,0.1-0.1,0.1-0.1,0.2c0.4,0.3,0.9,0.6,1.3,0.9c0.9,0.5,1.7,1,2.3,1.9c0.3,0.4,1,0.5,1.5,0.7c0.1,0.1,0.4,0,0.5,0.1
				c0.8,0.6,1.7,1.2,2.5,2c0.9,0.8,1.7,1.7,2.4,2.6c0.3,0.3,0.6,0.7,0.5,1.1c-0.1,0.6,0.2,0.9,0.4,1.3c0.4,0.7,0.8,1.6,1.3,2.1
				c1,0.9,1.7,1.8,2.3,3c0.1,0.2,0.2,0.3,0.3,0.5c0.2-0.3,0.3-0.6,0.4-0.8c0.1,0,0.1,0,0.2,0c0.1,0.8,0.2,1.6,0.2,2.5
				c0,0.2-0.1,0.6-0.2,0.6c-0.2,0.1-0.6,0-0.7-0.2c-2.1-1.7-4.3-3.4-6-5.6c-0.2-0.2-0.4-0.4-0.6-0.6c0,0.3,0.1,0.5,0.2,0.7
				c0.9,1.2,1.9,2.5,2.9,3.7c0.5,0.6,0.6,1.1,0.5,1.8c-0.1,0.3,0,0.6,0.1,0.9c0.5,1,1,1.9,1.6,2.8c0.5,0.7,1.1,1.3,1.7,1.9
				c0.2,0.2,0.6,0.3,0.9,0.4c0.1,0,0.1-0.1,0.2-0.1c0.3,1,0.6,2,0.9,2.9c-0.1,0-0.2,0.1-0.2,0.1c-0.2-0.1-0.4-0.2-0.5-0.4
				c-1-1.1-2.1-2-3-3.2c-2.2-2.9-4.4-5.9-6.6-8.8c-0.1-0.2-0.3-0.4-0.4-0.6c-0.1,0.4-0.1,0.7,0,1c0.4,1.1,0.9,2.2,1.3,3.3
				c0,0.1,0.1,0.1,0.1,0.2c0.2,0.3,0.5,0.7,0.6,1c0.2,0.5,0.4,0.8,1,0.7c0.2,0,0.5,0.1,0.6,0.2c0.5,0.8,1,1.7,1.4,2.5
				c0.3,0.8,0.4,1.7,0.8,2.3c1.3,2.1,3,3.9,4.9,5.4c0.6,0.5,1.3,1.1,1.9,1.7c0.3,0.2,0.4,0.5,0.1,0.8c-0.6,0.5-0.3,0.8,0.1,1.2
				c0.6,0.6,1.1,1.2,1.6,1.9c-0.4,0-0.7,0-0.9-0.2c-0.8-0.4-1.5-1-2.2-1.3c-0.6-0.3-1.4-0.4-2.1-0.4c-0.5,0-1.6-0.4-1.8-0.9
				c-0.3-0.5-0.2-0.7,0.4-0.7c0.1,0,0.2,0,0.5,0c-0.5-0.5-0.9-0.9-1.5-0.8c-0.4,0.1-0.6,0-0.5-0.5c0.2-0.6-0.3-0.7-0.5-0.8
				c-0.2-0.1-0.5,0.1-0.7,0.3c-0.3,0.4-0.6,0.5-1.1,0.3c-0.7-0.4-1.4-0.6-2-1c-0.2-0.1-0.4-0.3-0.5-0.5c-0.3-1.1-0.6-2.2-0.9-3.3
				c-0.1-0.3,0.1-0.7,0.3-0.9c0.4-0.4,0.3-0.7,0-1c-0.2-0.1-0.4-0.3-0.6-0.4c-0.5-0.2-0.4-0.5-0.2-0.8c0.4-0.6,0.9-0.7,1.4-0.1
				c0.2-0.7,0.1-1-0.4-1.4c-0.5-0.4-1.1-0.7-1.3-1.4c0-0.3-0.4-0.5-0.5-0.7c0,0-0.1,0-0.1,0.1c0.1,0.4,0.2,0.8,0.3,1.2
				c-0.1,0-0.1,0-0.2,0.1c-0.4-0.9-0.8-1.7-1.2-2.7c-0.5,1.1-0.9,2.3-0.8,3.5c0.2,1.7,0.8,3.3,1.5,4.9c1.9,4.1,5,7,8.9,9.1
				c1,0.5,2,0.9,3,1.4c0.4,0.2,0.9,0.6,1.2,0.3c0.3,0.3,0.5,0.5,0.8,0.7c0.6,0.2,1.2,0.4,1.8,0.6c1,0.4,2,0.9,3,1.3
				c0.6,0.3,1.1,0.5,1.9,0.8c-1.2,1.1-2.1,2.1-3.6,2.3c-2,0.3-3.8-0.2-5.6-0.9c-1.9-0.7-3.7-1.6-5.6-2.5c-1.5-0.7-2.9-1.6-4.1-2.8
				c-2.5-2.7-4.3-5.8-5.7-9.2c-1.7-4.3-2.7-8.8-3.6-13.4c-0.3-1.2-0.6-2.4-1-3.6c-0.2-0.5-0.5-0.5-1-0.4c-0.7,0.1-1.5,0.2-2.2,0.1
				c-1.1-0.2-2.1-0.2-2.5,1.1c0,0.1-0.1,0.1-0.2,0.2c-0.8,0.9-1.3,2.1-1,3.3c0.3,1.4,0.8,2.9,1.3,4.3c0.4,1.2,0.3,2.1-0.8,2.9
				c-0.5,0.4-1.1,0.7-1.6,1c-1.1,0.6-1.6,1.2-1.4,2.6c0.4,2.2,0.6,4.4,1.5,6.4c0.4,1,0.8,2.2,1.9,2.7c4,1.9,7.6,4.3,11.3,6.7
				c0.2,0.1,0.4,0.3,0.6,0.5C322.6,77.7,321.1,77.4,320.5,76.7z M310.9,10.9c-1,1.1-1.9,2.2-2.9,3.4c-0.4,0.4-0.8,0.8-1.2,1.3
				c-0.1-0.8-1-1.2-0.7-2.1c0.3-0.7,0.4-1.4,0.5-2.2c-0.7,1.4-1.5,2.8-2.2,4.1c-0.8-0.5-0.8-0.8,0.1-2.2c-0.6-0.4-1.5-0.6-1.2-1.7
				c-0.1,0-0.2,0-0.2,0.1c-0.1,0.2-0.3,0.4-0.4,0.7c-0.1,0.3-0.2,0.6-0.3,0.9c-0.4,1.3-1.4,1.2-2.2,0.4c-0.8,0.3-1.6,0.3-2.3-0.2
				c-0.2-0.1-0.5-0.1-0.7-0.2c-0.9-0.1-1.7-0.3-2.5-0.2c-0.9,0.2-1.8,0-2.7,0c-0.8,0-1.6,0.2-2.3,0.3c-1.5,0.3-3.1,0.7-4.6,1.1
				c-0.4,0.1-0.8,0.6-0.8,1c0,0.3,0.4,0.7,0.8,1c0.1,0.1,0.5,0,0.6-0.2c0.7-0.8,1.6-1.1,2.6-1.2c0.8-0.1,1.5-0.1,2.3-0.5
				c0.6-0.3,1.5-0.1,2.2-0.2c0.4,0,0.7-0.1,1.1-0.1c0.7,0,1.4-0.1,2.1,0c0.1,0,0.2,0.3,0.3,0.5c0.1,0.3,0.2,0.6,0.4,0.8
				c0.1,0.1,0.4,0.1,0.4,0.1c0.4-0.7,1.2-0.2,1.7-0.4c0.1,0,0.4,0.2,0.6,0.4c0.5,0.4,1,0.7,1.5,1.1c0.1,0,0.2,0,0.3,0
				c0.6-0.5,1.2-0.2,1.8-0.1c0.4,0.1,0.8-0.1,1.1-0.3c0.4,0.1,0.5,0.4,0.3,0.7c-0.4,0.7,0,1.1,0.4,1.5c0.3,0.2,0.5,0.4,0.8,0.7
				c0.1-0.4,0.2-0.8,0.3-1.2c0.1-0.5,0.4-0.6,0.8-0.4c0.4,0.3,0.7,0.6,1,0.8c0.7,0.5,1,0.5,1.4-0.3c0.3-0.5,0.7-0.7,1.3-0.9
				c0.9-0.3,1.6-1.1,2.5-1.8c-0.6,0-0.9-0.1-1.2-0.1c0-0.1-0.1-0.2-0.1-0.3c0.7-0.6,1.4-1.2,2.1-1.8c-0.3,0.2-0.5,0.2-0.7,0.4
				c-1.4,1-2.8,1.9-3.6,3.5c-0.6,1.2-1.3,1.1-2-0.1c0.3,0,0.5,0.1,0.6,0.1c0.5-0.6,1-1.1,1.5-1.7c0.8-0.8,0.8-1.2,0.4-2.2
				c-0.1-0.2,0.2-0.5,0.3-0.8c0.3-0.4,0.6-0.8,0.9-1.1c0.2-0.2,0.5-0.4,0.9-0.5c0.4-0.1,0.6-0.3,0.5-1
				C312,10.1,311.4,10.4,310.9,10.9z M290.2,63.4c0.4,0.4,0.9,0.7,1.4,1.1c0.1,0.1,0.2,0.1,0.3,0.1c1,0,2-0.1,3,0
				c0.5,0.1,1.1,0.4,1.5,0.8c0.5,0.4,0.9,0.4,1.2-0.2c0.1-0.3,0.1-0.6,0.2-0.8c0.2-0.4,0.4-0.9,0.7-1.3c0.1-0.2,0.2-0.3,0.3-0.5
				c0.5-2.7,0.9-5.3,1.4-8c0.1-0.7,0.2-1.4,0.2-2.1c0-0.4-0.3-0.7-0.4-1c-0.3,0.3-0.6,0.5-0.7,0.8c-0.8,1.9-1.5,3.7-2.2,5.6
				c-0.1,0.2-0.3,0.4-0.4,0.7c-0.8,1.6-2.1,2.3-3.9,2.3c-1,0-2.1,0.2-2.6,1.4c-0.1,0.2-0.1,0.4-0.2,0.7
				C289.9,63,290,63.2,290.2,63.4z M306.2,40.4c0.1,0.1,0.2,0.4,0.2,0.6c-0.2,0-0.5,0.2-0.7,0.1c-1.1-0.3-1.1-0.4-1.7,0.6
				c-0.2,0.3-0.5,0.4-0.7,0.7c-0.3,0.3-0.6,0.7-0.8,1.1c0,0.1,0.2,0.3,0.4,0.4c0.2,0.2,0.4,0.4,0.6,0.6c-0.2,0.2-0.3,0.3-0.5,0.4
				c-1.1,0.7-2,1.6-3.3,1.9c-0.3,0.1-0.5,0.6-0.5,1c0,0.1,0.3,0.5,0.6,0.5c0.4,0.1,0.9,0.2,1.4,0.2c3.8-0.4,6.3-2.9,6-6.8
				c0-0.5-0.3-1.1-0.6-1.6c-0.2-0.4-0.7-0.7-1.3-0.5C305.5,40,305.9,40.2,306.2,40.4z M324,48.9c0.1,0,0.2,0,0.2-0.1
				c0.2,0.3,0.4,0.6,0.5,0.9c0.7-0.4,0.8-0.7,0.2-1.3c-0.4-0.4-0.7-0.9-0.6-1.8c0.5,0.4,0.9,0.7,1.2,1c-1.2-2.4-3.1-4.1-5.2-5.7
				c0.1,2.2,1,4.2,1.8,6.5c0.2-0.4,0.2-0.6,0.3-0.9c0.8,0.7,0.9,1.6,1.1,2.4c0.1,0.4,0.3,0.8,0.4,1.3c0,0.1,0.1,0.3,0.1,0.4
				c0.1,0.4,0.2,0.7,0.3,1.1c0.1,0,0.2-0.1,0.3-0.1C324.6,51.5,324.3,50.2,324,48.9z M314.2,20.9c-0.5,0.2-1,0.3-1.5,0.5
				c-0.1,0-0.3,0-0.4-0.1c0.1-0.2,0.1-0.4,0.2-0.5c0.3-0.2,0.7-0.4,1-0.6c0.5-0.4,1-0.7,1.5-1.2c0.1,0.1,0.3,0.2,0.5,0.4
				c0.2-0.2,0.3-0.3,0.7-0.6c-1.3-0.3-2.4-0.1-3.5,0.3c0.8-1.5,2.8-1.1,3.8-2.3c-2.3,0.4-4.2,1.5-6,3.1c0.2,0.2,0.3,0.4,0.4,0.5
				c0.6,0.6,1,1.2,0.8,2.2c-0.1,0.5,0.3,1,0.5,1.5c0.1,0,0.2,0.1,0.4,0.1c0.3-0.4,0.6-0.7,0.8-1.2c0.1-0.2-0.1-0.5-0.2-0.7
				c-0.2-0.3-0.2-0.6,0.2-0.7c0.3-0.2,0.6-0.1,0.7,0.3c0.1,0.3,0.3,0.5,0.5,0.7c0.5-0.5,0.5-0.5-0.2-1.2c0.4-0.2,0.7-0.3,1-0.4
				c0.1,0.3,0.2,0.5,0.2,0.8c0.1,0.3,0.2,0.6,0.3,0.8c0.1,0,0.2,0,0.3,0c0.1-0.6,0.2-1.2,0.4-1.9C315.8,20.4,315,20.6,314.2,20.9z
				 M316.4,40.9c-0.5,0.9,0.1,1.9,1,2.3c0.8,0.3,0.9,0.2,1.2-0.5c0.5-1.6,0.2-3.1-0.4-4.6c-0.1-0.3-0.1-0.7-0.1-1.1
				c0-0.2,0.1-0.4,0-0.5c-0.3-1-0.6-2.1-1.6-2.7c-0.2-0.1-0.5-0.1-0.8-0.1c0,0.2,0,0.5,0.1,0.7c0.4,1.2,0.8,2.5,1.1,3.7
				c0.3,1.2,0.4,2.3,0.5,3.5c0,0.2,0,0.4,0.1,0.7c-0.1,0-0.2,0.1-0.2,0.1C317,41.9,316.7,41.4,316.4,40.9z M320.7,40.7
				c0.9,0.8,1.7,1.5,2.7,2.2c0.3,0.2,0.7,0.3,1.1,0.4c0.8,0.2,1.5,0.4,1.8,1.2c0,0.1,0.1,0.1,0.3,0.2c-1-1.9-4.7-6-6.5-6
				C319.8,39.4,320.1,40.1,320.7,40.7z M316.7,27.2c0.4,0.7,0.6,1.3,1,1.8c0.2,0.3,0.7,0.5,1,0.5c0.3,0,0.6-0.4,0.8-0.7
				c0.2-0.3,0.2-0.7,0.7-0.4c0,0.3-0.1,0.5-0.1,1c1.2-1,2.1-0.1,3.1,0C321.2,28.3,319.2,27.3,316.7,27.2z M305.9,52.6
				c1,0.2,2,0.4,3.1,0.5c-1.2-1.2-2.4-2.4-4.3-2.5C304.4,52,304.6,52.4,305.9,52.6z M318.8,31.3c-0.1,1,0.9,2.1,1.8,2.1
				c0.2,0,0.4,0.1,0.6,0.2c0.2,0,0.5,0,0.5-0.1c0.3-0.4,0.7-0.4,1.1-0.2C321.8,32.2,320.4,31.6,318.8,31.3z M317.6,25.7
				c-0.2-0.3-0.5-0.5-0.8-0.6c-0.1,0-0.5,0.4-0.4,0.5c0.2,0.3,0.4,0.5,0.8,0.9C317.4,26.1,317.6,25.8,317.6,25.7z M299.8,45.6
				c0.5-0.6,1.1-0.9,0.9-1.8C300,44.3,299.9,44.8,299.8,45.6z M319.5,20.8c-0.5-0.3-1-0.7-1.6-0.3c-0.1,0.1-0.1,0.4-0.1,0.5
				C318.5,20.9,319,20.8,319.5,20.8z"/>
			<path fill="#981B1E" d="M278.7,45c-0.7,0.2-1.3,0.3-1.7,0.9c-0.1,0.1-0.5,0.2-0.7,0.1c-0.6-0.3-1.2-0.7-1.7-1
				c-0.5-0.3-1-0.6-1.4-1.1c-0.4-0.6-0.1-1,0.6-1c1.3,0.1,2.7,0.2,4,0.3c0.3,0,0.6,0,0.8-0.2c0.4-0.4,0.7-0.2,0.8,0.2
				c0.1,0.2,0.1,0.5,0.2,0.7C279.8,44.7,279.2,44.9,278.7,45z"/>
			<path fill="#981B1E" d="M277.4,47.2c0.6-0.1,1.3,0,1.9,0.2c1,0.3,1.9,0.6,2.9,0.1c0.6-0.3,1.2,0.3,1.1,0.8c0,0.2-0.2,0.4-0.3,0.4
				c-0.7,0-1.5,0-2.2-0.1c-1-0.1-2-0.2-2.9,0.5c-0.2,0.2-0.5,0.3-0.8,0.3c-0.7,0.2-1-0.1-1-0.7C276.1,48,276.6,47.3,277.4,47.2z"/>
			<path fill="#981B1E" d="M276.3,52c-0.2-0.9-0.2-1,0.6-1.4c0.3-0.1,0.5-0.3,0.8-0.3c0.9-0.3,1.7-0.2,2.4,0.5
				c0.1,0.1,0.2,0.5,0.1,0.7c-0.1,0.2-0.5,0.5-0.6,0.4c-1-0.3-1.6,0.2-2.3,0.8c-0.4,0.3-0.8,0.5-1.2,0.8
				C276.2,52.8,276.4,52.4,276.3,52z"/>
			<path fill="#981B1E" d="M339.5,72.5c1-0.6,1.5-0.6,2,0.4C340.8,72.8,340.3,72.6,339.5,72.5z"/>
			<path fill="#981B1E" d="M329.1,30.7c0-0.1,0.1-0.3,0.2-0.4c0.5-0.1,0.7,0.2,0.9,0.7C329.7,31.2,329.4,31,329.1,30.7z"/>
			<path fill="#981B1E" d="M342.5,72.9c0.3,0.3,0.6,0.5,0.9,0.9C342.5,73.8,342.3,73.6,342.5,72.9z"/>
			<path fill="#981B1E" d="M308.9,15.2c0,0-0.3,0-0.4-0.1c-0.3-0.5,0.2-0.7,0.5-1C309.4,14.5,309.2,14.9,308.9,15.2z"/>
			<path fill="#981B1E" d="M303.8,47c0.7-1.1,1.3-2.1,1.9-3.1C306.1,44.9,305.1,46.5,303.8,47z"/>
		</g>
	</g>
</g>
<g>
	<path fill="#3A3A3A" d="M82.9,64.4l-3.2-5.5H81l2.5,4.3l2.5-4.3h1.2L84,64.4v4.1h-1.1V64.4z"/>
	<path fill="#3A3A3A" d="M86.5,65.6c0-1.8,1.3-3.2,3.2-3.2c1.8,0,3.2,1.3,3.2,3.2c0,1.8-1.4,3.1-3.2,3.1S86.5,67.4,86.5,65.6z
		 M87.6,65.6c0,1.5,1,2.2,2.1,2.2c1.1,0,2.1-0.8,2.1-2.2c0-1.5-1-2.2-2.1-2.2C88.6,63.3,87.6,64.1,87.6,65.6z"/>
	<path fill="#3A3A3A" d="M95.5,66c0,0.4,0,0.9,0.3,1.3c0.2,0.2,0.5,0.5,1.1,0.5s0.9-0.3,1.1-0.5c0.3-0.4,0.3-0.9,0.3-1.3v-3.5h1v3.6
		c0,0.7-0.1,1.3-0.5,1.8c-0.5,0.6-1.2,0.8-1.8,0.8S95.5,68.5,95,68c-0.5-0.5-0.5-1.1-0.5-1.8v-3.6h1V66z"/>
	<path fill="#3A3A3A" d="M109.2,64.2c-0.5-0.7-1.3-0.9-1.9-0.9c-1.1,0-2.1,0.8-2.1,2.2c0,1.5,1,2.2,2.1,2.2c0.6,0,1.4-0.3,1.9-0.9
		v1.2c-0.6,0.5-1.3,0.6-1.9,0.6c-1.9,0-3.2-1.3-3.2-3.1c0-1.8,1.4-3.2,3.2-3.2c1,0,1.6,0.4,1.9,0.6V64.2z"/>
	<path fill="#3A3A3A" d="M110.8,62.6h1v0.6c0.1-0.2,0.5-0.8,1.4-0.8c0.3,0,0.7,0.1,0.9,0.2l-0.5,0.9c-0.2-0.2-0.4-0.2-0.6-0.2
		c-0.4,0-0.7,0.2-0.8,0.4c-0.2,0.2-0.3,0.6-0.3,1.6v3.2h-1V62.6z"/>
	<path fill="#3A3A3A" d="M119.4,62.6h1v6h-1v-0.8c-0.3,0.4-1,1-2,1c-1.5,0-2.9-1.1-2.9-3.2c0-2.1,1.4-3.1,2.9-3.1c1.2,0,1.8,0.6,2,1
		V62.6z M115.5,65.5c0,1.3,0.7,2.2,2,2.2c1.3,0,2-1.1,2-2.2c0-1.5-1.1-2.2-2-2.2C116.4,63.3,115.5,64.1,115.5,65.5z"/>
	<path fill="#3A3A3A" d="M122.7,62.6l1.8,4l1.8-4h1.2l-2.9,6.4l-2.9-6.4H122.7z"/>
	<path fill="#3A3A3A" d="M133.8,67c-0.2,0.3-0.4,0.7-0.7,1c-0.5,0.5-1.2,0.7-2,0.7c-1.4,0-3-0.9-3-3.1c0-1.8,1.1-3.2,2.9-3.2
		c1.2,0,1.9,0.6,2.3,1.1c0.4,0.5,0.6,1.5,0.6,2.2h-4.7c0,1.2,0.9,2,1.9,2c0.5,0,0.9-0.1,1.2-0.4c0.3-0.2,0.5-0.5,0.6-0.8L133.8,67z
		 M132.8,64.9c-0.2-0.9-0.9-1.6-1.8-1.6s-1.6,0.7-1.8,1.6H132.8z"/>
	<path fill="#3A3A3A" d="M136.1,67.2c0.4,0,0.7,0.3,0.7,0.7c0,0.4-0.3,0.7-0.7,0.7c-0.4,0-0.7-0.3-0.7-0.7
		C135.4,67.6,135.7,67.2,136.1,67.2z"/>
	<path fill="#3A3A3A" d="M142.4,58.9l2.5,7.2l3-7.7l2.9,7.7l2.8-7.2h1.2l-4,10.1l-2.8-7.7l-3,7.7l-3.7-10.1H142.4z"/>
	<path fill="#3A3A3A" d="M160.6,67c-0.2,0.3-0.4,0.7-0.7,1c-0.5,0.5-1.2,0.7-2,0.7c-1.4,0-3-0.9-3-3.1c0-1.8,1.1-3.2,2.9-3.2
		c1.2,0,1.9,0.6,2.3,1.1c0.4,0.5,0.6,1.5,0.6,2.2H156c0,1.2,0.9,2,1.9,2c0.5,0,0.9-0.1,1.2-0.4c0.3-0.2,0.5-0.5,0.6-0.8L160.6,67z
		 M159.6,64.9c-0.2-0.9-0.9-1.6-1.8-1.6c-0.9,0-1.6,0.7-1.8,1.6H159.6z"/>
	<path fill="#3A3A3A" d="M168.1,63.9c-0.1-0.3-0.4-0.6-0.8-0.6c-0.4,0-0.7,0.2-0.7,0.7c0,0.4,0.3,0.6,1,0.9c0.9,0.4,1.3,0.6,1.5,0.9
		c0.3,0.3,0.3,0.6,0.3,1c0,1.3-0.9,2-2.1,2c-0.2,0-1.6,0-2.1-1.5l0.9-0.4c0.1,0.3,0.5,1,1.2,1c0.7,0,1-0.5,1-1c0-0.6-0.4-0.8-1-1
		c-0.7-0.3-1.2-0.5-1.5-0.9c-0.2-0.3-0.3-0.6-0.3-0.9c0-1.1,0.7-1.7,1.7-1.7c0.3,0,1.2,0.1,1.6,1.1L168.1,63.9z"/>
	<path fill="#3A3A3A" d="M175.3,62.6h1v6h-1v-0.8c-0.3,0.4-1,1-2,1c-1.5,0-2.9-1.1-2.9-3.2c0-2.1,1.4-3.1,2.9-3.1c1.2,0,1.8,0.6,2,1
		V62.6z M171.4,65.5c0,1.3,0.7,2.2,2,2.2c1.3,0,2-1.1,2-2.2c0-1.5-1.1-2.2-2-2.2C172.3,63.3,171.4,64.1,171.4,65.5z"/>
	<path fill="#3A3A3A" d="M179.3,63.5v5h-1v-5h-0.6v-1h0.6v-2.2h1v2.2h1v1H179.3z"/>
	<path fill="#3A3A3A" d="M181.9,59.6c0.4,0,0.7,0.3,0.7,0.7s-0.3,0.7-0.7,0.7c-0.4,0-0.7-0.3-0.7-0.7S181.5,59.6,181.9,59.6z
		 M182.4,62.6v6h-1v-6H182.4z"/>
	<path fill="#3A3A3A" d="M186.8,63.9c-0.1-0.3-0.4-0.6-0.8-0.6c-0.4,0-0.7,0.2-0.7,0.7c0,0.4,0.3,0.6,1,0.9c0.9,0.4,1.3,0.6,1.5,0.9
		c0.3,0.3,0.3,0.6,0.3,1c0,1.3-0.9,2-2.1,2c-0.2,0-1.6,0-2.1-1.5l0.9-0.4c0.1,0.3,0.5,1,1.2,1c0.7,0,1-0.5,1-1c0-0.6-0.4-0.8-1-1
		c-0.7-0.3-1.2-0.5-1.5-0.9c-0.2-0.3-0.3-0.6-0.3-0.9c0-1.1,0.7-1.7,1.7-1.7c0.3,0,1.2,0.1,1.6,1.1L186.8,63.9z"/>
	<path fill="#3A3A3A" d="M190.5,63.5v5h-1v-5h-0.6v-1h0.6v-2.6c0-0.5,0-1.2,0.6-1.7c0.3-0.2,0.7-0.4,1.2-0.4c0.4,0,0.6,0.1,0.7,0.1
		v1c-0.2-0.1-0.5-0.1-0.7-0.1c-0.2,0-0.5,0.1-0.7,0.3c-0.1,0.2-0.1,0.5-0.1,0.9v2.5h1.5v1H190.5z"/>
	<path fill="#3A3A3A" d="M195.1,68l-2.8-5.4h1.2l2.1,4.3l1.9-4.3h1.2l-4.4,9.3h-1.2L195.1,68z"/>
	<path fill="#3A3A3A" d="M199.9,67.2c0.4,0,0.7,0.3,0.7,0.7c0,0.4-0.3,0.7-0.7,0.7c-0.4,0-0.7-0.3-0.7-0.7
		C199.2,67.6,199.5,67.2,199.9,67.2z"/>
</g>
<g>
	<path fill="#2D2D2D" d="M98.1,12.2H84v10.3h13.7v3.6H84v13.5h14.1v3.6h-18V8.6h18V12.2z"/>
	<path fill="#2D2D2D" d="M104.3,21.7h3.7v2.5c0.7-0.9,2.6-3,6.2-3c2.5,0,4.9,1,6.2,3c1.1,1.6,1.2,3.4,1.2,5.8v13.4h-3.7V30
		c0-1.3-0.1-2.8-1-4c-0.7-0.9-1.9-1.6-3.5-1.6c-1.3,0-2.7,0.4-3.8,1.7c-1.5,1.7-1.6,4.3-1.6,5.8v11.3h-3.7V21.7z"/>
	<path fill="#2D2D2D" d="M129.7,21.7l6.4,14.6l6.4-14.6h4.2l-10.6,23l-10.6-23H129.7z"/>
	<path fill="#2D2D2D" d="M149.4,32.5c0-6.6,4.8-11.4,11.4-11.4s11.4,4.8,11.4,11.4s-4.9,11.3-11.4,11.3S149.4,39.1,149.4,32.5z
		 M153.2,32.5c0,5.3,3.7,8,7.6,8c3.9,0,7.6-2.8,7.6-8c0-5.3-3.6-8.1-7.6-8.1S153.2,27.3,153.2,32.5z"/>
	<path fill="#2D2D2D" d="M184.8,41.2l-9.9-19.6h4.3l7.6,15.4l7-15.4h4.2l-15.9,33.5h-4.2L184.8,41.2z"/>
</g>
<g>
</g>
<g>
</g>
<g>
</g>
<g>
</g>
<g>
</g>
<g>
</g>
</svg>
