<?xml version="1.0" encoding="utf-8"?>
<!-- Generator: Adobe Illustrator 17.0.0, SVG Export Plug-In . SVG Version: 6.00 Build 0)  -->
<!DOCTYPE svg PUBLIC "-//W3C//DTD SVG 1.1//EN" "http://www.w3.org/Graphics/SVG/1.1/DTD/svg11.dtd">
<svg version="1.1" id="Layer_1" xmlns="http://www.w3.org/2000/svg" xmlns:xlink="http://www.w3.org/1999/xlink" x="0px" y="0px"
	 width="534.25px" height="606.279px" viewBox="200.53 1 534.25 606.279" enable-background="new 200.53 1 534.25 606.279"
	 xml:space="preserve">
<g id="_x39_gpEcV_1_">
	<g>
		<g>
			<path fill="#F0EFEF" d="M468,1c89.333,0,178.667,0,268,0c0,133.145,0.025,266.29-0.044,399.436
				c-0.006,11.765,0.112,23.61-1.168,35.271c-1.175,10.7-3.322,21.465-6.546,31.729c-5.079,16.171-13.989,30.311-25.115,43.267
				c-23.725,27.628-54.181,42.216-89.69,46.033c-19.418,2.087-38.779-0.419-57.324-7.721c-43.355-17.072-71.353-47.93-84.022-92.694
				c-1.713-6.054-2.743-12.301-4.089-18.459C468.002,292.241,468.001,146.621,468,1z"/>
			<path fill="#EE5AA0" d="M468,1c0.001,145.621,0.002,291.241,0.003,436.862c-0.348,0.704-0.845,1.372-1.021,2.116
				c-2.089,8.832-3.36,17.942-6.306,26.474c-23.635,68.45-95.823,105.502-164.987,85.167c-30.281-8.903-54.827-26.969-72.559-53.421
				c-15.235-22.727-23.211-47.727-23.187-75.336C200.068,282.241,200,141.621,200,1C289.333,1,378.667,1,468,1z"/>
			<path fill="#7A626C" d="M200,1c0,140.621,0.068,281.241-0.057,421.862c-0.025,27.61,7.952,52.609,23.187,75.336
				c17.732,26.452,42.278,44.518,72.559,53.421c69.164,20.335,141.352-16.717,164.987-85.167c2.946-8.532,4.217-17.642,6.306-26.474
				c0.176-0.744,0.673-1.413,1.021-2.116c1.346,6.158,2.376,12.405,4.089,18.459c12.669,44.764,40.666,75.622,84.022,92.694
				c18.545,7.302,37.906,9.808,57.324,7.721c35.509-3.817,65.965-18.405,89.69-46.033c11.126-12.957,20.036-27.096,25.115-43.267
				c3.224-10.264,5.371-21.029,6.546-31.729c1.28-11.661,1.162-23.506,1.168-35.271C736.025,267.29,736,134.145,736,1
				c16.667,0,33.333,0,50,0c0,139.991,0.151,279.982-0.234,419.972c-0.038,13.942-2.804,27.973-5.308,41.78
				c-1.96,10.811-4.829,21.566-8.443,31.945c-6.214,17.846-17.416,32.871-29.289,47.298c-17.306,21.027-38.467,37.537-63.264,48.439
				c-13.435,5.907-28.181,9.175-42.619,12.344c-11.153,2.448-22.726,3.109-34.149,4.167c-14.988,1.388-29.354-2.821-43.885-5.468
				c-34.643-6.312-62.713-24.581-87.661-48.39c-3.07-2.93-4.486-1.56-6.836,0.6c-20.236,18.607-41.817,35.369-68.795,42.879
				c-14.805,4.121-30.052,6.808-45.226,9.406c-20.026,3.429-39.635-0.551-59.264-4.303c-32.757-6.261-60.426-22.32-84.006-45.018
				c-23.409-22.532-41.468-48.781-49.255-81.206c-5.063-21.084-7.976-42.185-7.926-63.974C150.156,274.649,150,137.824,150,1
				C166.667,1,183.333,1,200,1z"/>
		</g>
	</g>
</g>
</svg>
