<?xml version="1.0" encoding="utf-8"?>
<!-- Generator: Adobe Illustrator 17.0.0, SVG Export Plug-In . SVG Version: 6.00 Build 0)  -->
<!DOCTYPE svg PUBLIC "-//W3C//DTD SVG 1.1//EN" "http://www.w3.org/Graphics/SVG/1.1/DTD/svg11.dtd">
<svg version="1.1" id="Layer_1" xmlns="http://www.w3.org/2000/svg" xmlns:xlink="http://www.w3.org/1999/xlink" x="0px" y="0px"
	 width="289.273px" height="37.902px" viewBox="0 0 289.273 37.902" enable-background="new 0 0 289.273 37.902"
	 xml:space="preserve">
<g>
	<path fill="#56444B" d="M0,24.852c0-7.5,5.45-12.901,13.201-12.901c7.851,0,10.551,4.15,10.551,6.6c0,3.8-4.95,4.5-5.101,4.15
		c-0.8-1.95-2.2-3.3-4.9-3.3c-3,0-5.15,2.35-5.15,5.451c0,3.25,2.1,5.6,5.15,5.6c2.5,0,4.1-1.35,4.9-3.3
		c0.1-0.35,5.101,0.15,5.101,4.2c0,2.45-3,6.551-10.551,6.551C5.3,37.902,0,32.602,0,24.852z"/>
	<path fill="#56444B" d="M41.9,11.9c3.2,0,5.25,2.05,5.25,5.15c0,3.851-3.05,5.15-3.15,5.05c-0.8-0.7-2.05-1.3-3.45-1.3
		c-2.85,0-4.25,2.05-4.25,6.1v5.9c0,3.5-1.8,4.65-4.25,4.65h-1c-2.55,0-4.35-1.1-4.35-4.65V13.25c0-0.35,1.75-1.1,3.7-1.1
		c2.2,0,4.65,0.95,5.55,4.4C36.85,13.75,38.95,11.9,41.9,11.9z"/>
	<path fill="#56444B" d="M58.6,37.902c-6.45,0-8.8-4.7-8.8-9.801V16.801c0-3.5,1.75-4.65,4.25-4.65H55c2.6,0,4.4,1.05,4.4,4.65
		v9.601c0,2.25,1.2,3.65,3.25,3.65c1.6,0,2.95-0.8,3.7-1.95V16.801c0-3.5,1.75-4.65,4.25-4.65h1c2.55,0,4.35,1.05,4.35,4.65v19.551
		c0,0.3-1.75,1.1-3.7,1.1c-2.15,0-4.6-0.9-5.5-4.2C65,35.902,62.6,37.902,58.6,37.902z"/>
	<path fill="#56444B" d="M97.7,11.9c6.45,0,8.8,4.65,8.8,9.801v11.101c0,3.45-1.75,4.65-4.25,4.65h-0.95c-2.6,0-4.4-1.1-4.4-4.65
		v-9.451c0-2.25-1.2-3.65-3.2-3.65c-1.7,0-3,0.85-3.75,2v11.101c0,3.5-1.8,4.65-4.25,4.65h-1c-2.55,0-4.35-1.1-4.35-4.65V13.25
		c0-0.35,1.75-1.1,3.7-1.1c2.2,0,4.6,0.95,5.5,4.3C91.3,13.801,93.7,11.9,97.7,11.9z"/>
	<path fill="#56444B" d="M109.548,24.852c0-7.5,5.45-12.901,13.201-12.901c7.851,0,10.551,4.15,10.551,6.6
		c0,3.8-4.95,4.5-5.101,4.15c-0.8-1.95-2.2-3.3-4.9-3.3c-3,0-5.15,2.35-5.15,5.451c0,3.25,2.1,5.6,5.15,5.6c2.5,0,4.1-1.35,4.9-3.3
		c0.1-0.35,5.101,0.15,5.101,4.2c0,2.45-3,6.551-10.551,6.551C114.849,37.902,109.548,32.602,109.548,24.852z"/>
	<path fill="#56444B" d="M153.599,11.9c6.451,0,8.801,4.851,8.801,10.151v10.75c0,3.45-1.75,4.65-4.25,4.65h-0.95
		c-2.601,0-4.4-1.1-4.4-4.65v-9.2c0-2.45-1.2-3.9-3.15-3.9c-2.45,0-3.8,1.5-3.8,4.05v9.05c0,3.5-1.8,4.65-4.25,4.65h-1
		c-2.55,0-4.35-1.1-4.35-4.65V3.1c0-0.35,1.75-1.1,3.7-1.1c2.75,0,5.9,1.45,5.9,7.3v7.051C147.349,13.801,149.749,11.9,153.599,11.9
		z"/>
	<path fill="#56444B" d="M173.946,24.852c0-7.5,5.451-12.901,13.201-12.901c7.851,0,10.551,4.15,10.551,6.6
		c0,3.8-4.95,4.5-5.101,4.15c-0.8-1.95-2.2-3.3-4.9-3.3c-3,0-5.15,2.35-5.15,5.451c0,3.25,2.101,5.6,5.15,5.6
		c2.5,0,4.101-1.35,4.9-3.3c0.101-0.35,5.101,0.15,5.101,4.2c0,2.45-3,6.551-10.551,6.551
		C179.247,37.902,173.946,32.602,173.946,24.852z"/>
	<path fill="#56444B" d="M211.797,18.751c-3.1,0-4.35,1.8-5,3.25c-0.05,0.15-6.351,0.55-6.351-3.75c0-3.9,3.7-6.351,11.9-6.351
		c8.901,0,12.801,3.45,12.801,10.551v14.101c0,0.5-1.85,1.1-3.7,1.1c-2.75,0-4.649-1.4-5.4-4.05c-1.6,2.6-4.649,4.1-8.3,4.1
		c-5.001,0-8.251-3-8.251-7.3c0-5.65,4.65-8.351,15.151-8.401h1C215.447,19.851,214.147,18.751,211.797,18.751z M215.697,27.602
		v-0.85h-1.2c-3.85,0.1-5.9,0.9-5.9,2.8c0,1.45,1.15,2.3,2.9,2.3C214.047,31.852,215.697,30.102,215.697,27.602z"/>
	<path fill="#56444B" d="M231.196,19.651c-2.6,0-3.899-1.15-3.899-3.45v-0.5c0-2.15,1.3-3.3,3.899-3.3h1.001v-0.65
		c0-7.75,4-10,9.45-10c5,0,7.101,2.15,7.101,4.55c0,2.1-1.7,3.85-1.851,3.75c-0.7-0.7-1.75-1.2-3.05-1.2
		c-1.601,0-2.45,0.75-2.45,2.75v0.8h2.1c2.601,0,3.9,1.2,3.9,3.451v0.55c0,2.1-1.3,3.25-3.9,3.25h-1.699v13.151
		c0,3.55-1.7,4.65-4.301,4.65h-1c-2.45,0-4.3-1.2-4.3-4.65V19.651H231.196z"/>
	<path fill="#56444B" d="M263.296,31.252c2.95,0,5.051-1.45,6.001-3.15c0-0.1,4.4,0.35,4.4,4c0,3.3-3.851,5.8-10.851,5.8
		c-8.501,0-13.802-4.8-13.802-12.801c0-7.601,5.501-13.201,13.201-13.201c7.601,0,12.9,5.201,12.9,12.351v0.6
		c-0.05,1.45-0.5,2.5-1.949,2.5h-15.651C258.146,29.952,260.246,31.252,263.296,31.252z M266.496,22.401
		c-0.1-2.55-1.7-4.25-4.35-4.25c-2.5,0-4.45,1.8-4.751,4.25H266.496z M263.097,0.8c0.899-0.5,1.8-0.8,2.7-0.8
		c2.399,0,4.3,1.6,4.3,3.7c0,1.75-1.05,3.65-2.851,4.65c-4.3,2.4-9.101,1.35-9.55,0.5C257.246,8,259.746,2.75,263.097,0.8z"/>
	<path fill="#56444B" d="M280.595,23.401l-2.6-13.051c-0.95-3.65,1.149-6.101,4.8-6.101h1.25c3.851,0,5.95,2.45,5.001,6.101
		l-2.551,13.051c-0.55,2.05-1.2,3-2.55,3h-0.95C281.745,26.401,281.095,25.452,280.595,23.401z M278.795,33.552v-0.8
		c0-2.75,1.35-4.05,4.101-4.05h1.149c2.851,0,4.15,1.3,4.15,4.05v0.8c0,2.75-1.3,4.05-4.15,4.05h-1.149
		C280.195,37.602,278.795,36.302,278.795,33.552z"/>
</g>
</svg>
