<?xml version="1.0" encoding="utf-8"?>
<!-- Generator: Adobe Illustrator 17.0.0, SVG Export Plug-In . SVG Version: 6.00 Build 0)  -->
<!DOCTYPE svg PUBLIC "-//W3C//DTD SVG 1.1//EN" "http://www.w3.org/Graphics/SVG/1.1/DTD/svg11.dtd">
<svg version="1.1" id="Layer_1" xmlns="http://www.w3.org/2000/svg" xmlns:xlink="http://www.w3.org/1999/xlink" x="0px" y="0px"
	 width="297.272px" height="45.902px" viewBox="0 0 297.272 45.902" enable-background="new 0 0 297.272 45.902"
	 xml:space="preserve">
<g>
	<g>
		<path fill="#57454C" d="M17.201,43.902C8.251,43.902,2,37.713,2,28.852c0-8.634,6.393-14.901,15.201-14.901
			c9.208,0,12.551,5.143,12.551,8.6c0,4.402-4.402,6.23-6.758,6.23c-1.467,0-2.013-0.902-2.18-1.29
			c-0.621-1.513-1.476-2.09-3.062-2.09c-1.855,0-3.15,1.419-3.15,3.451c0,2.187,1.237,3.6,3.15,3.6c1.484,0,2.481-0.673,3.049-2.059
			l0.001,0c0.198-0.477,0.762-1.333,2.248-1.333c2.703,0,6.703,2,6.703,6.292C29.751,38.902,25.857,43.902,17.201,43.902z"/>
		<path fill="#EFEFEF" d="M17.201,15.951c7.851,0,10.551,4.15,10.551,6.6c0,3.246-3.611,4.23-4.759,4.23
			c-0.196,0-0.32-0.029-0.342-0.08c-0.8-1.95-2.2-3.3-4.9-3.3c-3,0-5.15,2.35-5.15,5.451c0,3.25,2.1,5.6,5.15,5.6
			c2.5,0,4.1-1.35,4.9-3.3c0.016-0.057,0.164-0.092,0.398-0.092c1.202,0,4.702,0.903,4.702,4.292c0,2.45-3,6.551-10.551,6.551
			C9.3,41.902,4,36.602,4,28.852C4,21.351,9.45,15.951,17.201,15.951 M17.201,11.951C7.234,11.951,0,19.059,0,28.852
			c0,10.039,7.073,17.051,17.201,17.051c5.366,0,8.715-1.747,10.579-3.212c2.487-1.955,3.972-4.698,3.972-7.339
			c0-2.958-1.42-5.089-3.276-6.45c2.091-1.53,3.276-3.811,3.276-6.351c0-2.65-1.425-5.389-3.811-7.325
			C26.099,13.732,22.74,11.951,17.201,11.951L17.201,11.951z M17.751,30.452c-0.763,0-1.15-0.538-1.15-1.6
			c0-0.436,0.112-1.451,1.15-1.451c0.783,0,0.895,0.076,1.199,0.818l0.013,0.031l0.013,0.03c0.063,0.147,0.175,0.377,0.351,0.64
			c-0.157,0.238-0.285,0.485-0.385,0.734C18.655,30.34,18.354,30.452,17.751,30.452L17.751,30.452z"/>
	</g>
	<g>
		<path fill="#57454C" d="M35.05,43.452c-4.036,0-6.35-2.424-6.35-6.65V17.25c0-2.543,4.115-3.1,5.7-3.1
			c2.32,0,4.244,0.81,5.61,2.302C41.5,14.814,43.545,13.9,45.9,13.9c4.269,0,7.25,2.94,7.25,7.15c0,4.654-3.595,7.055-5.128,7.056
			h-0.829l-0.542-0.528c-0.45-0.381-1.228-0.777-2.101-0.777c-0.786,0-2.25,0-2.25,4.1v5.9c0,4.227-2.278,6.65-6.25,6.65H35.05z"/>
		<path fill="#EFEFEF" d="M45.9,15.9c3.2,0,5.25,2.05,5.25,5.15c0,3.715-2.839,5.056-3.129,5.056c-0.011,0-0.018-0.002-0.021-0.005
			c-0.8-0.7-2.05-1.3-3.45-1.3c-2.85,0-4.25,2.05-4.25,6.1v5.9c0,3.5-1.8,4.65-4.25,4.65h-1c-2.55,0-4.35-1.1-4.35-4.65V17.25
			c0-0.35,1.75-1.1,3.7-1.1c2.2,0,4.65,0.95,5.55,4.4C40.85,17.75,42.95,15.9,45.9,15.9 M45.9,11.9c-2.216,0-4.241,0.676-5.904,1.9
			c-1.547-1.071-3.449-1.65-5.596-1.65c-2.663,0-7.7,1.066-7.7,5.1v19.551c0,5.336,3.2,8.65,8.35,8.65h1
			c5.089,0,8.25-3.315,8.25-8.65v-5.9c0-1.196,0.156-1.82,0.258-2.1c0.295,0.003,0.585,0.144,0.748,0.262l1.037,1.038l1.678,0.005
			c2.488,0,7.129-3.11,7.129-9.056C55.151,15.749,51.26,11.9,45.9,11.9L45.9,11.9z"/>
	</g>
	<g>
		<path fill="#57454C" d="M62.6,43.902c-6.662,0-10.8-4.522-10.8-11.801V20.801c0-4.227,2.278-6.65,6.25-6.65H59
			c4.127,0,6.4,2.362,6.4,6.65v9.601c0,1.65,0.813,1.65,1.25,1.65c0.658,0,1.264-0.238,1.7-0.653V20.801
			c0-4.227,2.278-6.65,6.25-6.65h1c4.095,0,6.35,2.362,6.35,6.65v19.551c0,2.531-4.221,3.1-5.7,3.1c-2.488,0-4.52-0.916-5.89-2.592
			C68.235,42.902,65.674,43.902,62.6,43.902z"/>
		<path fill="#EFEFEF" d="M75.601,16.15c2.55,0,4.35,1.05,4.35,4.65v19.551c0,0.3-1.75,1.1-3.7,1.1c-2.15,0-4.6-0.9-5.5-4.2
			c-1.75,2.65-4.15,4.65-8.151,4.65c-6.45,0-8.8-4.7-8.8-9.801V20.801c0-3.5,1.75-4.65,4.25-4.65H59c2.6,0,4.4,1.05,4.4,4.65v9.601
			c0,2.25,1.2,3.65,3.25,3.65c1.6,0,2.95-0.8,3.7-1.95V20.801c0-3.5,1.75-4.65,4.25-4.65H75.601 M75.601,12.15h-1
			c-3.866,0-6.619,1.912-7.72,5.171C65.787,14.029,63.009,12.15,59,12.15h-0.95c-5.089,0-8.25,3.315-8.25,8.65v11.301
			c0,8.384,5.024,13.801,12.8,13.801c2.903,0,5.464-0.794,7.66-2.368c1.612,1.242,3.657,1.918,5.991,1.918
			c2.663,0,7.7-1.066,7.7-5.1V20.801C83.951,15.384,80.829,12.15,75.601,12.15L75.601,12.15z"/>
	</g>
	<g>
		<path fill="#57454C" d="M105.3,43.452c-4.127,0-6.4-2.362-6.4-6.65v-9.451c0-1.65-0.811-1.65-1.2-1.65
			c-0.843,0-1.402,0.346-1.75,0.693v10.407c0,4.227-2.278,6.65-6.25,6.65h-1c-4.036,0-6.35-2.424-6.35-6.65V17.25
			c0-2.543,4.115-3.1,5.7-3.1c2.506,0,4.55,0.949,5.922,2.682c2.098-1.968,4.649-2.932,7.729-2.932c6.662,0,10.8,4.522,10.8,11.801
			v11.101c0,4.227-2.278,6.65-6.25,6.65H105.3z"/>
		<path fill="#EFEFEF" d="M101.7,15.9c6.45,0,8.8,4.65,8.8,9.801v11.101c0,3.45-1.75,4.65-4.25,4.65h-0.95c-2.6,0-4.4-1.1-4.4-4.65
			v-9.451c0-2.25-1.2-3.65-3.2-3.65c-1.7,0-3,0.85-3.75,2v11.101c0,3.5-1.8,4.65-4.25,4.65h-1c-2.55,0-4.35-1.1-4.35-4.65V17.25
			c0-0.35,1.75-1.1,3.7-1.1c2.2,0,4.6,0.95,5.5,4.3C95.3,17.801,97.7,15.9,101.7,15.9 M101.7,11.9c-2.882,0-5.418,0.756-7.585,2.256
			c-1.624-1.299-3.696-2.006-6.066-2.006c-2.663,0-7.7,1.066-7.7,5.1v19.551c0,5.336,3.2,8.65,8.35,8.65h1
			c3.878,0,6.637-1.925,7.73-5.203c1.113,3.278,3.922,5.203,7.871,5.203h0.95c5.089,0,8.25-3.315,8.25-8.65V25.701
			C114.5,17.318,109.476,11.9,101.7,11.9L101.7,11.9z"/>
	</g>
	<g>
		<path fill="#57454C" d="M126.749,43.902c-8.95,0-15.201-6.189-15.201-15.051c0-8.634,6.393-14.901,15.201-14.901
			c9.208,0,12.551,5.143,12.551,8.6c0,4.402-4.402,6.23-6.758,6.23c-1.467,0-2.013-0.902-2.18-1.29
			c-0.621-1.513-1.476-2.09-3.062-2.09c-1.855,0-3.15,1.419-3.15,3.451c0,2.187,1.237,3.6,3.15,3.6c1.484,0,2.481-0.673,3.049-2.059
			l0.001,0c0.198-0.477,0.762-1.333,2.248-1.333c2.703,0,6.703,2,6.703,6.292C139.3,38.902,135.406,43.902,126.749,43.902z"/>
		<path fill="#EFEFEF" d="M126.749,15.951c7.851,0,10.551,4.15,10.551,6.6c0,3.246-3.611,4.23-4.759,4.23
			c-0.196,0-0.32-0.029-0.342-0.08c-0.8-1.95-2.2-3.3-4.9-3.3c-3,0-5.15,2.35-5.15,5.451c0,3.25,2.1,5.6,5.15,5.6
			c2.5,0,4.1-1.35,4.9-3.3c0.016-0.057,0.163-0.092,0.398-0.092c1.202,0,4.702,0.903,4.702,4.292c0,2.45-3,6.551-10.551,6.551
			c-7.9,0-13.201-5.3-13.201-13.051C113.548,21.351,118.999,15.951,126.749,15.951 M126.749,11.951
			c-9.967,0-17.201,7.108-17.201,16.901c0,10.039,7.073,17.051,17.201,17.051c5.366,0,8.715-1.747,10.579-3.212
			c2.487-1.955,3.972-4.698,3.972-7.339c0-2.958-1.42-5.089-3.276-6.45c2.091-1.53,3.276-3.811,3.276-6.351
			c0-2.65-1.425-5.389-3.811-7.325C135.647,13.732,132.289,11.951,126.749,11.951L126.749,11.951z M127.299,30.452
			c-0.763,0-1.15-0.538-1.15-1.6c0-0.436,0.112-1.451,1.15-1.451c0.783,0,0.895,0.076,1.199,0.818l0.013,0.031l0.013,0.03
			c0.063,0.147,0.175,0.377,0.351,0.64c-0.157,0.238-0.285,0.485-0.385,0.734C128.204,30.34,127.902,30.452,127.299,30.452
			L127.299,30.452z"/>
	</g>
	<g>
		<path fill="#57454C" d="M161.199,43.452c-4.127,0-6.4-2.362-6.4-6.65v-9.2c0-1.9-0.836-1.9-1.15-1.9c-0.871,0-1.8,0.158-1.8,2.05
			v9.05c0,4.227-2.278,6.65-6.25,6.65h-1c-4.036,0-6.35-2.424-6.35-6.65V7.1c0-2.543,4.115-3.1,5.7-3.1c1.854,0,7.9,0.671,7.9,9.3
			v2.138c1.651-1.015,3.585-1.538,5.75-1.538c6.662,0,10.801,4.656,10.801,12.151v10.75c0,4.227-2.278,6.65-6.25,6.65H161.199z"/>
		<path fill="#EFEFEF" d="M143.948,6c2.75,0,5.9,1.45,5.9,7.3v7.051c1.5-2.55,3.9-4.451,7.75-4.451
			c6.451,0,8.801,4.851,8.801,10.151v10.75c0,3.45-1.75,4.65-4.25,4.65h-0.95c-2.601,0-4.4-1.1-4.4-4.65v-9.2
			c0-2.45-1.2-3.9-3.15-3.9c-2.45,0-3.8,1.5-3.8,4.05v9.05c0,3.5-1.8,4.65-4.25,4.65h-1c-2.55,0-4.35-1.1-4.35-4.65V7.1
			C140.248,6.75,141.998,6,143.948,6 M143.948,2c-1.295,0-2.668,0.224-3.867,0.631c-3.335,1.132-3.833,3.286-3.833,4.469v29.702
			c0,5.336,3.2,8.65,8.35,8.65h1c3.878,0,6.637-1.925,7.73-5.203c1.113,3.278,3.922,5.203,7.871,5.203h0.95
			c5.089,0,8.25-3.315,8.25-8.65v-10.75c0-8.596-5.025-14.151-12.801-14.151c-1.334,0-2.594,0.168-3.771,0.498
			c-0.157-3.341-1.204-5.968-3.118-7.818C148.964,2.892,146.626,2,143.948,2L143.948,2z"/>
	</g>
	<g>
		<path fill="#57454C" d="M191.147,43.902c-8.95,0-15.201-6.189-15.201-15.051c0-8.634,6.393-14.901,15.201-14.901
			c9.208,0,12.551,5.143,12.551,8.6c0,4.402-4.402,6.23-6.758,6.23c-1.467,0-2.013-0.902-2.18-1.29
			c-0.621-1.513-1.476-2.09-3.063-2.09c-1.855,0-3.15,1.419-3.15,3.451c0,2.187,1.237,3.6,3.15,3.6c1.484,0,2.482-0.673,3.05-2.059
			l0.001,0c0.198-0.476,0.762-1.333,2.248-1.333c2.703,0,6.702,2,6.702,6.292C203.698,38.902,199.804,43.902,191.147,43.902z"/>
		<path fill="#EFEFEF" d="M191.147,15.951c7.851,0,10.551,4.15,10.551,6.6c0,3.246-3.611,4.23-4.759,4.23
			c-0.196,0-0.32-0.029-0.342-0.08c-0.8-1.95-2.2-3.3-4.9-3.3c-3,0-5.15,2.35-5.15,5.451c0,3.25,2.101,5.6,5.15,5.6
			c2.5,0,4.101-1.35,4.9-3.3c0.016-0.057,0.164-0.092,0.398-0.092c1.202,0,4.702,0.903,4.702,4.292c0,2.45-3,6.551-10.551,6.551
			c-7.9,0-13.201-5.3-13.201-13.051C177.946,21.351,183.397,15.951,191.147,15.951 M191.147,11.951
			c-9.967,0-17.201,7.108-17.201,16.901c0,10.039,7.073,17.051,17.201,17.051c5.366,0,8.715-1.747,10.579-3.212
			c2.487-1.955,3.972-4.698,3.972-7.339c0-2.958-1.42-5.089-3.276-6.45c2.091-1.53,3.276-3.811,3.276-6.351
			c0-2.65-1.425-5.389-3.811-7.325C200.045,13.732,196.687,11.951,191.147,11.951L191.147,11.951z M191.697,30.452
			c-0.763,0-1.15-0.538-1.15-1.6c0-0.436,0.112-1.451,1.15-1.451c0.783,0,0.895,0.076,1.2,0.818l0.013,0.031l0.013,0.03
			c0.063,0.147,0.175,0.377,0.351,0.64c-0.156,0.237-0.284,0.484-0.384,0.732C192.603,30.34,192.301,30.452,191.697,30.452
			L191.697,30.452z"/>
	</g>
	<g>
		<path fill="#57454C" d="M211.747,43.702c-6.036,0-10.251-3.824-10.251-9.3c0-3.553,1.53-5.891,3.709-7.429
			c-1.784-1.019-2.759-2.678-2.759-4.722c0-3.119,1.806-8.351,13.9-8.351c9.821,0,14.801,4.223,14.801,12.551v14.101
			c0,3.013-5.117,3.1-5.7,3.1c-2.458,0-4.47-0.904-5.826-2.556C217.587,42.777,214.852,43.702,211.747,43.702z M217.445,32.805
			c-2.436,0.184-2.852,0.699-2.856,0.705c0.007,0.108,0.017,0.145,0.02,0.153c0.03,0.033,0.287,0.189,0.888,0.189
			C216.437,33.852,217.107,33.482,217.445,32.805z"/>
		<path fill="#EFEFEF" d="M216.347,15.9c8.901,0,12.801,3.45,12.801,10.551v14.101c0,0.5-1.85,1.1-3.7,1.1
			c-2.75,0-4.649-1.4-5.4-4.05c-1.6,2.6-4.649,4.1-8.3,4.1c-5.001,0-8.251-3-8.251-7.3c0-5.65,4.65-8.351,15.151-8.401h1
			c-0.2-2.15-1.5-3.25-3.851-3.25c-3.1,0-4.35,1.8-5,3.25c-0.012,0.035-0.359,0.083-0.886,0.083c-1.746,0-5.464-0.53-5.464-3.833
			C204.446,18.351,208.146,15.9,216.347,15.9 M215.497,35.852c2.55,0,4.2-1.75,4.2-4.25v-0.85h-1.2c-3.85,0.1-5.9,0.9-5.9,2.8
			C212.597,35.002,213.747,35.852,215.497,35.852 M216.347,11.9c-4.737,0-8.332,0.729-10.991,2.229
			c-3.166,1.786-4.91,4.671-4.91,8.122c0,1.857,0.598,3.473,1.672,4.747c-1.745,1.92-2.622,4.39-2.622,7.404
			c0,6.548,5.152,11.3,12.251,11.3c2.891,0,5.517-0.706,7.676-2.014c1.612,1.271,3.672,1.964,6.024,1.964c4.678,0,7.7-2.002,7.7-5.1
			V26.451C233.147,19.813,230.233,11.9,216.347,11.9L216.347,11.9z"/>
	</g>
	<g>
		<path fill="#57454C" d="M240.497,43.452c-3.945,0-6.3-2.486-6.3-6.65V25.598c-3.089-0.341-4.9-2.304-4.9-5.397v-0.5
			c0-3.02,1.826-4.933,4.938-5.252c0.423-7.007,4.347-10.698,11.412-10.698c6.717,0,9.101,3.529,9.101,6.55
			c0,2.074-1.349,4.743-2.935,5.528c1.025,0.937,1.584,2.306,1.584,4.023v0.55c0,2.479-1.478,5.123-5.6,5.246v11.155
			c0,4.289-2.238,6.65-6.301,6.65H240.497z"/>
		<path fill="#EFEFEF" d="M245.647,5.75c5,0,7.101,2.15,7.101,4.55c0,2.043-1.608,3.754-1.835,3.754
			c-0.006,0-0.012-0.001-0.016-0.004c-0.7-0.7-1.75-1.2-3.05-1.2c-1.601,0-2.45,0.75-2.45,2.75v0.8h2.1c2.601,0,3.9,1.2,3.9,3.451
			v0.55c0,2.1-1.3,3.25-3.9,3.25h-1.699v13.151c0,3.55-1.7,4.65-4.301,4.65h-1c-2.45,0-4.3-1.2-4.3-4.65V23.651h-1.001
			c-2.6,0-3.899-1.15-3.899-3.45v-0.5c0-2.15,1.3-3.3,3.899-3.3h1.001v-0.65C236.197,8,240.197,5.75,245.647,5.75 M245.647,1.75
			c-7.667,0-12.289,3.886-13.259,11.024c-3.165,0.911-5.092,3.432-5.092,6.927v0.5c0,3.495,1.849,6.034,4.9,7.01v9.591
			c0,5.255,3.258,8.65,8.3,8.65h1c5.198,0,8.301-3.234,8.301-8.65v-9.393c3.466-0.774,5.6-3.355,5.6-7.008v-0.55
			c0-1.408-0.3-2.66-0.858-3.719c0.26-0.313,0.514-0.666,0.76-1.057c0.661-1.049,1.448-2.728,1.448-4.775
			C256.748,4.394,251.173,1.75,245.647,1.75L245.647,1.75z"/>
	</g>
	<g>
		<path fill="#57454C" d="M266.847,43.902c-9.599,0-15.802-5.81-15.802-14.801c0-6.884,3.904-12.292,9.815-14.327
			c-0.392-0.261-0.719-0.585-0.932-0.989c-1.31-2.472,2.672-8.682,6.163-10.714C267.398,2.344,268.599,2,269.797,2
			c3.533,0,6.3,2.504,6.3,5.7c0,2.578-1.522,5.089-3.879,6.399c-0.345,0.192-0.689,0.365-1.031,0.518
			c5.983,1.832,9.96,7.009,9.96,13.634v0.6c-0.089,2.599-1.249,3.705-2.328,4.171c0.535,0.815,0.879,1.83,0.879,3.08
			C279.697,39.7,276.332,43.902,266.847,43.902z M267.39,24.401c-0.338-0.167-0.753-0.25-1.243-0.25
			c-0.425,0-0.824,0.088-1.179,0.25H267.39z"/>
		<path fill="#EFEFEF" d="M269.797,4c2.399,0,4.3,1.6,4.3,3.7c0,1.75-1.05,3.65-2.851,4.65c-1.976,1.103-4.058,1.477-5.774,1.477
			c-2.019,0-3.533-0.518-3.775-0.977c-0.45-0.85,2.05-6.101,5.4-8.051C267.996,4.3,268.896,4,269.797,4 M266.246,15.9
			c7.601,0,12.9,5.201,12.9,12.351v0.6c-0.05,1.45-0.5,2.5-1.949,2.5h-15.651c0.6,2.6,2.7,3.9,5.75,3.9
			c2.95,0,5.051-1.45,6.001-3.15c0-0.008,0.026-0.012,0.074-0.012c0.576,0,4.327,0.642,4.327,4.013c0,3.3-3.851,5.8-10.851,5.8
			c-8.501,0-13.802-4.8-13.802-12.801C253.045,21.501,258.546,15.9,266.246,15.9 M261.396,26.401h9.101
			c-0.1-2.55-1.7-4.25-4.35-4.25C263.646,22.151,261.696,23.951,261.396,26.401 M269.797,0c-1.525,0-3.088,0.439-4.644,1.304
			l-0.035,0.019l-0.034,0.02c-2.761,1.607-4.664,4.357-5.552,5.852c-2.062,3.472-2.092,5.489-1.695,6.759
			c-5.329,2.855-8.792,8.437-8.792,15.147c0,10.206,6.988,16.801,17.802,16.801c10.961,0,14.851-5.279,14.851-9.8
			c0-0.834-0.125-1.635-0.365-2.388c1.016-1.011,1.736-2.54,1.812-4.725l0.002-0.069v-0.069v-0.6c0-6.17-3.014-11.238-7.821-14.023
			c1.731-1.742,2.771-4.109,2.771-6.528C278.097,3.382,274.451,0,269.797,0L269.797,0z"/>
	</g>
	<g>
		<path fill="#57454C" d="M286.896,43.602c-3.82,0-6.101-2.262-6.101-6.05v-0.8c0-2.817,1.193-4.754,3.357-5.589
			c-0.959-1.065-1.319-2.545-1.501-3.288l-2.607-13.08c-0.583-2.302-0.231-4.439,0.994-6.024c1.257-1.625,3.301-2.521,5.757-2.521
			h1.25c2.569,0,4.688,0.91,5.966,2.562c1.216,1.572,1.565,3.693,0.987,5.979l-2.554,13.062l-0.018,0.067
			c-0.214,0.798-0.599,2.232-1.565,3.264c2.149,0.845,3.334,2.773,3.334,5.569v0.8c0,3.845-2.242,6.05-6.15,6.05H286.896z"/>
		<path fill="#EFEFEF" d="M288.045,8.25c3.851,0,5.95,2.45,5.001,6.101l-2.551,13.051c-0.55,2.05-1.2,3-2.55,3h-0.95
			c-1.25,0-1.9-0.95-2.4-3l-2.6-13.051c-0.95-3.65,1.149-6.101,4.8-6.101H288.045 M288.045,32.702c2.851,0,4.15,1.3,4.15,4.05v0.8
			c0,2.75-1.3,4.05-4.15,4.05h-1.149c-2.7,0-4.101-1.3-4.101-4.05v-0.8c0-2.75,1.35-4.05,4.101-4.05H288.045 M288.045,4.25h-1.25
			c-3.089,0-5.696,1.171-7.34,3.298c-1.6,2.07-2.082,4.795-1.363,7.686l2.579,12.949l0.017,0.084l0.02,0.083
			c0.168,0.691,0.397,1.415,0.708,2.112c-1.68,1.393-2.621,3.557-2.621,6.291v0.8c0,4.89,3.18,8.05,8.101,8.05h1.149
			c5.027,0,8.15-3.085,8.15-8.05v-0.8c0-2.7-0.923-4.844-2.575-6.239c0.287-0.619,0.533-1.311,0.738-2.076l0.036-0.133l0.026-0.135
			l2.53-12.943c0.712-2.874,0.232-5.581-1.357-7.637C293.928,5.436,291.248,4.25,288.045,4.25L288.045,4.25z"/>
	</g>
</g>
</svg>
