<?xml version="1.0" encoding="utf-8"?>
<!-- Generator: Adobe Illustrator 17.0.0, SVG Export Plug-In . SVG Version: 6.00 Build 0)  -->
<!DOCTYPE svg PUBLIC "-//W3C//DTD SVG 1.1//EN" "http://www.w3.org/Graphics/SVG/1.1/DTD/svg11.dtd">
<svg version="1.1" id="Layer_1" xmlns="http://www.w3.org/2000/svg" xmlns:xlink="http://www.w3.org/1999/xlink" x="0px" y="0px"
	 width="530.606px" height="310.684px" viewBox="0 0 530.606 310.684" enable-background="new 0 0 530.606 310.684"
	 xml:space="preserve">
<ellipse fill="#EDE1B3" cx="79.986" cy="248.764" rx="43.272" ry="13.484"/>
<path fill="#95523B" d="M104.041,185.373c6.663,5.74,14.057,16.5,14.057,36.006c0,2.64-2.144,4.776-4.779,4.776
	c-2.628,0-4.768-2.136-4.768-4.776c0,0-0.022-0.768-0.038-1.544c-0.258,0-0.63,0-0.63,0c-1.666,0-3.018-1.352-3.018-3.02
	c0-1.666,1.352-3.018,3.018-3.018c0,0,0.145,0,0.173,0c-1.759-13.852-7.194-18.942-11.754-22.263
	c0.608,16.818,1.345,54.238,1.345,54.238c0,0.118-0.017,0.225-0.025,0.342c0,0.063,0.021,0.122,0.021,0.187
	c0,2.715-2.199,4.911-4.912,4.911c-2.672,0-4.836-2.147-4.893-4.803h-0.018v-11.548c-0.168-4.76-4.07-8.566-8.871-8.566
	c-4.62,0-8.42,3.528-8.842,8.041v12.073h-0.018c-0.059,2.656-2.221,4.803-4.901,4.803c-2.706,0-4.903-2.196-4.903-4.911
	c0-0.065,0.02-0.124,0.02-0.182c-0.007-0.116-0.027-0.229-0.027-0.347c0,0,0.439-43.537,0.499-54.625
	c-4.661,3.32-10.461,8.253-12.287,22.65c0.027,0,0.174,0,0.174,0c1.659,0,3.013,1.352,3.013,3.018c0,1.668-1.354,3.02-3.013,3.02
	c0,0-0.373,0-0.629,0c-0.022,0.776-0.039,1.544-0.039,1.544c0,2.64-2.14,4.776-4.775,4.776c-2.63,0-4.774-2.136-4.774-4.776
	c0-19.528,7.41-30.293,14.084-36.029c0,0,9.772-8.322,24.599-8.322C77.131,177.028,93.622,176.89,104.041,185.373z"/>
<path fill="#82453B" d="M55.568,195.696c1.726-1.962,3.541-3.361,5.21-4.549c-0.009,1.501-0.022,3.6-0.043,6.103
	c9.291,2.393,19.226,3.092,28.051,3.092c2.623,0,5.219-0.012,7.797-0.053c-0.094-3.251-0.188-6.235-0.279-8.756
	c2.561,1.866,5.4,4.29,7.707,8.513c3.359-0.176,6.679-0.462,9.962-0.915c-2.726-6.333-6.429-10.741-9.931-13.758
	c-10.419-8.483-26.909-8.345-26.909-8.345c-14.826,0-24.599,8.322-24.599,8.322c-1.957,1.682-3.976,3.802-5.855,6.443
	C49.477,193.346,52.462,194.636,55.568,195.696z"/>
<path fill="#F8971D" d="M77.813,54.992c-33.136,0-73.855,14.023-77.552,60.517c-3.789,47.65,34.266,75.036,78.388,75.036
	c49.437,0,83.101-28.252,78.698-75.036C152.978,69.074,110.948,54.992,77.813,54.992z"/>
<path fill="#F57E20" d="M65.748,138.905c-4.007-19.731-10.817-29.855-20.656-42.77c-5.914-7.762-16.037-15.791-27.199-20.403
	C8.337,85.022,1.657,97.949,0.261,115.509c-3.789,47.65,34.266,75.036,78.387,75.036c3.092,0,6.12-0.11,9.083-0.328
	C76.244,179.261,68.869,154.27,65.748,138.905z"/>
<path fill="#FCC8A0" d="M123.424,131.447c5.809,5.112,9.205,11.281,9.205,17.929c0,17.609-15.747,31.988-53.633,31.988
	c-35.749,0-52.796-14.379-52.796-31.988c0-6.608,3.352-12.739,9.088-17.829c9.564-8.483,25.759-3.995,44.128-3.995
	C97.709,127.554,113.851,123.024,123.424,131.447z"/>
<path fill="#FBBD92" d="M62.691,126.79c-11.693-0.788-20.694-1.192-27.402,4.758c-5.736,5.089-9.088,11.221-9.088,17.829
	c0,17.609,17.047,31.988,52.796,31.988c0.674,0,1.327-0.015,1.987-0.023C68.268,167.654,72.193,139.624,62.691,126.79z"/>
<path fill="#F58663" d="M81.013,154.775c0,1.038-0.839,1.879-1.869,1.879c-1.033,0-1.877-0.842-1.877-1.879
	c0-1.028,0.845-1.865,1.877-1.865C80.175,152.91,81.013,153.747,81.013,154.775z"/>
<path fill="#FDF9D1" d="M80.364,196.743c0,1.039-0.838,1.879-1.868,1.879c-1.033,0-1.878-0.841-1.878-1.879
	c0-1.027,0.846-1.864,1.878-1.864C79.526,194.879,80.364,195.716,80.364,196.743z"/>
<path fill="#FDF9D1" d="M80.364,205.613c0,1.038-0.838,1.879-1.868,1.879c-1.033,0-1.878-0.842-1.878-1.879
	c0-1.028,0.846-1.865,1.878-1.865C79.526,203.748,80.364,204.585,80.364,205.613z"/>
<path fill="#FFFFFF" d="M65.583,148.107c0,5.701-4.621,10.325-10.322,10.325c-5.703,0-10.333-4.625-10.333-10.325
	c0-5.702,4.63-10.33,10.333-10.33C60.962,137.777,65.583,142.404,65.583,148.107z"/>
<path fill="#A25049" d="M58.919,148.345c0,2.021-1.634,3.658-3.659,3.658c-2.021,0-3.659-1.636-3.659-3.658
	c0-2.013,1.638-3.658,3.659-3.658C57.285,144.687,58.919,146.331,58.919,148.345z"/>
<path fill="#FFFFFF" d="M92.739,148.107c0,5.701,4.621,10.325,10.322,10.325c5.703,0,10.333-4.625,10.333-10.325
	c0-5.702-4.63-10.33-10.333-10.33C97.36,137.777,92.739,142.404,92.739,148.107z"/>
<path fill="#A25049" d="M99.402,148.345c0,2.021,1.634,3.658,3.659,3.658c2.02,0,3.659-1.636,3.659-3.658
	c0-2.013-1.638-3.658-3.659-3.658C101.037,144.687,99.402,146.331,99.402,148.345z"/>
<g>
	<path fill="#F58663" d="M71.359,165.348c-0.269-0.303-0.243-0.766,0.059-1.037c0.302-0.268,0.765-0.243,1.036,0.06
		c1.771,1.989,4.319,3.13,6.986,3.13c2.63,0,5.152-1.116,6.919-3.061c0.272-0.302,0.735-0.323,1.034-0.051
		c0.302,0.272,0.324,0.735,0.052,1.037c-2.044,2.251-4.962,3.542-8.005,3.542C76.355,168.968,73.41,167.648,71.359,165.348z"/>
</g>
<polygon fill="#87AD3F" points="58.415,62.951 61.644,67.243 67.502,63.891 65.387,68.998 72.249,69.436 66.029,72.366 
	69.875,76.34 63.193,75.376 61.77,80.555 58.542,76.262 52.683,79.616 54.798,74.508 47.937,74.071 54.155,71.139 50.311,67.167 
	56.992,68.13 "/>
<circle fill="#FEC23A" cx="103.31" cy="92.113" r="1.731"/>
<circle fill="#FEC23A" cx="111.139" cy="89.604" r="1.731"/>
<circle fill="#FEC23A" cx="118.967" cy="87.094" r="1.731"/>
<circle fill="#FEC23A" cx="126.795" cy="84.585" r="1.731"/>
<circle fill="#FEC23A" cx="134.623" cy="82.075" r="1.731"/>
<circle fill="#FEC23A" cx="109.411" cy="96.972" r="1.73"/>
<circle fill="#FEC23A" cx="117.239" cy="94.464" r="1.73"/>
<circle fill="#FEC23A" cx="125.067" cy="91.954" r="1.731"/>
<circle fill="#FEC23A" cx="115.232" cy="102.375" r="1.731"/>
<circle fill="#FEC23A" cx="123.061" cy="99.867" r="1.731"/>
<circle fill="#FEC23A" cx="114.74" cy="73.909" r="1.731"/>
<circle fill="#FEC23A" cx="130.889" cy="97.358" r="1.731"/>
<circle fill="#FEC23A" cx="132.896" cy="89.444" r="1.731"/>
<circle fill="#FEC23A" cx="105.317" cy="84.2" r="1.731"/>
<circle fill="#FEC23A" cx="113.145" cy="81.69" r="1.731"/>
<circle fill="#FEC23A" cx="120.974" cy="79.181" r="1.731"/>
<circle fill="#FEC23A" cx="128.802" cy="76.672" r="1.731"/>
<circle fill="#F8971D" cx="11.585" cy="112.881" r="1.731"/>
<circle fill="#F8971D" cx="19.413" cy="110.372" r="1.731"/>
<circle fill="#F8971D" cx="27.241" cy="107.863" r="1.73"/>
<circle fill="#F8971D" cx="35.07" cy="105.353" r="1.731"/>
<circle fill="#F8971D" cx="42.898" cy="102.843" r="1.73"/>
<circle fill="#F8971D" cx="17.686" cy="117.74" r="1.73"/>
<circle fill="#F8971D" cx="25.514" cy="115.231" r="1.731"/>
<circle fill="#F8971D" cx="33.342" cy="112.722" r="1.731"/>
<circle fill="#F8971D" cx="23.507" cy="123.143" r="1.731"/>
<circle fill="#F8971D" cx="31.336" cy="120.635" r="1.731"/>
<circle fill="#F8971D" cx="23.015" cy="94.677" r="1.731"/>
<circle fill="#F8971D" cx="39.164" cy="118.126" r="1.731"/>
<circle fill="#F8971D" cx="41.171" cy="110.212" r="1.731"/>
<circle fill="#F8971D" cx="13.592" cy="104.967" r="1.731"/>
<circle fill="#F8971D" cx="21.42" cy="102.458" r="1.731"/>
<circle fill="#F8971D" cx="29.249" cy="99.948" r="1.73"/>
<circle fill="#F8971D" cx="37.077" cy="97.44" r="1.731"/>
<path fill="#EDE1B3" d="M326.032,293.931c0,9.252-24.072,16.753-53.76,16.753c-29.693,0-53.762-7.501-53.762-16.753
	c0-9.256,24.069-16.756,53.762-16.756C301.96,277.175,326.032,284.675,326.032,293.931z"/>
<path fill="#FDB72D" d="M312.496,188.261c11.122,9.586,23.466,27.546,23.466,60.113c0,4.397-3.576,7.963-7.977,7.963
	c-4.384,0-7.961-3.565-7.961-7.963c0,0-0.034-1.291-0.062-2.582c-0.43,0-1.05,0-1.05,0c-2.781,0-5.04-2.262-5.04-5.046
	c0-2.779,2.259-5.032,5.04-5.032c0,0,0.242,0,0.289,0c-2.937-23.122-12.01-31.621-19.622-37.168
	c1.016,28.079,2.246,90.543,2.246,90.543c0,0.193-0.027,0.373-0.042,0.567c0,0.107,0.036,0.207,0.036,0.314
	c0,4.535-3.67,8.203-8.201,8.203c-4.46,0-8.073-3.585-8.168-8.029h-0.026v-19.269c-0.282-7.948-6.8-14.302-14.814-14.302
	c-7.711,0-14.051,5.889-14.755,13.424v20.147h-0.033c-0.096,4.444-3.704,8.029-8.176,8.029c-4.521,0-8.186-3.668-8.186-8.203
	c0-0.107,0.034-0.203,0.034-0.299c-0.015-0.203-0.049-0.389-0.049-0.582c0,0,0.732-72.674,0.835-91.189
	c-7.787,5.546-17.467,13.777-20.516,37.814c0.05,0,0.296,0,0.296,0c2.766,0,5.029,2.253,5.029,5.032
	c0,2.784-2.263,5.046-5.029,5.046c0,0-0.625,0-1.053,0c-0.034,1.291-0.064,2.582-0.064,2.582c0,4.397-3.568,7.963-7.971,7.963
	c-4.387,0-7.967-3.565-7.967-7.963c0-32.605,12.373-50.573,23.509-60.15c0,0,16.315-13.89,41.062-13.89
	C267.575,174.334,295.105,174.103,312.496,188.261z"/>
<path fill="#FFC845" d="M312.496,188.261c-15.782-12.848-39.91-13.846-44.241-13.921v82.435c0.768-0.123,1.551-0.201,2.354-0.201
	c8.015,0,14.532,6.354,14.814,14.302v19.269h0.026c0.095,4.444,3.708,8.029,8.168,8.029c4.531,0,8.201-3.668,8.201-8.203
	c0-0.107-0.036-0.206-0.036-0.314c0.015-0.194,0.042-0.374,0.042-0.567c0,0-1.229-62.464-2.246-90.543
	c7.612,5.547,16.685,14.046,19.622,37.168c-0.047,0-0.289,0-0.289,0c-2.781,0-5.04,2.253-5.04,5.032c0,2.784,2.259,5.046,5.04,5.046
	c0,0,0.62,0,1.05,0c0.028,1.291,0.062,2.582,0.062,2.582c0,4.397,3.577,7.963,7.961,7.963c4.4,0,7.977-3.565,7.977-7.963
	C335.962,215.807,323.618,197.847,312.496,188.261z"/>
<path fill="#FFC845" d="M268.391,190.529l-26.973-7.355c0,0-9.356-40.682,3.826-124.14c0,0-3.074-28.227-13.688-42.175L249.6,6.234
	c0,0,1.117,25.051,12.462,51.258c0,0,47.582,35.848,38.843,133.143L268.391,190.529z"/>
<path fill="#FDB72D" d="M255.995,61.83c0,0,14.008,27.518,14.008,88.147l0.461,41.495l-28.403,2.019c0,0-13-61,2.801-134.65
	C244.862,58.841,251.546,40.515,255.995,61.83z"/>
<path fill="#FFFFFF" d="M272.974,207.245c0,1.735-1.403,3.138-3.12,3.138c-1.724,0-3.137-1.402-3.137-3.138
	c0-1.714,1.413-3.112,3.137-3.112C271.571,204.132,272.974,205.531,272.974,207.245z"/>
<path fill="#FFFFFF" d="M272.974,222.056c0,1.728-1.403,3.134-3.12,3.134c-1.724,0-3.137-1.405-3.137-3.134
	c0-1.721,1.413-3.123,3.137-3.123C271.571,218.933,272.974,220.335,272.974,222.056z"/>
<path fill="#5B3E1D" d="M273.224,162.998c0,0.837-0.672,1.514-1.503,1.514c-0.827,0-1.506-0.677-1.506-1.514
	c0-0.822,0.679-1.496,1.506-1.496C272.552,161.501,273.224,162.175,273.224,162.998z"/>
<path fill="#5B3E1D" d="M255.486,157.839c0,1.623-1.312,2.936-2.94,2.936c-1.623,0-2.937-1.312-2.937-2.936
	c0-1.616,1.314-2.938,2.937-2.938C254.175,154.902,255.486,156.223,255.486,157.839z"/>
<path fill="#5B3E1D" d="M287.988,157.839c0,1.623,1.311,2.936,2.939,2.936c1.619,0,2.936-1.312,2.936-2.936
	c0-1.616-1.317-2.938-2.936-2.938C289.298,154.902,287.988,156.223,287.988,157.839z"/>
<g>
	<path fill="#5B3E1D" d="M265.471,171.488c-0.215-0.242-0.193-0.615,0.05-0.831c0.244-0.214,0.614-0.196,0.832,0.048
		c1.421,1.598,3.465,2.512,5.607,2.512c2.112,0,4.136-0.895,5.556-2.457c0.218-0.241,0.59-0.256,0.829-0.038
		c0.244,0.218,0.262,0.588,0.043,0.831c-1.642,1.805-3.983,2.847-6.427,2.847C269.484,174.399,267.119,173.337,265.471,171.488z"/>
</g>
<path fill="#5B3E1D" d="M250.327,3.68l-22.987,6.752c0,0,10.444,20.102,17.34,49.378l17.867-1.441
	C262.547,58.369,259.459,38.768,250.327,3.68z"/>
<path fill="#915C40" d="M250.362,3.883c1.013,3.42-3.369,7.534-9.785,9.188c-6.416,1.655-12.44,0.225-13.452-3.194
	c-1.013-3.42,3.368-7.534,9.784-9.189C243.325-0.966,249.348,0.463,250.362,3.883z"/>
<ellipse fill="#EDE1B3" cx="455.564" cy="250.542" rx="32.555" ry="10.145"/>
<path fill="#B9B438" d="M473.66,202.853c5.012,4.317,10.575,12.412,10.575,27.088c0,1.985-1.613,3.59-3.595,3.59
	c-1.977,0-3.587-1.605-3.587-3.59c0,0-0.016-0.578-0.029-1.164c-0.193,0-0.473,0-0.473,0c-1.255,0-2.271-1.015-2.271-2.272
	c0-1.251,1.016-2.269,2.271-2.269c0,0,0.109,0,0.13,0c-1.322-10.421-5.413-14.252-8.843-16.75
	c0.458,12.653,1.012,40.804,1.012,40.804c0,0.089-0.013,0.17-0.019,0.258c0,0.046,0.015,0.092,0.015,0.141
	c0,2.042-1.654,3.694-3.693,3.694c-2.011,0-3.64-1.617-3.683-3.616h-0.012v-8.686c-0.127-3.582-3.062-6.444-6.675-6.444
	c-3.474,0-6.334,2.654-6.651,6.049v9.081h-0.015c-0.042,1.999-1.669,3.616-3.686,3.616c-2.036,0-3.69-1.652-3.69-3.694
	c0-0.049,0.015-0.096,0.015-0.138c-0.005-0.087-0.019-0.172-0.019-0.261c0,0,0.33-32.752,0.375-41.094
	c-3.507,2.495-7.869,6.207-9.243,17.039c0.02,0,0.129,0,0.129,0c1.251,0,2.269,1.018,2.269,2.269c0,1.257-1.018,2.272-2.269,2.272
	c0,0-0.28,0-0.471,0c-0.017,0.586-0.03,1.164-0.03,1.164c0,1.985-1.61,3.59-3.591,3.59c-1.979,0-3.591-1.605-3.591-3.59
	c0-14.691,5.574-22.79,10.596-27.106c0,0,7.351-6.259,18.504-6.259C453.415,196.576,465.821,196.472,473.66,202.853z"/>
<path fill="#FFFFFF" d="M455.847,211.406c0,0.781-0.63,1.416-1.405,1.416c-0.777,0-1.413-0.635-1.413-1.416
	c0-0.773,0.635-1.401,1.413-1.401C455.217,210.005,455.847,210.633,455.847,211.406z"/>
<path fill="#FFFFFF" d="M455.847,218.081c0,0.779-0.63,1.412-1.405,1.412c-0.777,0-1.413-0.633-1.413-1.412
	c0-0.775,0.635-1.404,1.413-1.404C455.217,216.677,455.847,217.306,455.847,218.081z"/>
<path fill="#FFFFFF" d="M466.815,81.533c1.046,0.885,1.459,1.074,2.829,1.383c2.617,0.592,3.141-2,1.979-3.937
	c-0.605-1.008-3.375-3.036-4.572-2.971c-1.61,0.089-3.328,0.916-1.548,4.005L466.815,81.533z"/>
<path fill="#F26349" d="M452.382,65.505c0,0-77.635-23.692-75.225,49.793c0,0,4.015,89.044,76.379,89.044
	c0.03,0.061,0.05,0.103,0.05,0.103c0.613-0.003,1.205-0.029,1.806-0.045c0.602,0.016,1.197,0.041,1.809,0.045
	c0,0,0.017-0.043,0.04-0.103c71.706-3.644,73.312-89.044,73.312-89.044C532.963,41.813,452.382,65.505,452.382,65.505z"/>
<path fill="#5B3E1D" d="M449.596,4.26c-0.236,10.229,0.146,18.423,0.142,28.674c-0.001,14.945-0.121,24.976,0.38,39.897
	c0,2.835,0.969,8.27,1.7,3.403c1.186-7.877,2.652-26.558,3.471-34.429c1.343-12.886,2.603-26.419,1.728-39.353
	c-2.096-0.087-5.377,0.04-7.369,0.319C449.588,3.224,449.515,3.797,449.596,4.26z"/>
<path fill="#99BE3C" d="M455.559,34.076c9.579-24.578,39.164-26.985,60.64-26.404c1.071,14.639-14.334,23.371-22.772,26.764
	c-6.467,2.603-31.609,11.12-37.823-0.241L455.559,34.076z"/>
<path fill="#88AE3F" d="M456.882,33.418c2.826-1.499,5.813-2.728,8.656-4.248c8.86-4.731,18.125-8.082,27.448-11.724
	c6.98-2.726,14.658-3.59,20.86-7.764c0.81-0.545,1.49-1.07,2.144-1.667c0.105-0.106,0.134-0.165,0.252-0.367
	c-21.474-0.582-51.044,1.941-60.623,26.518l-0.029,0.04C456.075,33.902,456.525,33.604,456.882,33.418z"/>
<path fill="#FFFFFF" d="M494.121,78.186c1.046,0.885,1.459,1.076,2.829,1.382c2.617,0.592,3.141-2,1.979-3.937
	c-0.604-1.007-3.375-3.035-4.572-2.97c-1.611,0.088-3.328,0.918-1.547,4.003L494.121,78.186z"/>
<path fill="#F04E32" d="M441.406,152.778c-2.41-13.921-11.779-37.749-11.779-37.749c-16.73-40.824-39.611-33.739-49.21-25.601
	c-2.366,6.809-3.599,15.186-3.26,25.468c0,0,4.015,89.043,76.379,89.043c0.03,0.062,0.05,0.103,0.05,0.103
	c0.613-0.002,1.205-0.028,1.806-0.043c0.602,0.016,1.197,0.041,1.809,0.043c0,0,0.017-0.041,0.04-0.103
	c3.878-0.197,7.456,0.239,5.314-2.973C444.835,184.08,441.406,152.778,441.406,152.778z"/>
<path fill="#FCC8A0" d="M486.77,156.395c4.37,3.843,6.924,8.486,6.924,13.487c0,13.248-11.846,24.067-40.347,24.067
	c-26.894,0-39.719-10.82-39.719-24.067c0-4.969,2.521-9.584,6.837-13.412c7.196-6.381,19.379-3.006,33.198-3.006
	C467.424,153.464,479.566,150.056,486.77,156.395z"/>
<path fill="#FBB88C" d="M450.313,183.853c-3.137-7.928-5.993-16.7-7.745-25.035c-0.378-1.79-0.503-3.881-0.759-5.907
	c-8.796-0.592-16.298-0.917-21.345,3.559c-4.316,3.828-6.837,8.443-6.837,13.412c0,13.248,12.826,24.067,39.719,24.067
	c0.506,0,0.997-0.014,1.495-0.021C453.23,190.606,451.665,187.267,450.313,183.853z"/>
<path fill="#A25049" d="M438.24,169.106c0,1.52-1.228,2.753-2.752,2.753c-1.52,0-2.752-1.232-2.752-2.753
	c0-1.514,1.232-2.751,2.752-2.751C437.013,166.356,438.24,167.593,438.24,169.106z"/>
<path fill="#A25049" d="M468.698,169.106c0,1.52,1.229,2.753,2.752,2.753c1.52,0,2.753-1.232,2.753-2.753
	c0-1.514-1.234-2.751-2.753-2.751C469.927,166.356,468.698,167.593,468.698,169.106z"/>
<g>
	<path fill="#A25049" d="M447.601,181.898c-0.203-0.227-0.183-0.577,0.043-0.779c0.229-0.203,0.576-0.183,0.779,0.045
		c1.333,1.497,3.249,2.352,5.256,2.352c1.979,0,3.875-0.839,5.205-2.302c0.204-0.225,0.553-0.244,0.779-0.038
		c0.226,0.206,0.242,0.553,0.039,0.779c-1.539,1.694-3.733,2.664-6.022,2.664C451.358,184.62,449.144,183.628,447.601,181.898z"/>
</g>
<g>
	<rect x="452.499" y="165.91" fill="#A25049" width="1.304" height="9.765"/>
</g>
</svg>
