<?xml version="1.0" encoding="utf-8"?>
<!DOCTYPE svg PUBLIC "-//W3C//DTD SVG 1.1//EN" "http://www.w3.org/Graphics/SVG/1.1/DTD/svg11.dtd">
<svg xmlns="http://www.w3.org/2000/svg" width="263" height="270" viewBox="0 0 262.5 270"><style type="text/css">
	.st0{fill:#EF6367;}
	.st1{fill:#FFFFFF;}
	.st2{fill:#4B4B4D;}
</style><path class="st0" d="M203.9 169.9c0-0.4 0-1 0-1.8 0-1.5 0-3.6 0-5.9 0-4.6 0-10 0-13.4 0-0.6-0.1-1.1-0.3-1.7 0.2-0.7 0.3-1.4 0.3-2.1 0-2.3-1-4.3-2.2-5.6 -1.2-1.4-2.4-2.3-3.8-3.1 -2.8-1.6-6.2-2.8-10.2-3.9 -8.1-2.2-19-3.8-31.7-4.7l0 0c-0.1 0-0.2 0-0.4 0 -1.6 0-3.1 0-4.5 0 -0.3-1.2-0.5-2.2-0.5-3.1 -0.5-9.6-1.9-19.5 0-29 2.8-13.2 16.8-20.3 15.5-35.3 -1.2-14.2-2.7-28.1-3.5-42.4 -0.2-3.3 0.7-8.2-0.3-11.2 -1.7-5.1-8.6-6.2-13.2-6.3 -16.9-0.6-34 0-51 0 -11.8 7-21.6 17.3-26.9 30.5 0 0 0 0 0 0.1 0 0 0 0 0 0.1 -2 5.1-2.8 10-3.8 14.5 -0.9 4.5-1.9 8.4-3.7 11.7 -0.5 0.9-1.9 2.7-3.6 4.7 -1.7 2-3.7 4.2-5.5 6.8 -1.8 2.5-3.4 5.4-4 9 -0.6 3.6 0.5 8 3.4 11.2 0 0 0 0 0 0l0 0c4 4.6 9.7 6 14.9 5.9 5.2-0.2 10.3-1.7 14.8-4 5-2.5 9.3-5.7 12.2-9.9 0 0 0 0 0 0 1.4-2.1 2.5-4.6 3.9-7.5 1.4-2.9 3.1-6.1 4.6-8.4 0.8-1.2 1.6-2.1 2.2-2.6 0.1-0.1 0.2-0.2 0.3-0.3 0.2 0.2 0.5 0.6 0.9 1.2 1.6 2.3 2.6 7.3 2.5 12.9 0 5.6-0.8 11.6-1.3 16.3 -0.7 6.8-3.1 18.3-3.3 29.5 0 2 0 4 0.2 5.9 -0.3 0-0.6 0-0.9 0.1l0 0c0 0-0.1 0-0.1 0l0 0c-12.5 1-23.2 2.6-31.2 4.7 -4 1.1-7.3 2.3-10 3.9 -1.4 0.8-2.7 1.8-3.8 3.1 -1.1 1.3-2.1 3.3-2.1 5.6 0 0.8 0.1 1.5 0.3 2.1 -0.2 0.5-0.3 1.1-0.3 1.7v21.8c0 3.1 1.7 5.4 3.3 6.8 1.6 1.5 3.4 2.4 5.5 3.4 4.1 1.8 9.3 3.2 15.7 4.4 12.7 2.4 29.8 3.8 48.7 3.8 18.9 0 36-1.4 48.7-3.8 6.4-1.2 11.6-2.6 15.7-4.4 2.1-0.9 3.9-1.9 5.5-3.4 1.5-1.3 3.1-3.5 3.2-6.4 0-0.1 0-0.1 0-0.2 0-0.1 0-0.1 0-0.2 0 0 0 0 0-0.1l0-0.1C203.9 170.3 203.9 170.1 203.9 169.9zM106.5 61.4L106.5 61.4C106.5 61.4 106.5 61.4 106.5 61.4L106.5 61.4 106.5 61.4C106.5 61.4 106.5 61.4 106.5 61.4z"/><path class="st1" d="M158.2 35.9c0-15.5-1-29.3-2.8-29.6 -11.1-1.1-22.6-0.4-33.7-0.4 -5.1 0-10.2 0-15.3 0 -1.3 0-5.3-0.7-6.5 0C89.5 12.3 81 21.6 76.4 33c-3.5 8.7-3.2 18.4-7.7 26.8C65 66.7 51 76.4 58.4 84.8c5.1 5.8 15 4.4 22.8 0.5 4.3-2.1 8-5.1 10-7.9 2.4-3.5 7.2-16.8 12.9-20.7 -4-5.4-10-11.5-10-11.5 8.8 3.2 17.9 10.1 20.7 19.3 2.7 8.9 0.8 19.1-0.1 28.2 -1.5 14.7-9.5 44.7 6.9 53.9 5.4 3 19.2 3.5 23.5-1.7 4.7-5.7 0.2-13.5-0.3-20 -1-12.4-0.4-25.6 3.5-37.5 1.7-5.3 5.6-9.2 8.1-14.1 2.7-5.2 3.3-11.3 2.8-17.1C158.4 49.5 158.2 42.7 158.2 35.9z"/><path class="st1" d="M198.1 148.4c-8.1 7.8-42.9 10.8-67.3 10.8 -24.4 0-59.3-2.9-67.3-10.8v21.8c0 6.9 30.1 12.5 67.3 12.5 37.2 0 67.3-5.6 67.3-12.5 0 0 0 0 0 0C198.1 170.1 198.1 155.3 198.1 148.4z"/><path class="st1" d="M155.5 133c-1.3 0-2.5 0-3.7 0 0.9 5.2 0.9 10.5-2.7 14.9 -6.5 8-23.4 6.7-30.1 3 -6.3-3.5-10-9.8-11.6-16.7 -0.1-0.4-0.2-0.8-0.3-1.2 -0.6 0-1.2 0.1-1.9 0.1 -24.5 1.9-41.8 6.4-41.8 11.6 0 6.9 30.1 12.5 67.3 12.5 37.2 0 67.3-5.6 67.3-12.5C198.1 139.3 180.5 134.8 155.5 133zM66.4 144.9c0 0 5.2-7.1 40.2-9.5l0.5 2.4C107.1 137.8 90 137.4 66.4 144.9z"/><path class="st2" d="M8 248.8c0 4.9 2.1 7.4 6.2 7.4 0.7 0 1.5-0.1 2.1-0.2 0.7-0.1 1.5-0.4 2.4-0.7 0.8 1.7 1.3 3.4 1.5 5.2 -0.7 0.3-1.3 0.5-1.9 0.6 -0.6 0.2-1.1 0.3-1.7 0.4 -0.5 0.1-1.1 0.1-1.6 0.2 -0.5 0-1.1 0.1-1.6 0.1 -2 0-3.7-0.3-5.2-1 -1.5-0.6-2.8-1.5-3.8-2.7s-1.8-2.5-2.3-4.1c-0.5-1.6-0.8-3.3-0.8-5.2 0-1.9 0.3-3.6 0.8-5.2 0.5-1.6 1.3-3 2.3-4.1 1-1.2 2.3-2.1 3.8-2.7 1.5-0.7 3.2-1 5.1-1 1.1 0 2.2 0.1 3.2 0.2 1 0.2 2.1 0.5 3.4 1 0 1-0.2 1.9-0.5 2.8s-0.6 1.7-0.9 2.4c-0.5-0.2-0.9-0.3-1.3-0.4 -0.4-0.1-0.8-0.2-1.1-0.3s-0.7-0.1-1.1-0.2c-0.3 0-0.7-0.1-1.1-0.1 -1.9 0-3.4 0.6-4.4 1.9C8.5 244.4 8 246.3 8 248.8z"/><path class="st2" d="M23.4 236.2c1.1-0.1 2.2-0.2 3.2-0.3 1-0.1 2-0.2 3.1-0.2 1.3 0 2.6 0.1 3.9 0.4 1.3 0.2 2.4 0.7 3.4 1.3 1 0.6 1.8 1.4 2.5 2.5s0.9 2.4 0.9 4c0 0.9-0.1 1.6-0.3 2.3 -0.2 0.7-0.5 1.3-0.8 1.8s-0.7 1-1 1.4c-0.4 0.4-0.8 0.7-1.1 1l5.5 10.8c-0.6 0.1-1.2 0.2-1.8 0.2 -0.7 0-1.3 0.1-1.8 0.1 -0.5 0-1 0-1.6-0.1 -0.6 0-1.2-0.1-1.6-0.2l-5-11.4 0.3-0.2c0.3-0.1 0.6-0.4 0.9-0.7 0.3-0.3 0.7-0.7 0.9-1.2 0.3-0.5 0.5-1 0.7-1.5 0.2-0.6 0.3-1.1 0.3-1.8 0-1.2-0.3-2-1-2.6 -0.7-0.5-1.5-0.8-2.4-0.8 -0.2 0-0.4 0-0.6 0 -0.2 0-0.3 0-0.3 0.1v20c-1.2 0.2-2.3 0.3-3 0.3 -0.9 0-1.9-0.1-3.1-0.3V236.2z"/><path class="st2" d="M53.8 261.7c-1.9 0-3.5-0.3-4.7-0.8 -1.2-0.5-2.2-1.3-3-2.2 -0.7-1-1.2-2.1-1.5-3.5 -0.3-1.4-0.4-2.9-0.4-4.7v-14.3c0.7-0.1 1.3-0.2 1.8-0.2 0.5 0 1-0.1 1.4-0.1 0.4 0 0.8 0 1.3 0.1 0.5 0 1.1 0.1 1.7 0.2v13.6c0 1.2 0 2.2 0.1 3 0.1 0.8 0.3 1.5 0.5 2 0.2 0.5 0.6 0.9 1 1.1 0.4 0.2 1 0.3 1.8 0.3 0.7 0 1.3-0.1 1.8-0.3s0.8-0.6 1-1.1c0.2-0.5 0.4-1.2 0.5-2 0.1-0.8 0.1-1.8 0.1-3v-13.6c0.7-0.1 1.3-0.2 1.8-0.2 0.5 0 0.9-0.1 1.3-0.1 0.4 0 0.9 0 1.4 0.1 0.5 0 1.1 0.1 1.8 0.2v14.3c0 1.7-0.1 3.3-0.4 4.7 -0.3 1.4-0.8 2.5-1.5 3.5 -0.7 1-1.7 1.7-3 2.2C57.2 261.5 55.7 261.7 53.8 261.7z"/><path class="st2" d="M67.4 236.2c0.5-0.1 1-0.2 1.4-0.2s0.8-0.1 1.2-0.1c0.4 0 0.9 0 1.3 0.1s0.8 0.1 1.2 0.2l8.1 13.7v-13.7c0.6-0.1 1.2-0.2 1.6-0.2 0.5 0 0.9-0.1 1.3-0.1 0.4 0 0.8 0 1.3 0.1 0.4 0 0.9 0.1 1.4 0.2l0 25c-0.2 0.1-0.6 0.1-1 0.2 -0.4 0.1-0.9 0.1-1.4 0.1 -0.6 0-1.1 0-1.6-0.1 -0.5-0.1-0.8-0.1-1-0.2l-8.2-13.6v13.6c-1 0.2-2 0.3-2.8 0.3s-1.8-0.1-2.8-0.3V236.2z"/><path class="st2" d="M96.4 248.8c0 4.9 2.1 7.4 6.2 7.4 0.7 0 1.5-0.1 2.1-0.2 0.7-0.1 1.5-0.4 2.4-0.7 0.8 1.7 1.3 3.4 1.5 5.2 -0.7 0.3-1.3 0.5-1.9 0.6 -0.6 0.2-1.1 0.3-1.7 0.4 -0.5 0.1-1.1 0.1-1.6 0.2 -0.5 0-1.1 0.1-1.6 0.1 -2 0-3.7-0.3-5.2-1 -1.5-0.6-2.8-1.5-3.8-2.7s-1.8-2.5-2.3-4.1c-0.5-1.6-0.8-3.3-0.8-5.2 0-1.9 0.3-3.6 0.8-5.2 0.5-1.6 1.3-3 2.3-4.1 1-1.2 2.3-2.1 3.8-2.7 1.5-0.7 3.2-1 5.1-1 1.1 0 2.2 0.1 3.2 0.2 1 0.2 2.1 0.5 3.4 1 0 1-0.2 1.9-0.5 2.8s-0.6 1.7-0.9 2.4c-0.5-0.2-0.9-0.3-1.3-0.4 -0.4-0.1-0.8-0.2-1.1-0.3s-0.7-0.1-1.1-0.2c-0.3 0-0.7-0.1-1.1-0.1 -1.9 0-3.4 0.6-4.4 1.9C96.9 244.4 96.4 246.3 96.4 248.8z"/><path class="st2" d="M127.3 261.5c-0.9 0-1.9-0.1-3.1-0.3V251H118v10.2c-1.2 0.2-2.3 0.3-3.1 0.3 -0.9 0-1.9-0.1-3.1-0.3v-25c0.6-0.1 1.2-0.2 1.7-0.2 0.5 0 1-0.1 1.4-0.1 0.4 0 0.9 0 1.4 0.1 0.5 0 1.1 0.1 1.7 0.2v9.3h6.2v-9.3c0.6-0.1 1.2-0.2 1.7-0.2 0.5 0 1-0.1 1.4-0.1 0.4 0 0.9 0 1.4 0.1s1.1 0.1 1.7 0.2v25C129.2 261.4 128.1 261.5 127.3 261.5z"/><path class="st2" d="M152.3 254c0 1.5-0.3 2.8-0.8 3.8 -0.6 1-1.3 1.8-2.3 2.4 -1 0.6-2.1 1-3.5 1.2 -1.4 0.2-2.8 0.3-4.4 0.3 -1.3 0-2.4 0-3.4-0.1 -1-0.1-2.1-0.2-3.3-0.4v-25c0.9-0.1 1.9-0.3 2.9-0.4 1.1-0.1 2.3-0.1 3.7-0.1 1.3 0 2.6 0.1 3.7 0.3 1.2 0.2 2.2 0.6 3 1.1 0.9 0.5 1.5 1.2 2 2.1s0.8 2 0.8 3.3c0 1.1-0.2 2.1-0.7 3s-1.1 1.6-1.9 2.1c0.5 0.2 1.1 0.5 1.6 0.8 0.5 0.3 0.9 0.8 1.3 1.3 0.4 0.5 0.7 1.1 0.9 1.8C152.2 252.3 152.3 253.1 152.3 254zM140.7 245.8h1c1 0 1.8-0.2 2.3-0.6 0.6-0.4 0.8-1.1 0.8-2.1 0-0.5-0.1-0.9-0.3-1.2 -0.2-0.3-0.4-0.6-0.8-0.8 -0.3-0.2-0.6-0.3-1-0.4 -0.4-0.1-0.7-0.1-1.1-0.1 -0.1 0-0.3 0-0.5 0 -0.2 0-0.4 0-0.5 0V245.8zM140.7 250.8v5.9c0.2 0 0.4 0 0.6 0.1 0.2 0 0.6 0 1 0 0.4 0 0.9 0 1.3-0.1 0.5-0.1 0.9-0.3 1.2-0.5 0.4-0.2 0.7-0.5 0.9-0.9 0.2-0.4 0.3-0.9 0.3-1.5 0-1.1-0.4-1.9-1.1-2.3 -0.7-0.4-1.7-0.6-2.9-0.6H140.7z"/><path class="st2" d="M165 261.7c-1.9 0-3.5-0.3-4.7-0.8 -1.2-0.5-2.2-1.3-3-2.2 -0.7-1-1.2-2.1-1.5-3.5s-0.4-2.9-0.4-4.7v-14.3c0.7-0.1 1.3-0.2 1.8-0.2 0.5 0 1-0.1 1.4-0.1 0.4 0 0.8 0 1.3 0.1 0.5 0 1.1 0.1 1.7 0.2v13.6c0 1.2 0 2.2 0.1 3 0.1 0.8 0.3 1.5 0.5 2 0.2 0.5 0.6 0.9 1 1.1s1 0.3 1.8 0.3 1.3-0.1 1.8-0.3 0.8-0.6 1-1.1c0.2-0.5 0.4-1.2 0.5-2 0.1-0.8 0.1-1.8 0.1-3v-13.6c0.7-0.1 1.3-0.2 1.8-0.2 0.5 0 0.9-0.1 1.3-0.1 0.4 0 0.9 0 1.4 0.1 0.5 0 1.1 0.1 1.8 0.2v14.3c0 1.7-0.1 3.3-0.4 4.7s-0.8 2.5-1.5 3.5c-0.7 1-1.7 1.7-3 2.2C168.4 261.5 166.9 261.7 165 261.7z"/><path class="st2" d="M183.3 241.6h-5.8c-0.2-1-0.3-1.9-0.3-2.8 0-0.8 0.1-1.7 0.3-2.7h17.9c0.1 0.5 0.2 1 0.2 1.4 0 0.4 0.1 0.9 0.1 1.3 0 0.8-0.1 1.7-0.3 2.8h-5.8v19.6c-1.2 0.2-2.3 0.3-3.1 0.3 -0.9 0-1.9-0.1-3.1-0.3V241.6z"/><path class="st2" d="M202.8 241.6h-5.8c-0.2-1-0.3-1.9-0.3-2.8 0-0.8 0.1-1.7 0.3-2.7h17.9c0.1 0.5 0.2 1 0.2 1.4 0 0.4 0.1 0.9 0.1 1.3 0 0.8-0.1 1.7-0.3 2.8H209v19.6c-1.2 0.2-2.3 0.3-3.1 0.3 -0.9 0-1.9-0.1-3.1-0.3V241.6z"/><path class="st2" d="M216 248.8c0-1.9 0.2-3.6 0.6-5.2 0.4-1.6 1.1-3 2-4.1s2-2.1 3.4-2.7c1.4-0.7 3-1 5-1s3.6 0.3 4.9 1 2.5 1.6 3.4 2.7c0.9 1.2 1.6 2.5 2 4.1 0.4 1.6 0.6 3.3 0.6 5.2 0 1.9-0.2 3.6-0.6 5.2 -0.4 1.6-1.1 2.9-2 4.1 -0.9 1.2-2 2.1-3.4 2.7 -1.4 0.6-3 1-4.9 1s-3.6-0.3-5-1c-1.4-0.6-2.5-1.5-3.4-2.7s-1.6-2.5-2-4.1C216.2 252.4 216 250.7 216 248.8zM231.5 248.8c0-5.1-1.5-7.6-4.4-7.6 -3 0-4.5 2.5-4.5 7.6 0 2.5 0.4 4.4 1.1 5.7 0.7 1.2 1.9 1.9 3.4 1.9C230 256.4 231.5 253.9 231.5 248.8z"/><path class="st2" d="M241.6 236.2c0.5-0.1 1-0.2 1.4-0.2s0.8-0.1 1.2-0.1c0.4 0 0.9 0 1.3 0.1s0.8 0.1 1.2 0.2l8.1 13.7v-13.7c0.6-0.1 1.2-0.2 1.6-0.2 0.5 0 0.9-0.1 1.3-0.1s0.8 0 1.3 0.1c0.4 0 0.9 0.1 1.4 0.2l0 25c-0.2 0.1-0.6 0.1-1 0.2 -0.4 0.1-0.9 0.1-1.4 0.1 -0.6 0-1.1 0-1.6-0.1 -0.5-0.1-0.8-0.1-1-0.2l-8.2-13.6v13.6c-1 0.2-2 0.3-2.8 0.3 -0.8 0-1.8-0.1-2.8-0.3V236.2z"/></svg>