<?xml version="1.0" encoding="utf-8"?>
<!-- Generator: Adobe Illustrator 19.1.0, SVG Export Plug-In . SVG Version: 6.00 Build 0)  -->
<!DOCTYPE svg PUBLIC "-//W3C//DTD SVG 1.1//EN" "http://www.w3.org/Graphics/SVG/1.1/DTD/svg11.dtd">
<svg version="1.1" id="Layer_1" xmlns="http://www.w3.org/2000/svg" xmlns:xlink="http://www.w3.org/1999/xlink" x="0px" y="0px"
	 width="992.1px" height="992.1px" viewBox="446 -446.1 992.1 992.1" style="enable-background:new 446 -446.1 992.1 992.1;"
	 xml:space="preserve">
<style type="text/css">
	.st0{display:none;fill:#FFF3D6;}
	.st1{fill:#FADFBA;}
	.st2{fill:#F06303;}
	.st3{fill:#791F1F;}
	.st4{fill:#FFCB00;}
	.st5{fill:#FFFFFF;}
	.st6{fill:#FFA103;}
	.st7{fill:#FFE166;}
	.st8{fill:#D53653;stroke:#891631;stroke-width:4;stroke-miterlimit:10;}
	.st9{fill:#FFFFFF;stroke:#9AC8DD;stroke-width:4;stroke-miterlimit:10;}
	.st10{fill:#9AC8DD;}
</style>
<rect x="892" y="-892.2" class="st0" width="992.1" height="992.1"/>
<path class="st1" d="M1040.9,173.1c-7.8,1.6-12.5,10.7-11.2,18.6c1.3,7.9,16,22.5,59.2,34.1c27.4,7.4,56.5,7.8,84.7,4.7
	c39.3-4.3,76.1-20.9,111.5-38.6c42.2-21.1,83.9-44.3,119.4-75.5c3.6-3.2,7.2-6.5,9.3-10.9c4.1-8.5,1-19.2-5.3-26.2
	c-6.3-7.1-15.3-11.1-24.2-14.2c-13.1-4.5-26.8-7.4-40.7-8.5L1040.9,173.1z"/>
<g>
	<path class="st2" d="M636-87.1c-8.9-8.4-46.5-109.4-57.2-149.3c-1.3-5-2.2-11.5,2.1-14.5c1-0.7,3.2-1.9,5-3.7
		c2.1-2.1,0.5-7.8-4.8-7.4c-3,0.2-5.6,1.3-8.5,2.1c-0.5-3.3-1.1-6.6-1.6-9.9c-1.5-7.9-6.8-5.3-7.2-3.1c-0.9,3.9,1.5,10.4,2.2,14.3
		c-0.6-2.6-5.2-17-10.3-14.3c-4.2,1.9,0.5,12.7,2.1,18.5c-3-6.1-7.1-16.6-11.6-13.1c-5.4,3.7,5,20.6,9.3,28.7
		c7.3,13.8,37.9,112.2,77.9,173.8L636-87.1z"/>
	<path class="st3" d="M631.2-63.7c-29.5-45.6-54.4-112.2-67.7-148c-4.9-13.1-8.4-22.6-10.3-26.1c-0.6-1-1.2-2.2-1.9-3.5
		c-5.8-10.6-13.1-23.8-6.7-28.2c1.6-1.2,3.2-1.2,4.3-0.9c0.9,0.2,1.7,0.7,2.5,1.3c-0.1-2.7,0.7-4.9,3.1-6c1.3-0.7,2.9-0.7,4.4,0
		c0.8,0.4,1.6,1,2.4,1.8v-0.1c0.4-2.2,2.8-4.1,5.4-4.1l0,0c1.5,0,5.2,0.7,6.4,7.2l1.2,7.4h0.1c2-0.6,4-1.2,6.3-1.4
		c3.3-0.2,6.2,1.4,7.5,4.2c1.2,2.5,0.8,5.4-0.9,7.1c-1.5,1.5-3.2,2.5-4.4,3.3c-0.4,0.2-0.7,0.4-0.9,0.6c-2.4,1.7-2.8,5.8-1.2,12
		c12.6,47.2,49.3,141.4,56.6,148.2l-3.2,3.4c-9.7-9.2-47.7-112.3-57.9-150.4c-0.8-3.1-3.3-12.5,3-17c0.3-0.2,0.7-0.4,1.1-0.7
		c1-0.7,2.4-1.6,3.6-2.7c0.2-0.2,0.3-1,0-1.9c-0.3-0.6-1.1-1.7-2.9-1.6s-3.5,0.7-5.3,1.2c-0.9,0.3-1.8,0.6-2.8,0.8l-2.4,0.6
		l-2.1-12.4c-0.5-2.6-1.4-3.4-1.8-3.4s-0.8,0.3-0.9,0.5c-0.5,2.2,0.5,6.2,1.3,9.4c0.4,1.4,0.7,2.8,0.9,3.9l-4.5,0.9
		c-0.7-3.3-4-11.6-6.5-12.7c-0.2-0.1-0.3-0.1-0.5,0c-0.8,0.4-1,2.6,2,11.8c0.5,1.5,0.9,2.9,1.3,4.1l-4.3,1.6
		c-0.3-0.7-0.7-1.5-1.1-2.3c-1.6-3.4-4.6-9.8-6.6-10.2c-0.1,0-0.2,0-0.5,0.2c-3.1,2.1,5.2,17.3,8,22.2c0.7,1.3,1.4,2.5,1.9,3.6
		c2,3.8,5.6,13.3,10.5,26.6c13.3,35.6,38,101.9,67.2,147.1L631.2-63.7z"/>
</g>
<g>
	<path class="st2" d="M652.5,172.5c1.9,16.6,3.8,33.1,8.2,50.7c1,4.1,7.3,29.2,26.8,31.1c39.3,3.9,79.2-26.6,114-38.5
		c3.8,8.9,4,14.8,9.3,19c4.1,3.3,9.7,4.9,13.2-0.9c5.3-8.3-0.1-17-4.4-28.9c-2.4-6.8-4.7-11.5-12.9-11.3
		c-10.5,0.2-77.8,35-105.3,39.9c-2.9,0.5-6.1,0.8-8.7-0.8c-8.5-5.3-14.3-53.3-12.5-69.9L652.5,172.5z"/>
	<path class="st3" d="M694.6,257c-2.5,0-4.9-0.1-7.4-0.4c-19.1-1.9-26.5-23.6-28.8-32.9c-4.6-18.3-6.5-35.7-8.3-51l4.6-0.5
		c1.7,15.2,3.7,32.4,8.2,50.4c2.1,8.3,8.6,27.8,24.8,29.4c26.1,2.6,52.5-10.4,78-22.9c12.2-6,23.8-11.7,35-15.5l2-0.7l0.8,2
		c1.2,2.9,2.1,5.4,2.8,7.7c1.6,4.8,2.7,8,5.7,10.4c2.3,1.8,4.6,2.7,6.4,2.4c1.3-0.2,2.4-1.1,3.3-2.7c3.7-5.8,1.3-11.9-2.1-20.5
		c-0.8-2.1-1.7-4.2-2.5-6.5c-2.5-6.9-4.2-9.9-10.7-9.8c-4.2,0.1-20.5,7.2-37.8,14.7c-24.1,10.5-51.5,22.4-67.2,25.2
		c-3.1,0.5-7,0.9-10.3-1.2c-10.1-6.3-15.3-56.3-13.6-72.1l4.6,0.5c-2,18.5,4.8,63.5,11.5,67.7c2,1.2,4.8,0.9,7.1,0.5
		c15.1-2.7,43.4-15,66.1-24.9c22-9.6,34.7-15,39.5-15.1c10.5-0.2,13,7.1,15.1,12.9c0.8,2.2,1.6,4.3,2.4,6.4
		c3.6,9.1,6.7,16.9,1.7,24.6c-2,3.4-4.6,4.5-6.4,4.8c-3.1,0.6-6.7-0.6-10.1-3.3c-4.1-3.3-5.5-7.4-7.2-12.5c-0.5-1.6-1.1-3.4-1.9-5.3
		c-10.3,3.7-21.1,9-32.4,14.6C744,245,719.5,257,694.6,257z"/>
</g>
<g>
	<path class="st2" d="M679.1,198.3c9.9,0.2,20-1,28.9-5.3c14.8-7.1,24.7-22.1,29.4-37.8c4.8-15.7,5.1-32.4,5.4-48.9
		c1.3-75,2.6-150,3.9-225c0.5-30.5,2.9-67.6-21.9-86.2c-28.5-17.6-70.6-6.7-86.9,22.5c-9.6,17.1-10.5,37.6-11.2,57.2
		c-3.1,85.9-6.3,171.8-4.2,257.7c0.4,16.4,1.4,34.1,11.6,47C644.4,192.8,662.3,197.9,679.1,198.3z"/>
	<path class="st3" d="M681.2,200.6L681.2,200.6c-0.7,0-1.4,0-2.2,0c-12-0.3-33.9-3.1-46.9-19.6c-10.4-13.2-11.6-30.4-12.1-48.4
		c-2-86,1.2-173.4,4.2-257.9c0.7-18.9,1.5-40.3,11.5-58.3c10.9-19.5,33.7-32.2,58-32.2c11.7,0,22.9,3,32.2,8.8l0.2,0.1
		c24.3,18.2,23.6,52.4,23,82.6c0,1.9-0.1,3.7-0.1,5.5l-3.9,225c-0.3,16.4-0.6,33.4-5.5,49.5c-5.5,18.2-16.7,32.5-30.7,39.3
		C701.2,198.8,692.2,200.6,681.2,200.6z M693.8-211.1c-22.6,0-43.8,11.7-53.9,29.8c-9.5,17-10.3,37.8-10.9,56.2
		c-3.1,84.4-6.3,171.7-4.2,257.6c0.4,17.2,1.6,33.6,11.1,45.7c11.8,15,32.2,17.6,43.4,17.8c0.7,0,1.4,0,2.1,0
		c10.2,0,18.7-1.7,25.8-5.1c12.8-6.2,23.1-19.4,28.2-36.4c4.7-15.6,5-32.2,5.3-48.3v-0.3l3.9-224.7c0-1.8,0.1-3.7,0.1-5.6
		c0.6-29,1.3-61.9-21-78.7C714.9-208.4,704.7-211.1,693.8-211.1z"/>
</g>
<g>
	<path class="st2" d="M702,181.1c-22.1-8.1-71.3-25.1-114.4-9.5c-19.5,7.1-35,23.6-62.8,62.7c-3.6,5.1-10.8,13.2-18.7,13.3
		c-5,0.1-9.4-2-11.6-3c-6.3-2.8-10.7-4.4-16.5-8c-9.4-5.8-8.1-12.8-4.9-16.1c3.6-3.6,9.6-3.4,13.6-2.2c5.8,1.7,9,2.7,13.7,2.6
		c15.1-0.3,36.7-52.6,75.9-69.1c1.1-0.5,53-18.7,133.9,9.4L702,181.1z"/>
	<path class="st3" d="M505.9,250c-5.3,0-9.7-2-12.1-3.1l-0.2-0.1c-1.6-0.7-3.1-1.4-4.5-2c-4.2-1.8-7.8-3.4-12.3-6.2
		c-6.2-3.8-7.9-8-8.3-10.9c-0.4-3.2,0.7-6.5,3-8.8c4.2-4.3,11-4.2,15.9-2.8l0.6,0.2c5.3,1.5,8.2,2.4,12.4,2.3
		c5.4-0.1,13.2-10,22.2-21.4c13.3-16.9,29.9-37.9,52.8-47.5c0.5-0.2,52.8-19.4,135.5,9.4l-1.5,4.4c-80.6-28-131.7-9.7-132.2-9.5
		c-21.7,9.2-37.9,29.6-50.9,46.1c-10.5,13.3-18.2,23-25.8,23.1c-4.8,0.1-8.2-0.9-13.8-2.5l-0.6-0.2c-3.5-1-8.6-1.2-11.3,1.6
		c-1.3,1.3-1.9,3.2-1.7,5c0.3,2.7,2.4,5.3,6.1,7.5c4.2,2.6,7.7,4.1,11.7,5.8c1.4,0.6,2.9,1.3,4.5,2l0.2,0.1c2.1,1,6,2.7,10.4,2.7
		c7.3-0.1,14.2-8.7,16.8-12.4c29.6-41.7,44.6-56.6,63.9-63.6c40.7-14.8,85.7-1.6,116,9.5l-1.5,4.6c-29.6-10.9-73.5-23.7-112.8-9.5
		c-18.1,6.6-33.1,21.6-61.7,61.9c-3.8,5.3-11.4,14.2-20.5,14.3C506.1,250,506,250,505.9,250z"/>
</g>
<g>
	<path class="st4" d="M681.4-68.5c0.8,1.3,0.9,2.8,0.8,4.3c-0.5,14.7-24.6,29.9-16.8,43.3c2.5,4.2,14.4,10.8,17.9,14.6
		c7.9,8.6,4.9,12.2-0.6,20.9c-6,9.5-15.5,14.2-12.3,24.4c2,6.6,17.5,22.4,18.8,29.1c1.8,8.7-7.2,16.4-15,23
		c-7.8,6.6-12.5,14.8-10.8,23.7c2.1,11.6-4.1,19.2-12.9,17.5c-8.8-1.6-14.2-8.8-14.6-15.6c-0.5-10.1,6.6-21.5,14.6-29.6
		c8.6-8.7,14-11.4,14-19c0.1-8.2-18.7-21.7-19.2-29.9c-0.4-6.1,4.5-11.7,8.5-17.1S666,8.3,662.3,2.9c-1.8-2.7-12-9.9-14.6-12.1
		c-13.8-11.6-8-23.7-1.7-37.6c3.9-8.6,9.7-21.6,20.2-26C672.1-75.4,678.7-73,681.4-68.5z"/>
	<path class="st3" d="M652.9,134.7c-0.9,0-1.8-0.1-2.7-0.3c-10.3-1.9-16.1-10.4-16.5-17.8c-0.5-9.5,5.2-21.3,15.3-31.4
		c2-2,3.8-3.7,5.5-5.2c5.6-5.2,7.9-7.5,7.9-12.1c0-3.3-4.8-8.9-9.1-13.8c-5-5.7-9.8-11.2-10.1-16c-0.4-6.3,3.6-11.6,7.5-16.7
		c0.5-0.7,1-1.3,1.5-1.9c0.8-1.1,1.8-2.3,2.8-3.5c3.4-4.1,7.6-9.1,5.6-12.1c-1.1-1.6-7.1-6.2-10.3-8.6c-1.7-1.3-3.1-2.4-3.9-3
		c-14.9-12.6-8.9-25.7-2.7-39.6l0.4-1c4-8.9,10-22.3,21.4-26.9c1.8-0.7,3.7-1.1,5.6-1.1c5.1,0,9.9,2.6,12.2,6.6
		c1.1,1.9,1.2,4,1.2,5.5c-0.2,7.1-5.1,13.9-9.8,20.4c-5.6,7.9-11,15.3-7.3,21.6c1.2,2,5.8,5.3,9.6,7.9c3.3,2.3,6.3,4.5,8,6.2
		c8.7,9.5,5.4,14.7,0.4,22.6l-0.7,1.1c-1.9,3.1-4.2,5.7-6.3,8c-4.9,5.5-7.5,8.9-5.8,14.5c0.8,2.7,4.8,7.9,8.6,12.8
		c4.9,6.4,9.5,12.4,10.3,16.5c2.1,10.1-7.8,18.5-15.7,25.2c-5.5,4.7-11.7,12.2-10,21.5c1.2,6.5,0.1,12.2-3.1,16
		C660.2,133.1,656.8,134.7,652.9,134.7z M671.1-71.6c-1.3,0-2.6,0.3-3.9,0.8c-9.6,4-15.2,16.3-18.9,24.5l-0.4,1
		c-6,13.3-10.7,23.8,1.4,34.1c0.7,0.6,2.1,1.7,3.7,2.9c5.6,4.3,9.9,7.7,11.3,9.7c4,5.8-1.5,12.4-5.9,17.6c-1,1.2-1.9,2.3-2.6,3.3
		c-0.5,0.7-1,1.3-1.5,2c-3.4,4.4-6.9,9-6.6,13.5c0.2,3.2,4.9,8.5,9,13.2C662,57.1,667,62.8,667,67.9c-0.1,6.8-3.8,10.3-9.4,15.5
		c-1.6,1.5-3.4,3.1-5.3,5.1c-7.1,7.1-14.4,18.2-13.9,27.9c0.3,5.6,4.7,12,12.7,13.5c3.3,0.6,6.1-0.3,8-2.6c2.3-2.7,3.1-7.2,2.1-12.2
		c-1.7-9,2.4-18,11.6-25.8c7.4-6.3,15.7-13.4,14.2-20.7c-0.6-3-5.3-9.2-9.5-14.6c-4.2-5.5-8.2-10.8-9.3-14.3
		c-2.6-8.3,2-13.5,6.8-18.9c2-2.3,4.1-4.6,5.8-7.4l0.7-1.2c4.9-7.8,6.4-10.1,0.1-17c-1.3-1.4-4.3-3.5-7.2-5.6
		c-4.8-3.3-9.2-6.5-10.9-9.4c-5.2-8.9,1.2-17.9,7.5-26.7c4.3-6,8.8-12.2,8.9-17.9c0-1.4-0.1-2.3-0.5-3
		C677.9-69.9,674.6-71.6,671.1-71.6z"/>
</g>
<g>
	<path class="st5" d="M708.6-154.2c4.8,1.4,10.8-1.2,12.9-6c0.9-2,2.6-9.5-2.2-14c-4.7-4.4-10.4-3.1-12.1-2.6
		c-3.4,1-8.4,5.9-7.6,12.4C700.1-159.6,704.1-155.5,708.6-154.2z"/>
	<path class="st3" d="M711.3-151.5L711.3-151.5c-1.2,0-2.3-0.2-3.4-0.5c-5.7-1.6-10.1-6.7-10.7-12.3c-0.9-7.6,4.8-13.5,9.3-14.9
		c0.8-0.2,2.5-0.7,4.5-0.7c3.7,0,7.1,1.3,9.8,3.8c5.5,5.1,4.2,13.4,2.8,16.7C721.6-154.7,716.5-151.5,711.3-151.5z M711-175.1
		c-1.5,0-2.7,0.3-3.2,0.5c-2.5,0.8-6.6,4.7-6,9.9c0.4,3.7,3.5,7.2,7.4,8.4c0.7,0.2,1.3,0.3,2.1,0.3c3.4,0,6.7-2.1,8.1-5
		c0.5-1.1,2.3-7.7-1.7-11.4C715.8-174.3,713.6-175.1,711-175.1z"/>
</g>
<circle class="st3" cx="710.7" cy="-166.2" r="2.7"/>
<g>
	<path class="st5" d="M644-154.9c4.8,1.4,10.8-1.2,12.9-6c0.9-2,2.6-9.5-2.2-14c-4.7-4.4-10.4-3.1-12.1-2.6c-3.4,1-8.4,5.9-7.6,12.4
		C635.5-160.3,639.5-156.2,644-154.9z"/>
	<path class="st3" d="M646.7-152.2L646.7-152.2c-1.2,0-2.3-0.2-3.4-0.5c-5.7-1.6-10.1-6.7-10.7-12.3c-0.9-7.6,4.8-13.5,9.3-14.9
		c0.8-0.2,2.5-0.7,4.5-0.7c3.7,0,7.1,1.3,9.8,3.8c5.5,5.1,4.2,13.4,2.8,16.7C657-155.4,651.9-152.2,646.7-152.2z M646.5-175.8
		c-1.5,0-2.7,0.3-3.2,0.5c-2.5,0.8-6.6,4.7-6,9.9c0.4,3.7,3.5,7.2,7.4,8.4c0.6,0.2,1.3,0.3,2.1,0.3c3.4,0,6.8-2.1,8.1-5
		c0.5-1.1,2.3-7.7-1.7-11.4C651.3-175,649-175.8,646.5-175.8z"/>
</g>
<circle class="st3" cx="644.2" cy="-166.9" r="2.7"/>
<g>
	<path class="st2" d="M741.3-87.1c8.9-8.4,46.5-109.4,57.2-149.3c1.3-5,2.2-11.5-2.1-14.5c-1-0.7-3.2-1.9-5-3.7
		c-2.1-2.1-0.5-7.8,4.8-7.4c3,0.2,5.6,1.3,8.5,2.1c0.5-3.3,1.1-6.6,1.6-9.9c1.5-7.9,6.8-5.3,7.2-3.1c0.9,3.9-1.5,10.4-2.2,14.3
		c0.6-2.6,5.2-17,10.3-14.3c4.2,1.9-0.5,12.7-2.1,18.5c3-6.1,7.1-16.6,11.6-13.1c5.4,3.7-5,20.6-9.3,28.7
		C814.5-225,783.9-126.6,743.9-65L741.3-87.1z"/>
	<path class="st3" d="M746.1-63.7l-3.9-2.5c29.2-45.2,54-111.5,67.2-147.1c4.9-13.3,8.5-22.8,10.5-26.6c0.6-1.1,1.2-2.3,1.9-3.6
		c2.7-5,11.1-20.1,8.1-22.2c-0.4-0.3-0.5-0.3-0.6-0.3c-2,0.5-5,6.8-6.6,10.2c-0.4,0.8-0.7,1.6-1.1,2.3l-4.3-1.6
		c0.3-1.2,0.8-2.6,1.3-4.1c3-9.2,2.8-11.5,2.2-11.8c-0.3-0.1-0.4-0.2-0.6-0.1c-2.5,1.2-5.8,9.4-6.5,12.7l-4.5-0.9
		c0.2-1.2,0.6-2.5,0.9-3.9c0.8-3.2,1.8-7.2,1.3-9.4c-0.1-0.2-0.6-0.5-0.9-0.5c-0.4,0.1-1.3,0.8-1.8,3.5l-2.1,12.4l-2.4-0.6
		c-0.9-0.2-1.9-0.5-2.8-0.8c-1.8-0.6-3.6-1.1-5.3-1.2c-1.9-0.1-2.6,0.9-2.9,1.6c-0.4,0.9-0.3,1.7,0,1.9c1.1,1.1,2.5,2,3.6,2.7
		c0.4,0.3,0.8,0.5,1.1,0.7c6.3,4.5,3.8,13.9,3,17C790.7-197.8,752.7-94.7,743-85.5l-3.2-3.4c7.2-6.9,44-101.1,56.6-148.2
		c1.7-6.2,1.3-10.3-1.2-12c-0.2-0.2-0.5-0.4-0.9-0.6c-1.2-0.8-2.9-1.8-4.4-3.3c-1.7-1.7-2.1-4.5-0.9-7.1c1.3-2.9,4.2-4.5,7.5-4.2
		c2.3,0.2,4.4,0.8,6.3,1.4h0.1l1.2-7.4c1.2-6.6,4.9-7.3,6.4-7.3l0,0c2.5,0,5,1.9,5.4,4.2l0,0c0.7-0.8,1.5-1.4,2.4-1.8
		c1.5-0.7,3.1-0.7,4.6,0.1c2.3,1,3,3.2,2.9,5.9c0.8-0.6,1.6-1,2.5-1.3c1.1-0.3,2.7-0.3,4.4,1c6.3,4.4-0.9,17.6-6.7,28.2
		c-0.7,1.3-1.4,2.5-1.9,3.5c-1.9,3.5-5.4,13-10.3,26.1C800.4-175.9,775.6-109.3,746.1-63.7z"/>
</g>
<path class="st6" d="M1347.1,15.7c-4.3-0.4-7.8,3-11.8,4.4c-10.7,3.6-33.2,6-39.4-1.6c-2.2-2.7-5.6-10.4-5.6-10.4s-9.1-2.7-14.1-3.2
	c-11.1-1-22.3-2-33.3-0.8c-16.8,1.9-32.1,8.2-46,15.7c-40.7,21.9-69.5,35.3-105.8,50.2c-34.1,14.1-64.6,19.6-75.6,51.7
	c-8.9,26,9.3,55.6,41.4,66.4c13,4.4,42.6,11.5,56.3,14.4c22.7,4.8,38.5,5,62.6,1.4c50-7.5,70.8-25.7,102.8-42.7
	c37.5-19.9,60.1-33.2,95.5-55.9c20.3-13,24.2-26.3,24.6-32.1C1400.2,49.9,1398.6,21,1347.1,15.7z"/>
<path class="st3" d="M1146.8,208.7L1146.8,208.7c-10.7,0-21.2-1.2-34-3.9c-13.2-2.8-43.3-10-56.6-14.4c-18-6-32.5-18.2-40-33.3
	c-5.8-11.7-6.8-24.5-2.9-36.1c9.4-27.6,32.6-36.3,59.4-46.3c5.7-2.1,11.5-4.3,17.5-6.8c39.1-16.1,67.7-29.7,105.6-50.1
	c17.1-9.2,32-14.3,46.9-16c3.5-0.4,7.2-0.6,11.2-0.6c7.6,0,15.2,0.7,22.6,1.4c5.1,0.5,14.1,3.2,14.5,3.3l1,0.3l0.4,1
	c0.9,2.1,3.6,7.9,5.3,9.9c2.2,2.6,7.8,4.8,15.5,4.8c11.7,0,16.2-1.7,21.3-3.9c1.2-0.5,2.4-1.1,3.7-1.8c2.6-1.4,5.5-3.1,9-2.7
	c50.4,5.2,55.6,31.9,53.7,59.9c-0.4,5.5-3.6,19.8-25.6,33.9c-36.2,23.2-58.6,36.2-95.6,55.9c-6.9,3.7-13.4,7.5-19.7,11.1
	c-22.8,13.3-44.3,25.9-83.9,31.9C1164.6,208,1155.5,208.7,1146.8,208.7z M1253.9,5.8c-3.9,0-7.3,0.2-10.7,0.6
	c-14.3,1.6-28.7,6.5-45.2,15.5c-38,20.5-66.8,34.1-106,50.3c-6,2.5-11.9,4.7-17.6,6.8c-26.8,10.1-48,18-56.6,43.5
	c-3.5,10.3-2.6,21.9,2.7,32.5c6.9,14,20.5,25.3,37.3,30.9c13.1,4.4,43,11.5,56,14.3c12.5,2.6,22.7,3.8,33,3.8l0,0
	c8.5,0,17.3-0.8,28.7-2.5c38.7-5.8,59.8-18.2,82.2-31.3c6.3-3.7,12.8-7.5,19.8-11.2c36.9-19.6,59.2-32.7,95.3-55.8
	c20.8-13.3,23.3-26.6,23.5-30.3c1.6-24-0.8-50-49.5-55c-2.1-0.2-4.1,0.9-6.3,2.1c-1.4,0.8-2.9,1.6-4.5,2.1
	c-6.3,2.1-15.2,3.5-22.8,3.5c-6.5,0-15.1-1-19.1-5.9c-1.9-2.3-4.4-7.7-5.5-9.9c-2.5-0.7-8.9-2.5-12.6-2.8
	C1268.8,6.5,1261.4,5.8,1253.9,5.8z"/>
<path class="st7" d="M1347.1,15.7c0,0-104,62.3-210.3,111.5c0,0-7.5,3.1-14.6,8.9c-4.5,3.7-7.8,9.4-12,15.1c0,0-14.9,26.7-41.4,17.1
	c0,0-24.2-10.3-12.5-41.1c0,0,2.2-6.4,9.3-12.4c4.2-3.6,10.8-6.4,18.1-9.5c0,0,161.4-73.5,207.3-97.1c0,0,1.9,17.2,25.7,15.7
	C1316.6,23.9,1330.7,23.3,1347.1,15.7z"/>
<path class="st3" d="M1080,172.7c-4,0-8-0.7-12.1-2.2c-9.2-3.9-23.8-18.1-13.9-44.1c0.1-0.2,2.5-7,9.9-13.4
	c4.6-3.9,11.8-6.9,18.7-9.9c1.6-0.7,161.8-73.7,207.2-97.1c0.7-0.3,1.5-0.3,2.2,0c0.7,0.4,1.1,1,1.2,1.8c0.1,0.5,1.9,13.7,20.5,13.7
	l0,0c0.9,0,1.8,0,2.7-0.1c0.2,0,13.9-0.8,29.7-8c1.1-0.5,2.4-0.1,3,1s0.2,2.4-0.9,3.1c-1,0.6-105.3,62.9-210.5,111.7
	c-0.2,0.1-7.4,3.1-14.1,8.6c-3.2,2.6-5.8,6.4-8.6,10.5c-0.9,1.3-1.9,2.7-2.9,4.1C1111,154.4,1100,172.7,1080,172.7z M1289.3,11.6
	c-48.7,24.7-203.2,95.1-204.8,95.8c-6.7,2.8-13.5,5.7-17.6,9.1c-6.4,5.5-8.6,11.4-8.6,11.4c-10.8,28.4,10.3,37.8,11.2,38.2
	c3.5,1.2,7,1.9,10.4,1.9c17.9,0,28-17.8,28.1-18c0-0.1,0.1-0.2,0.2-0.2c1-1.4,2-2.7,2.9-4.1c3-4.3,5.8-8.4,9.5-11.4
	c7.2-6,14.9-9.1,15.2-9.3c78.5-36.4,156.4-80.3,191.2-100.4c-6.1,1.3-10.1,1.5-10.4,1.5c-1,0.1-2,0.1-3,0.1l0,0
	C1298.2,26.3,1291.5,18,1289.3,11.6z"/>
<path class="st1" d="M758.9,359c-32.1,11.4-64.8,23.2-119.2,16.5c-13.7-1.7-22.7-9.8-27.2-13.8c-2.2-2-2.9-3.9-3.3-5.7
	c-2.9-13.6,5.7-24.2,19.2-31.8s31.9-12.5,50.1-17.3c26.9-7.1,53.8-14.3,80.7-21.4c5.3,1.1,7.3,5.1,6.8,7.4s0,5.8,5.2,7.6
	c2.6,0.9,5.1,0.8,7.1,0.6c8.1-0.9,14.1-3.3,22-4.4c7.9-1,19-0.2,28.9,4.1c10.4,4.6,15.6,11.8,14.7,16.6c-0.9,4.8-6.6,7.9-12.2,10.8
	C809.3,339.4,785,349.8,758.9,359z"/>
<path class="st3" d="M674.4-111.7c-6.7,0-13.4-1.7-19.9-5.1c-8.7-4.6-16.2-16.9-16.6-27.5l6.2-0.3c0.4,9.4,7.2,19.1,13.3,22.3
	c9.5,5,19.6,5.7,29.4,2.1c13-4.8,19.8-16.6,20.5-23.4l6.2,0.6c-0.8,7.8-8.2,22.5-24.5,28.6C684.2-112.6,679.3-111.7,674.4-111.7z"/>
<g>
	<path class="st8" d="M797.6-151.5c-4.2-70-34.6-98-67.7-99.3c-33.1-1.3-42.7,25.2-42.7,25.2l73.7,38.5
		c30.1,19.1,34.3,37.9,34.3,37.9L797.6-151.5z"/>
	<path class="st9" d="M680.2-211.4c-4.8-0.5-2.6-4.2-2.6-4.2c-0.3-3.5,3.8-7.2,3.8-7.2c0.9-4.3,6.9-3,6.9-3c4.1-3.2,9.3,0.5,9.3,0.5
		c4.8-3,10.2,1.7,10.2,1.7c2.9-1.5,8.8,3.7,8.8,3.7c4.5-1.9,10.8,3.5,10.8,3.5c7.6-2.6,11.6,6.5,11.6,6.5c5.5-1.9,9.5,5.9,9.5,5.9
		c5.2-1.9,8.4,8.3,8.4,8.3c2.9-1.2,4.8,6.3,4.8,6.3c2.4-0.9,3.6,6.4,3.6,6.4c6,3.9-1,11.5-1,11.5c0.2,3.1-3.7,6.1-3.7,6.1
		c-0.2,4.9-7.1,6-7.1,6c-4.2,7-7.8-1-7.8-1c-6.4-2.4-9.4-14.2-9.4-14.2c-10.2-1.7-14.6-9.4-14.6-9.4c-5.6,1.8-8.7-4.1-8.7-4.1
		c-8,1.2-14.1-7.7-14.1-7.7c-4,1.9-8.4-2.5-8.4-2.5c-5.3-0.6-5.8-5.6-5.8-5.6S683.5-211,680.2-211.4z"/>
	<g>
		<path class="st5" d="M788.4-144.9c0.3-1.2,1.6-0.8,1.9-1.4c0.3-0.5,0.8-1.4,1.6-1.1c0.8,0.2,2.1,0.4,2.5-1.2
			c0.4-1.6,2.3-2.8,4.3-2.9c2-0.1,3-0.4,2.9-1.1c-0.1-0.7,0.3-2,2.3-1.8c2,0.3,1.3,3.6,1.3,3.6s2.4-0.9,2.6,2.4s1.3,3.8,3,6.5
			s-1.6,6.4-1.6,6.4c2,4.3-2.5,5.9-5.1,6.3c-2.6,0.5-5.6-3.3-7.7-1.4c-2.1,1.8-4.6,1.2-5.1,0.7c-0.5-0.5-3.3-1.7-2.8-2.5
			c0.5-0.8-1.5-3.3-0.7-4.1c0.8-0.7,1-1.3,0.2-1.9c-0.8-0.6-1.4-1.8,0.8-2.7c2.3-0.9-1.1-2.1-1.1-2.1S788.1-143.6,788.4-144.9z"/>
		<g>
			<path class="st10" d="M788-142.6c0.6,0.2,1.5,0.6,1.8,1.2c-0.1-0.3-0.3-0.6-0.4-0.8c0.3,0.6-1,0.9-1.3,1.1
				c-0.5,0.3-1.1,0.7-1,1.3c0.1,0.5,0.3,0.9,0.5,1.3c0.2,0.5,0.7,0.7,1,1.2c-0.1-0.3-0.3-0.6-0.4-0.9c0.2,0.5-0.2,0.9-0.5,1.2
				c-0.3,0.3-0.4,0.5-0.3,0.9c0.2,0.8,0.6,1.5,0.8,2.3c0.1,0.6-0.1,1,0.1,1.6c0.3,0.7,0.6,1.1,1.3,1.5c0.5,0.3,1,0.6,1.5,0.9
				c0.3,0.1,0.5,0.5,0.8,0.6c1.1,0.5,2.6,0.4,3.6-0.2c0.6-0.4,1.1-0.9,1.8-1.1c0.4-0.1,0.9-0.1,1.3,0c1.1,0.3,2.1,1,3.1,1.4
				c1.1,0.5,2,0.6,3.1,0.3c1-0.3,2-0.5,2.8-1.1c0.8-0.5,1.7-1.2,1.9-2.1c0.3-1.1,0-2.1-0.4-3.2c0,0.1,0.1,0.1,0.1,0.1
				c0.8-1,1.6-2.3,1.9-3.5c0.4-2-0.7-3.7-1.8-5.2c-0.4-0.5-0.8-1-1.1-1.7c0.4,0.7-0.1-0.3-0.2-0.5c-0.1-0.3-0.2-0.6-0.2-1
				c-0.1-0.7-0.1-1.5-0.3-2.2c-0.1-0.3-0.3-0.6-0.4-0.9c-0.4-0.9-1.3-1.6-2.4-1.1c0.1,0.3,0.3,0.6,0.4,0.9c0.2-0.7,0.2-1.6,0-2.3
				c-0.2-0.7-0.6-1.7-1.3-2c-1.1-0.4-2.7,0-2.7,1.4c0,0.4,0,0.8-0.4,1c-0.6,0.3-1.4,0.4-2,0.4c-1.6,0.1-3.2,0.5-4.2,1.8
				c-0.2,0.2-0.4,0.5-0.5,0.9c-0.1,0.3-0.2,0.8-0.4,1.1c-0.4,0.5-1,0.7-1.6,0.6c-0.7-0.1-1.2-0.3-1.7,0.5c-0.1,0.2-0.3,0.6-0.4,0.7
				c-0.2,0.1-0.5,0.2-0.7,0.2c-1.3,0.4-1,1.8-1.6,2.8C787.5-143.4,788-142.8,788-142.6c0.5-0.9,0.3-2.4,1.4-2.8
				c0.3-0.1,0.5-0.1,0.7-0.2c0.2-0.1,0.2-0.2,0.3-0.4c0.4-0.6,0.8-1,1.6-0.8c0.5,0.1,1.2,0.2,1.7-0.2c0.5-0.5,0.6-1.1,0.9-1.8
				c0.6-1.1,1.8-1.9,3.1-2.2c0.8-0.2,1.6-0.1,2.5-0.3c0.4,0,1-0.1,1.3-0.5c0.2-0.3,0.1-0.7,0.1-1c0.1-0.5,0.4-0.9,0.9-1.1
				c0.5-0.2,1.4-0.3,1.9,0.1c0.2,0.1,0.4,0.3,0.5,0.5c-0.4-0.8-0.1-0.2-0.1,0.1c0.1,0.7,0.1,1.3-0.1,1.9c0,0.1,0.4,0.9,0.4,0.9
				c0.3-0.1,0.6-0.2,0.9-0.1c0.3,0,0.6,0.2,0.8,0.3c0.1,0.1,0.2,0.2,0.3,0.4c-0.3-0.5-0.1-0.1,0,0.1c0.2,1.2,0.2,2.3,0.7,3.5
				c0.3,0.7,0.6,1.4,1,2c0.3,0.5,0.7,0.9,1,1.4c0.2,0.3,0.4,0.6,0.5,0.9c0.1,0.2,0.3,0.8,0.1,0.1c0,0.1,0.1,0.2,0.1,0.3
				c0.2,0.8,0,1.7-0.3,2.6c-0.4,1-1,2.1-1.7,2.9l0.1,0.1c0.2,0.3,0.3,0.7,0.4,1.1c0.5,2.3-1.3,3.8-3.3,4.5c-0.9,0.3-2,0.7-2.9,0.7
				c-1.2-0.1-2.2-0.6-3.2-1.2c-0.8-0.4-2-1-3-0.8c-0.7,0.2-1.1,0.7-1.7,1.1c-0.6,0.4-1.3,0.6-2,0.6c-0.5,0-1.1,0-1.7-0.3
				c-0.3-0.1-0.5-0.4-0.8-0.6c-0.8-0.5-2-0.9-2.5-1.8c0.1,0.3,0.3,0.6,0.4,0.8c-0.1-0.2,0.1-0.5,0.1-0.7c0-0.3-0.1-0.7-0.3-1.1
				c-0.2-0.7-0.8-1.6-0.6-2.4c0.2-0.7,1.2-1,0.7-1.8c-0.1-0.3-0.2-0.6-0.4-0.9c-0.2-0.3-0.5-0.5-0.7-0.7c-0.4-0.5,0.1,0.7,0.1,0.2
				c0-0.1,0-0.3,0.1-0.5c0.2-0.4,0.5-0.7,0.9-0.9c0.5-0.2,1.6-0.5,1.2-1.2c-0.3-0.6-0.4-1.1-1-1.3c-0.4-0.2-0.8-0.5-1.2-0.6
				C787.8-143.5,787.7-142.7,788-142.6z"/>
		</g>
	</g>
	<g>
		<path class="st10" d="M799.4-147.2c-0.6,0.3-1.1,0.6-1.6,1c-0.5,0.4-0.9,0.8-1.2,1.4c-0.3,0.5-0.5,1.1-0.7,1.7
			c0-0.7,0.1-1.4,0.3-1.9c0.3-0.6,0.7-1.2,1.2-1.6c0.5-0.5,1.2-0.8,1.8-0.9c0.6-0.2,1.3-0.2,2-0.1
			C800.6-147.6,800-147.4,799.4-147.2z"/>
	</g>
	<g>
		<path class="st10" d="M792.8-136.7c0,0.4,0,0.8,0,1.2c0,0.4,0.1,0.8,0.3,1.1s0.4,0.7,0.6,0.9c0.3,0.2,0.6,0.3,1,0.4
			c0.4,0.1,0.8,0.1,1.2,0.1c0.4,0,0.8,0,1.3-0.1c-0.4,0.2-0.8,0.3-1.2,0.4c-0.4,0.1-0.9,0.1-1.3,0.1c-0.4,0-0.9-0.2-1.3-0.4
			c-0.2-0.1-0.4-0.3-0.5-0.5c-0.2-0.2-0.3-0.4-0.4-0.6c-0.2-0.4-0.2-0.9-0.3-1.3c0-0.4,0-0.9,0.1-1.3c0.2-0.8,0.4-1.7,0.8-2.5
			C793-138.4,792.9-137.6,792.8-136.7z"/>
	</g>
	<g>
		<path class="st10" d="M805.4-137.8c0.4-0.6,0.8-1.3,1-2s0.3-1.5,0.3-2.2c0-0.8-0.2-1.5-0.3-2.3c0.4,0.7,0.7,1.4,0.9,2.3
			c0.1,0.8,0.1,1.6-0.2,2.5c-0.2,0.8-0.7,1.5-1.2,2.1c-0.3,0.3-0.6,0.6-0.9,0.8c-0.3,0.2-0.7,0.5-1.1,0.6
			C804.5-136.6,805-137.2,805.4-137.8z"/>
	</g>
	<g>
		<path class="st10" d="M743.1-174.2c0.3,1.4,0.8,2.8,1.3,4.1c0.6,1.3,1.3,2.5,2.2,3.6c0.9,1.1,2.1,2,3.4,2.7
			c-0.7-0.2-1.4-0.5-2.1-0.8c-0.7-0.4-1.3-0.9-1.8-1.4c-1.1-1.1-1.9-2.4-2.5-3.8c-0.6-1.4-1-2.9-1.2-4.3c-0.1-0.7-0.1-1.5-0.2-2.2
			c0-0.3,0-0.8,0-1.1c0-0.4,0.1-0.7,0.1-1.1C742.5-177.1,742.8-175.6,743.1-174.2z"/>
	</g>
	<g>
		<path class="st10" d="M753.2-168.4c-0.7,0.7-1.5,1.3-2.4,1.8c-0.5,0.2-0.9,0.4-1.4,0.5c-0.5,0.1-1,0.1-1.6,0.1
			c-0.5-0.1-1-0.2-1.4-0.5c-0.4-0.3-0.8-0.6-1.1-1c0.2,0.1,0.4,0.2,0.6,0.3c0.2,0.1,0.4,0.2,0.7,0.2c0.4,0.2,0.9,0.2,1.4,0.2
			c0.9,0,1.8-0.3,2.5-0.7c0.8-0.4,1.6-0.9,2.4-1.5c0.8-0.6,1.5-1.2,2.2-1.8C754.5-169.9,753.9-169.1,753.2-168.4z"/>
	</g>
	<g>
		<path class="st10" d="M746.2-194.1c0.3,0.1,0.7,0.2,1,0.4c0.7,0.2,1.3,0.6,1.9,1c1.2,0.8,2.3,1.8,3.2,2.9c0.9,1.2,1.6,2.5,2.1,3.8
			c0.5,1.4,0.8,2.8,0.8,4.3c-0.4-1.4-0.9-2.7-1.5-4c-0.6-1.3-1.3-2.5-2.2-3.5c-0.9-1.1-1.8-2.1-2.9-2.9c-0.6-0.4-1.1-0.8-1.7-1.2
			c-0.6-0.4-1.2-0.7-1.9-1C745.4-194.3,745.8-194.2,746.2-194.1z"/>
	</g>
	<g>
		<path class="st10" d="M733.7-185.8c-0.6-0.7-1.1-1.4-1.7-2c-1.2-1.3-2.5-2.4-4-3.2c-0.8-0.4-1.5-0.7-2.3-1
			c-0.8-0.2-1.7-0.4-2.5-0.5c-1.7-0.2-3.4,0.1-5.2,0.5c1.6-0.8,3.4-1.2,5.2-1.2c1.8,0,3.7,0.5,5.2,1.4c1.6,0.9,3,2.2,4.1,3.5
			c0.3,0.3,0.6,0.7,0.8,1.1c0.2,0.4,0.5,0.7,0.7,1.1c0.4,0.8,0.8,1.6,1.1,2.4C734.7-184.3,734.2-185,733.7-185.8z"/>
	</g>
	<g>
		<path class="st10" d="M714.1-202.1c0.3,0.1,0.5,0.2,0.8,0.3c0.5,0.2,1,0.4,1.4,0.7c0.9,0.6,1.7,1.3,2.4,2.1
			c0.7,0.9,1.2,1.8,1.5,2.9s0.4,2.1,0.2,3.2c-0.2-1-0.5-2-0.9-2.9c-0.4-0.9-0.9-1.8-1.6-2.5c-0.6-0.8-1.3-1.5-2.1-2.1
			s-1.6-1.2-2.5-1.8C713.5-202.3,713.9-202.2,714.1-202.1z"/>
	</g>
	<g>
		<path class="st10" d="M685.7-202.4c0.2-0.2,0.4-0.3,0.6-0.4c0.5-0.2,1-0.5,1.5-0.6c1-0.2,2.2-0.2,3.2,0.1c1,0.3,1.9,0.8,2.7,1.5
			c0.8,0.7,1.5,1.5,2,2.3c-0.8-0.6-1.6-1.2-2.4-1.7c-0.8-0.5-1.7-0.9-2.6-1.2c-0.9-0.3-1.9-0.4-2.8-0.3c-0.5,0-0.9,0.2-1.4,0.3
			c-0.5,0.2-0.9,0.3-1.4,0.5C685.3-202.1,685.5-202.3,685.7-202.4z"/>
	</g>
	<g>
		<path class="st10" d="M696.8-216.4c0.4,0.5,0.7,0.8,1.2,1.2c0.8,0.7,1.8,1.4,2.8,1.8c1,0.4,2.1,0.8,3.2,0.9s2.3,0.1,3.4,0
			c-1.1,0.5-2.2,0.7-3.5,0.7c-1.2,0-2.4-0.2-3.5-0.7c-1.1-0.5-2.1-1.2-2.9-2.2c-0.4-0.4-0.7-1-1-1.5c-0.1-0.3-0.2-0.5-0.4-0.8
			c-0.1-0.3-0.2-0.5-0.3-0.9C696.1-217.4,696.4-216.9,696.8-216.4z"/>
	</g>
	<g>
		<path class="st10" d="M697-219.2c-0.2,0.3-0.4,0.6-0.6,0.8c-0.4,0.6-0.9,1-1.5,1.5c-1,0.9-2.2,1.7-3.5,2.2
			c-1.3,0.5-2.8,0.7-4.1,0.6c-1.4-0.2-2.7-0.7-3.8-1.5c1.3,0.5,2.6,0.7,3.9,0.7c1.3,0,2.5-0.2,3.8-0.7c1.2-0.4,2.3-1.1,3.5-1.8
			c0.5-0.4,1.1-0.8,1.6-1.2c0.5-0.4,1-0.9,1.4-1.4C697.4-219.8,697.2-219.5,697-219.2z"/>
	</g>
</g>
</svg>
