<?xml version="1.0" encoding="utf-8"?>
<!-- Generator: Adobe Illustrator 16.2.1, SVG Export Plug-In . SVG Version: 6.00 Build 0)  -->
<!DOCTYPE svg PUBLIC "-//W3C//DTD SVG 1.1//EN" "http://www.w3.org/Graphics/SVG/1.1/DTD/svg11.dtd">
<svg version="1.1" id="Layer_1" xmlns="http://www.w3.org/2000/svg" xmlns:xlink="http://www.w3.org/1999/xlink" x="0px" y="0px"
	 width="129.7px" height="170.4px" viewBox="0 0 129.7 170.4" style="enable-background:new 0 0 129.7 170.4;" xml:space="preserve"
	>
<ellipse style="fill:#EDE1B3;" cx="65.8" cy="159.3" rx="35.6" ry="11.1"/>
<path style="fill:#AEAF35;" d="M85.5,107.2c5.5,4.7,11.6,13.6,11.6,29.6c0,2.2-1.8,3.9-3.9,3.9c-2.2,0-3.9-1.8-3.9-3.9
	c0,0,0-0.6,0-1.3c-0.2,0-0.5,0-0.5,0c-1.4,0-2.5-1.1-2.5-2.5c0-1.4,1.1-2.5,2.5-2.5c0,0,0.1,0,0.1,0c-1.4-11.4-5.9-15.6-9.7-18.3
	c0.5,13.8,1.1,44.6,1.1,44.6c0,0.1,0,0.2,0,0.3c0,0.1,0,0.1,0,0.2c0,2.2-1.8,4-4,4c-2.2,0-4-1.8-4-4h0v-9.5c-0.1-3.9-3.3-7-7.3-7
	c-3.8,0-6.9,2.9-7.3,6.6v9.9h0c0,2.2-1.8,4-4,4c-2.2,0-4-1.8-4-4c0-0.1,0-0.1,0-0.2c0-0.1,0-0.2,0-0.3c0,0,0.4-35.8,0.4-44.9
	c-3.8,2.7-8.6,6.8-10.1,18.6c0,0,0.1,0,0.1,0c1.4,0,2.5,1.1,2.5,2.5c0,1.4-1.1,2.5-2.5,2.5c0,0-0.3,0-0.5,0c0,0.6,0,1.3,0,1.3
	c0,2.2-1.8,3.9-3.9,3.9c-2.2,0-3.9-1.8-3.9-3.9c0-16.1,6.1-24.9,11.6-29.6c0,0,8-6.8,20.2-6.8C63.4,100.3,77,100.2,85.5,107.2z"/>
<path style="fill:#8A9137;" d="M45.7,115.7c1.4-1.6,2.9-2.8,4.3-3.7c0,1.2,0,3,0,5c7.6,2,15.8,2.5,23.1,2.5c2.2,0,4.3,0,6.4,0
	c-0.1-2.7-0.2-5.1-0.2-7.2c2.1,1.5,4.4,3.5,6.3,7c2.8-0.1,5.5-0.4,8.2-0.8c-2.2-5.2-5.3-8.8-8.2-11.3c-8.6-7-22.1-6.9-22.1-6.9
	c-12.2,0-20.2,6.8-20.2,6.8c-1.6,1.4-3.3,3.1-4.8,5.3C40.7,113.7,43.1,114.8,45.7,115.7z"/>
<path style="fill:#F8971D;" d="M129.4,49.8C125.8,11.6,91.2,0,64,0C36.7,0,3.3,11.5,0.2,49.8c-3.1,39.2,28.2,61.7,64.4,61.7
	C105.3,111.4,133,88.2,129.4,49.8"/>
<path style="fill:#F57E20;" d="M54.1,69c-3.3-16.2-8.9-24.5-17-35.2c-4.9-6.4-13.2-13-22.4-16.8C6.9,24.7,1.4,35.3,0.2,49.8
	c-3.1,39.2,28.2,61.7,64.4,61.7c2.5,0,5-0.1,7.5-0.3C62.7,102.2,56.6,81.6,54.1,69z"/>
<path style="fill:#FCC8A0;" d="M101.5,62.9c4.8,4.2,7.6,9.3,7.6,14.7c0,14.5-12.9,26.3-44.1,26.3c-29.4,0-43.4-11.8-43.4-26.3
	c0-5.4,2.8-10.5,7.5-14.7c7.9-7,21.2-3.3,36.3-3.3C80.3,59.7,93.6,55.9,101.5,62.9z"/>
<path style="fill:#FBBD92;" d="M51.5,59c-9.6-0.6-17-1-22.5,3.9c-4.7,4.2-7.5,9.2-7.5,14.7c0,14.5,14,26.3,43.4,26.3
	c0.6,0,1.1,0,1.6,0C56.1,92.6,59.3,69.6,51.5,59z"/>
<path style="fill:#F58663;" d="M66.6,82c0,0.9-0.7,1.5-1.5,1.5c-0.8,0-1.5-0.7-1.5-1.5c0-0.8,0.7-1.5,1.5-1.5
	C65.9,80.5,66.6,81.2,66.6,82z"/>
<path style="fill:#FDF9D1;" d="M66.1,116.5c0,0.9-0.7,1.5-1.5,1.5c-0.8,0-1.5-0.7-1.5-1.5c0-0.8,0.7-1.5,1.5-1.5
	C65.4,115,66.1,115.7,66.1,116.5z"/>
<path style="fill:#FDF9D1;" d="M66.1,123.8c0,0.9-0.7,1.5-1.5,1.5c-0.8,0-1.5-0.7-1.5-1.5c0-0.8,0.7-1.5,1.5-1.5
	C65.4,122.3,66.1,123,66.1,123.8z"/>
<path style="fill:#A25049;" d="M48.4,76.7c0,1.7-1.3,3-3,3c-1.7,0-3-1.3-3-3c0-1.7,1.3-3,3-3C47.1,73.7,48.4,75.1,48.4,76.7z"/>
<path style="fill:#A25049;" d="M81.7,76.7c0,1.7,1.3,3,3,3c1.7,0,3-1.3,3-3c0-1.7-1.3-3-3-3C83.1,73.7,81.7,75.1,81.7,76.7z"/>
<polygon style="fill:#87AD3F;" points="48,6.5 50.7,10.1 55.5,7.3 53.8,11.5 59.4,11.9 54.3,14.3 57.4,17.5 52,16.8 50.8,21 
	48.1,17.5 43.3,20.2 45,16 39.4,15.7 44.5,13.3 41.4,10 46.9,10.8 "/>
<circle style="fill:#FEC23A;" cx="84.9" cy="30.5" r="1.4"/>
<circle style="fill:#FEC23A;" cx="91.4" cy="28.5" r="1.4"/>
<circle style="fill:#FEC23A;" cx="97.8" cy="26.4" r="1.4"/>
<circle style="fill:#FEC23A;" cx="104.2" cy="24.3" r="1.4"/>
<circle style="fill:#FEC23A;" cx="110.7" cy="22.3" r="1.4"/>
<circle style="fill:#FEC23A;" cx="89.9" cy="34.5" r="1.4"/>
<circle style="fill:#FEC23A;" cx="96.4" cy="32.4" r="1.4"/>
<circle style="fill:#FEC23A;" cx="102.8" cy="30.4" r="1.4"/>
<circle style="fill:#FEC23A;" cx="94.7" cy="39" r="1.4"/>
<circle style="fill:#FEC23A;" cx="101.2" cy="36.9" r="1.4"/>
<circle style="fill:#FEC23A;" cx="94.3" cy="15.6" r="1.4"/>
<circle style="fill:#FEC23A;" cx="107.6" cy="34.8" r="1.4"/>
<circle style="fill:#FEC23A;" cx="109.3" cy="28.3" r="1.4"/>
<circle style="fill:#FEC23A;" cx="86.6" cy="24" r="1.4"/>
<circle style="fill:#FEC23A;" cx="93" cy="21.9" r="1.4"/>
<circle style="fill:#FEC23A;" cx="99.5" cy="19.9" r="1.4"/>
<circle style="fill:#FEC23A;" cx="105.9" cy="17.8" r="1.4"/>
<circle style="fill:#F8971D;" cx="9.5" cy="47.6" r="1.4"/>
<circle style="fill:#F8971D;" cx="16" cy="45.5" r="1.4"/>
<circle style="fill:#F8971D;" cx="22.4" cy="43.5" r="1.4"/>
<circle style="fill:#F8971D;" cx="28.8" cy="41.4" r="1.4"/>
<circle style="fill:#F8971D;" cx="35.3" cy="39.3" r="1.4"/>
<circle style="fill:#F8971D;" cx="14.5" cy="51.6" r="1.4"/>
<circle style="fill:#F8971D;" cx="21" cy="49.5" r="1.4"/>
<circle style="fill:#F8971D;" cx="27.4" cy="47.5" r="1.4"/>
<circle style="fill:#F8971D;" cx="19.3" cy="56" r="1.4"/>
<circle style="fill:#F8971D;" cx="25.8" cy="54" r="1.4"/>
<circle style="fill:#F8971D;" cx="18.9" cy="32.6" r="1.4"/>
<circle style="fill:#F8971D;" cx="32.2" cy="51.9" r="1.4"/>
<circle style="fill:#F8971D;" cx="33.8" cy="45.4" r="1.4"/>
<circle style="fill:#F8971D;" cx="11.2" cy="41.1" r="1.4"/>
<circle style="fill:#F8971D;" cx="17.6" cy="39" r="1.4"/>
<circle style="fill:#F8971D;" cx="24" cy="37" r="1.4"/>
<circle style="fill:#F8971D;" cx="30.5" cy="34.9" r="1.4"/>
<ellipse style="fill:#F58663;" cx="65.3" cy="94" rx="10.4" ry="5.4"/>
</svg>
