<?xml version="1.0" encoding="utf-8"?>
<!-- Generator: Adobe Illustrator 16.2.1, SVG Export Plug-In . SVG Version: 6.00 Build 0)  -->
<!DOCTYPE svg PUBLIC "-//W3C//DTD SVG 1.1//EN" "http://www.w3.org/Graphics/SVG/1.1/DTD/svg11.dtd">
<svg version="1.1" id="Layer_1" xmlns="http://www.w3.org/2000/svg" xmlns:xlink="http://www.w3.org/1999/xlink" x="0px" y="0px"
	 width="149.1px" height="258.6px" viewBox="0 0 149.1 258.6" style="enable-background:new 0 0 149.1 258.6;" xml:space="preserve"
	>
<path style="fill:#99AD3B;" d="M87.5,121.5c-3,0-4.1,3.8-3,6.4c1,2.4,4,3.6,6.4,2.5c1.9-0.9,2.6-5,1.8-6.6
	C91.8,121.8,89.8,121.6,87.5,121.5z"/>
<path style="fill:#5B3E1D;" d="M75.3,1.5c-0.2,8.5,0.1,15.2,0.1,23.7c0,12.4-0.1,20.7,0.3,33c0,2.3,0.8,6.8,1.4,2.8
	c1-6.5,2.2-22,2.9-28.5c1.1-10.7,2.2-21.9,1.4-32.6c-1.7-0.1-4.4,0-6.1,0.3C75.3,0.7,75.3,1.1,75.3,1.5z"/>
<path style="fill:#99BE3C;" d="M79.6,33.3C90.4,5.7,123.6,3,147.7,3.7c1.2,16.4-16.1,26.2-25.6,30.1c-7.3,2.9-35.5,12.5-42.5-0.3
	L79.6,33.3z"/>
<path style="fill:#88AE3F;" d="M81.1,32.6c3.2-1.7,6.5-3.1,9.7-4.8c10-5.3,20.4-9.1,30.8-13.2c7.8-3.1,16.5-4,23.4-8.7
	c0.9-0.6,1.7-1.2,2.4-1.9c0.1-0.1,0.2-0.2,0.3-0.4C123.6,3,90.4,5.8,79.7,33.4l0,0C80.2,33.1,80.7,32.8,81.1,32.6z"/>
<path style="fill:#EDE1B3;" d="M116.5,246.4c0,6.8-17.6,12.3-39.4,12.3c-21.8,0-39.4-5.5-39.4-12.3c0-6.8,17.6-12.3,39.4-12.3
	C98.9,234.1,116.5,239.6,116.5,246.4z"/>
<path style="fill:#95513B;" d="M99,188.6c6.1,5.2,12.8,15,12.8,32.8c0,2.4-2,4.3-4.4,4.3c-2.4,0-4.3-1.9-4.3-4.3c0,0,0-0.7,0-1.4
	c-0.2,0-0.6,0-0.6,0c-1.5,0-2.7-1.2-2.7-2.8c0-1.5,1.2-2.7,2.7-2.7c0,0,0.1,0,0.2,0c-1.6-12.6-6.6-17.2-10.7-20.3
	c0.6,15.3,1.2,49.4,1.2,49.4c0,0.1,0,0.2,0,0.3c0,0.1,0,0.1,0,0.2c0,2.5-2,4.5-4.5,4.5c-2.4,0-4.4-2-4.5-4.4h0v-10.5
	c-0.2-4.3-3.7-7.8-8.1-7.8c-4.2,0-7.7,3.2-8,7.3v11h0c-0.1,2.4-2,4.4-4.5,4.4c-2.5,0-4.5-2-4.5-4.5c0-0.1,0-0.1,0-0.2
	c0-0.1,0-0.2,0-0.3c0,0,0.4-39.6,0.5-49.8c-4.2,3-9.5,7.5-11.2,20.6c0,0,0.2,0,0.2,0c1.5,0,2.7,1.2,2.7,2.7c0,1.5-1.2,2.8-2.7,2.8
	c0,0-0.3,0-0.6,0c0,0.7,0,1.4,0,1.4c0,2.4-1.9,4.3-4.3,4.3c-2.4,0-4.3-1.9-4.3-4.3c0-17.8,6.8-27.6,12.8-32.8c0,0,8.9-7.6,22.4-7.6
	C74.5,181,89.5,180.9,99,188.6z"/>
<g>
	<path style="fill:#FDD39D;" d="M48.6,214.5c0,0-0.1,0-0.2,0c0-0.3,0.1-0.5,0.1-0.7l-8.7-0.9c-0.4,2.6-0.7,5.9-0.6,8.5
		c0.1,2.4,1.7,4.4,4.3,4.4c2.7,0,4.4-2,4.4-4.4c0,0,0-0.7,0-1.4c0.2,0,0.6,0,0.6,0c1.5,0,2.7-1.2,2.7-2.8
		C51.3,215.7,50.1,214.5,48.6,214.5z"/>
	<path style="fill:#FDD39D;" d="M39.5,221.4c0-2.8,0.2-5.6,0.6-8.3c0.4,0,7.9,0.8,8.3,0.8c0,0-0.1,0.7-0.1,0.7l0.2,0h0.2
		c1.4,0,2.5,1.1,2.5,2.5c0,1.4-1.1,2.5-2.5,2.5h-0.8l0,1.6c0,2.3-1.9,4.1-4.1,4.1C41.3,225.6,39.5,223.7,39.5,221.4z"/>
</g>
<g>
	<path style="fill:#FDD39D;" d="M102.5,214.5c0,0,0.1,0,0.2,0c0-0.3-0.1-0.5-0.1-0.7l8.7-0.9c0.4,2.6,0.6,5.4,0.6,8.5
		c0,2.4-2,4.3-4.4,4.3c-2.4,0-4.3-1.9-4.3-4.3c0,0,0-0.7,0-1.4c-0.2,0-0.6,0-0.6,0c-1.5,0-2.7-1.2-2.7-2.8
		C99.7,215.7,101,214.5,102.5,214.5z"/>
</g>
<path style="fill:#81453B;" d="M54.9,198c1.6-1.8,3.2-3.1,4.7-4.1c0,1.4,0,3.3,0,5.6c8.5,2.2,17.5,2.8,25.5,2.8c2.4,0,4.8,0,7.1,0
	c-0.1-3-0.2-5.7-0.3-8c2.3,1.7,4.9,3.9,7,7.8c3.1-0.2,6.1-0.4,9.1-0.8c-2.5-5.8-5.9-9.8-9-12.5c-9.5-7.7-24.5-7.6-24.5-7.6
	c-13.5,0-22.4,7.6-22.4,7.6c-1.8,1.5-3.6,3.5-5.3,5.9C49.3,195.9,52,197.1,54.9,198z"/>
<path style="fill:#FFFFFF;" d="M77.4,199c0,0.9-0.8,1.7-1.7,1.7c-0.9,0-1.7-0.8-1.7-1.7c0-0.9,0.8-1.7,1.7-1.7
	C76.7,197.3,77.4,198,77.4,199z"/>
<path style="fill:#FFFFFF;" d="M77.4,207.1c0,0.9-0.8,1.7-1.7,1.7c-0.9,0-1.7-0.8-1.7-1.7c0-0.9,0.8-1.7,1.7-1.7
	C76.7,205.4,77.4,206.1,77.4,207.1z"/>
<ellipse style="fill:#B2CA35;" cx="74.6" cy="122.5" rx="74.6" ry="73.6"/>
<path style="fill:#A2BB3A;" d="M88.7,185.6c-12.9-2.8-21.6-11.7-27.7-22.2c-4-6.8-6.3-16.6-9.2-23.9c-3-7.9-7.4-14.2-13.1-20.5
	c-6.3-7-13.8-12.8-22.5-16c-2.9-1.1-9-2.1-12.5-3.3C1.3,106.8,0,114.5,0,122.5c0,40.6,33.4,73.6,74.6,73.6c12.8,0,24.8-3.2,35.3-8.8
	C102.6,187.5,95.2,187,88.7,185.6z"/>
<path style="fill:#5B3E1D;" d="M56.5,154.9c0,1.8-1.5,3.3-3.3,3.3c-1.8,0-3.3-1.5-3.3-3.3c0-1.8,1.5-3.3,3.3-3.3
	C55,151.6,56.5,153.1,56.5,154.9z"/>
<path style="fill:#5B3E1D;" d="M93.4,154.9c0,1.8,1.5,3.3,3.3,3.3c1.8,0,3.3-1.5,3.3-3.3c0-1.8-1.5-3.3-3.3-3.3
	C94.9,151.6,93.4,153.1,93.4,154.9z"/>
<circle style="fill:#88AE3F;" cx="123.4" cy="126.8" r="2.8"/>
<path style="fill:#88AE3F;" d="M134.6,116.6c0,1-0.8,1.7-1.7,1.7c-1,0-1.7-0.8-1.7-1.7s0.8-1.7,1.7-1.7
	C133.8,114.9,134.6,115.7,134.6,116.6z"/>
<path style="fill:#88AE3F;" d="M121.5,111.3c0,1-0.8,1.7-1.7,1.7c-1,0-1.7-0.8-1.7-1.7c0-1,0.8-1.7,1.7-1.7
	C120.7,109.6,121.5,110.3,121.5,111.3z"/>
<path style="fill:#FFFFFF;" d="M106.3,72.3c1.3,1.1,1.8,1.3,3.4,1.7c3.2,0.7,3.8-2.4,2.4-4.8c-0.7-1.2-4.1-3.7-5.5-3.6
	c-1.9,0.1-4,1.1-1.9,4.8L106.3,72.3z"/>
<path style="fill:#A15743;" d="M76.9,162.1c0,0.9-0.7,1.5-1.5,1.5c-0.8,0-1.5-0.7-1.5-1.5c0-0.8,0.7-1.5,1.5-1.5
	C76.2,160.6,76.9,161.3,76.9,162.1z"/>
<ellipse style="fill:#A15743;" cx="75.6" cy="174.1" rx="10.4" ry="5.4"/>
</svg>
