<?xml version="1.0" encoding="utf-8"?>
<!-- Generator: Adobe Illustrator 17.1.0, SVG Export Plug-In . SVG Version: 6.00 Build 0)  -->
<!DOCTYPE svg PUBLIC "-//W3C//DTD SVG 1.1//EN" "http://www.w3.org/Graphics/SVG/1.1/DTD/svg11.dtd">
<svg version="1.1" id="Layer_1" xmlns="http://www.w3.org/2000/svg" xmlns:xlink="http://www.w3.org/1999/xlink" x="0px" y="0px"
	 viewBox="0 0 134.9 40" enable-background="new 0 0 134.9 40" xml:space="preserve">
<path fill="#292929" d="M130.2,40H4.7C2.1,40,0,37.9,0,35.3V4.7C0,2.1,2.1,0,4.7,0h125.5c2.6,0,4.7,2.1,4.7,4.7v30.5
	C134.9,37.9,132.8,40,130.2,40L130.2,40z"/>
<path fill="#404040" d="M134,35.3c0,2.1-1.7,3.8-3.8,3.8H4.7c-2.1,0-3.8-1.7-3.8-3.8V4.7c0-2.1,1.7-3.8,3.8-3.8h125.5
	c2.1,0,3.8,1.7,3.8,3.8L134,35.3L134,35.3z"/>
<g>
	<path fill="#FFFFFF" d="M30.1,18.8c0-3.2,2.6-4.8,2.8-4.9c-1.5-2.2-3.9-2.5-4.7-2.5c-2-0.2-3.9,1.2-4.9,1.2c-1,0-2.6-1.2-4.2-1.1
		c-2.1,0-4.1,1.3-5.2,3.2c-2.3,3.9-0.6,9.7,1.6,12.9c1.1,1.6,2.4,3.3,4,3.2c1.6-0.1,2.2-1,4.2-1c1.9,0,2.5,1,4.2,1
		c1.7,0,2.8-1.6,3.9-3.1c1.3-1.8,1.8-3.5,1.8-3.6C33.5,23.9,30.2,22.6,30.1,18.8z"/>
	<path fill="#FFFFFF" d="M26.9,9.3c0.9-1.1,1.5-2.6,1.3-4.1c-1.3,0.1-2.8,0.9-3.8,1.9c-0.8,0.9-1.5,2.5-1.3,3.9
		C24.6,11.2,26,10.4,26.9,9.3z"/>
	<g>
		<path fill="#FFFFFF" d="M53.1,28.9H51l-1.2-3.7h-4.1l-1.1,3.7h-2.1l4.1-12.7H49L53.1,28.9z M49.4,23.6l-1.1-3.3
			c-0.1-0.3-0.3-1.1-0.6-2.4h0c-0.1,0.5-0.3,1.3-0.6,2.4L46,23.6H49.4z"/>
		<path fill="#FFFFFF" d="M63.6,24.2c0,1.6-0.4,2.8-1.3,3.7c-0.8,0.8-1.7,1.2-2.8,1.2c-1.2,0-2.1-0.4-2.6-1.3v4.8h-2v-9.9
			c0-1,0-2-0.1-3h1.8l0.1,1.5h0c0.7-1.1,1.7-1.6,3.1-1.6c1.1,0,2,0.4,2.7,1.3C63.3,21.7,63.6,22.8,63.6,24.2z M61.6,24.3
			c0-0.9-0.2-1.6-0.6-2.2c-0.4-0.6-1-0.9-1.8-0.9c-0.5,0-1,0.2-1.4,0.5C57.4,22,57.2,22.4,57,23c-0.1,0.3-0.1,0.5-0.1,0.6v1.5
			c0,0.7,0.2,1.2,0.6,1.7c0.4,0.5,0.9,0.7,1.6,0.7c0.8,0,1.4-0.3,1.8-0.9C61.3,26,61.6,25.2,61.6,24.3z"/>
		<path fill="#FFFFFF" d="M74.2,24.2c0,1.6-0.4,2.8-1.3,3.7c-0.8,0.8-1.7,1.2-2.8,1.2c-1.2,0-2.1-0.4-2.6-1.3v4.8h-2v-9.9
			c0-1,0-2-0.1-3h1.8l0.1,1.5h0c0.7-1.1,1.7-1.6,3.1-1.6c1.1,0,2,0.4,2.7,1.3C73.8,21.7,74.2,22.8,74.2,24.2z M72.1,24.3
			c0-0.9-0.2-1.6-0.6-2.2c-0.4-0.6-1-0.9-1.8-0.9c-0.5,0-1,0.2-1.4,0.5c-0.4,0.3-0.7,0.8-0.8,1.3c-0.1,0.3-0.1,0.5-0.1,0.6v1.5
			c0,0.7,0.2,1.2,0.6,1.7c0.4,0.5,0.9,0.7,1.6,0.7c0.8,0,1.4-0.3,1.8-0.9C71.9,26,72.1,25.2,72.1,24.3z"/>
		<path fill="#FFFFFF" d="M85.9,25.3c0,1.1-0.4,2-1.1,2.6c-0.8,0.7-2,1.1-3.5,1.1c-1.4,0-2.5-0.3-3.3-0.8l0.5-1.7
			c0.9,0.5,1.9,0.8,2.9,0.8c0.8,0,1.4-0.2,1.8-0.5c0.4-0.3,0.6-0.8,0.6-1.4c0-0.5-0.2-0.9-0.5-1.3c-0.4-0.4-0.9-0.7-1.8-1
			c-2.2-0.8-3.3-2-3.3-3.6c0-1,0.4-1.9,1.2-2.6c0.8-0.7,1.8-1,3.1-1c1.2,0,2.1,0.2,2.9,0.6l-0.5,1.7c-0.7-0.4-1.5-0.6-2.4-0.6
			c-0.7,0-1.3,0.2-1.7,0.5c-0.3,0.3-0.5,0.7-0.5,1.2c0,0.5,0.2,0.9,0.6,1.2c0.3,0.3,1,0.6,1.8,1c1.1,0.4,1.9,1,2.4,1.5
			C85.7,23.7,85.9,24.4,85.9,25.3z"/>
		<path fill="#FFFFFF" d="M92.7,21.3h-2.2v4.4c0,1.1,0.4,1.7,1.2,1.7c0.4,0,0.7,0,0.9-0.1l0.1,1.5c-0.4,0.1-0.9,0.2-1.6,0.2
			c-0.8,0-1.4-0.2-1.9-0.7c-0.5-0.5-0.7-1.3-0.7-2.5v-4.6h-1.3v-1.5h1.3V18l2-0.6v2.3h2.2C92.7,19.7,92.7,21.3,92.7,21.3z"/>
		<path fill="#FFFFFF" d="M102.8,24.2c0,1.4-0.4,2.6-1.2,3.5c-0.8,0.9-2,1.4-3.4,1.4c-1.3,0-2.4-0.4-3.2-1.3c-0.8-0.9-1.2-2-1.2-3.4
			c0-1.4,0.4-2.6,1.2-3.5c0.8-0.9,1.9-1.4,3.3-1.4c1.3,0,2.4,0.4,3.2,1.3C102.4,21.7,102.8,22.9,102.8,24.2z M100.7,24.3
			c0-0.8-0.2-1.6-0.5-2.2c-0.4-0.7-1-1.1-1.8-1.1c-0.8,0-1.4,0.4-1.9,1.1c-0.4,0.6-0.5,1.3-0.5,2.2c0,0.8,0.2,1.6,0.5,2.2
			c0.4,0.7,1.1,1.1,1.8,1.1c0.8,0,1.4-0.4,1.8-1.1C100.5,25.8,100.7,25.1,100.7,24.3z"/>
		<path fill="#FFFFFF" d="M109.4,21.5c-0.2,0-0.4-0.1-0.6-0.1c-0.7,0-1.3,0.3-1.7,0.8c-0.3,0.5-0.5,1.1-0.5,1.8v4.8h-2v-6.3
			c0-1.1,0-2-0.1-2.9h1.8l0.1,1.8h0.1c0.2-0.6,0.6-1.1,1-1.5c0.5-0.3,0.9-0.5,1.5-0.5c0.2,0,0.4,0,0.5,0L109.4,21.5L109.4,21.5z"/>
		<path fill="#FFFFFF" d="M118.5,23.9c0,0.4,0,0.7-0.1,0.9h-6.1c0,0.9,0.3,1.6,0.9,2.1c0.5,0.4,1.2,0.6,2,0.6c0.9,0,1.7-0.1,2.5-0.4
			l0.3,1.4c-0.9,0.4-1.9,0.6-3.1,0.6c-1.4,0-2.5-0.4-3.3-1.3c-0.8-0.8-1.2-2-1.2-3.4c0-1.4,0.4-2.5,1.1-3.4c0.8-1,1.9-1.5,3.2-1.5
			c1.3,0,2.3,0.5,3,1.5C118.2,21.8,118.5,22.7,118.5,23.9z M116.5,23.3c0-0.6-0.1-1.1-0.4-1.6c-0.4-0.6-0.9-0.8-1.6-0.8
			c-0.7,0-1.2,0.3-1.6,0.8c-0.3,0.4-0.5,1-0.6,1.6L116.5,23.3L116.5,23.3z"/>
	</g>
	<g>
		<path fill="#FFFFFF" d="M45.7,12V7.5h1V12H45.7z"/>
		<path fill="#FFFFFF" d="M47.3,9.7c0-1.3,1-2.3,2.3-2.3c1.4,0,2.3,1,2.3,2.3c0,1.3-1,2.3-2.3,2.3C48.3,12.1,47.3,11.1,47.3,9.7z
			 M51,9.7c0-0.8-0.5-1.5-1.4-1.5c-0.8,0-1.4,0.6-1.4,1.5c0,0.8,0.5,1.5,1.4,1.5C50.5,11.2,51,10.6,51,9.7z"/>
		<path fill="#FFFFFF" d="M52.3,11.3l0.5-0.7c0.3,0.3,0.8,0.6,1.4,0.6c0.5,0,0.8-0.2,0.8-0.5c0-0.8-2.6-0.2-2.6-1.9
			c0-0.7,0.6-1.4,1.7-1.4c0.7,0,1.3,0.2,1.7,0.6l-0.5,0.7c-0.4-0.3-0.8-0.5-1.3-0.5c-0.4,0-0.6,0.2-0.6,0.5c0,0.7,2.6,0.2,2.6,1.9
			c0,0.8-0.6,1.4-1.8,1.4C53.4,12.1,52.8,11.8,52.3,11.3z"/>
		<path fill="#FFFFFF" d="M61.5,12l-0.3-0.8h-1.9L59,12h-1.1l1.7-4.5h1.2l1.7,4.5H61.5z M60.3,8.4l-0.7,1.9H61L60.3,8.4z"/>
		<path fill="#FFFFFF" d="M63,12V7.5h2.1c1,0,1.5,0.7,1.5,1.4c0,0.8-0.5,1.4-1.5,1.4h-1.1V12H63z M65.6,8.9c0-0.4-0.3-0.6-0.7-0.6
			h-1v1.2h1C65.3,9.5,65.6,9.3,65.6,8.9z"/>
		<path fill="#FFFFFF" d="M67.2,12V7.5h2.1c1,0,1.5,0.7,1.5,1.4c0,0.8-0.5,1.4-1.5,1.4h-1.1V12H67.2z M69.8,8.9
			c0-0.4-0.3-0.6-0.7-0.6h-1v1.2h1C69.5,9.5,69.8,9.3,69.8,8.9z"/>
		<path fill="#FFFFFF" d="M72.9,9.7c0-1.3,1-2.3,2.3-2.3c1.4,0,2.3,1,2.3,2.3c0,1.3-1,2.3-2.3,2.3C73.9,12.1,72.9,11.1,72.9,9.7z
			 M76.6,9.7c0-0.8-0.5-1.5-1.4-1.5c-0.8,0-1.4,0.6-1.4,1.5c0,0.8,0.5,1.5,1.4,1.5C76,11.2,76.6,10.6,76.6,9.7z"/>
		<path fill="#FFFFFF" d="M81.3,12l-2.1-2.9V12h-1V7.5h1l2.1,2.8V7.5h1V12H81.3z"/>
		<path fill="#FFFFFF" d="M85.9,12V8.3h-1.3V7.5h3.6v0.8h-1.3V12H85.9z"/>
		<path fill="#FFFFFF" d="M91.8,12v-1.9h-2.1V12h-1V7.5h1v1.8h2.1V7.5h1V12H91.8z"/>
		<path fill="#FFFFFF" d="M93.7,12V7.5h3.2v0.8h-2.2v0.9h2.2v0.8h-2.2v1h2.2V12H93.7z"/>
	</g>
</g>
</svg>
