<?xml version="1.0" encoding="utf-8"?>
<!-- Generator: Adobe Illustrator 16.2.1, SVG Export Plug-In . SVG Version: 6.00 Build 0)  -->
<!DOCTYPE svg PUBLIC "-//W3C//DTD SVG 1.1//EN" "http://www.w3.org/Graphics/SVG/1.1/DTD/svg11.dtd">
<svg version="1.1" id="Layer_1" xmlns="http://www.w3.org/2000/svg" xmlns:xlink="http://www.w3.org/1999/xlink" x="0px" y="0px"
	 width="295.3px" height="121px" viewBox="0 0 295.3 121" style="enable-background:new 0 0 295.3 121;" xml:space="preserve">
<path style="fill:#C6C49C;" d="M293,120c-17.3-9-14.3-15-39.1-20.6c0,0-23.3-8.1-50.8-10.8c-9.3-0.1-13.7,0.2-27.6-0.3
	c0,0-136.1,8.6-157.9-8.5C10.5,75.6,4.9,67.2,2.8,59.4c0,0-16.4-47,30.6-56.2c0,0,173.9-11,212.4,7.8c8.9,4.3,17.8,12.2,24,19.9
	c0,0,10.9,16.6,14.3,38.1c2.3,14.5,2.7,32.2,11.3,52"/>
</svg>
