<?xml version="1.0" encoding="utf-8"?>
<!-- Generator: Adobe Illustrator 16.2.1, SVG Export Plug-In . SVG Version: 6.00 Build 0)  -->
<!DOCTYPE svg PUBLIC "-//W3C//DTD SVG 1.1//EN" "http://www.w3.org/Graphics/SVG/1.1/DTD/svg11.dtd">
<svg version="1.1" id="Layer_1" xmlns="http://www.w3.org/2000/svg" xmlns:xlink="http://www.w3.org/1999/xlink" x="0px" y="0px"
	 width="291.8px" height="193.1px" viewBox="0 0 291.8 193.1" style="enable-background:new 0 0 291.8 193.1;" xml:space="preserve"
	>
<path style="fill:#4FC0B0;" d="M256.9,193.1c0,0,33.1-15.2,19.6-60.7c-2.4-8.1-5.6-14.7-11-22.8c0,0-15.9-24.2-64.3-21.3
	c-9.3-0.1-11.7,0.6-25.6,0c0,0-136.1,8.6-157.9-8.5C10.5,75.6,4.9,67.2,2.8,59.4c0,0-16.4-47,30.6-56.2c0,0,173.9-11,212.4,7.8
	c8.9,4.3,17.8,12.2,24,19.9c0,0,10.8,16.2,16.8,45.1c3.2,15.2,5.7,32.5,5.2,56C291.8,131.9,292.5,181,256.9,193.1z"/>
</svg>
