<?xml version="1.0" encoding="utf-8"?>
<!-- Generator: Adobe Illustrator 17.0.0, SVG Export Plug-In . SVG Version: 6.00 Build 0)  -->
<!DOCTYPE svg PUBLIC "-//W3C//DTD SVG 1.1//EN" "http://www.w3.org/Graphics/SVG/1.1/DTD/svg11.dtd">
<svg version="1.1" id="Layer_1" xmlns="http://www.w3.org/2000/svg" xmlns:xlink="http://www.w3.org/1999/xlink" x="0px" y="0px"
	 width="291.843px" height="193.12px" viewBox="0 0 291.843 193.12" enable-background="new 0 0 291.843 193.12"
	 xml:space="preserve">
<path fill="#E7496B" d="M256.924,193.12c0,0,33.079-15.177,19.563-60.706c-2.372-8.063-5.573-14.702-11.027-22.765
	c0,0-15.887-24.188-64.262-21.342c-9.251-0.071-11.697,0.558-25.609,0.001c0,0-136.088,8.558-157.89-8.537
	C10.48,75.561,4.888,67.153,2.76,59.378c0,0-16.362-46.951,30.59-56.199c0,0,173.919-10.961,212.429,7.824
	c8.887,4.336,17.815,12.184,23.951,19.92c0,0,10.848,16.189,16.836,45.055c3.158,15.219,5.708,32.549,5.217,55.963
	C291.783,131.941,292.494,181.026,256.924,193.12z"/>
</svg>
