<?xml version="1.0" encoding="utf-8"?>
<!-- Generator: Adobe Illustrator 16.2.1, SVG Export Plug-In . SVG Version: 6.00 Build 0)  -->
<!DOCTYPE svg PUBLIC "-//W3C//DTD SVG 1.1//EN" "http://www.w3.org/Graphics/SVG/1.1/DTD/svg11.dtd">
<svg version="1.1" id="Layer_1" xmlns="http://www.w3.org/2000/svg" xmlns:xlink="http://www.w3.org/1999/xlink" x="0px" y="0px"
	 width="351px" height="508.8px" viewBox="0 0 351 508.8" style="enable-background:new 0 0 351 508.8;" xml:space="preserve">
<path style="fill:#E8E6C2;" d="M220.9,482.9c0,14.3-37.2,25.9-83.2,25.9c-45.9,0-83.1-11.6-83.1-25.9c0-14.3,37.2-25.9,83.1-25.9
	C183.7,457,220.9,468.6,220.9,482.9z"/>
<path style="fill:none;stroke:#787831;stroke-width:4.4803;" d="M50.2,390.6c0,0,0.7-8.2,11.2-7.5c0,0,12.7,1.5,11.2,20.2l-1.5,78.4
	"/>
<path style="fill:#AEC737;" d="M133.8,138.3c0,0-45.5,24.6-41.1,185.2l81,24.3C173.8,347.7,190.6,168.5,133.8,138.3z"/>
<path style="fill:#AEC737;" d="M130.9,310.9c-35.6,0-53.8,16.2-53.8,16.2c-11,9.5-23.3,27.3-23.3,59.6c0,4.4,3.5,7.9,7.9,7.9
	c4.4,0,7.9-3.5,7.9-7.9c0,0,0-1.3,0.1-2.6c0.4,0,1,0,1,0c2.7,0,5-2.2,5-5c0-2.8-2.2-5-5-5c0,0-0.2,0-0.3,0
	c3-23.8,10.1-27.4,21.3-35.3c-0.1,26.6-1.2,137-1.2,137c0,0.3,0,0.6,0.1,0.8c0,0.1,0,0.3,0,0.4c0,6.5,5.3,11.8,11.8,11.8
	c6.4,0,11.6-5.1,11.8-11.5h0v-29c1-10.8,10.1-19.3,21.2-19.3c11.5,0,20.9,9.1,21.3,20.5v27.7h0c0.1,6.4,5.3,11.5,11.7,11.5
	c6.5,0,11.8-5.3,11.8-11.8c0-0.2,0-0.3,0-0.5c0-0.3,0.1-0.5,0.1-0.8c0,0-1.8-89.8-3.2-130.1l-1.2-43L130.9,310.9z"/>
<path style="fill:#AEC737;" d="M174.8,326c36-11.6,44.7-37.1,44.7-70.2c0-4.5-3.6-8.1-8.1-8.1c-4.5,0-8.1,3.6-8.1,8.1
	c0,0,0,1.3-0.1,2.6c-0.4,0-1.1,0-1.1,0c-2.8,0-5.2,0.3-5.2,3.1c0,2.8,1.8,3.1,5.6,4c0,0,0.2,0,0.3,0c-3,23.5-9.2,37.1-29.7,43.3
	L174.8,326z"/>
<path style="fill:#9EB43B;" d="M130.8,427.1c0.7-6.4,4.7-11.1,6-16.9c2.4-10.5-2.1-22.6-6.7-31.9c-5.5-11.1-4.8-11.8,0.6-22.8
	c5.7-11.5,6.8-23.8,3.6-36.3c-2.7-10.7-7.1-21.1-5-32.5c1.9-10.4,11.1-18.3,13.2-28.6c2.2-11.3-3.1-26.1-6-36.9
	c-3.4-12.6-3.7-20.3-0.9-32.5c1.5-6.5,1.3-13.3,0.2-19.9c-1.8-10.9-4.1-19.6-3.5-29.6c-7.4,5.5-42.8,39.4-39.9,178.9
	c-10.3,4.3-15.5,8.9-15.5,8.9c-11,9.5-23.3,27.3-23.3,59.6c0,4.4,3.5,7.9,7.9,7.9c4.4,0,7.9-3.5,7.9-7.9c0,0,0-1.3,0.1-2.6
	c0.4,0,1,0,1,0c2.7,0,5-2.2,5-5c0-2.8-2.2-5-5-5c0,0-0.2,0-0.3,0c3-23.8,10.1-27.4,21.3-35.3c-0.1,26.6-1.2,137-1.2,137
	c0,0.3,0,0.6,0.1,0.8c0,0.1,0,0.3,0,0.4c0,6.5,5.3,11.8,11.8,11.8c6.4,0,11.6-5.1,11.8-11.5h0v-29c0.9-9.3,7.7-16.8,16.5-18.8
	C130.7,428.7,130.7,427.8,130.8,427.1z"/>
<path style="fill:#69703B;" d="M118.6,280.2c0,1.5-1.2,2.8-2.8,2.8c-1.5,0-2.8-1.2-2.8-2.8c0-1.5,1.2-2.8,2.8-2.8
	C117.3,277.5,118.6,278.7,118.6,280.2z"/>
<path style="fill:#69703B;" d="M149.2,280.2c0,1.5,1.2,2.8,2.8,2.8c1.5,0,2.8-1.2,2.8-2.8c0-1.5-1.2-2.8-2.8-2.8
	C150.4,277.5,149.2,278.7,149.2,280.2z"/>
<g>
	<rect x="132.9" y="277" style="fill:#69703B;" width="1.3" height="9.8"/>
</g>
<ellipse style="fill:#69703B;" cx="134.1" cy="298.8" rx="14.5" ry="6.3"/>
<polygon style="fill:#798E3A;" points="121.1,151.3 119.6,137.5 148.8,135.3 148,149.5 "/>
<path style="fill:#AEC737;" d="M123.7,160.9c0,0,1.1,13.2-4.2,25.7c0,0-7.2,21.2-5.3,33.3c0,0,1.9,22-1.9,34.8
	c0,0,1.1-19.7-1.5-33.3c0,0-2.6-15.1,4.5-32.2C115.4,189.3,124.5,170.3,123.7,160.9z"/>
<path style="fill:#AEC737;" d="M112.4,315c0,0,2.9,13-0.8,26.1c0,0-4.4,22-0.9,33.7c0,0,4.7,21.5,2.7,34.8c0,0-1.4-19.7-5.8-32.8
	c0,0-4.6-14.7,0.3-32.5C107.8,344.2,114.3,324.2,112.4,315z"/>
<path style="fill:#AEC737;" d="M100.1,384.2c0,0,1.8,10.8-0.5,21.6c0,0-2.8,18.2-0.6,28c0,0,3,17.9,1.7,28.9c0,0-0.9-16.3-3.7-27.3
	c0,0-2.9-12.2,0.2-27C97.2,408.5,101.3,391.9,100.1,384.2z"/>
<path style="fill:#AEC737;" d="M103.4,244.7c0,0,1.8,10.8-0.5,21.6c0,0-2.8,18.2-0.6,28c0,0,3,17.9,1.7,28.9c0,0-0.9-16.3-3.7-27.3
	c0,0-2.9-12.2,0.2-27C100.5,269,104.7,252.4,103.4,244.7z"/>
<path style="fill:#C7C586;" d="M81.1,287.5c0,0-62.5-43.7-55.5-142.7c1.6-5.9,2-12.4,7.3-21.2c0,0,12.8-24.8,61.3-20.8
	c2.1,0,35,3.4,55.5,4.1c0,0,150.8,13.1,183-7.4c14.5-10.2,20.4-19.9,17.7-39.8c0,0-2.5-41.8-111.1-55.9c0,0-81.9-12.7-151.1,8.6
	c-17.1,6.4-35,15.7-46.9,25.5c0,0-29.2,20-36.3,53.4c-4.7,16.8-5.5,27.3-4.5,48.3C0.4,139.5,10.5,243.8,81.1,287.5z"/>
</svg>
