<?xml version="1.0" encoding="utf-8"?>
<!-- Generator: Adobe Illustrator 16.2.1, SVG Export Plug-In . SVG Version: 6.00 Build 0)  -->
<!DOCTYPE svg PUBLIC "-//W3C//DTD SVG 1.1//EN" "http://www.w3.org/Graphics/SVG/1.1/DTD/svg11.dtd">
<svg version="1.1" id="Layer_1" xmlns="http://www.w3.org/2000/svg" xmlns:xlink="http://www.w3.org/1999/xlink" x="0px" y="0px"
	 width="330.7px" height="53.5px" viewBox="0 0 330.7 53.5" style="enable-background:new 0 0 330.7 53.5;" xml:space="preserve">
<g style="enable-background:new    ;">
	<path style="fill:#FFFFFF;" d="M1.1,28.948c0-7.501,5.45-12.901,13.201-12.901c7.851,0,10.551,4.15,10.551,6.601
		c0,3.801-4.95,4.501-5.101,4.15c-0.8-1.95-2.2-3.3-4.9-3.3c-3,0-5.15,2.35-5.15,5.45c0,3.25,2.1,5.601,5.15,5.601
		c2.5,0,4.1-1.351,4.9-3.301c0.1-0.35,5.101,0.15,5.101,4.2c0,2.45-3,6.551-10.551,6.551C6.4,41.999,1.1,36.698,1.1,28.948z"/>
	<path style="fill:#FFFFFF;" d="M43,15.997c3.2,0,5.25,2.051,5.25,5.15c0,3.851-3.05,5.15-3.15,5.051
		c-0.8-0.7-2.05-1.301-3.45-1.301c-2.85,0-4.25,2.051-4.25,6.101v5.9c0,3.5-1.8,4.65-4.25,4.65h-1c-2.55,0-4.35-1.1-4.35-4.65
		V17.348c0-0.351,1.75-1.101,3.7-1.101c2.2,0,4.65,0.95,5.55,4.4C37.95,17.848,40.05,15.997,43,15.997z"/>
	<path style="fill:#FFFFFF;" d="M59.7,41.999c-6.45,0-8.8-4.7-8.8-9.801V20.897c0-3.5,1.75-4.65,4.25-4.65h0.95
		c2.6,0,4.4,1.05,4.4,4.65v9.601c0,2.25,1.2,3.65,3.25,3.65c1.6,0,2.95-0.8,3.7-1.95V20.897c0-3.5,1.75-4.65,4.25-4.65h1
		c2.55,0,4.35,1.05,4.35,4.65v19.552c0,0.3-1.75,1.1-3.7,1.1c-2.15,0-4.6-0.9-5.5-4.2C66.1,39.999,63.7,41.999,59.7,41.999z"/>
	<path style="fill:#FFFFFF;" d="M98.8,15.997c6.45,0,8.8,4.65,8.8,9.801v11.101c0,3.45-1.75,4.65-4.25,4.65h-0.95
		c-2.6,0-4.4-1.1-4.4-4.65v-9.45c0-2.25-1.2-3.65-3.2-3.65c-1.7,0-3,0.85-3.75,2v11.101c0,3.5-1.8,4.65-4.25,4.65h-1
		c-2.55,0-4.35-1.1-4.35-4.65V17.348c0-0.351,1.75-1.101,3.7-1.101c2.2,0,4.6,0.95,5.5,4.301C92.4,17.897,94.8,15.997,98.8,15.997z"
		/>
	<path style="fill:#FFFFFF;" d="M110.648,28.948c0-7.501,5.45-12.901,13.201-12.901c7.851,0,10.551,4.15,10.551,6.601
		c0,3.801-4.95,4.501-5.101,4.15c-0.8-1.95-2.2-3.3-4.9-3.3c-3,0-5.15,2.35-5.15,5.45c0,3.25,2.1,5.601,5.15,5.601
		c2.5,0,4.1-1.351,4.9-3.301c0.1-0.35,5.101,0.15,5.101,4.2c0,2.45-3,6.551-10.551,6.551
		C115.949,41.999,110.648,36.698,110.648,28.948z"/>
	<path style="fill:#FFFFFF;" d="M154.699,15.997c6.45,0,8.8,4.851,8.8,10.15v10.751c0,3.45-1.75,4.65-4.25,4.65h-0.95
		c-2.6,0-4.4-1.1-4.4-4.65v-9.2c0-2.45-1.2-3.9-3.15-3.9c-2.45,0-3.8,1.5-3.8,4.05v9.051c0,3.5-1.8,4.65-4.25,4.65h-1
		c-2.55,0-4.35-1.1-4.35-4.65V7.196c0-0.35,1.75-1.1,3.7-1.1c2.75,0,5.9,1.45,5.9,7.301v7.05
		C148.449,17.897,150.849,15.997,154.699,15.997z"/>
	<path style="fill:#FFFFFF;" d="M172.998,41.549h-1c-2.55,0-4.351-1.1-4.351-4.65V7.196c0-0.35,1.75-1.1,3.701-1.1
		c2.75,0,5.9,1.45,5.9,7.301v6.15c1.5-2.2,4.15-3.551,7.199-3.551c6.852,0,11.352,4.95,11.352,12.951
		c0,7.65-4.5,13.051-11.352,13.051c-3.449,0-6.1-1.851-7.3-4.4C176.948,40.499,175.297,41.549,172.998,41.549z M177.198,30.148
		c0,2.75,1.95,4.4,4.601,4.4c2.95,0,4.9-2.2,4.9-5.551c0-3.4-1.9-5.551-4.851-5.551c-2.2,0-3.85,1.15-4.65,2.9V30.148z"/>
	<path style="fill:#FFFFFF;" d="M207.647,41.999c-6.449,0-8.8-4.7-8.8-9.801V20.897c0-3.5,1.75-4.65,4.25-4.65h0.95
		c2.6,0,4.4,1.05,4.4,4.65v9.601c0,2.25,1.2,3.65,3.25,3.65c1.6,0,2.95-0.8,3.7-1.95V20.897c0-3.5,1.751-4.65,4.251-4.65h1
		c2.55,0,4.35,1.05,4.35,4.65v19.552c0,0.3-1.75,1.1-3.7,1.1c-2.149,0-4.601-0.9-5.5-4.2
		C214.047,39.999,211.648,41.999,207.647,41.999z"/>
	<path style="fill:#FFFFFF;" d="M231.546,23.748c-2.55,0-3.899-1.15-3.899-3.25v-0.551c0-2.25,1.299-3.45,3.899-3.45h0.55v-2.399
		c0-3.051,1.551-4.65,4.301-4.65h0.8c2.55,0,4.3,1.1,4.3,4.65v2.399h2.851c2.55,0,3.751,1.101,3.751,3.301v0.5
		c0,2.25-1.301,3.45-3.851,3.45h-2.95v8.3c0,1.65,0.65,2.501,2.1,2.501c1.301,0,2.101-0.65,2.75-1.501
		c0.15-0.25,2.101,1.101,2.101,3.501c0,3.2-2.9,5.45-7.45,5.45c-5.9,0-8.701-3-8.701-8.9v-9.351H231.546z"/>
	<path style="fill:#FFFFFF;" d="M253.497,23.748c-2.55,0-3.9-1.15-3.9-3.25v-0.551c0-2.25,1.301-3.45,3.9-3.45h0.551v-2.399
		c0-3.051,1.549-4.65,4.3-4.65h0.8c2.551,0,4.301,1.1,4.301,4.65v2.399h2.85c2.551,0,3.75,1.101,3.75,3.301v0.5
		c0,2.25-1.3,3.45-3.85,3.45h-2.95v8.3c0,1.65,0.649,2.501,2.101,2.501c1.299,0,2.1-0.65,2.75-1.501c0.149-0.25,2.1,1.101,2.1,3.501
		c0,3.2-2.9,5.45-7.451,5.45c-5.899,0-8.699-3-8.699-8.9v-9.351H253.497z"/>
	<path style="fill:#FFFFFF;" d="M272.196,28.948c0-7.751,5.451-12.951,13.651-12.951c8.101,0,13.45,5.2,13.45,13.001
		c0,7.9-5.4,13.001-13.6,13.001C277.447,41.999,272.196,36.898,272.196,28.948z M291.147,28.998c0-3.351-2.25-5.7-5.4-5.7
		s-5.4,2.35-5.4,5.65c0,3.35,2.201,5.7,5.4,5.7C288.847,34.648,291.147,32.248,291.147,28.998z"/>
	<path style="fill:#FFFFFF;" d="M319.948,15.997c6.449,0,8.801,4.65,8.801,9.801v11.101c0,3.45-1.75,4.65-4.252,4.65h-0.949
		c-2.6,0-4.4-1.1-4.4-4.65v-9.45c0-2.25-1.199-3.65-3.199-3.65c-1.701,0-3.002,0.85-3.752,2v11.101c0,3.5-1.799,4.65-4.25,4.65h-1
		c-2.549,0-4.35-1.1-4.35-4.65V17.348c0-0.351,1.75-1.101,3.699-1.101c2.201,0,4.602,0.95,5.502,4.301
		C313.547,17.897,315.948,15.997,319.948,15.997z"/>
</g>
</svg>
