<?xml version="1.0" encoding="utf-8"?>
<!-- Generator: Adobe Illustrator 16.2.1, SVG Export Plug-In . SVG Version: 6.00 Build 0)  -->
<!DOCTYPE svg PUBLIC "-//W3C//DTD SVG 1.1//EN" "http://www.w3.org/Graphics/SVG/1.1/DTD/svg11.dtd">
<svg version="1.1" id="Layer_1" xmlns="http://www.w3.org/2000/svg" xmlns:xlink="http://www.w3.org/1999/xlink" x="0px" y="0px"
	 width="147px" height="244.4px" viewBox="0 0 147 244.4" style="enable-background:new 0 0 147 244.4;" xml:space="preserve">
<path style="fill:#EDE1B3;" d="M113.8,232.6c0,6.5-17,11.8-37.9,11.8c-20.9,0-37.9-5.3-37.9-11.8c0-6.5,17-11.8,37.9-11.8
	C96.9,220.8,113.8,226.1,113.8,232.6z"/>
<path style="fill:#929637;" d="M97,177.1c5.8,5,12.3,14.5,12.3,31.6c0,2.3-1.9,4.2-4.2,4.2c-2.3,0-4.2-1.9-4.2-4.2c0,0,0-0.7,0-1.4
	c-0.2,0-0.6,0-0.6,0c-1.5,0-2.6-1.2-2.6-2.6c0-1.5,1.2-2.6,2.6-2.6c0,0,0.1,0,0.2,0c-1.5-12.1-6.3-16.6-10.3-19.5
	c0.5,14.7,1.2,47.5,1.2,47.5c0,0.1,0,0.2,0,0.3c0,0.1,0,0.1,0,0.2c0,2.4-1.9,4.3-4.3,4.3c-2.3,0-4.2-1.9-4.3-4.2h0v-10.1
	c-0.1-4.2-3.6-7.5-7.8-7.5c-4,0-7.4,3.1-7.7,7v10.6h0c-0.1,2.3-1.9,4.2-4.3,4.2c-2.4,0-4.3-1.9-4.3-4.3c0-0.1,0-0.1,0-0.2
	c0-0.1,0-0.2,0-0.3c0,0,0.4-38.1,0.4-47.9c-4.1,2.9-9.2,7.2-10.8,19.8c0,0,0.2,0,0.2,0c1.5,0,2.6,1.2,2.6,2.6c0,1.5-1.2,2.6-2.6,2.6
	c0,0-0.3,0-0.6,0c0,0.7,0,1.4,0,1.4c0,2.3-1.9,4.2-4.2,4.2c-2.3,0-4.2-1.9-4.2-4.2c0-17.1,6.5-26.5,12.3-31.6c0,0,8.6-7.3,21.6-7.3
	C73.4,169.8,87.9,169.6,97,177.1z"/>
<g>
	<path style="fill:#FDD39D;" d="M48.5,202c0,0-0.1,0-0.2,0c0-0.2,0.1-0.5,0.1-0.7l-8.4-0.8c-0.4,2.5-0.7,5.7-0.6,8.2
		c0.1,2.3,1.7,4.2,4.2,4.2c2.6,0,4.2-1.9,4.2-4.2c0,0,0-0.7,0-1.4c0.2,0,0.6,0,0.6,0c1.5,0,2.6-1.2,2.6-2.6
		C51.1,203.2,49.9,202,48.5,202z"/>
	<path style="fill:#FDD39D;" d="M39.7,208.6c0-2.7,0.2-5.4,0.5-8c0.4,0,7.6,0.8,8,0.8c0,0-0.1,0.7-0.1,0.7l0.2,0h0.2
		c1.3,0,2.4,1.1,2.4,2.4c0,1.4-1.1,2.5-2.4,2.5h-0.7l0,1.5c0,2.2-1.8,4-4,4S39.7,210.8,39.7,208.6z"/>
</g>
<g>
	<path style="fill:#FDD39D;" d="M100.4,202c0,0,0.1,0,0.2,0c0-0.2-0.1-0.5-0.1-0.7l8.4-0.8c0.4,2.5,0.5,5.2,0.5,8.2
		c0,2.3-1.9,4.2-4.2,4.2c-2.3,0-4.2-1.9-4.2-4.2c0,0,0-0.7,0-1.4c-0.2,0-0.6,0-0.6,0c-1.5,0-2.6-1.2-2.6-2.6
		C97.7,203.2,98.9,202,100.4,202z"/>
</g>
<path style="fill:#77692A;" d="M54.5,186.1c1.5-1.7,3.1-2.9,4.6-4c0,1.3,0,3.2,0,5.3c8.1,2.1,16.8,2.7,24.6,2.7c2.3,0,4.6,0,6.8,0
	c-0.1-2.8-0.2-5.5-0.2-7.7c2.2,1.6,4.7,3.8,6.8,7.5c2.9-0.2,5.8-0.4,8.7-0.8c-2.4-5.6-5.6-9.4-8.7-12.1c-9.1-7.4-23.6-7.3-23.6-7.3
	c-13,0-21.6,7.3-21.6,7.3c-1.7,1.5-3.5,3.3-5.1,5.6C49.2,184.1,51.8,185.2,54.5,186.1z"/>
<path style="fill:#FFFFFF;" d="M76.3,187c0,0.9-0.7,1.6-1.6,1.6c-0.9,0-1.6-0.7-1.6-1.6c0-0.9,0.7-1.6,1.6-1.6
	C75.5,185.4,76.3,186.1,76.3,187z"/>
<path style="fill:#FFFFFF;" d="M76.3,194.8c0,0.9-0.7,1.6-1.6,1.6c-0.9,0-1.6-0.7-1.6-1.6c0-0.9,0.7-1.6,1.6-1.6
	C75.5,193.2,76.3,193.9,76.3,194.8z"/>
<path style="fill:#EAB888;" d="M147,97.9c0,47.7-32.9,86.3-73.5,86.3C32.9,184.2,0,145.6,0,97.9C0,50.2,32.9,0,73.5,0
	C114.1,0,147,50.2,147,97.9z"/>
<path style="fill:#FFFFFF;" d="M95.8,18c1.2,1,1.7,1.3,3.3,1.6c3,0.7,3.7-2.3,2.3-4.6c-0.7-1.2-3.9-3.5-5.3-3.5
	c-1.9,0.1-3.9,1.1-1.8,4.7L95.8,18z"/>
<circle style="fill:#B3754F;" cx="115.3" cy="81.7" r="2.7"/>
<path style="fill:#B3754F;" d="M126,71.9c0,0.9-0.7,1.7-1.7,1.7c-0.9,0-1.7-0.7-1.7-1.7c0-0.9,0.7-1.7,1.7-1.7
	C125.3,70.3,126,71,126,71.9z"/>
<path style="fill:#B3754F;" d="M113.4,66.8c0,0.9-0.7,1.7-1.7,1.7c-0.9,0-1.7-0.7-1.7-1.7c0-0.9,0.7-1.7,1.7-1.7
	C112.7,65.2,113.4,65.9,113.4,66.8z"/>
<path style="fill:#E7A86D;" d="M73.5,184.2c10.7,0,20.8-2.7,29.9-7.5c-7.4-5.6-14.5-11.4-20.3-18.8c-8.3-10.7-15.8-21.3-21.7-32.7
	C53.2,109,43.1,92.8,28.9,80.4c-7-6.1-11-8.8-24.4-13.6C1.6,76.9,0,87.5,0,97.9C0,145.6,32.9,184.2,73.5,184.2z"/>
<path style="fill:#5B3E1D;" d="M75.5,150.3c0,0.9-0.7,1.7-1.6,1.7c-0.9,0-1.6-0.7-1.6-1.7c0-0.9,0.7-1.6,1.6-1.6
	C74.8,148.6,75.5,149.4,75.5,150.3z"/>
<path style="fill:#5B3E1D;" d="M56.1,144.6c0,1.8-1.4,3.2-3.2,3.2c-1.8,0-3.2-1.4-3.2-3.2c0-1.8,1.4-3.2,3.2-3.2
	C54.7,141.4,56.1,142.9,56.1,144.6z"/>
<path style="fill:#5B3E1D;" d="M91.6,144.6c0,1.8,1.4,3.2,3.2,3.2c1.8,0,3.2-1.4,3.2-3.2c0-1.8-1.4-3.2-3.2-3.2
	C93,141.4,91.6,142.9,91.6,144.6z"/>
<g>
	<path style="fill:#5B3E1D;" d="M81.1,162.6c0.2,0.3,0.2,0.7-0.1,0.9c-0.3,0.2-0.7,0.2-0.9-0.1c-1.6-1.7-3.8-2.7-6.1-2.7
		c-2.3,0-4.5,1-6.1,2.7c-0.2,0.3-0.6,0.3-0.9,0c-0.3-0.2-0.3-0.6,0-0.9c1.8-2,4.3-3.1,7-3.1C76.8,159.5,79.3,160.6,81.1,162.6z"/>
</g>
<ellipse style="fill:#F8A17D;" cx="49.1" cy="158.5" rx="6" ry="5.8"/>
<ellipse style="fill:#F8A17D;" cx="98.2" cy="158.5" rx="6" ry="5.8"/>
</svg>
