<?xml version="1.0" encoding="utf-8"?>
<!-- Generator: Adobe Illustrator 16.2.1, SVG Export Plug-In . SVG Version: 6.00 Build 0)  -->
<!DOCTYPE svg PUBLIC "-//W3C//DTD SVG 1.1//EN" "http://www.w3.org/Graphics/SVG/1.1/DTD/svg11.dtd">
<svg version="1.1" id="Layer_1" xmlns="http://www.w3.org/2000/svg" xmlns:xlink="http://www.w3.org/1999/xlink" x="0px" y="0px"
	 width="504px" height="221.4px" viewBox="0 0 504 221.4" style="enable-background:new 0 0 504 221.4;" xml:space="preserve">
<path style="fill:#FEBF10;" d="M281.3,30.9C263.9,30.8,256.6,51.6,262.5,65.7c5.3,12.7,22.3,19.2,36.6,13.5
	c11.4-4.6,15.9-26.9,11.9-35.6C305.8,32.2,294.1,30.9,281.3,30.9z"/>
<path style="fill:#FAA21B;" d="M321.8,37.4C314.2,20.1,297.5,18.1,279,18c-25-0.1-35.5,31.7-27,53.2c7.7,19.5,32.2,29.4,52.7,20.6
	C321.1,84.9,327.6,50.7,321.8,37.4z M319.3,69.4c-8.8,17.7-31,25-47.3,16.3c-18.1-9.6-29.2-37.1-12.3-51.4
	C272.2,23.8,284.6,15.5,299.6,22.9C311.1,28.6,326.3,55.3,319.3,69.4z"/>
<path style="fill:#FEBF10;" d="M341.6,75.6C352.4,52,337.9,32.5,319.6,13C294.8-13.4,250.7,4.3,236.4,32.8
	c-13,25.7,0.9,60.5,30.6,74.2C290.7,117.8,333.3,93.7,341.6,75.6z M305.3,101.9c-27.5,6.8-59.6-5.8-66.7-30.9
	c-7.8-27.8,10.5-68,42.7-66c23.3,1.4,41.601,9.4,53.2,30.101C349.3,61.3,327.2,96.5,305.3,101.9z"/>
<path style="fill:#E6DEAE;" d="M384.7,60.4c2.399-4.2,8.399-8.101,14-9.101c6-1.1,6.6,6,11.399,6.101c2.7,0.1,6.4-3.101,8.9-4
	c4.1-1.601,4.7-1.4,8,0.3c1.7,0.8,2.8,1.9,5,1.8c2.6-0.2,4.7-2.3,7.9-1.7c3.699,0.601,3.899,3.801,6.6,4.7c2.5,0.8,5.4-1.5,8.2-1.7
	c4.5-0.3,5.5,2.4,10.1,2c2.601-0.199,6.5-1,9.101-0.1c2.699,0.9,4,2.8,7.6,3.1c6,0.5,10.9-2.3,16.6-2.399c2.301,0,5.7,0.2,5.9,2.6
	c-5.4,0.3-7,1.7-11.7,4.101c-7,3.6-12.6,2.899-19.7,1.5c-10-2-19,3.5-28.3,5.8C435,75.6,430.7,70,422,69c-5.9-0.7-11.4,4.5-16.7,2.7
	c-1.8-0.6-2.399-1.4-4.399-1.7c-1.9-0.3-3.801,0.4-5.7,0.3c-7-0.1-8.4-5.5-10.9-10h0.4V60.4z"/>
<path style="fill:#E6DEAE;" d="M124.3,70.1c2.4-4.2,8.4-8.101,14-9.101c6-1.1,6.6,6,11.4,6.101c2.7,0.1,6.4-3.101,8.9-4
	c4.1-1.601,4.7-1.4,8,0.3c1.7,0.8,2.8,1.899,5,1.8c2.6-0.2,4.7-2.3,7.9-1.7c3.7,0.601,3.9,3.8,6.6,4.7c2.5,0.8,5.4-1.5,8.2-1.7
	c4.5-0.3,5.5,2.4,10.1,2c2.6-0.2,6.5-1,9.1-0.1c2.7,0.899,4,2.8,7.6,3.1c6,0.5,10.9-2.3,16.6-2.399c2.3,0,5.7,0.199,5.9,2.6
	c-5.4,0.3-7,1.7-11.7,4.1c-7,3.601-12.6,2.9-19.7,1.5c-10-2-19,3.5-28.3,5.801c-9.3,2.199-13.6-3.4-22.3-4.301
	c-5.9-0.699-11.4,4.5-16.7,2.7c-1.8-0.6-2.4-1.399-4.4-1.7c-1.9-0.3-3.8,0.4-5.7,0.301c-7-0.101-13.1-5.7-10.9-10H124.3z"/>
<path style="fill:#E6DEAE;" d="M160.7,54.2c1.2-2.8,4.2-5.4,6.9-6.1c3-0.7,3.3,4,5.6,4.1c1.3,0,3.2-2.1,4.4-2.7c2-1,2.3-0.899,4,0.2
	c0.8,0.6,1.4,1.3,2.5,1.2c1.3-0.101,2.3-1.5,3.9-1.101c1.8,0.4,1.9,2.5,3.3,3.2c1.2,0.601,2.7-1,4.1-1.1c2.2-0.2,2.7,1.6,5,1.3
	c1.3-0.2,3.2-0.7,4.5-0.1c1.4,0.6,2,1.899,3.8,2.1c3,0.4,5.4-1.5,8.2-1.6c1.2,0,2.8,0.1,2.9,1.8c-2.7,0.2-3.5,1.1-5.8,2.8
	c-3.5,2.4-6.3,1.9-9.7,1c-5-1.3-9.4,2.4-14,3.9c-4.6,1.5-6.8-2.301-11-2.9c-2.9-0.4-5.6,3-8.3,1.8c-0.9-0.399-1.2-0.899-2.2-1.2
	c-1-0.199-1.9,0.301-2.8,0.2c-3.5-0.1-4.2-3.7-5.4-6.7h0.1V54.2z"/>
<path style="fill:#E6DEAE;" d="M74.7,46.3c1.6-3.399,5.5-6.399,9.2-7.199c4-0.801,4.3,4.8,7.5,4.899c1.8,0.101,4.3-2.399,5.9-3.2
	c2.7-1.199,3.1-1.1,5.3,0.2c1.1,0.7,1.9,1.5,3.3,1.4c1.7-0.101,3.1-1.8,5.2-1.4c2.4,0.5,2.6,3,4.4,3.8c1.6,0.7,3.6-1.199,5.4-1.399
	c3-0.2,3.6,1.899,6.7,1.6c1.7-0.2,4.3-0.8,6-0.1c1.8,0.7,2.7,2.2,5,2.5c4,0.399,7.2-1.8,11-1.9c1.5,0,3.8,0.101,3.9,2.101
	c-3.6,0.199-4.6,1.3-7.8,3.3c-4.6,2.8-8.4,2.3-13,1.2c-6.6-1.601-12.6,2.8-18.7,4.6s-9-2.7-14.7-3.4c-3.9-0.5-7.5,3.601-11.1,2.2
	C87,55,86.6,54.4,85.3,54.1c-1.3-0.301-2.5,0.3-3.8,0.3c-4.6-0.101-8.7-4.5-7.2-7.9h0.4V46.3z"/>
<path style="fill:#E6DEAE;" d="M42.7,62.2c1.6-3.4,5.5-6.4,9.2-7.2c4-0.8,4.3,4.8,7.5,4.9c1.8,0.1,4.3-2.4,5.9-3.2
	c2.7-1.2,3.1-1.1,5.3,0.2c1.1,0.7,1.9,1.5,3.3,1.399c1.7-0.1,3.1-1.8,5.2-1.399c2.4,0.5,2.6,3,4.4,3.8c1.6,0.7,3.6-1.2,5.4-1.4
	c3-0.199,3.6,1.9,6.7,1.601c1.7-0.2,4.3-0.8,6-0.101c1.8,0.7,2.7,2.2,5,2.5c4,0.4,7.2-1.8,11-1.899c1.5,0,3.8,0.1,3.9,2.1
	c-3.6,0.2-4.6,1.3-7.8,3.3c-4.6,2.801-8.4,2.301-13,1.2C94.1,66.4,88.1,70.8,82,72.6c-6.1,1.8-9-2.7-14.7-3.4
	c-3.9-0.5-7.5,3.6-11.1,2.2C55,70.9,54.6,70.3,53.3,70c-1.3-0.3-2.5,0.3-3.8,0.3c-4.6-0.1-8.7-4.5-7.2-7.899h0.4V62.2z"/>
<path style="fill:#E6DEAE;" d="M98.8,33.6c0.8-2.2,2.7-4.301,4.6-4.801c2-0.6,2.2,3.2,3.7,3.301c0.9,0,2.1-1.601,2.9-2.101
	c1.3-0.8,1.5-0.7,2.6,0.101c0.6,0.399,0.9,1,1.6,0.899c0.8-0.1,1.5-1.2,2.6-0.899c1.2,0.3,1.3,2,2.2,2.5
	c0.8,0.399,1.8-0.801,2.7-0.9c1.5-0.2,1.8,1.3,3.3,1.1c0.9-0.1,2.1-0.5,3-0.1c0.9,0.5,1.3,1.5,2.5,1.7c2,0.3,3.6-1.2,5.4-1.3
	c0.8,0,1.9,0.1,1.9,1.399c-1.8,0.101-2.3,0.9-3.8,2.2c-2.3,1.9-4.1,1.5-6.4,0.8c-3.3-1.1-6.2,1.9-9.3,3.101
	c-3,1.199-4.5-1.801-7.3-2.301c-1.9-0.399-3.7,2.4-5.5,1.5c-0.6-0.3-0.8-0.8-1.4-0.899c-0.6-0.2-1.3,0.2-1.9,0.2
	C99.9,39,99.4,36.2,98.6,33.8h0.2V33.6z"/>
<path style="fill:#E6DEAE;" d="M0.2,47.6C1.6,45.4,5,43.3,8.2,42.8c3.4-0.6,3.8,3.2,6.5,3.301c1.5,0,3.7-1.601,5.1-2.101
	c2.4-0.8,2.7-0.7,4.6,0.101c1,0.399,1.6,1,2.9,0.899c1.5-0.1,2.7-1.2,4.5-0.899c2.1,0.3,2.2,2,3.8,2.5C37,47,38.7,45.8,40.3,45.7
	c2.6-0.2,3.1,1.3,5.8,1.1c1.5-0.1,3.7-0.5,5.2-0.1c1.6,0.5,2.3,1.5,4.4,1.7c3.4,0.3,6.2-1.2,9.5-1.3c1.3,0,3.3,0.1,3.4,1.399
	c-3.1,0.101-4,0.9-6.7,2.2c-4,1.9-7.2,1.5-11.3,0.8c-5.7-1.1-10.9,1.9-16.2,3.101C29.1,55.8,26.6,52.8,21.7,52.3
	c-3.4-0.399-6.5,2.4-9.6,1.5c-1-0.3-1.4-0.8-2.5-0.899c-1.1-0.2-2.2,0.2-3.3,0.2C2.3,53,1.5,50.2,0,47.8h0.2V47.6z"/>
<path style="fill:#E6DEAE;" d="M350.9,38.5c1.6-3.8,5.6-7.3,9.3-8.2c4-1,4.399,5.4,7.6,5.5c1.8,0.101,4.3-2.8,5.9-3.6
	c2.7-1.4,3.1-1.2,5.399,0.2c1.101,0.8,1.9,1.7,3.301,1.6c1.699-0.1,3.1-2,5.3-1.6c2.5,0.5,2.6,3.399,4.399,4.3
	c1.7,0.8,3.601-1.4,5.5-1.5c3-0.3,3.7,2.2,6.801,1.8c1.699-0.2,4.3-0.899,6.1-0.1s2.7,2.5,5.1,2.8c4,0.5,7.301-2.1,11.101-2.1
	c1.6,0,3.8,0.199,3.899,2.399c-3.6,0.2-4.699,1.5-7.899,3.7c-4.7,3.2-8.4,2.6-13.2,1.3c-6.7-1.8-12.7,3.2-18.9,5.2
	c-6.199,2-9.1-3-14.899-3.9c-3.9-0.6-7.601,4.101-11.2,2.5c-1.2-0.5-1.6-1.3-2.9-1.6c-1.3-0.3-2.6,0.3-3.8,0.3c-4.7-0.1-5.6-5-7.3-9
	H350.9z"/>
<path style="fill:#A25049;" d="M276.2,52.1c0.1,1.1-0.7,2.1-1.8,2.199c-1.101,0.101-2.101-0.699-2.2-1.8c-0.101-1.1,0.7-2.1,1.8-2.2
	C275.2,50.2,276.1,51,276.2,52.1z"/>
<path style="fill:#A25049;" d="M298.2,50.2c0.1,1.1,1.1,1.9,2.2,1.8c1.1-0.1,1.899-1.1,1.8-2.2C302.1,48.7,301.1,47.9,300,48
	C298.9,48.2,298.1,49.1,298.2,50.2z"/>
<g>
	
		<rect x="283.495" y="51.954" transform="matrix(0.0839 0.9965 -0.9965 0.0839 315.1814 -238.0255)" style="fill:#A25049;" width="7.1" height="0.9"/>
</g>
<g>
	<path style="fill:#A25049;" d="M287.9,63.3c-3.101,0.301-6.2-0.8-8.4-3l-0.6,0.7c2.399,2.3,5.8,3.5,9.1,3.2c3.4-0.3,6.4-2,8.5-4.7
		l-0.7-0.5C293.9,61.5,291,63,287.9,63.3z"/>
</g>
<g style="enable-background:new    ;">
	<path style="fill:#F79A6C;" d="M293.406,183.943v-27.625c0-4.768,2.416-7.314,6.727-7.314h20.571c4.18,0,6.073,1.828,6.073,5.29
		v0.326c0,3.592-1.894,5.421-6.073,5.421h-14.368v6.857h9.862c4.31,0,6.008,1.828,6.008,5.028v0.196
		c0,3.396-1.763,5.289-6.008,5.289h-9.404v8.033c0,3.984-1.96,6.074-5.747,6.074h-2.09
		C295.365,191.519,293.406,188.711,293.406,183.943z"/>
	<path style="fill:#F79A6C;" d="M343.239,182.507l-1.241,3.265c-1.567,4.507-4.311,6.074-7.118,6.074
		c-3.592,0-7.185-2.874-6.792-4.049l13.715-35.463c0.652-2.154,2.416-3.656,8.359-3.656c5.942,0,7.445,1.502,8.098,3.656
		l14.237,35.332c0.457,1.176-3.069,4.18-6.988,4.18c-2.808,0-5.682-1.502-7.511-6.204l-1.175-3.135H343.239z M354.473,173.102
		l-4.507-12.278l-4.571,12.278H354.473z"/>
	<path style="fill:#F79A6C;" d="M420.438,187.861c0.261,0.327-2.613,4.311-7.314,4.311c-1.764,0-3.854-0.652-6.205-2.547
		c-3.068,1.633-6.53,2.547-10.188,2.547c-13.062,0-22.4-9.143-22.4-22.074c0-12.8,9.404-22.008,22.4-22.008
		c13.062,0,22.205,9.143,22.205,22.008c0,4.376-1.372,8.556-3.723,12.082C415.213,182.115,420.438,187.861,420.438,187.861z
		 M398.167,179.502c-2.09-2.285-2.873-6.008-0.392-8.032l0.326-0.327c2.613-2.024,5.617-0.914,7.838,1.633l0.195,0.262
		c0.195-0.914,0.326-1.895,0.326-2.939c0-6.008-3.656-10.449-9.469-10.449c-6.009,0-9.731,4.441-9.731,10.58
		c0,6.009,3.919,10.318,9.47,10.318c0.783,0,1.502-0.064,2.221-0.195L398.167,179.502z"/>
</g>
<g style="enable-background:new    ;">
	<path style="fill:#F79A6C;" d="M64.665,191.14c-5.52-5.913,1.898-11.243-0.513-13.755c-1.167-1.216-2.919-1.013-4.661,0.66
		c-2.877,2.762-2.511,6.225-0.811,8.563c0.078,0.081-4.68,5.426-8.607,1.333c-3.346-3.484-2.854-10.108,3.509-16.215
		c6.321-6.068,12.889-6.688,17.438-1.947c6.418,6.686-1.331,12.645,1.33,16.632c0.61,1.204-0.055,2.62-1.797,4.293
		C68.608,192.572,66.416,192.964,64.665,191.14z M71.955,199.87l-0.622-0.648c-2.139-2.229-2.057-4.332,0.172-6.472l0.932-0.895
		c2.311-2.218,4.375-2.175,6.514,0.054l0.622,0.648c2.14,2.229,2.058,4.332-0.212,6.511l-0.932,0.895
		C76.241,202.063,74.056,202.057,71.955,199.87z"/>
</g>
<g style="enable-background:new    ;">
	<path style="fill:#F79A6C;" d="M90.387,152.403c-3.306-8.885,7.123-11.307,5.646-15.111c-0.714-1.841-2.7-2.412-5.34-1.389
		c-4.357,1.69-5.522,5.603-4.737,8.899c0.048,0.122-7.509,3.761-9.914-2.438c-2.047-5.277,1.473-12.222,11.107-15.959
		c9.573-3.715,16.958-1.426,19.743,5.756c3.929,10.125-7.141,13.078-6.061,18.59c0.117,1.578-1.239,2.812-3.879,3.836
		C94.008,155.729,91.459,155.165,90.387,152.403z M94.337,165.133l-0.38-0.981c-1.31-3.375-0.271-5.613,3.104-6.924l1.412-0.547
		c3.497-1.357,5.712-0.381,7.021,2.994l0.381,0.982c1.31,3.375,0.271,5.613-3.165,6.947l-1.411,0.547
		C97.984,169.437,95.623,168.447,94.337,165.133z"/>
</g>
<g style="enable-background:new    ;">
	<path style="fill:#F79A6C;" d="M129.06,184.166l0.442-1.354c1.521-4.653,4.524-6.106,9.179-4.586l1.946,0.637
		c4.822,1.575,6.304,4.494,4.783,9.148l-0.442,1.354c-1.521,4.654-4.524,6.107-9.263,4.56l-1.946-0.637
		C129.189,191.794,127.566,188.735,129.06,184.166z M135.83,167.461c4.151-12.13,17.139-5.731,18.853-10.978
		c0.83-2.539-0.761-4.838-4.4-6.026c-6.008-1.964-10.578,1.132-12.581,5.254c-0.055,0.169-11.078-2.496-8.285-11.043
		c2.378-7.277,12.009-11.529,25.293-7.188c13.201,4.313,18.967,13.034,15.731,22.935c-4.562,13.962-18.675,7.57-22.267,14.264
		c-1.229,1.753-3.705,1.88-7.344,0.69C136.769,174.042,134.585,171.268,135.83,167.461z"/>
</g>
</svg>
