<?xml version="1.0" encoding="utf-8"?>
<!-- Generator: Adobe Illustrator 16.2.1, SVG Export Plug-In . SVG Version: 6.00 Build 0)  -->
<!DOCTYPE svg PUBLIC "-//W3C//DTD SVG 1.1//EN" "http://www.w3.org/Graphics/SVG/1.1/DTD/svg11.dtd">
<svg version="1.1" id="Layer_1" xmlns="http://www.w3.org/2000/svg" xmlns:xlink="http://www.w3.org/1999/xlink" x="0px" y="0px"
	 width="247.4px" height="407.1px" viewBox="0 0 247.4 407.1" style="enable-background:new 0 0 247.4 407.1;" xml:space="preserve"
	>
<ellipse style="fill:#E8E6C2;" cx="126.5" cy="390.6" rx="52.9" ry="16.5"/>
<path style="fill:#F26432;" d="M155.9,313.1c8.1,7,17.2,20.2,17.2,44c0,3.2-2.6,5.8-5.8,5.8c-3.2,0-5.8-2.6-5.8-5.8c0,0,0-0.9,0-1.9
	c-0.3,0-0.8,0-0.8,0c-2,0-3.7-1.7-3.7-3.7c0-2,1.7-3.7,3.7-3.7c0,0,0.2,0,0.2,0c-2.1-16.9-8.8-23.2-14.4-27.2
	c0.7,20.6,1.6,66.3,1.6,66.3c0,0.1,0,0.3,0,0.4c0,0.1,0,0.1,0,0.2c0,3.3-2.7,6-6,6c-3.3,0-5.9-2.6-6-5.9h0v-14.1
	c-0.2-5.8-5-10.5-10.8-10.5c-5.6,0-10.3,4.3-10.8,9.8v14.8h0c-0.1,3.2-2.7,5.9-6,5.9c-3.3,0-6-2.7-6-6c0-0.1,0-0.2,0-0.2
	c0-0.1,0-0.3,0-0.4c0,0,0.5-53.2,0.6-66.8c-5.7,4.1-12.8,10.1-15,27.7c0,0,0.2,0,0.2,0c2,0,3.7,1.7,3.7,3.7c0,2-1.7,3.7-3.7,3.7
	c0,0-0.5,0-0.8,0c0,0.9,0,1.9,0,1.9c0,3.2-2.6,5.8-5.8,5.8c-3.2,0-5.8-2.6-5.8-5.8c0-23.9,9.1-37,17.2-44c0,0,11.9-10.2,30.1-10.2
	C123,302.9,143.1,302.8,155.9,313.1z"/>
<path style="fill:#FFFFFF;" d="M126.9,327c0,1.3-1,2.3-2.3,2.3c-1.3,0-2.3-1-2.3-2.3c0-1.3,1-2.3,2.3-2.3
	C125.9,324.8,126.9,325.8,126.9,327z"/>
<path style="fill:#FFFFFF;" d="M126.9,337.9c0,1.3-1,2.3-2.3,2.3c-1.3,0-2.3-1-2.3-2.3c0-1.3,1-2.3,2.3-2.3
	C125.9,335.6,126.9,336.6,126.9,337.9z"/>
<path style="fill:#FFFFFF;" d="M144.8,116c1.7,1.4,2.4,1.7,4.6,2.2c4.3,1,5.1-3.2,3.2-6.4c-1-1.6-5.5-4.9-7.4-4.8
	c-2.6,0.1-5.4,1.5-2.5,6.5L144.8,116z"/>
<path style="fill:#F26432;" d="M121.3,84.4c0,0-125.1-15.3-121.3,96.1c0,0,6.5,135,123.1,135c0,0.1,0.1,0.2,0.1,0.2
	c1,0,1.9,0,2.9-0.1c1,0,1.9,0.1,2.9,0.1c0,0,0-0.1,0.1-0.2c115.6-5.5,118.2-135,118.2-135C251.2,69,121.3,84.4,121.3,84.4z"/>
<path style="fill:#FFFFFF;" d="M202.6,128.5c1.7,1.4,2.4,1.7,4.6,2.2c4.3,1,5.1-3.2,3.2-6.4c-1-1.6-5.5-4.9-7.4-4.8
	c-2.6,0.1-5.4,1.5-2.5,6.5L202.6,128.5z"/>
<path style="fill:#F04E32;" d="M103.7,237.3c-3.9-21.1-19-57.2-19-57.2c-27-61.9-63.8-51.2-79.3-38.8c-3.8,10.3-5.8,23-5.3,38.6
	c0,0,6.5,135,123.1,135c0,0.1,0.1,0.2,0.1,0.2c1,0,1.9,0,2.9-0.1c1,0,1.9,0.1,2.9,0.1c0,0,0-0.1,0.1-0.2c6.3-0.3,12,0.4,8.6-4.5
	C109.2,284.7,103.7,237.3,103.7,237.3z"/>
<path style="fill:#FCC8A0;" d="M177.2,237.7c7.1,6.2,11.2,13.8,11.2,21.9c0,21.5-19.2,39.1-65.5,39.1c-43.7,0-64.5-17.6-64.5-39.1
	c0-8.1,4.1-15.6,11.1-21.8c11.7-10.4,31.5-4.9,53.9-4.9C145.7,232.9,165.5,227.4,177.2,237.7z"/>
<path style="fill:#FBB88C;" d="M116,282.3c-5.1-12.9-7.8-27.1-10.6-40.7c-0.6-2.9-0.8-6.3-1.2-9.6c-14.3-1-26.5-1.5-34.7,5.8
	c-7,6.2-11.1,13.7-11.1,21.8c0,21.5,20.8,39.1,64.5,39.1c0.8,0,1.6,0,2.4,0C122.7,293.2,118.2,287.8,116,282.3z"/>
<path style="fill:#A25049;" d="M98.3,258.3c0,2.5-2,4.5-4.5,4.5c-2.5,0-4.5-2-4.5-4.5c0-2.5,2-4.5,4.5-4.5
	C96.3,253.8,98.3,255.9,98.3,258.3z"/>
<path style="fill:#A25049;" d="M147.8,258.3c0,2.5,2,4.5,4.5,4.5c2.5,0,4.5-2,4.5-4.5c0-2.5-2-4.5-4.5-4.5
	C149.8,253.8,147.8,255.9,147.8,258.3z"/>
<path style="fill:#AEC737;" d="M107,97.1c0,0-15.7-62.7-51.5-82.1c0,0,41.1,9,56,41.1c0,0,9-41.1,41.8-56c0,0-25.4,36.6-19.4,69.4
	c0,0,23.9-38.1,62.7-28.4c0,0-41.8,1.5-53,56.8L107,97.1z"/>
<g>
	<path style="fill:#A25049;" d="M133.4,282.9c0.3,0.4,0.3,1-0.1,1.3c-0.4,0.3-1,0.3-1.3-0.1c-2.2-2.5-5.4-3.9-8.8-3.9
		c-3.3,0-6.5,1.4-8.7,3.9c-0.3,0.4-0.9,0.4-1.3,0.1c-0.4-0.3-0.4-0.9-0.1-1.3c2.6-2.8,6.3-4.5,10.1-4.5
		C127.1,278.3,130.8,280,133.4,282.9z"/>
</g>
<ellipse style="fill:#F8A17D;" cx="90.7" cy="280.3" rx="8.1" ry="7.9"/>
<ellipse style="fill:#F8A17D;" cx="157.5" cy="280.3" rx="8.1" ry="7.9"/>
<path style="fill:#F58663;" d="M124.8,266.6c0,0.9-0.7,1.5-1.5,1.5c-0.8,0-1.5-0.7-1.5-1.5c0-0.8,0.7-1.5,1.5-1.5
	C124.1,265.1,124.8,265.7,124.8,266.6z"/>
</svg>
