<?xml version="1.0" encoding="utf-8"?>
<!-- Generator: Adobe Illustrator 17.0.0, SVG Export Plug-In . SVG Version: 6.00 Build 0)  -->
<!DOCTYPE svg PUBLIC "-//W3C//DTD SVG 1.1//EN" "http://www.w3.org/Graphics/SVG/1.1/DTD/svg11.dtd">
<svg version="1.1" id="Layer_1" xmlns="http://www.w3.org/2000/svg" xmlns:xlink="http://www.w3.org/1999/xlink" x="0px" y="0px"
	 width="247.432px" height="407.089px" viewBox="0 0 247.432 407.089" enable-background="new 0 0 247.432 407.089"
	 xml:space="preserve">
<ellipse fill="#EDE1B3" cx="126.481" cy="390.609" rx="52.887" ry="16.479"/>
<path fill="#B9B438" d="M155.88,313.135c8.143,7.016,17.181,20.165,17.181,44.008c0,3.223-2.62,5.833-5.84,5.833
	c-3.212,0-5.828-2.61-5.828-5.833c0,0-0.026-0.94-0.047-1.89c-0.314,0-0.77,0-0.77,0c-2.036,0-3.689-1.651-3.689-3.692
	c0-2.032,1.652-3.686,3.689-3.686c0,0,0.179,0,0.213,0c-2.149-16.929-8.794-23.15-14.366-27.21
	c0.743,20.556,1.643,66.29,1.643,66.29c0,0.143-0.02,0.275-0.03,0.418c0,0.075,0.025,0.149,0.025,0.229
	c0,3.319-2.689,6.003-6.002,6.003c-3.267,0-5.912-2.626-5.982-5.873h-0.02v-14.112c-0.205-5.819-4.975-10.47-10.843-10.47
	c-5.645,0-10.291,4.312-10.805,9.829v14.753h-0.024c-0.069,3.247-2.713,5.873-5.987,5.873c-3.31,0-5.994-2.684-5.994-6.003
	c0-0.08,0.023-0.152,0.023-0.224c-0.009-0.142-0.03-0.28-0.03-0.423c0,0,0.536-53.208,0.608-66.762
	c-5.698,4.056-12.785,10.086-15.017,27.682c0.033,0,0.211,0,0.211,0c2.029,0,3.684,1.654,3.684,3.686
	c0,2.041-1.654,3.692-3.684,3.692c0,0-0.455,0-0.768,0c-0.027,0.949-0.048,1.89-0.048,1.89c0,3.223-2.615,5.833-5.835,5.833
	c-3.214,0-5.834-2.61-5.834-5.833c0-23.868,9.057-37.025,17.214-44.036c0,0,11.943-10.171,30.062-10.171
	C122.991,302.936,143.145,302.767,155.88,313.135z"/>
<path fill="#FFFFFF" d="M126.941,327.03c0,1.269-1.023,2.3-2.283,2.3c-1.262,0-2.295-1.031-2.295-2.3
	c0-1.255,1.033-2.277,2.295-2.277C125.918,324.753,126.941,325.775,126.941,327.03z"/>
<path fill="#FFFFFF" d="M126.941,337.872c0,1.27-1.023,2.297-2.283,2.297c-1.262,0-2.295-1.027-2.295-2.297
	c0-1.256,1.033-2.279,2.295-2.279C125.918,335.593,126.941,336.616,126.941,337.872z"/>
<path fill="#FFFFFF" d="M144.758,116.043c1.7,1.438,2.37,1.748,4.595,2.247c4.251,0.962,5.104-3.25,3.216-6.397
	c-0.981-1.637-5.481-4.932-7.426-4.826c-2.617,0.144-5.407,1.49-2.515,6.505L144.758,116.043z"/>
<path fill="#F26432" d="M121.343,84.354c0,0-125.138-15.341-121.255,96.084c0,0,6.473,135.013,123.116,135.013
	c0.047,0.092,0.08,0.156,0.08,0.156c0.986-0.005,1.942-0.044,2.91-0.066c0.972,0.022,1.93,0.062,2.915,0.066
	c0,0,0.028-0.064,0.065-0.156c115.581-5.524,118.171-135.013,118.171-135.013C251.229,69.013,121.343,84.354,121.343,84.354z"/>
<path fill="#FFFFFF" d="M202.561,128.527c1.698,1.439,2.369,1.748,4.594,2.247c4.252,0.962,5.104-3.25,3.216-6.396
	c-0.98-1.637-5.482-4.933-7.426-4.827c-2.617,0.145-5.406,1.492-2.516,6.506L202.561,128.527z"/>
<path fill="#F04E32" d="M103.652,237.266c-3.885-21.107-18.986-57.234-18.986-57.234c-26.97-61.902-63.848-51.159-79.321-38.819
	c-3.813,10.323-5.8,23.025-5.256,38.616c0,0,6.473,135.013,123.116,135.013c0.047,0.092,0.08,0.155,0.08,0.155
	c0.986-0.003,1.942-0.041,2.91-0.064c0.972,0.023,1.93,0.061,2.915,0.064c0,0,0.028-0.063,0.065-0.155
	c6.252-0.3,12.019,0.362,8.564-4.51C109.179,284.728,103.652,237.266,103.652,237.266z"/>
<path fill="#FCC8A0" d="M177.177,237.661c7.1,6.244,11.249,13.787,11.249,21.911c0,21.522-19.245,39.097-65.548,39.097
	c-43.691,0-64.526-17.574-64.526-39.097c0-8.073,4.096-15.57,11.108-21.788c11.689-10.368,31.48-4.883,53.931-4.883
	C145.749,232.901,165.474,227.364,177.177,237.661z"/>
<path fill="#FBB88C" d="M116.004,282.258c-5.094-12.879-7.788-27.119-10.637-40.661c-0.614-2.907-0.815-6.305-1.231-9.595
	c-14.29-0.963-26.477-1.491-34.675,5.782c-7.013,6.218-11.108,13.715-11.108,21.788c0,21.522,20.835,39.097,64.526,39.097
	c0.823,0,1.621-0.02,2.429-0.031C122.688,293.24,118.2,287.805,116.004,282.258z"/>
<path fill="#A25049" d="M98.339,258.312c0,2.47-1.995,4.472-4.471,4.472c-2.469,0-4.471-2.002-4.471-4.472
	c0-2.461,2.002-4.469,4.471-4.469C96.343,253.844,98.339,255.852,98.339,258.312z"/>
<path fill="#A25049" d="M147.819,258.312c0,2.47,1.996,4.472,4.471,4.472c2.469,0,4.472-2.002,4.472-4.472
	c0-2.461-2.003-4.469-4.472-4.469C149.815,253.844,147.819,255.852,147.819,258.312z"/>
<g>
	<path fill="#A25049" d="M113.545,283.024c-0.331,0.369-0.297,0.936,0.071,1.267c0.37,0.329,0.935,0.295,1.267-0.073
		c2.164-2.432,5.277-3.823,8.537-3.823c3.216,0,6.297,1.364,8.457,3.741c0.333,0.365,0.896,0.394,1.265,0.062
		c0.367-0.335,0.394-0.899,0.062-1.267c-2.5-2.753-6.063-4.33-9.784-4.33C119.65,278.6,116.051,280.213,113.545,283.024z"/>
</g>
<path fill="#AEC737" d="M107.044,97.073c0,0-15.682-62.725-51.523-82.139c0,0,41.069,8.96,56.003,41.068
	c0,0,8.962-41.069,41.816-56.003c0,0-25.389,36.589-19.415,69.444c0,0,23.895-38.082,62.724-28.375c0,0-41.816,1.493-53.017,56.75
	L107.044,97.073z"/>
<path fill="#A25049" d="M124.583,266.919c0,1.034-0.836,1.873-1.863,1.873c-1.029,0-1.871-0.839-1.871-1.873
	c0-1.025,0.842-1.858,1.871-1.858C123.747,265.06,124.583,265.894,124.583,266.919z"/>
<ellipse fill="#F8A27E" cx="90.665" cy="277.56" rx="8.1" ry="7.9"/>
<ellipse fill="#F8A27E" cx="157.465" cy="277.56" rx="8.1" ry="7.9"/>
</svg>
