<?xml version="1.0" encoding="utf-8"?>
<!-- Generator: Adobe Illustrator 18.1.1, SVG Export Plug-In . SVG Version: 6.00 Build 0)  -->
<!DOCTYPE svg PUBLIC "-//W3C//DTD SVG 1.1//EN" "http://www.w3.org/Graphics/SVG/1.1/DTD/svg11.dtd">
<svg version="1.1" id="Layer_3_copy_14" xmlns="http://www.w3.org/2000/svg" xmlns:xlink="http://www.w3.org/1999/xlink" x="0px"
	 y="0px" viewBox="0 0 141.6 177.1" enable-background="new 0 0 141.6 177.1" xml:space="preserve">
<path fill="#FFFFFF" d="M141.6,142.8c-8.1,7.8-42.9,10.8-67.3,10.8c-24.4,0-59.3-2.9-67.3-10.8v21.8c0,6.9,30.1,12.5,67.3,12.5
	c37.2,0,67.3-5.6,67.3-12.5c0,0,0,0,0,0C141.6,164.4,141.6,149.7,141.6,142.8z"/>
<g>
	<g>
		<path fill="#FFFFFF" d="M99,127.3c-1.3,0-2.5,0-3.7,0c0.9,5.2,0.9,10.5-2.7,14.9c-6.5,8-23.4,6.7-30.1,3
			c-6.3-3.5-10-9.8-11.6-16.7c-0.1-0.4-0.2-0.8-0.3-1.2c-0.6,0-1.2,0.1-1.9,0.1C24.3,129.2,7,133.7,7,139c0,6.9,30.1,12.5,67.3,12.5
			c37.2,0,67.3-5.6,67.3-12.5C141.6,133.7,124,129.1,99,127.3z M9.9,139.3c0,0,5.2-7.1,40.2-9.5l0.5,2.4
			C50.6,132.2,33.5,131.7,9.9,139.3z"/>
	</g>
</g>
<g>
	<g>
		<path fill="#FFFFFF" d="M101.9,30.3c0-15.5-1-29.3-2.8-29.6C88-0.4,76.6,0.3,65.4,0.3c-5.1,0-10.2,0-15.3,0c-1.3,0-5.3-0.7-6.5,0
			C33.3,6.7,24.8,16,20.2,27.4c-3.5,8.7-3.2,18.4-7.7,26.8C8.7,61.1-5.3,70.8,2.1,79.3c5.1,5.8,15,4.4,22.8,0.5
			c4.3-2.1,8-5.1,10-7.9c2.4-3.5,7.2-16.8,12.9-20.7c-4-5.4-10-11.5-10-11.5c8.8,3.2,17.9,10.1,20.7,19.3c2.7,8.9,0.8,19.1-0.1,28.2
			c-1.5,14.7-9.5,44.7,6.9,53.9c5.4,3,19.2,3.5,23.5-1.7c4.7-5.7,0.2-13.5-0.3-20c-1-12.4-0.4-25.6,3.5-37.5
			c1.7-5.3,5.6-9.2,8.1-14.1c2.7-5.2,3.3-11.3,2.8-17.1C102.2,43.9,101.9,37.2,101.9,30.3z"/>
	</g>
</g>
</svg>
