<?xml version="1.0" encoding="utf-8"?>
<!-- Generator: Adobe Illustrator 16.2.1, SVG Export Plug-In . SVG Version: 6.00 Build 0)  -->
<!DOCTYPE svg PUBLIC "-//W3C//DTD SVG 1.1//EN" "http://www.w3.org/Graphics/SVG/1.1/DTD/svg11.dtd">
<svg version="1.1" id="Layer_1" xmlns="http://www.w3.org/2000/svg" xmlns:xlink="http://www.w3.org/1999/xlink" x="0px" y="0px"
	 width="126px" height="126px" viewBox="0 0 126 126" style="enable-background:new 0 0 126 126;" xml:space="preserve">
<circle style="fill:#F5844D;stroke:#FFFFFF;stroke-width:8;stroke-miterlimit:10;" cx="63" cy="63" r="59"/>
<g style="enable-background:new    ;">
	<path style="fill:#FFFFFF;" d="M60.023,41.62v18.571c0,1.18-0.395,2.254-1.185,3.221c-0.79,0.968-1.818,1.645-3.086,2.031v22.605
		c0,1.005-0.423,1.875-1.268,2.611c-0.846,0.734-1.847,1.103-3.003,1.103h-4.271c-1.157,0-2.158-0.368-3.003-1.103
		c-0.846-0.736-1.268-1.606-1.268-2.611V65.443c-1.268-0.387-2.297-1.063-3.087-2.031c-0.79-0.967-1.185-2.041-1.185-3.221V41.62
		c0-0.503,0.211-0.938,0.634-1.306c0.422-0.367,0.923-0.551,1.501-0.551c0.578,0,1.079,0.184,1.501,0.551
		c0.422,0.368,0.634,0.803,0.634,1.306v12.071c0,0.503,0.211,0.939,0.634,1.306c0.422,0.368,0.923,0.551,1.502,0.551
		c0.578,0,1.079-0.184,1.501-0.551c0.422-0.367,0.634-0.803,0.634-1.306V41.62c0-0.503,0.211-0.938,0.634-1.306
		c0.422-0.367,0.923-0.551,1.502-0.551c0.578,0,1.079,0.184,1.501,0.551c0.422,0.368,0.634,0.803,0.634,1.306v12.071
		c0,0.503,0.211,0.939,0.634,1.306c0.422,0.368,0.923,0.551,1.502,0.551c0.578,0,1.079-0.184,1.501-0.551
		c0.422-0.367,0.634-0.803,0.634-1.306V41.62c0-0.503,0.211-0.938,0.634-1.306c0.422-0.367,0.923-0.551,1.501-0.551
		s1.079,0.184,1.502,0.551C59.812,40.682,60.023,41.117,60.023,41.62z M85.652,41.62v46.429c0,1.005-0.424,1.875-1.269,2.611
		c-0.846,0.734-1.847,1.103-3.003,1.103h-4.271c-1.158,0-2.158-0.368-3.004-1.103c-0.846-0.736-1.268-1.606-1.268-2.611V73.191
		h-7.476c-0.289,0-0.54-0.092-0.751-0.275s-0.316-0.402-0.316-0.653V49.048c0-2.554,1.045-4.74,3.137-6.558
		c2.091-1.818,4.605-2.728,7.541-2.728h8.543c0.578,0,1.079,0.184,1.502,0.551C85.439,40.682,85.652,41.117,85.652,41.62z"/>
</g>
</svg>
