<?xml version="1.0" encoding="utf-8"?>
<!-- Generator: Adobe Illustrator 18.1.1, SVG Export Plug-In . SVG Version: 6.00 Build 0)  -->
<!DOCTYPE svg PUBLIC "-//W3C//DTD SVG 1.1//EN" "http://www.w3.org/Graphics/SVG/1.1/DTD/svg11.dtd">
<svg version="1.1" id="Layer_1" xmlns="http://www.w3.org/2000/svg" xmlns:xlink="http://www.w3.org/1999/xlink" x="0px" y="0px"
	 viewBox="-149 296.3 312.9 200.7" enable-background="new -149 296.3 312.9 200.7" xml:space="preserve">
<ellipse fill="#EDE1B3" cx="-104.5" cy="436.5" rx="24.1" ry="7.5"/>
<path fill="#95513A" d="M-91.1,401.2c3.7,3.2,7.8,9.2,7.8,20c0,1.5-1.2,2.7-2.7,2.7c-1.5,0-2.7-1.2-2.7-2.7c0,0,0-0.4,0-0.9
	c-0.1,0-0.4,0-0.4,0c-0.9,0-1.7-0.8-1.7-1.7c0-0.9,0.8-1.7,1.7-1.7c0,0,0.1,0,0.1,0c-1-7.7-4-10.5-6.5-12.4
	c0.3,9.4,0.7,30.2,0.7,30.2c0,0.1,0,0.1,0,0.2c0,0,0,0.1,0,0.1c0,1.5-1.2,2.7-2.7,2.7c-1.5,0-2.7-1.2-2.7-2.7h0v-6.4
	c-0.1-2.6-2.3-4.8-4.9-4.8c-2.6,0-4.7,2-4.9,4.5v6.7h0c0,1.5-1.2,2.7-2.7,2.7c-1.5,0-2.7-1.2-2.7-2.7c0,0,0-0.1,0-0.1
	c0-0.1,0-0.1,0-0.2c0,0,0.2-24.2,0.3-30.4c-2.6,1.8-5.8,4.6-6.8,12.6c0,0,0.1,0,0.1,0c0.9,0,1.7,0.8,1.7,1.7c0,0.9-0.8,1.7-1.7,1.7
	c0,0-0.2,0-0.3,0c0,0.4,0,0.9,0,0.9c0,1.5-1.2,2.7-2.7,2.7c-1.5,0-2.7-1.2-2.7-2.7c0-10.9,4.1-16.8,7.8-20c0,0,5.4-4.6,13.7-4.6
	C-106.1,396.6-96.9,396.5-91.1,401.2z"/>
<path fill="#81443A" d="M-118.1,406.9c1-1.1,2-1.9,2.9-2.5c0,0.8,0,2,0,3.4c5.2,1.3,10.7,1.7,15.6,1.7c1.5,0,2.9,0,4.3,0
	c-0.1-1.8-0.1-3.5-0.2-4.9c1.4,1,3,2.4,4.3,4.7c1.9-0.1,3.7-0.3,5.5-0.5c-1.5-3.5-3.6-6-5.5-7.7c-5.8-4.7-15-4.6-15-4.6
	c-8.2,0-13.7,4.6-13.7,4.6c-1.1,0.9-2.2,2.1-3.3,3.6C-121.5,405.6-119.8,406.4-118.1,406.9z"/>
<path fill="#FF9700" d="M-105.7,328.7c-18.4,0-41.1,7.8-43.1,33.7c-2.1,26.5,19.1,41.7,43.6,41.7c27.5,0,46.2-15.7,43.8-41.7
	C-63.9,336.5-87.3,328.7-105.7,328.7z"/>
<path fill="#FF7E00" d="M-112.4,375.4c-2.2-11-6-16.6-11.5-23.8c-3.3-4.3-8.9-8.8-15.1-11.3c-5.3,5.2-9,12.4-9.8,22.1
	c-2.1,26.5,19.1,41.7,43.6,41.7c1.7,0,3.4-0.1,5.1-0.2C-106.6,397.8-110.7,383.9-112.4,375.4z"/>
<path fill="#FDC79F" d="M-80.4,371.2c3.2,2.8,5.1,6.3,5.1,10c0,9.8-8.8,17.8-29.8,17.8c-19.9,0-29.4-8-29.4-17.8
	c0-3.7,1.9-7.1,5.1-9.9c5.3-4.7,14.3-2.2,24.5-2.2C-94.7,369-85.7,366.5-80.4,371.2z"/>
<path fill="#FDBD92" d="M-114.1,368.6c-6.5-0.4-11.5-0.7-15.2,2.6c-3.2,2.8-5.1,6.2-5.1,9.9c0,9.8,9.5,17.8,29.4,17.8
	c0.4,0,0.7,0,1.1,0C-111,391.3-108.8,375.8-114.1,368.6z"/>
<path fill="#F88662" d="M-103.9,384.2c0,0.6-0.5,1-1,1c-0.6,0-1-0.5-1-1c0-0.6,0.5-1,1-1C-104.4,383.1-103.9,383.6-103.9,384.2z"/>
<path fill="#FFFFCF" d="M-104.3,407.5c0,0.6-0.5,1-1,1c-0.6,0-1-0.5-1-1c0-0.6,0.5-1,1-1C-104.8,406.5-104.3,407-104.3,407.5z"/>
<path fill="#FFFFCF" d="M-104.3,412.5c0,0.6-0.5,1-1,1c-0.6,0-1-0.5-1-1c0-0.6,0.5-1,1-1C-104.8,411.4-104.3,411.9-104.3,412.5z"/>
<path fill="#FFFFFF" d="M-112.5,380.5c0,3.2-2.6,5.7-5.7,5.7c-3.2,0-5.7-2.6-5.7-5.7c0-3.2,2.6-5.7,5.7-5.7
	C-115.1,374.7-112.5,377.3-112.5,380.5z"/>
<path fill="#A14F48" d="M-116.2,380.6c0,1.1-0.9,2-2,2c-1.1,0-2-0.9-2-2c0-1.1,0.9-2,2-2C-117.1,378.6-116.2,379.5-116.2,380.6z"/>
<path fill="#FFFFFF" d="M-97.4,380.5c0,3.2,2.6,5.7,5.7,5.7c3.2,0,5.7-2.6,5.7-5.7c0-3.2-2.6-5.7-5.7-5.7
	C-94.8,374.7-97.4,377.3-97.4,380.5z"/>
<path fill="#A14F48" d="M-93.7,380.6c0,1.1,0.9,2,2,2c1.1,0,2-0.9,2-2c0-1.1-0.9-2-2-2C-92.8,378.6-93.7,379.5-93.7,380.6z"/>
<g>
	<path fill="#F88662" d="M-109.3,390.1c-0.1-0.2-0.1-0.4,0-0.6c0.2-0.1,0.4-0.1,0.6,0c1,1.1,2.4,1.7,3.9,1.7c1.5,0,2.9-0.6,3.8-1.7
		c0.2-0.2,0.4-0.2,0.6,0c0.2,0.2,0.2,0.4,0,0.6c-1.1,1.3-2.8,2-4.5,2C-106.5,392.1-108.2,391.3-109.3,390.1z"/>
</g>
<polygon fill="#86AC23" points="-116.5,333.1 -114.7,335.5 -111.5,333.6 -112.6,336.5 -108.8,336.7 -112.3,338.3 -110.1,340.6 
	-113.9,340 -114.6,342.9 -116.4,340.5 -119.7,342.4 -118.5,339.5 -122.3,339.3 -118.9,337.7 -121,335.5 -117.3,336 "/>
<circle fill="#FFC238" cx="-91.5" cy="349.3" r="1"/>
<circle fill="#FFC238" cx="-87.2" cy="347.9" r="1"/>
<circle fill="#FFC238" cx="-82.8" cy="346.5" r="1"/>
<circle fill="#FFC238" cx="-78.5" cy="345.1" r="1"/>
<circle fill="#FFC238" cx="-74.1" cy="343.8" r="1"/>
<circle fill="#FFC238" cx="-88.1" cy="352" r="1"/>
<circle fill="#FFC238" cx="-83.8" cy="350.6" r="1"/>
<circle fill="#FFC238" cx="-79.4" cy="349.2" r="1"/>
<circle fill="#FFC238" cx="-84.9" cy="355" r="1"/>
<circle fill="#FFC238" cx="-80.6" cy="353.6" r="1"/>
<circle fill="#FFC238" cx="-85.2" cy="339.2" r="1"/>
<circle fill="#FFC238" cx="-76.2" cy="352.3" r="1"/>
<circle fill="#FFC238" cx="-75.1" cy="347.8" r="1"/>
<circle fill="#FFC238" cx="-90.4" cy="344.9" r="1"/>
<circle fill="#FFC238" cx="-86.1" cy="343.5" r="1"/>
<circle fill="#FFC238" cx="-81.7" cy="342.1" r="1"/>
<circle fill="#FFC238" cx="-77.4" cy="340.7" r="1"/>
<circle fill="#FF9700" cx="-142.6" cy="360.9" r="1"/>
<circle fill="#FF9700" cx="-138.2" cy="359.5" r="1"/>
<circle fill="#FF9700" cx="-133.8" cy="358.1" r="1"/>
<circle fill="#FF9700" cx="-129.5" cy="356.7" r="1"/>
<circle fill="#FF9700" cx="-125.1" cy="355.3" r="1"/>
<circle fill="#FF9700" cx="-139.2" cy="363.6" r="1"/>
<circle fill="#FF9700" cx="-134.8" cy="362.2" r="1"/>
<circle fill="#FF9700" cx="-130.5" cy="360.8" r="1"/>
<circle fill="#FF9700" cx="-135.9" cy="366.6" r="1"/>
<circle fill="#FF9700" cx="-131.6" cy="365.2" r="1"/>
<circle fill="#FF9700" cx="-136.2" cy="350.8" r="1"/>
<circle fill="#FF9700" cx="-127.2" cy="363.8" r="1"/>
<circle fill="#FF9700" cx="-126.1" cy="359.4" r="1"/>
<circle fill="#FF9700" cx="-141.4" cy="356.5" r="1"/>
<circle fill="#FF9700" cx="-137.1" cy="355.1" r="1"/>
<circle fill="#FF9700" cx="-132.7" cy="353.7" r="1"/>
<circle fill="#FF9700" cx="-128.4" cy="352.3" r="1"/>
<ellipse fill="#EDE1B3" cx="123" cy="437.4" rx="22.8" ry="7.1"/>
<path fill="#AE5142" d="M135.7,404c3.5,3,7.4,8.7,7.4,19c0,1.4-1.1,2.5-2.5,2.5c-1.4,0-2.5-1.1-2.5-2.5c0,0,0-0.4,0-0.8
	c-0.1,0-0.3,0-0.3,0c-0.9,0-1.6-0.7-1.6-1.6c0-0.9,0.7-1.6,1.6-1.6c0,0,0.1,0,0.1,0c-0.9-7.3-3.8-10-6.2-11.7
	c0.3,8.9,0.7,28.6,0.7,28.6c0,0.1,0,0.1,0,0.2c0,0,0,0.1,0,0.1c0,1.4-1.2,2.6-2.6,2.6c-1.4,0-2.5-1.1-2.6-2.5h0V430
	c-0.1-2.5-2.1-4.5-4.7-4.5c-2.4,0-4.4,1.9-4.7,4.2v6.4h0c0,1.4-1.2,2.5-2.6,2.5c-1.4,0-2.6-1.2-2.6-2.6c0,0,0-0.1,0-0.1
	c0-0.1,0-0.1,0-0.2c0,0,0.2-22.9,0.3-28.8c-2.5,1.7-5.5,4.3-6.5,11.9c0,0,0.1,0,0.1,0c0.9,0,1.6,0.7,1.6,1.6c0,0.9-0.7,1.6-1.6,1.6
	c0,0-0.2,0-0.3,0c0,0.4,0,0.8,0,0.8c0,1.4-1.1,2.5-2.5,2.5c-1.4,0-2.5-1.1-2.5-2.5c0-10.3,3.9-16,7.4-19c0,0,5.1-4.4,13-4.4
	C121.5,399.6,130.2,399.5,135.7,404z"/>
<g>
	<path fill="#FDD39C" d="M106.5,418.9C106.5,418.9,106.4,418.9,106.5,418.9c-0.1-0.1,0-0.3,0-0.4l-5-0.5c-0.2,1.5-0.3,3.1-0.3,4.9
		c0,1.4,1.1,2.5,2.5,2.5c1.4,0,2.5-1.1,2.5-2.5c0,0,0-0.4,0-0.8c0.1,0,0.3,0,0.3,0c0.9,0,1.6-0.7,1.6-1.6
		C108.1,419.7,107.4,418.9,106.5,418.9z"/>
	<path fill="#FDD39C" d="M101.3,418c-0.2,1.6-0.3,3.2-0.3,4.9c0,1.5,1.2,2.6,2.6,2.6c1.5,0,2.6-1.2,2.6-2.6c0,0,0-0.5,0-0.7
		c0.1,0,0.2,0,0.2,0c0.9,0,1.7-0.8,1.7-1.7c0-0.9-0.7-1.7-1.7-1.7c0-0.1,0-0.2,0-0.2l0-0.3l-0.1,0l-5.1-0.5L101.3,418z M101.2,422.9
		c0-1.6,0.1-3.2,0.3-4.8c0.2,0,4.5,0.5,4.8,0.5c0,0-0.1,0.4-0.1,0.4l0.1,0h0.1c0.8,0,1.5,0.7,1.5,1.5c0,0.8-0.7,1.5-1.5,1.5h-0.4
		l0,0.9c0,1.3-1.1,2.4-2.4,2.4C102.3,425.3,101.2,424.3,101.2,422.9z"/>
</g>
<path fill="#8B4E42" d="M110.1,409.4c0.9-1,1.9-1.8,2.7-2.4c0,0.8,0,1.9,0,3.2c4.9,1.3,10.1,1.6,14.8,1.6c1.4,0,2.7,0,4.1,0
	c0-1.7-0.1-3.3-0.1-4.6c1.3,1,2.8,2.3,4.1,4.5c1.8-0.1,3.5-0.2,5.2-0.5c-1.4-3.3-3.4-5.7-5.2-7.2c-5.5-4.5-14.2-4.4-14.2-4.4
	c-7.8,0-13,4.4-13,4.4c-1,0.9-2.1,2-3.1,3.4C106.9,408.2,108.5,408.8,110.1,409.4z"/>
<path fill="#D7533D" d="M121.9,335.3c-17.4,0-38.9,7.4-40.8,31.9c-2,25.1,18,39.5,41.3,39.5c26,0,43.8-14.9,41.4-39.5
	C161.4,342.7,139.3,335.3,121.9,335.3z"/>
<path fill="#5A3D1C" d="M121.6,310.3c-0.1,4.9,0.1,8.8,0.1,13.7c0,7.1-0.1,11.9,0.2,19.1c0,1.4,0.5,4,0.8,1.6
	c0.6-3.8,1.3-12.7,1.7-16.5c0.6-6.2,1.2-12.6,0.8-18.8c-1,0-2.6,0-3.5,0.2C121.6,309.8,121.5,310.1,121.6,310.3z"/>
<path fill="#B14432" d="M115.5,379.5c-2.1-10.4-5.7-15.7-10.9-22.5c-3.1-4.1-8.4-8.3-14.3-10.7c-5,4.9-8.5,11.7-9.3,20.9
	c-2,25.1,18,39.5,41.3,39.5c1.6,0,3.2-0.1,4.8-0.2C121,400.8,117.1,387.6,115.5,379.5z"/>
<path fill="#FDC79F" d="M145.9,375.6c3.1,2.7,4.8,5.9,4.8,9.4c0,9.3-8.3,16.8-28.2,16.8c-18.8,0-27.8-7.6-27.8-16.8
	c0-3.5,1.8-6.7,4.8-9.4c5-4.5,13.6-2.1,23.2-2.1C132.3,373.5,140.8,371.1,145.9,375.6z"/>
<path fill="#FDBD92" d="M120.4,394.8c-2.2-5.5-4.2-11.7-5.4-17.5c-0.3-1.3-0.4-2.7-0.5-4.1c-6.2-0.4-11.4-0.6-14.9,2.5
	c-3,2.7-4.8,5.9-4.8,9.4c0,9.3,9,16.8,27.8,16.8c0.4,0,0.7,0,1,0C122.4,399.5,121.3,397.2,120.4,394.8z"/>
<path fill="#FFFFFF" d="M123.2,410c0,0.5-0.4,1-1,1c-0.5,0-1-0.4-1-1c0-0.5,0.4-1,1-1C122.8,409,123.2,409.4,123.2,410z"/>
<path fill="#FFFFFF" d="M123.2,414.6c0,0.5-0.4,1-1,1c-0.5,0-1-0.4-1-1c0-0.5,0.4-1,1-1C122.8,413.6,123.2,414.1,123.2,414.6z"/>
<path fill="#A14F48" d="M111.9,384.5c0,1.1-0.9,1.9-1.9,1.9c-1.1,0-1.9-0.9-1.9-1.9c0-1.1,0.9-1.9,1.9-1.9
	C111,382.5,111.9,383.4,111.9,384.5z"/>
<path fill="#A14F48" d="M133.2,384.5c0,1.1,0.9,1.9,1.9,1.9c1.1,0,1.9-0.9,1.9-1.9c0-1.1-0.9-1.9-1.9-1.9
	C134.1,382.5,133.2,383.4,133.2,384.5z"/>
<path fill="#9ABD00" d="M124.4,324.6c4.6-11.8,18.7-12.9,29-12.6c0.5,7-6.9,11.2-10.9,12.8C139.5,326,127.4,330.1,124.4,324.6
	L124.4,324.6z"/>
<path fill="#88AC00" d="M125.1,324.3c1.4-0.7,2.8-1.3,4.1-2c4.2-2.3,8.7-3.9,13.1-5.6c3.3-1.3,7-1.7,10-3.7c0.4-0.3,0.7-0.5,1-0.8
	c0,0,0.1-0.1,0.1-0.2c-10.3-0.3-24.4,0.9-29,12.7l0,0C124.7,324.5,124.9,324.3,125.1,324.3z"/>
<path fill="#FFFFFF" d="M142.8,347.6c0.7,0.6,1,0.8,2,1c1.8,0.4,2.2-1.4,1.4-2.8c-0.4-0.7-2.4-2.1-3.2-2.1c-1.1,0.1-2.3,0.6-1.1,2.8
	L142.8,347.6z"/>
<g>
	<path fill="#FDD39C" d="M137.6,418.8C137.6,418.8,137.7,418.8,137.6,418.8c0.1-0.1,0-0.3,0-0.4l5-0.5c0.2,1.5,0.3,3.1,0.3,4.9
		c0,1.4-1.1,2.5-2.5,2.5c-1.4,0-2.5-1.1-2.5-2.5c0,0,0-0.4,0-0.8c-0.1,0-0.3,0-0.3,0c-0.9,0-1.6-0.7-1.6-1.6
		C136,419.5,136.7,418.8,137.6,418.8z"/>
	<path fill="#FDD39C" d="M142.7,417.7l-5.1,0.5l-0.1,0l0,0.3c0,0,0,0.1,0,0.2c-0.9,0-1.7,0.8-1.7,1.7c0,0.9,0.8,1.7,1.7,1.7
		c0,0,0.1,0,0.2,0c0,0.2,0,0.7,0,0.7c0,1.5,1.2,2.6,2.6,2.6c1.4,0,2.6-1.2,2.6-2.6c0-1.7-0.1-3.3-0.3-4.9L142.7,417.7z M140.4,425.2
		c-1.3,0-2.4-1.1-2.4-2.4l0-0.9h-0.4c-0.8,0-1.5-0.7-1.5-1.5c0-0.8,0.7-1.5,1.5-1.5h0.1l0.1,0c0,0-0.1-0.4-0.1-0.4
		c0.2,0,4.6-0.5,4.8-0.5c0.2,1.5,0.3,3.2,0.3,4.8C142.8,424.1,141.8,425.2,140.4,425.2z"/>
</g>
<path fill="#F88662" d="M123.3,388.6c0,0.6-0.4,1-1,1c-0.6,0-1-0.4-1-1c0-0.5,0.5-1,1-1C122.8,387.6,123.3,388,123.3,388.6z"/>
<path fill="#9AAC00" d="M14.6,411c-1.9,0-2.6,2.4-1.9,4c0.6,1.5,2.5,2.2,4,1.5c1.2-0.5,1.6-3.1,1.1-4.1
	C17.2,411.2,15.9,411,14.6,411z"/>
<path fill="#5A3D1C" d="M7,336.5c-0.1,5.3,0.1,9.5,0.1,14.7c0,7.7-0.1,12.8,0.2,20.5c0,1.5,0.5,4.2,0.9,1.7c0.6-4,1.4-13.6,1.8-17.7
	c0.7-6.6,1.3-13.6,0.9-20.2c-1.1,0-2.8,0-3.8,0.2C7,335.9,6.9,336.2,7,336.5z"/>
<path fill="#9ABD00" d="M9.6,356.2c6.7-17.1,27.3-18.8,42.3-18.4c0.7,10.2-10,16.3-15.9,18.7C31.5,358.3,14,364.2,9.6,356.2
	L9.6,356.2z"/>
<path fill="#88AC00" d="M10.6,355.8c2-1,4.1-1.9,6-3c6.2-3.3,12.6-5.6,19.1-8.2c4.9-1.9,10.2-2.5,14.6-5.4c0.6-0.4,1-0.7,1.5-1.2
	c0.1-0.1,0.1-0.1,0.2-0.3c-15-0.4-35.6,1.4-42.3,18.5l0,0C10,356.1,10.3,355.9,10.6,355.8z"/>
<ellipse fill="#EDE1B3" cx="8.1" cy="488.6" rx="24.5" ry="7.6"/>
<path fill="#AEAE28" d="M21.7,452.7c3.8,3.2,8,9.3,8,20.4c0,1.5-1.2,2.7-2.7,2.7c-1.5,0-2.7-1.2-2.7-2.7c0,0,0-0.4,0-0.9
	c-0.1,0-0.4,0-0.4,0c-0.9,0-1.7-0.8-1.7-1.7c0-0.9,0.8-1.7,1.7-1.7c0,0,0.1,0,0.1,0c-1-7.8-4.1-10.7-6.7-12.6
	c0.3,9.5,0.8,30.7,0.8,30.7c0,0.1,0,0.1,0,0.2c0,0,0,0.1,0,0.1c0,1.5-1.2,2.8-2.8,2.8c-1.5,0-2.7-1.2-2.8-2.7h0v-6.5
	c-0.1-2.7-2.3-4.8-5-4.8c-2.6,0-4.8,2-5,4.5v6.8h0c0,1.5-1.3,2.7-2.8,2.7c-1.5,0-2.8-1.2-2.8-2.8c0,0,0-0.1,0-0.1c0-0.1,0-0.1,0-0.2
	c0,0,0.2-24.6,0.3-30.9c-2.6,1.9-5.9,4.7-7,12.8c0,0,0.1,0,0.1,0c0.9,0,1.7,0.8,1.7,1.7c0,0.9-0.8,1.7-1.7,1.7c0,0-0.2,0-0.4,0
	c0,0.4,0,0.9,0,0.9c0,1.5-1.2,2.7-2.7,2.7c-1.5,0-2.7-1.2-2.7-2.7c0-11.1,4.2-17.1,8-20.4c0,0,5.5-4.7,13.9-4.7
	C6.4,448,15.8,447.9,21.7,452.7z"/>
<g>
	<path fill="#FDD39C" d="M-9.7,468.8C-9.7,468.8-9.7,468.8-9.7,468.8c-0.1-0.2-0.1-0.3,0-0.4l-5.4-0.5c-0.2,1.6-0.4,3.7-0.4,5.3
		c0.1,1.5,1.1,2.7,2.7,2.7c1.7,0,2.7-1.2,2.7-2.7c0,0,0-0.4,0-0.9c0.1,0,0.4,0,0.4,0c0.9,0,1.7-0.8,1.7-1.7
		C-8,469.5-8.7,468.8-9.7,468.8z"/>
	<path fill="#FDD39C" d="M-15.3,473.1c0-1.8,0.1-3.5,0.3-5.1c0.2,0,4.9,0.5,5.1,0.5c0,0-0.1,0.5-0.1,0.5l0.1,0h0.1
		c0.9,0,1.6,0.7,1.6,1.6c0,0.9-0.7,1.6-1.6,1.6h-0.5l0,1c0,1.4-1.2,2.6-2.6,2.6C-14.2,475.6-15.3,474.5-15.3,473.1z"/>
</g>
<g>
	<path fill="#FDD39C" d="M23.8,468.8C23.8,468.8,23.9,468.8,23.8,468.8c0.1-0.2,0.1-0.3,0-0.4l5.4-0.5c0.2,1.6,0.3,3.4,0.3,5.3
		c0,1.5-1.2,2.7-2.7,2.7c-1.5,0-2.7-1.2-2.7-2.7c0,0,0-0.4,0-0.9c-0.1,0-0.4,0-0.4,0c-0.9,0-1.7-0.8-1.7-1.7
		C22.1,469.5,22.9,468.8,23.8,468.8z"/>
</g>
<path fill="#8B9000" d="M-5.8,458.5c1-1.1,2-1.9,2.9-2.6c0,0.9,0,2,0,3.5c5.3,1.4,10.9,1.8,15.9,1.8c1.5,0,3,0,4.4,0
	c-0.1-1.8-0.1-3.5-0.2-5c1.5,1.1,3.1,2.4,4.4,4.8c1.9-0.1,3.8-0.3,5.6-0.5c-1.5-3.6-3.6-6.1-5.6-7.8c-5.9-4.8-15.2-4.7-15.2-4.7
	c-8.4,0-13.9,4.7-13.9,4.7c-1.1,1-2.2,2.1-3.3,3.6C-9.2,457.2-7.5,457.9-5.8,458.5z"/>
<path fill="#FFFFFF" d="M8.3,459.1c0,0.6-0.5,1.1-1.1,1.1c-0.6,0-1.1-0.5-1.1-1.1c0-0.6,0.5-1.1,1.1-1.1
	C7.8,458.1,8.3,458.5,8.3,459.1z"/>
<path fill="#FFFFFF" d="M8.3,464.1c0,0.6-0.5,1.1-1.1,1.1c-0.6,0-1.1-0.5-1.1-1.1c0-0.6,0.5-1.1,1.1-1.1
	C7.8,463.1,8.3,463.6,8.3,464.1z"/>
<ellipse fill="#B3CA00" cx="6.5" cy="411.6" rx="46.3" ry="45.7"/>
<path fill="#A2BB26" d="M15.3,450.8c-8-1.7-13.4-7.3-17.2-13.8c-2.5-4.2-3.9-10.3-5.7-14.9c-1.9-4.9-4.6-8.8-8.2-12.8
	c-3.9-4.3-8.6-7.9-14-10c-1.8-0.7-5.6-1.3-7.8-2c-1.5,4.5-2.3,9.3-2.3,14.2c0,25.2,20.7,45.7,46.3,45.7c7.9,0,15.4-2,22-5.5
	C23.9,452,19.3,451.7,15.3,450.8z"/>
<path fill="#5A3D1C" d="M7.8,435.4c0,0.6-0.5,1.1-1.1,1.1c-0.6,0-1.1-0.5-1.1-1.1c0-0.6,0.5-1.1,1.1-1.1
	C7.3,434.3,7.8,434.8,7.8,435.4z"/>
<path fill="#5A3D1C" d="M-4.7,431.7c0,1.1-0.9,2.1-2.1,2.1c-1.1,0-2.1-0.9-2.1-2.1c0-1.1,0.9-2.1,2.1-2.1
	C-5.6,429.7-4.7,430.6-4.7,431.7z"/>
<path fill="#5A3D1C" d="M18.2,431.7c0,1.1,0.9,2.1,2.1,2.1c1.1,0,2.1-0.9,2.1-2.1c0-1.1-0.9-2.1-2.1-2.1
	C19.1,429.7,18.2,430.6,18.2,431.7z"/>
<g>
	<path fill="#5A3D1C" d="M2.3,441.4c-0.2-0.2-0.1-0.4,0-0.6c0.2-0.2,0.4-0.1,0.6,0c1,1.1,2.4,1.8,4,1.8c1.5,0,2.9-0.6,3.9-1.7
		c0.2-0.2,0.4-0.2,0.6,0c0.2,0.2,0.2,0.4,0,0.6c-1.2,1.3-2.8,2-4.5,2C5.2,443.4,3.5,442.7,2.3,441.4z"/>
</g>
<circle fill="#88AC00" cx="36.8" cy="414.3" r="1.7"/>
<circle fill="#88AC00" cx="42.7" cy="408" r="1.1"/>
<circle fill="#88AC00" cx="34.6" cy="404.7" r="1.1"/>
<path fill="#FFFFFF" d="M26.2,380.5c0.8,0.7,1.1,0.8,2.1,1c2,0.4,2.4-1.5,1.5-3c-0.5-0.8-2.5-2.3-3.4-2.2c-1.2,0.1-2.5,0.7-1.2,3
	L26.2,380.5z"/>
<ellipse fill="#F88662" cx="122.4" cy="395.8" rx="5.2" ry="2.7"/>
</svg>
