<?xml version="1.0" encoding="utf-8"?>
<!-- Generator: Adobe Illustrator 17.1.0, SVG Export Plug-In . SVG Version: 6.00 Build 0)  -->
<!DOCTYPE svg PUBLIC "-//W3C//DTD SVG 1.1//EN" "http://www.w3.org/Graphics/SVG/1.1/DTD/svg11.dtd">
<svg version="1.1" id="Layer_1" xmlns="http://www.w3.org/2000/svg" xmlns:xlink="http://www.w3.org/1999/xlink" x="0px" y="0px"
	 viewBox="0 0 134.9 40" enable-background="new 0 0 134.9 40" xml:space="preserve">
<path fill="#292929" d="M130.2,40H4.7C2.1,40,0,37.9,0,35.3V4.7C0,2.1,2.1,0,4.7,0h125.5c2.6,0,4.7,2.1,4.7,4.7v30.5
	C134.9,37.9,132.8,40,130.2,40L130.2,40z"/>
<path fill="#404040" d="M134,35.3c0,2.1-1.7,3.8-3.8,3.8H4.7c-2.1,0-3.8-1.7-3.8-3.8V4.7c0-2.1,1.7-3.8,3.8-3.8h125.5
	c2.1,0,3.8,1.7,3.8,3.8L134,35.3L134,35.3z"/>
<g>
	<g id="PLAY">
		<defs>
			<path id="SVGID_1_" d="M28.6,17.8L23.8,15c0,0-8.7-5-9.2-5.3c-0.5-0.3-1-0.1-1,0.5c0,1,0,10.7,0,10.7s0,10.5,0,10.9
				c0,0.5,0.4,0.7,0.8,0.4c0.4-0.3,9.4-5.4,9.4-5.4l4.8-2.7c0,0,4-2.3,4.6-2.6c0.5-0.3,0.5-0.7,0-1C32.8,20.2,28.6,17.8,28.6,17.8z"
				/>
		</defs>
		<clipPath id="SVGID_2_">
			<use xlink:href="#SVGID_1_"  overflow="visible"/>
		</clipPath>
		<linearGradient id="SVGID_3_" gradientUnits="userSpaceOnUse" x1="19.5313" y1="9.2305" x2="19.5313" y2="32.6235">
			<stop  offset="0" style="stop-color:#257CB0"/>
			<stop  offset="0.2863" style="stop-color:#4A93B5"/>
			<stop  offset="0.767" style="stop-color:#78BCBB"/>
			<stop  offset="1" style="stop-color:#89CFBD"/>
		</linearGradient>
		<polygon clip-path="url(#SVGID_2_)" fill="url(#SVGID_3_)" points="13.6,9.2 13.6,20.9 13.6,32.6 25.4,20.9 		"/>
		<linearGradient id="SVGID_4_" gradientUnits="userSpaceOnUse" x1="13.6333" y1="15.0363" x2="28.5977" y2="15.0363">
			<stop  offset="0" style="stop-color:#52C1AD"/>
			<stop  offset="1" style="stop-color:#DEE89A"/>
		</linearGradient>
		<polygon clip-path="url(#SVGID_2_)" fill="url(#SVGID_4_)" points="28.6,17.8 23.8,15 13.6,9.1 13.6,9.2 25.4,20.9 		"/>
		<linearGradient id="SVGID_5_" gradientUnits="userSpaceOnUse" x1="21.1154" y1="20.9271" x2="21.1154" y2="32.7084">
			<stop  offset="0" style="stop-color:#EC413D"/>
			<stop  offset="0.1668" style="stop-color:#DA4452"/>
			<stop  offset="0.5748" style="stop-color:#B0487A"/>
			<stop  offset="0.8619" style="stop-color:#954A92"/>
			<stop  offset="1" style="stop-color:#8A4A9D"/>
		</linearGradient>
		<polygon clip-path="url(#SVGID_2_)" fill="url(#SVGID_5_)" points="13.6,32.6 13.6,32.7 23.8,26.8 28.6,24.1 25.4,20.9 		"/>
		<linearGradient id="SVGID_6_" gradientUnits="userSpaceOnUse" x1="29.7342" y1="17.7854" x2="29.7342" y2="24.0685">
			<stop  offset="0" style="stop-color:#F58879"/>
			<stop  offset="0.1194" style="stop-color:#F69079"/>
			<stop  offset="0.7128" style="stop-color:#FCB877"/>
			<stop  offset="1" style="stop-color:#FEC874"/>
		</linearGradient>
		<polygon clip-path="url(#SVGID_2_)" fill="url(#SVGID_6_)" points="28.6,17.8 25.4,20.9 28.6,24.1 34,20.9 		"/>
	</g>
	<g>
		<path fill="#FFFFFF" d="M100.9,27.3c-0.5,0-1-0.1-1.4-0.3c-0.4-0.2-0.8-0.5-1.1-0.9h-0.1c0.1,0.5,0.1,0.9,0.1,1.3v3.3h-1.2V19.1h1
			l0.2,1.1h0.1c0.3-0.4,0.7-0.8,1.1-0.9c0.4-0.2,0.9-0.3,1.4-0.3c1.1,0,1.9,0.4,2.5,1.1c0.6,0.7,0.9,1.7,0.9,3.1
			c0,1.3-0.3,2.3-0.9,3.1C102.8,26.9,102,27.3,100.9,27.3z M100.8,20c-0.8,0-1.4,0.2-1.8,0.7c-0.4,0.5-0.6,1.2-0.6,2.2v0.3
			c0,1.1,0.2,1.9,0.6,2.4c0.4,0.5,1,0.7,1.8,0.7c0.7,0,1.2-0.3,1.6-0.8c0.4-0.6,0.6-1.3,0.6-2.3c0-1-0.2-1.8-0.6-2.3
			C102,20.3,101.5,20,100.8,20z"/>
		<path fill="#FFFFFF" d="M107.1,27.1h-1.2V15.8h1.2V27.1z"/>
		<path fill="#FFFFFF" d="M114,27.1l-0.2-1.1h-0.1c-0.4,0.5-0.8,0.8-1.2,1c-0.4,0.2-0.9,0.3-1.5,0.3c-0.8,0-1.4-0.2-1.9-0.6
			c-0.5-0.4-0.7-1-0.7-1.7c0-1.6,1.3-2.5,3.9-2.5l1.4,0v-0.5c0-0.6-0.1-1.1-0.4-1.4c-0.3-0.3-0.7-0.4-1.3-0.4
			c-0.7,0-1.4,0.2-2.3,0.6l-0.4-0.9c0.4-0.2,0.8-0.4,1.3-0.5c0.5-0.1,0.9-0.2,1.4-0.2c1,0,1.7,0.2,2.1,0.6c0.5,0.4,0.7,1.1,0.7,2
			v5.5H114z M111.3,26.3c0.8,0,1.3-0.2,1.8-0.6c0.4-0.4,0.6-1,0.6-1.7v-0.7l-1.2,0.1c-1,0-1.7,0.2-2.1,0.4c-0.4,0.3-0.6,0.7-0.6,1.2
			c0,0.4,0.1,0.8,0.4,1C110.4,26.2,110.8,26.3,111.3,26.3z"/>
		<path fill="#FFFFFF" d="M115.6,19.1h1.3l1.8,4.6c0.4,1,0.6,1.8,0.7,2.3h0.1c0.1-0.2,0.2-0.7,0.4-1.3c0.2-0.6,0.9-2.4,2-5.5h1.3
			l-3.4,9.1c-0.3,0.9-0.7,1.5-1.2,1.9c-0.5,0.4-1,0.6-1.7,0.6c-0.4,0-0.7,0-1.1-0.1v-1c0.3,0.1,0.6,0.1,0.9,0.1
			c0.8,0,1.4-0.5,1.8-1.4l0.4-1.1L115.6,19.1z"/>
	</g>
	<g>
		<path fill="#FFFFFF" d="M78.5,19.9c0.4,0.3,1.2,1,1.2,2.3c0,1.2-0.7,1.8-1.4,2.4c-0.2,0.2-0.5,0.5-0.5,0.8c0,0.4,0.3,0.6,0.4,0.7
			l0.6,0.5c0.7,0.6,1.4,1.2,1.4,2.3c0,1.6-1.5,3.2-4.4,3.2c-2.4,0-3.6-1.2-3.6-2.4c0-0.6,0.3-1.5,1.3-2c1-0.6,2.4-0.7,3.2-0.8
			c-0.2-0.3-0.5-0.6-0.5-1.1c0-0.3,0.1-0.5,0.2-0.7c-0.2,0-0.4,0-0.5,0c-1.8,0-2.8-1.3-2.8-2.6c0-0.8,0.4-1.6,1.1-2.2
			c1-0.8,2.1-0.9,3-0.9h3.4l-1.1,0.6H78.5z M77.3,27.3c-0.1,0-0.2,0-0.4,0c-0.2,0-1.1,0-1.8,0.3c-0.4,0.1-1.4,0.5-1.4,1.7
			c0,1.2,1.2,2,2.9,2c1.6,0,2.5-0.8,2.5-1.8C79.1,28.7,78.6,28.2,77.3,27.3z M77.8,24.1c0.4-0.4,0.4-0.9,0.4-1.2
			c0-1.2-0.7-3.1-2.1-3.1c-0.4,0-0.9,0.2-1.2,0.6c-0.3,0.4-0.4,0.8-0.4,1.2c0,1.1,0.7,3,2.1,3C77.1,24.6,77.5,24.4,77.8,24.1z"/>
		<path fill="#FFFFFF" d="M68,27.1c-2.7,0-4.1-2.1-4.1-3.9c0-2.2,1.8-4.1,4.3-4.1c2.5,0,4,1.9,4,3.9C72.2,25,70.7,27.1,68,27.1z
			 M70.1,25.7c0.4-0.5,0.5-1.2,0.5-1.9c0-1.5-0.7-4.3-2.8-4.3c-0.6,0-1.1,0.2-1.5,0.6c-0.7,0.6-0.8,1.3-0.8,2c0,1.7,0.8,4.4,2.8,4.4
			C69,26.6,69.7,26.2,70.1,25.7z"/>
		<path fill="#FFFFFF" d="M58.9,27.1c-2.7,0-4.1-2.1-4.1-3.9c0-2.2,1.8-4.1,4.3-4.1c2.5,0,4,1.9,4,3.9C63.2,25,61.6,27.1,58.9,27.1z
			 M61,25.7c0.4-0.5,0.5-1.2,0.5-1.9c0-1.5-0.7-4.3-2.8-4.3c-0.6,0-1.1,0.2-1.5,0.6c-0.7,0.6-0.8,1.3-0.8,2c0,1.7,0.8,4.4,2.8,4.4
			C60,26.6,60.6,26.2,61,25.7z"/>
		<path fill="#FFFFFF" d="M53.6,26.8l-2.4,0.6c-1,0.2-1.8,0.3-2.8,0.3c-4.6,0-6.4-3.4-6.4-6.1c0-3.3,2.5-6.3,6.8-6.3
			c0.9,0,1.8,0.1,2.6,0.4c1.3,0.4,1.8,0.8,2.2,1L52.2,18l-0.6,0.1l0.4-0.7c-0.6-0.6-1.6-1.6-3.6-1.6c-2.7,0-4.7,2-4.7,5
			c0,3.2,2.3,6.1,5.9,6.1c1.1,0,1.6-0.2,2.1-0.4v-2.7L49.3,24l1.3-0.7h3.6l-0.4,0.4c-0.1,0.1-0.1,0.1-0.2,0.3c0,0.2,0,0.6,0,0.8
			V26.8z"/>
		<path fill="#FFFFFF" d="M83.8,26.3c-0.6-0.1-0.7-0.2-0.7-0.8v-0.2V16c0,0,0-0.1,0-0.1c0.1-0.6,0.2-0.7,0.8-1h-2.4l-1.3,0.6h1.3v0
			l0,0v9.8v0.6c0,0.3-0.1,0.4-0.5,0.9h3l0.6-0.4C84.4,26.4,84.1,26.3,83.8,26.3z"/>
		<path fill="#FFFFFF" d="M90.6,26.5c-0.2,0.1-0.4,0.2-0.5,0.3c-0.6,0.2-1.1,0.3-1.6,0.3c-0.5,0-1.4,0-2.2-0.7
			c-1.2-0.8-1.7-2.3-1.7-3.5c0-2.6,2.1-3.9,3.8-3.9c0.6,0,1.2,0.1,1.7,0.5c0.8,0.5,1,1.3,1.2,1.6l-3.9,1.6l-1.3,0.1
			c0.4,2.1,1.9,3.4,3.4,3.4c0.9,0,1.5-0.3,2-0.6L90.6,26.5z M89.1,21.5c0.3-0.1,0.5-0.2,0.5-0.4c0-0.7-0.8-1.4-1.7-1.4
			c-0.7,0-1.9,0.5-1.9,2.3c0,0.3,0,0.6,0.1,0.9L89.1,21.5z"/>
		<g>
			<path fill="#FFFFFF" d="M92.2,19.2v1.1h-0.1v-1.1h-0.4v-0.1h0.9v0.1H92.2z"/>
			<path fill="#FFFFFF" d="M93.7,20.3v-1.1h0l-0.3,1.1h-0.1L93,19.2h0v1.1h-0.1v-1.2H93l0.3,1h0l0.3-1h0.2v1.2H93.7z"/>
		</g>
	</g>
	<g>
		<path fill="#FFFFFF" d="M45.7,11.7L45.4,11h-1.8l-0.3,0.7h-1l1.6-4.2h1.1l1.6,4.2H45.7z M44.5,8.4l-0.7,1.8h1.3L44.5,8.4z"/>
		<path fill="#FFFFFF" d="M50,11.7l-2-2.8v2.8h-0.9V7.5H48l2,2.7V7.5h0.9v4.2H50z"/>
		<path fill="#FFFFFF" d="M51.7,11.7V7.5h1.7c1.3,0,2.3,0.8,2.3,2.1c0,1.3-0.9,2.1-2.3,2.1H51.7z M54.7,9.6c0-0.8-0.5-1.3-1.3-1.3
			h-0.8v2.7h0.8C54.3,10.9,54.7,10.3,54.7,9.6z"/>
		<path fill="#FFFFFF" d="M58.7,11.7l-0.8-1.5h-0.7v1.5h-0.9V7.5h2c0.9,0,1.4,0.6,1.4,1.4c0,0.8-0.5,1.2-0.9,1.3l1,1.6H58.7z
			 M58.8,8.8c0-0.4-0.3-0.6-0.6-0.6h-0.9v1.1h0.9C58.5,9.4,58.8,9.2,58.8,8.8z"/>
		<path fill="#FFFFFF" d="M60.2,9.6c0-1.3,0.9-2.2,2.2-2.2c1.3,0,2.2,0.9,2.2,2.2c0,1.3-0.9,2.2-2.2,2.2
			C61.1,11.8,60.2,10.9,60.2,9.6z M63.7,9.6c0-0.8-0.5-1.4-1.3-1.4s-1.3,0.6-1.3,1.4c0,0.8,0.5,1.4,1.3,1.4S63.7,10.4,63.7,9.6z"/>
		<path fill="#FFFFFF" d="M65.2,11.7V7.5h0.9v4.2H65.2z"/>
		<path fill="#FFFFFF" d="M67,11.7V7.5h1.7c1.3,0,2.3,0.8,2.3,2.1c0,1.3-0.9,2.1-2.3,2.1H67z M70,9.6c0-0.8-0.5-1.3-1.3-1.3h-0.8
			v2.7h0.8C69.5,10.9,70,10.3,70,9.6z"/>
		<path fill="#FFFFFF" d="M76.1,11.7L75.8,11H74l-0.3,0.7h-1l1.6-4.2h1.1l1.6,4.2H76.1z M74.9,8.4l-0.7,1.8h1.3L74.9,8.4z"/>
		<path fill="#FFFFFF" d="M77.5,11.7V7.5h2c0.9,0,1.4,0.6,1.4,1.4c0,0.7-0.5,1.4-1.4,1.4h-1.1v1.5H77.5z M80,8.8
			c0-0.4-0.3-0.6-0.6-0.6h-1v1.1h1C79.7,9.4,80,9.2,80,8.8z"/>
		<path fill="#FFFFFF" d="M81.5,11.7V7.5h2c0.9,0,1.4,0.6,1.4,1.4c0,0.7-0.5,1.4-1.4,1.4h-1.1v1.5H81.5z M84,8.8
			c0-0.4-0.3-0.6-0.6-0.6h-1v1.1h1C83.7,9.4,84,9.2,84,8.8z"/>
		<path fill="#FFFFFF" d="M86.9,9.6c0-1.3,0.9-2.2,2.2-2.2c1.3,0,2.2,0.9,2.2,2.2c0,1.3-0.9,2.2-2.2,2.2
			C87.8,11.8,86.9,10.9,86.9,9.6z M90.4,9.6c0-0.8-0.5-1.4-1.3-1.4s-1.3,0.6-1.3,1.4c0,0.8,0.5,1.4,1.3,1.4S90.4,10.4,90.4,9.6z"/>
		<path fill="#FFFFFF" d="M94.9,11.7l-2-2.8v2.8h-0.9V7.5h0.9l2,2.7V7.5h0.9v4.2H94.9z"/>
	</g>
</g>
</svg>
