<?xml version="1.0" encoding="utf-8"?>
<!-- Generator: Adobe Illustrator 18.1.1, SVG Export Plug-In . SVG Version: 6.00 Build 0)  -->
<!DOCTYPE svg PUBLIC "-//W3C//DTD SVG 1.1//EN" "http://www.w3.org/Graphics/SVG/1.1/DTD/svg11.dtd">
<svg version="1.1" id="Layer_1" xmlns="http://www.w3.org/2000/svg" xmlns:xlink="http://www.w3.org/1999/xlink" x="0px" y="0px"
	 viewBox="0 0 385.1 341.2" enable-background="new 0 0 385.1 341.2" xml:space="preserve">
<path d="M371.3,12.6c4.2,10.5,0.5,30.9,0.5,30.9c-1.3,37.1-15,62.4-28,83.3c-34.5,53.5-74.4,62.6-74.4,62.6l12.4-37.7
	c41-19.2,38.1-86.2,39.2-97.2c-6.3-0.3-32.6-22.5-10.2-29.7c-2-8.8-2.5-16.3,2.9-20.3c3.8-2.4,9.2-1.1,12.9,0.2
	c5.5-2.4,9.1-4.3,20.4-4.5C360.7,1,367.8,3.8,371.3,12.6z"/>
<g>
	<path fill="#EE5F7C" d="M311,23.8l0.3,0.9c0.1,0,11.7-3.8,18.6-1.9c2.2,0.6,3.8,1.8,4.7,3.4c0.9,1.7,0.8,3.9-0.2,6.4
		c-0.1,0.2-1.9,4.7-9.3,4.9l0,1c8.1-0.2,10.1-5.3,10.2-5.5c1.1-2.8,1.1-5.2,0.1-7.2c-0.9-1.9-2.8-3.3-5.3-3.9
		C323,20,311.5,23.7,311,23.8z"/>
</g>
<path fill="#F7ABB6" d="M329.7,25.2l1.1,7.7c0,0-4.8,1.4-4.9-3.9C325.9,29,325.3,25.2,329.7,25.2z"/>
<g>
	<path fill="#EE5F7C" d="M318.9,23l1-0.2C317.3,11,326,5.5,326.4,5.3l-0.5-0.8C325.8,4.5,316.2,10.6,318.9,23z"/>
</g>
<g>
	<path fill="#EE5F7C" d="M350.5,8.2c-3.1,5.8-3.1,13.8,0.2,23.9c1.6,5.1,6.2,5.1,6.2,5.1c2,0.1,3.7-0.5,4.8-1.9
		c3.9-4.6,1.1-16.1,1-16.6l-0.9,0.2c0,0.1,2.8,11.5-0.8,15.7c-1,1.2-2.3,1.7-4.1,1.5c-0.2,0-3.9-0.1-5.3-4.5
		c-3.2-9.8-3.2-17.6-0.3-23.1c2.7-5,7.1-6.3,7.2-6.3l-0.3-0.9C358,1.5,353.4,2.8,350.5,8.2z"/>
</g>
<g>
	<path fill="#EE5F7C" d="M336.5,5.9c-3.3,5.7-3.4,13.9-0.5,24.5c1.4,5,5.6,7.5,5.8,7.6c6,3.5,9.6-2.2,9.6-2.3l-0.8-0.5
		c-0.1,0.2-3.2,5-8.3,2c0,0-4-2.4-5.3-7c-2.9-10.3-2.8-18.2,0.3-23.7c2.6-4.5,6.4-5.5,6.5-5.5L343.6,0C343.4,0,339.4,1.1,336.5,5.9z
		"/>
</g>
<ellipse fill="#7A5B51" cx="195" cy="319.4" rx="90.6" ry="21.8"/>
<path d="M12.7,14c-4.2,10.5-0.5,30.9-0.5,30.9c1.3,37.1,15,62.4,28,83.3c34.5,53.5,74.4,62.6,74.4,62.6l-12.4-37.7
	c-41-19.2-38.1-86.2-39.1-97.2c6.3-0.3,32.6-22.5,10.2-29.7c2-8.8,2.5-16.3-2.9-20.3c-3.8-2.4-9.2-1.1-12.9,0.2
	c-5.5-2.4-9.1-4.3-20.4-4.5C23.3,2.5,16.1,5.3,12.7,14z"/>
<ellipse fill="#11B5AC" cx="146.2" cy="311.2" rx="1.2" ry="1"/>
<ellipse fill="#11B5AC" cx="151.1" cy="317.3" rx="1.6" ry="1.3"/>
<path fill="#EE5F7C" d="M137.8,116.7c0,0,14.8-5.3,26.4,1.1L160,123C160,123,142.9,119,137.8,116.7z"/>
<path fill="#F05E7A" d="M177.9,100.5c0,0-4.1-4.2-5.8-0.4C172.1,100.1,174.5,102.5,177.9,100.5z"/>
<path fill="#EE5F7C" d="M204,278.2C204,278.2,204,278.2,204,278.2c6.5,2.4,8.4,5,9.5,9.2c2.9,12.1-5.1,17.3-5.1,17.3
	c-1,0.8-2.6,1.9-3.4,2.6c-3.9,3.3-4.4,4.8-4.3,7.4c0.5,6.5,10.2,0.8,10.2,0.8c0,0,0.1,0,0.1,0c1.9,5.3,3.9,8.8,5.8,11.1
	c5.4,6.5,9.4,3.7,9.4,3.7c1.2-1.3,0.9-3.2,0-5.2c4.4,3.4,7.1,0.6,7.1,0.6c1.6-1.5,1.1-3.2-0.1-4.7c4.2,1.7,6.3-1.2,6.3-1.2
	c1.7-2.2,0.4-4-1.6-5.3c0,0,0,0,0.1-0.1c5.1,1.3,6.1-1.1,6.1-1.1c0.8-2.2-0.5-4.4-3-4.7c-2.1-0.2-3.9-0.5-4.6-0.5
	c-9.4-1.7-6.5-5.8-6.5-5.8c4.8-8.4,7.7-13.7,8.7-17.9c5.2-21.5-9.1-37.2-9.8-38.1c4.6-18,31.3-34.7,38.6-50.4
	c15.9-0.9,35.9-3.8,54.6-11.8c26.9-11.5,54.5-40.9,52.6-104.6l0.1,0c0.7-8.1,0.9-9,2.2-13.4c1.9-6.7,5.4-13.5,8.1-18
	c0,0-10.1,3.8-11.5,8.1c0,0,2.6-13.6,2.6-18l-11.7,16.3c0,0-5-10.3-9.3-14.8l-4.5,15.1c0,0-2.6-7.4-8.9-12.9l-4.5,13.9
	c0,0-13.2-17-15.6-18l-2.4,17c0,0-12.4-6.9-18.7-9.1c0,0,6.3,7.8,9.6,19.1c1.1,3.8,1.7,11.5,1.9,15.3l0.1,0
	c-0.3,10.3-2.2,22.1-7.8,30.8c-2.9,5.2-12.7,15.1-24.2,17.7c-7.4-3.3-23.1-9.6-39.7-10.7c1.6-0.5,3-1,4-1.4c0,0-8.9-3.1-18.3-1.6
	c1.8-1.6,3.4-3.2,4.4-4.3c0,0-10.4-0.4-20.4,5.7c-1.1-4.5-1.5-9.2-4.3-13.7c5.5,1.7,5-3.5,5-3.5c-0.9-6.9-6.9-1-7.8-0.1
	c-0.3-0.3-0.6-0.6-0.9-0.8c-2.2-2-5.7-2.8-9.3-3c-0.8-6.5-4.2-8.8-4.2-8.8c1.9,3.4,2.6,8,2.6,8c-1.6-4.9-4.4-5.1-4.4-5.1
	c2,1.2,2.9,3.9,3.4,5.9c-3.5,0.2-6.8,1.2-8.6,2.5c-0.6,0.4-1.1,0.9-1.6,1.3c-1.5-1.5-8-7.4-9,0.3c0,0-0.6,5.7,5.2,4.2
	c-2,3.5-2.8,7.6-3.7,13c-10.1-6.4-20.8-6-20.8-6c1.7,2,5.6,5.4,9,8.3c-21.6-4.4-46.2,5.1-56.3,9.6c-11.3-2.8-20.8-12.5-23.6-17.6
	c-5.6-8.8-7.5-20.6-7.8-30.8l0.1,0c0.2-3.8,0.8-11.5,1.9-15.3c3.3-11.3,9.6-19.1,9.6-19.1c-6.2,2.2-18.7,9.1-18.7,9.1l-2.4-17
	c-2.4,1-15.6,18-15.6,18L43.3,42c-6.2,5.5-8.9,12.9-8.9,12.9l-4.5-15.1c-4.3,4.5-9.3,14.8-9.3,14.8L8.9,38.4c0,4.3,2.6,18,2.6,18
	C10.1,52.1,0,48.2,0,48.2c2.8,4.4,6.3,11.2,8.1,18c1.2,4.4,1.4,5.3,2.2,13.4l0.1,0C8.4,143.3,36,172.7,62.9,184.2
	c19.3,8.3,40.1,11.1,56.2,11.9c7.5,16.6,34.8,30,39.4,48.6c-0.2,0.2-14.6,23.9-4.7,44.2c2.9,5.9,3.4,6.2,5.7,13.4c0,0,1.5,4.3-7.9,6
	c-1.5,0.1-2.4,0-4.6,0.5c-2.5,0.7-3.9,2.5-3,4.7c0,0,1,2.4,6.1,1.1c0,0,0,0,0.1,0.1c-1.9,1.3-3.2,3.1-1.6,5.3c0,0,2.1,2.9,6.3,1.2
	c-1.2,1.5-1.7,3.2-0.1,4.7c0,0,2.7,2.7,7.1-0.6c-0.9,2-1.1,4,0,5.2c0,0,4.1,2.8,9.4-3.7c1.9-2.3,3.9-5.8,5.8-11.1c0,0,0.1,0,0.1,0
	c0,0,9.7,5.7,10.2-0.8c0.1-2.7-1.1-4.4-5.4-8c-0.7-0.5-1.6-1.3-2.2-2.1c0,0-5.5-6.8-2.9-17.2c0.8-4.2,4-7.3,8.4-8.9
	C191.1,276.6,199.9,276.5,204,278.2z M128.5,152.2l19.3-3.4c-4.8,5.4-9.6,10.9-13.9,15.8L128.5,152.2z M250.9,165.1
	c-4.6-5-9.8-10.7-15-16.4l20.5,3.7L250.9,165.1z"/>
<path fill="#F05E7A" d="M204.8,100.1c0,0,3.5-3.6,4.9-0.3C209.7,99.8,207.8,101.8,204.8,100.1z"/>
<path d="M197.3,114c6.5-7.1,6-12.1,6-12.1c-4.7-2.4-11.2-0.2-11.9,0.1c-0.7-0.4-7.2-2.5-11.9-0.1c0,0-0.5,4.9,6,12.1
	c0,0-0.3,12.1-1.3,16.8c0,0,2.4,1,7.1,1v0c0,0,0.1,0,0.1,0c0,0,0.1,0,0.1,0v0c4.7,0,7.1-1,7.1-1C197.6,126.1,197.3,114,197.3,114z"
	/>
<g>
	<path fill="#EE5F7C" d="M189.5,110.1l0.3,0.1c0.2-0.5,0.9-1.9,1.7-1.9c0.5,0,1.1,0.6,1.6,1.9l0.3-0.1c-0.5-1.4-1.2-2.1-1.9-2.1
		C190.4,108,189.5,110,189.5,110.1z"/>
</g>
<g>
	<path fill="#EE5F7C" d="M185.6,128.4l0.2-0.3c0,0,5,3.6,11.3,0.2l0.1,0.3C190.7,132.2,185.6,128.4,185.6,128.4z"/>
</g>
<ellipse fill="#EE5F7C" cx="190.8" cy="109.7" rx="0.3" ry="0.5"/>
<ellipse fill="#EE5F7C" cx="192" cy="109.7" rx="0.3" ry="0.5"/>
<ellipse fill="#F6AAB5" cx="186.1" cy="105.2" rx="2.4" ry="2.7"/>
<ellipse fill="#F6AAB5" cx="197.2" cy="105.2" rx="2.4" ry="2.7"/>
<g>
	<path fill="#EE5F7C" d="M53.9,23.4c-2.5,0.7-4.3,2.1-5.3,3.9c-1,2-1,4.4,0.1,7.2c0.1,0.2,2.1,5.3,10.2,5.5l0-1
		c-7.4-0.2-9.2-4.7-9.3-4.9c-1-2.5-1.1-4.7-0.2-6.4c0.8-1.6,2.5-2.8,4.7-3.4c6.8-1.8,18.5,1.9,18.6,1.9l0.3-0.9
		C72.5,25.2,61,21.4,53.9,23.4z"/>
</g>
<path fill="#F7ABB6" d="M54.2,26.7l-1.1,7.7c0,0,4.8,1.4,4.9-3.9C58.1,30.5,58.6,26.7,54.2,26.7z"/>
<g>
	<path fill="#EE5F7C" d="M57.6,6.7c0.4,0.2,9.1,5.8,6.5,17.5l1,0.2C67.8,12,58.2,6,58.1,5.9L57.6,6.7z"/>
</g>
<g>
	<path fill="#EE5F7C" d="M25.5,3.9c0,0,4.4,1.3,7.2,6.3c3,5.5,2.9,13.3-0.3,23.1c-1.4,4.4-5.2,4.5-5.3,4.5c-1.8,0.1-3.1-0.4-4.1-1.5
		c-3.6-4.3-0.8-15.6-0.8-15.7l-0.9-0.2c-0.1,0.5-2.9,12,1,16.6c1.2,1.4,2.8,2,4.9,1.9c0,0,4.6-0.1,6.2-5.1
		c3.2-10.1,3.3-18.1,0.2-23.9c-2.9-5.4-7.6-6.7-7.7-6.8L25.5,3.9z"/>
</g>
<g>
	<path fill="#EE5F7C" d="M40.1,2.4c0,0,3.9,1,6.5,5.5c3.1,5.4,3.3,13.4,0.3,23.7c-1.3,4.6-5.3,7-5.3,7c-5.1,3-8.2-1.7-8.3-1.9
		l-0.8,0.5c0,0.1,3.7,5.8,9.6,2.3c0.2-0.1,4.3-2.6,5.8-7.6c3-10.6,2.8-18.8-0.5-24.4c-2.8-4.8-6.9-5.9-7.1-5.9L40.1,2.4z"/>
</g>
<g>
	<path fill="#EE5F7C" d="M44.8,38.9c0,0,1.3,3.9,6.6,3.6c1.9-0.1,3.4-0.6,5-2.7l-0.8-0.6c-1.3,1.8-2.5,2.2-4.2,2.3
		c-4.6,0.3-5.6-2.8-5.7-2.9L44.8,38.9z"/>
</g>
<ellipse fill="#F7ABB6" cx="27.9" cy="32.6" rx="2.5" ry="2.3"/>
<ellipse fill="#F7ABB6" cx="39.6" cy="35.2" rx="2.2" ry="2.2"/>
<ellipse fill="#F7ABB6" cx="344.7" cy="34.7" rx="2.5" ry="2.4"/>
<ellipse fill="#F7ABB6" cx="357.2" cy="31.9" rx="3" ry="2.4"/>
<path fill="#010101" d="M152.6,177.1c0,1.2-0.8,2.2-1.7,2.2c-0.9,0-1.7-1-1.7-2.2c0-1.2,0.8-2.2,1.7-2.2
	C151.8,174.9,152.6,175.9,152.6,177.1z"/>
<path d="M263.4,150.9c-17.7-26.4-64.8-10.4-70-8.5c-5.2-1.9-52.4-17.9-70,8.5c0,0-17.7,26,14.4,52c0,0,18.5,14.7,54.7,14.7v0
	c0.3,0,0.6,0,1,0c0.3,0,0.6,0,1,0v0c33.3,0,54.7-14.7,54.7-14.7C281.2,176.9,263.4,150.9,263.4,150.9z"/>
<path fill="#EE5F7C" d="M144.2,171.1c0,1.6-0.9,2.9-2.1,2.9c-1.2,0-2.1-1.3-2.1-2.9c0-1.6,0.9-2.9,2.1-2.9
	C143.2,168.2,144.2,169.5,144.2,171.1z"/>
<path fill="#EE5F7C" d="M247.6,170.8c0,1.6-0.9,2.9-2.1,2.9c-1.2,0-2.1-1.3-2.1-2.9c0-1.6,0.9-2.9,2.1-2.9
	C246.7,167.8,247.6,169.1,247.6,170.8z"/>
<path fill="#F05E7A" d="M177.5,100.5c0,0-3.5-3.6-5-0.4C172.5,100.1,174.6,102.1,177.5,100.5z"/>
</svg>
