<?xml version="1.0" encoding="utf-8"?>
<!-- Generator: Adobe Illustrator 16.2.1, SVG Export Plug-In . SVG Version: 6.00 Build 0)  -->
<!DOCTYPE svg PUBLIC "-//W3C//DTD SVG 1.1//EN" "http://www.w3.org/Graphics/SVG/1.1/DTD/svg11.dtd">
<svg version="1.1" id="Layer_1" xmlns="http://www.w3.org/2000/svg" xmlns:xlink="http://www.w3.org/1999/xlink" x="0px" y="0px"
	 width="312.94px" height="200.699px" viewBox="0 0 312.94 200.699" style="enable-background:new 0 0 312.94 200.699;"
	 xml:space="preserve">
<g>
	<ellipse style="fill:#EDE1B3;" cx="270.132" cy="140.5" rx="23.799" ry="7.4"/>
	<path style="fill:#F89821;" d="M283.331,105.6c3.7,3.199,7.7,9.1,7.7,19.801c0,1.5-1.2,2.6-2.601,2.6c-1.399,0-2.6-1.201-2.6-2.6
		c0,0,0-0.4,0-0.9c-0.1,0-0.3,0-0.3,0c-0.899,0-1.7-0.701-1.7-1.701c0-0.898,0.7-1.699,1.7-1.699h0.101c-1-7.6-4-10.4-6.5-12.199
		c0.299,9.199,0.699,29.799,0.699,29.799c0,0.1,0,0.1,0,0.201v0.1c0,1.5-1.199,2.699-2.699,2.699s-2.701-1.199-2.701-2.6l0,0v-6.301
		c-0.1-2.6-2.199-4.699-4.899-4.699c-2.5,0-4.601,1.9-4.899,4.4v6.6l0,0c0,1.5-1.201,2.6-2.701,2.6s-2.699-1.199-2.699-2.699v-0.1
		c0-0.102,0-0.102,0-0.201c0,0,0.199-23.9,0.3-30c-2.601,1.801-5.8,4.5-6.8,12.5h0.1c0.9,0,1.7,0.701,1.7,1.701
		c0,0.898-0.7,1.699-1.7,1.699c0,0-0.199,0-0.3,0c0,0.4,0,0.9,0,0.9c0,1.5-1.2,2.6-2.601,2.6c-1.399,0-2.6-1.199-2.6-2.6
		c0-10.701,4.1-16.701,7.7-19.801c0,0,5.399-4.6,13.5-4.6C268.531,101,277.632,100.9,283.331,105.6z"/>
	<path style="fill:#F57E20;" d="M256.632,111.299c1-1.1,1.899-1.799,2.899-2.5c0,0.801,0,2,0,3.4
		c5.101,1.301,10.601,1.701,15.399,1.701c1.4,0,2.9,0,4.301,0c-0.1-1.801-0.1-3.4-0.2-4.801c1.399,1,3,2.4,4.2,4.699
		c1.8-0.1,3.699-0.299,5.5-0.5c-1.5-3.5-3.5-5.898-5.5-7.6c-5.7-4.699-14.801-4.6-14.801-4.6c-8.199,0-13.5,4.6-13.5,4.6
		c-1.1,0.9-2.199,2.1-3.199,3.5C253.331,110,254.931,110.699,256.632,111.299z"/>
	<path style="fill:#F89821;" d="M268.931,33.9c-18.199,0-40.6,7.7-42.6,33.3c-2.1,26.2,18.801,41.3,43.1,41.3
		c27.201,0,45.7-15.5,43.301-41.3C310.231,41.6,287.132,33.9,268.931,33.9z"/>
	<path style="fill:#F57E20;" d="M262.231,80c-2.2-10.9-5.9-16.4-11.4-23.5c-3.3-4.3-8.8-8.7-15-11.2c-5.3,5.1-8.9,12.201-9.699,21.9
		c-2.101,26.2,18.799,41.3,43.1,41.3c1.699,0,3.4-0.1,5-0.201C268.031,102.199,264.031,88.5,262.231,80z"/>
	<path style="fill:#FCC9A1;" d="M294.031,75.9c3.2,2.8,5.101,6.2,5.101,9.899c0,9.701-8.701,17.601-29.5,17.601
		c-19.701,0-29-7.9-29-17.601c0-3.6,1.799-7,5-9.799c5.299-4.701,14.199-2.201,24.299-2.201
		C279.831,73.799,288.731,71.299,294.031,75.9z"/>
	<path style="fill:#FBBD91;" d="M260.632,73.4c-6.4-0.399-11.4-0.7-15.101,2.601c-3.2,2.799-5,6.199-5,9.799
		c0,9.701,9.399,17.601,29,17.601c0.399,0,0.7,0,1.101,0C263.632,95.799,265.831,80.4,260.632,73.4z"/>
	<path style="fill:#F58663;" d="M270.632,88.799c0,0.601-0.5,1-1,1c-0.601,0-1-0.5-1-1c0-0.6,0.5-1,1-1
		C270.231,87.7,270.632,88.2,270.632,88.799z"/>
	<path style="fill:#FDF9D2;" d="M270.331,111.799c0,0.602-0.5,1-1,1c-0.6,0-1-0.5-1-1c0-0.6,0.5-1,1-1
		S270.331,111.299,270.331,111.799z"/>
	<path style="fill:#FDF9D2;" d="M270.331,116.699c0,0.6-0.5,1-1,1c-0.6,0-1-0.5-1-1c0-0.6,0.5-1,1-1
		S270.331,116.199,270.331,116.699z"/>
	<circle style="fill:#A3514A;" cx="256.531" cy="85.2" r="2"/>
	<circle style="fill:#A3514A;" cx="282.831" cy="85.2" r="2"/>
	<polygon style="fill:#88AD3E;" points="258.231,38.3 260.031,40.6 263.231,38.8 262.031,41.6 265.831,41.8 262.431,43.4 
		264.531,45.6 260.831,45.1 260.132,48 258.331,45.6 255.132,47.4 256.231,44.6 252.431,44.4 255.931,42.8 253.831,40.6 
		257.431,41.1 	"/>
	<circle style="fill:#FDC23B;" cx="282.931" cy="54.3" r="1"/>
	<circle style="fill:#FDC23B;" cx="287.231" cy="52.9" r="1"/>
	<circle style="fill:#FDC23B;" cx="291.531" cy="51.5" r="1"/>
	<circle style="fill:#FDC23B;" cx="295.831" cy="50.2" r="1"/>
	<circle style="fill:#FDC23B;" cx="300.132" cy="48.8" r="1"/>
	<circle style="fill:#FDC23B;" cx="286.331" cy="57" r="1"/>
	<circle style="fill:#FDC23B;" cx="290.632" cy="55.6" r="1"/>
	<circle style="fill:#FDC23B;" cx="294.931" cy="54.2" r="1"/>
	<circle style="fill:#FDC23B;" cx="289.531" cy="60" r="1"/>
	<circle style="fill:#FDC23B;" cx="293.831" cy="58.6" r="1"/>
	<circle style="fill:#FDC23B;" cx="289.231" cy="44.3" r="1"/>
	<circle style="fill:#FDC23B;" cx="298.132" cy="57.2" r="1"/>
	<circle style="fill:#FDC23B;" cx="299.231" cy="52.8" r="1"/>
	<circle style="fill:#FDC23B;" cx="284.031" cy="50" r="1"/>
	<circle style="fill:#FDC23B;" cx="288.331" cy="48.6" r="1"/>
	<circle style="fill:#FDC23B;" cx="292.632" cy="47.2" r="1"/>
	<circle style="fill:#FDC23B;" cx="296.931" cy="45.8" r="1"/>
	<circle style="fill:#F89821;" cx="232.531" cy="65.7" r="1"/>
	<circle style="fill:#F89821;" cx="236.831" cy="64.299" r="1"/>
	<circle style="fill:#F89821;" cx="241.132" cy="63" r="1"/>
	<circle style="fill:#F89821;" cx="245.431" cy="61.6" r="1"/>
	<circle style="fill:#F89821;" cx="249.731" cy="60.2" r="1"/>
	<circle style="fill:#F89821;" cx="235.831" cy="68.4" r="1"/>
	<circle style="fill:#F89821;" cx="240.132" cy="67" r="1"/>
	<circle style="fill:#F89821;" cx="244.431" cy="65.6" r="1"/>
	<circle style="fill:#F89821;" cx="239.031" cy="71.4" r="1"/>
	<circle style="fill:#F89821;" cx="243.331" cy="70" r="1"/>
	<circle style="fill:#F89821;" cx="238.731" cy="55.7" r="1"/>
	<circle style="fill:#F89821;" cx="247.632" cy="68.6" r="1"/>
	<circle style="fill:#F89821;" cx="248.731" cy="64.299" r="1"/>
	<circle style="fill:#F89821;" cx="233.632" cy="61.4" r="1"/>
	<circle style="fill:#F89821;" cx="237.931" cy="60" r="1"/>
	<circle style="fill:#F89821;" cx="242.231" cy="58.6" r="1"/>
	<circle style="fill:#F89821;" cx="246.531" cy="57.2" r="1"/>
	<ellipse style="fill:#F58663;" cx="269.831" cy="96.8" rx="7" ry="3.6"/>
</g>
<g>
	<ellipse style="fill:#EDE1B3;" cx="46.331" cy="146.6" rx="19.2" ry="6"/>
	<path style="fill:#BAB537;" d="M57.031,118.4c3,2.5,6.2,7.299,6.2,16c0,1.199-1,2.1-2.1,2.1c-1.2,0-2.1-0.9-2.1-2.1
		c0,0,0-0.301,0-0.701c-0.1,0-0.3,0-0.3,0c-0.7,0-1.3-0.6-1.3-1.299c0-0.701,0.6-1.301,1.3-1.301h0.1c-0.8-6.1-3.2-8.4-5.2-9.9
		c0.3,7.5,0.6,24.1,0.6,24.1c0,0.102,0,0.102,0,0.201v0.1c0,1.199-1,2.199-2.2,2.199s-2.1-1-2.2-2.1l0,0v-5.1
		c-0.1-2.1-1.8-3.801-3.9-3.801c-2,0-3.7,1.602-3.9,3.602v5.398l0,0c0,1.201-1,2.102-2.2,2.102c-1.2,0-2.2-1-2.2-2.201v-0.1
		c0-0.1,0-0.1,0-0.199c0,0,0.2-19.301,0.2-24.201c-2.1,1.5-4.6,3.701-5.5,10.1h0.1c0.7,0,1.3,0.602,1.3,1.301s-0.6,1.301-1.3,1.301
		c0,0-0.2,0-0.3,0c0,0.299,0,0.699,0,0.699c0,1.199-1,2.1-2.1,2.1c-1.2,0-2.1-0.9-2.1-2.1c0-8.699,3.3-13.4,6.3-16
		c0,0,4.3-3.699,10.9-3.699C45.031,114.699,52.331,114.699,57.031,118.4z"/>
	<path style="fill:#FFFFFF;" d="M46.531,123.5c0,0.5-0.4,0.799-0.8,0.799c-0.4,0-0.8-0.398-0.8-0.799c0-0.5,0.4-0.801,0.8-0.801
		C46.131,122.699,46.531,123,46.531,123.5z"/>
	<circle style="fill:#FFFFFF;" cx="45.631" cy="127.399" r="0.8"/>
	<path style="fill:#FFFFFF;" d="M52.931,46.9c0.6,0.5,0.9,0.6,1.7,0.8c1.5,0.3,1.9-1.2,1.2-2.3c-0.4-0.6-2-1.8-2.7-1.8
		c-0.9,0.1-2,0.5-0.9,2.4L52.931,46.9z"/>
	<path style="fill:#F2644A;" d="M44.431,37.4c0,0-45.8-14-44.4,29.399c0,0,2.4,52.5,45.1,52.5v0.102c0.4,0,0.7,0,1.1,0
		c0.4,0,0.7,0,1.1,0c0,0,0,0,0-0.102c42.3-2.199,43.3-52.5,43.3-52.5C92.031,23.4,44.431,37.4,44.431,37.4z"/>
	<path style="fill:#5B3F1E;" d="M42.831,1.3c-0.1,6,0.1,10.9,0.1,16.9c0,8.8-0.1,14.7,0.2,23.5c0,1.7,0.6,4.9,1,2
		c0.7-4.6,1.6-15.7,2-20.3c0.8-7.6,1.5-15.6,1-23.2c-1.2-0.1-3.2,0-4.3,0.2C42.831,0.7,42.731,1,42.831,1.3z"/>
	<path style="fill:#99BE3D;" d="M46.331,18.9c5.7-14.5,23.1-15.9,35.8-15.6c0.6,8.6-8.5,13.8-13.4,15.8
		C64.831,20.6,50.031,25.6,46.331,18.9L46.331,18.9z"/>
	<path style="fill:#8AAF3F;" d="M47.131,18.5c1.7-0.9,3.4-1.6,5.1-2.5c5.2-2.8,10.7-4.8,16.2-6.9c4.1-1.6,8.6-2.1,12.3-4.6
		c0.5-0.3,0.9-0.6,1.3-1c0.1-0.1,0.1-0.1,0.1-0.2c-12.7-0.3-30.1,1.1-35.8,15.6l0,0C46.631,18.7,46.931,18.6,47.131,18.5z"/>
	<path style="fill:#FFFFFF;" d="M69.031,44.9c0.6,0.5,0.9,0.6,1.7,0.8c1.5,0.3,1.9-1.2,1.2-2.3c-0.4-0.6-2-1.8-2.7-1.8
		c-1,0.1-2,0.5-0.9,2.4L69.031,44.9z"/>
	<path style="fill:#F05032;" d="M37.931,88.9c-1.4-8.2-6.9-22.3-6.9-22.3c-9.9-24.1-23.4-19.9-29-15.1c-1.4,4-2.1,9-1.9,15
		c0,0,2.4,52.5,45.1,52.5v0.1c0.4,0,0.7,0,1.1,0c0.4,0,0.7,0,1.1,0c0,0,0,0,0-0.1c2.3-0.1,4.4,0.1,3.1-1.801
		C40.031,107.4,37.931,88.9,37.931,88.9z"/>
	<path style="fill:#FCC9A1;" d="M64.731,91c2.6,2.299,4.1,5,4.1,8c0,7.798-7,14.199-23.8,14.199c-15.9,0-23.4-6.4-23.4-14.199
		c0-2.9,1.5-5.701,4-7.9c4.2-3.801,11.4-1.801,19.6-1.801C53.331,89.299,60.531,87.299,64.731,91z"/>
	<path style="fill:#FBB88C;" d="M43.231,107.199c-1.8-4.699-3.5-9.9-4.6-14.799c-0.2-1.101-0.3-2.3-0.4-3.5
		c-5.2-0.3-9.6-0.5-12.6,2.101c-2.5,2.299-4,5-4,7.899c0,7.799,7.6,14.2,23.4,14.2c0.3,0,0.6,0,0.9,0
		C44.931,111.199,44.031,109.199,43.231,107.199z"/>
	<path style="fill:#A3514A;" d="M36.131,98.5c0,0.899-0.7,1.6-1.6,1.6s-1.6-0.7-1.6-1.6c0-0.9,0.7-1.601,1.6-1.601
		C35.331,96.9,36.131,97.6,36.131,98.5z"/>
	<path style="fill:#A3514A;" d="M54.031,98.5c0,0.899,0.7,1.6,1.6,1.6s1.6-0.7,1.6-1.6c0-0.9-0.7-1.601-1.6-1.601
		C54.831,96.9,54.031,97.6,54.031,98.5z"/>
	<g>
		<path style="fill:#A3514A;" d="M41.631,106.1c-0.1-0.1-0.1-0.301,0-0.5c0.1-0.1,0.3-0.1,0.5,0c0.8,0.9,1.9,1.4,3.1,1.4
			c1.2,0,2.3-0.5,3.1-1.4c0.1-0.1,0.3-0.1,0.5,0c0.2,0.1,0.1,0.301,0,0.5c-0.9,1-2.2,1.6-3.6,1.6
			C43.831,107.699,42.531,107.1,41.631,106.1z"/>
	</g>
	<g>
		<rect x="44.531" y="96.6" style="fill:#A3514A;" width="0.8" height="5.8"/>
	</g>
</g>
<g>
	<ellipse style="fill:#EDE1B3;" cx="161.331" cy="191.6" rx="29.2" ry="9.1"/>
	<path style="fill:#AEAF36;" d="M177.531,148.799c4.5,3.9,9.5,11.102,9.5,24.301c0,1.801-1.399,3.199-3.2,3.199
		c-1.8,0-3.199-1.398-3.199-3.199c0,0,0-0.5,0-1c-0.201,0-0.4,0-0.4,0c-1.101,0-2-0.9-2-2s0.899-2,2-2h0.1
		c-1.2-9.4-4.899-12.801-7.899-15c0.399,11.4,0.899,36.6,0.899,36.6c0,0.1,0,0.201,0,0.201v0.1c0,1.799-1.5,3.299-3.3,3.299
		s-3.3-1.398-3.3-3.199l0,0v-7.801c-0.101-3.199-2.7-5.799-6-5.799c-3.101,0-5.7,2.4-6,5.4v8.199l0,0c0,1.801-1.5,3.199-3.3,3.199
		c-1.8,0-3.3-1.5-3.3-3.299v-0.1c0-0.102,0-0.201,0-0.201s0.3-29.4,0.3-36.9c-3.1,2.201-7.1,5.602-8.3,15.301h0.1c1.1,0,2,0.9,2,2
		s-0.9,2-2,2c0,0-0.3,0-0.4,0c0,0.5,0,1,0,1c0,1.801-1.4,3.199-3.2,3.199c-1.8,0-3.2-1.398-3.2-3.199c0-13.199,5-20.5,9.5-24.301
		c0,0,6.6-5.6,16.6-5.6C159.432,143.199,170.531,143.1,177.531,148.799z"/>
	<g>
		<path style="fill:#FDD39D;" d="M140.131,168h-0.1c0-0.201,0.1-0.4,0.1-0.5l-6.4-0.6c-0.3,1.898-0.4,4-0.4,6.299
			c0,1.801,1.4,3.201,3.2,3.201s3.2-1.4,3.2-3.201c0,0,0-0.5,0-1c0.2,0,0.4,0,0.4,0c1.1,0,2-0.9,2-2
			C142.231,168.9,141.331,168,140.131,168z"/>
		<path style="fill:#FDD39D;" d="M133.531,166.799c-0.3,2-0.4,4.201-0.4,6.301c0,1.9,1.5,3.4,3.4,3.4s3.4-1.5,3.4-3.4
			c0,0,0-0.6,0-0.9c0.1,0,0.3,0,0.3,0c1.2,0,2.2-1,2.2-2.199c0-1.201-1-2.201-2.1-2.201c0-0.1,0-0.199,0-0.199l0.1-0.301h-0.2
			l-6.6-0.699L133.531,166.799z M133.431,173.1c0-2.1,0.1-4.199,0.4-6.1c0.3,0,5.8,0.6,6.1,0.6l-0.1,0.6h0.2h0.1
			c1,0,1.9,0.801,1.9,1.9c0,1-0.8,1.9-1.9,1.9h-0.6v1.199c0,1.701-1.4,3.1-3.1,3.1C134.731,176.299,133.431,174.799,133.431,173.1z"
			/>
	</g>
	<g>
		<path style="fill:#FDD39D;" d="M180.132,168h0.1c0-0.201-0.1-0.4-0.1-0.5l6.399-0.6c0.3,1.898,0.399,4,0.399,6.299
			c0,1.801-1.399,3.201-3.199,3.201c-1.801,0-3.2-1.4-3.2-3.201c0,0,0-0.5,0-1c-0.2,0-0.399,0-0.399,0c-1.101,0-2.001-0.9-2.001-2
			C178.031,168.9,179.031,168,180.132,168z"/>
		<path style="fill:#FDD39D;" d="M179.931,167.299l0.101,0.4c0,0,0,0.1,0,0.201c-1.2,0-2.1,1-2.1,2.199s1,2.199,2.2,2.199
			c0,0,0.199,0,0.299,0c0,0.201,0,0.9,0,0.9c0,1.9,1.5,3.4,3.4,3.4s3.4-1.5,3.4-3.4c0-2.199-0.1-4.299-0.4-6.299v-0.102
			L179.931,167.299z M186.431,167c0.301,2,0.4,4,0.4,6.1c0,1.699-1.4,3.1-3.1,3.1c-1.7,0-3.1-1.4-3.1-3.1V171.9h-0.601
			c-1,0-1.9-0.801-1.9-1.9c0-1,0.801-1.9,1.9-1.9h0.3c0,0-0.1-0.5-0.1-0.6C180.632,167.6,186.132,167,186.431,167z"/>
	</g>
	<path style="fill:#8B9237;" d="M144.831,155.799c1.2-1.299,2.4-2.299,3.5-3.1c0,1,0,2.4,0,4.1c6.3,1.602,13,2.102,18.9,2.102
		c1.8,0,3.5,0,5.3,0c-0.1-2.201-0.1-4.201-0.2-5.9c1.7,1.299,3.601,2.9,5.2,5.699c2.3-0.1,4.5-0.299,6.7-0.6
		c-1.801-4.301-4.301-7.199-6.7-9.301c-7-5.699-18.2-5.6-18.2-5.6c-10,0-16.6,5.6-16.6,5.6c-1.3,1.102-2.7,2.602-4,4.4
		C140.731,154.199,142.731,155.1,144.831,155.799z"/>
	<path style="fill:#FFFFFF;" d="M161.531,156.5c0,0.699-0.6,1.299-1.3,1.299s-1.3-0.6-1.3-1.299c0-0.701,0.6-1.301,1.3-1.301
		C161.031,155.199,161.531,155.799,161.531,156.5z"/>
	<path style="fill:#FFFFFF;" d="M161.531,162.5c0,0.699-0.6,1.299-1.3,1.299s-1.3-0.6-1.3-1.299c0-0.701,0.6-1.301,1.3-1.301
		C161.031,161.199,161.531,161.799,161.531,162.5z"/>
	<path style="fill:#C0BE31;" d="M204.231,104.299c-0.801-8.5-3.5-15.199-7.4-20.5c-5-6.899-11.199-11.6-11.199-11.6
		c-2.101-1.5-3.4-2.4-4.201-4.199c-1-2.101-1.399-4.9-1.399-4.9c-0.8-8.1-1.6-10.7-1.6-10.7l0,0c-1.2-5-3.801-9.4-7.801-12.2
		c-3.199-2.2-7.5-2.9-11.699-2.9c-4.5,0-8.2,0-11.601,2.4c-3.7,2.6-6.5,5.6-8.2,10.5c-0.7,2.1-1.1,3.1-1.6,6.6
		c-0.1,0.4-0.1,0.8-0.1,1.201c-0.3,1.799-0.8,4.199-1.5,6.199c-0.5,1.1-1.1,1.9-1.8,3.2c-0.5,1-1.4,2.101-2.1,3.101
		c-1.9,2.6-4.2,4.799-7.6,8.1c-0.4,0.4-0.8,0.699-1.1,1.1l0,0l0,0c-5.5,5.7-9.4,13.6-10.2,24.4c-2.2,29.199,19.9,46,45.5,46
		C187.231,150.4,206.831,133,204.231,104.299z"/>
	<path style="fill:#FFFFFF;" d="M167.031,47.4c0.8,0.7,1.1,0.9,2.2,1.1c2,0.5,2.399-1.6,1.5-3.2c-0.5-0.8-2.601-2.5-3.5-2.4
		c-1.2,0.1-2.601,0.7-1.2,3.3L167.031,47.4z"/>
	<path style="fill:#AEB438;" d="M151.031,118.699c-2.3-12.1-6.3-18.299-12-26.199c-3.4-4.801-9.3-9.701-15.8-12.5
		c-5.5,5.699-9.4,13.6-10.2,24.4c-2.2,29.199,19.9,46,45.5,46c1.8,0,3.6-0.102,5.3-0.201
		C157.131,143.4,152.831,128.1,151.031,118.699z"/>
	<path style="fill:#5B3F1E;" d="M148.731,124.4c0,1-0.8,1.799-1.8,1.799s-1.8-0.799-1.8-1.799s0.8-1.801,1.8-1.801
		S148.731,123.4,148.731,124.4z"/>
	<path style="fill:#5B3F1E;" d="M168.932,124.4c0,1,0.8,1.799,1.8,1.799s1.8-0.799,1.8-1.799s-0.8-1.801-1.8-1.801
		S168.932,123.4,168.932,124.4z"/>
	<g>
		<path style="fill:#5B3F1E;" d="M154.931,132.9c-0.1-0.201-0.1-0.4,0-0.5c0.2-0.102,0.4-0.102,0.5,0c0.9,1,2.2,1.6,3.5,1.6
			c1.3,0,2.6-0.6,3.5-1.5c0.1-0.201,0.399-0.201,0.5,0c0.199,0.1,0.199,0.4,0,0.5c-1,1.1-2.5,1.799-4,1.799
			C157.432,134.699,155.931,134.1,154.931,132.9z"/>
	</g>
	<g>
		<rect x="158.131" y="122.299" style="fill:#5B3F1E;" width="0.9" height="6.5"/>
	</g>
	<path style="fill:#5B3F1E;" d="M157.231,1c-0.101,5.7,0.1,10.3,0.1,16c0,8.3-0.1,13.9,0.2,22.2c0,1.6,0.5,4.6,0.9,1.9
		c0.699-4.4,1.5-14.8,1.899-19.2c0.7-7.2,1.5-14.7,1-21.9c-1.2,0-3,0-4.1,0.2C157.231,0.4,157.231,0.7,157.231,1z"/>
	<path style="fill:#99BE3D;" d="M160.531,17.6c5.3-13.7,21.8-15,33.8-14.7c0.6,8.2-8,13-12.699,14.9
		C178.031,19.3,164.031,24,160.531,17.6L160.531,17.6z"/>
	<path style="fill:#8AAF3F;" d="M161.331,17.3c1.601-0.8,3.2-1.5,4.8-2.4c4.9-2.6,10.101-4.5,15.3-6.5c3.9-1.5,8.201-2,11.601-4.3
		c0.5-0.3,0.8-0.6,1.2-0.9c0.1-0.1,0.1-0.1,0.1-0.2c-12-0.3-28.399,1.1-33.8,14.8l0,0C160.831,17.5,161.131,17.4,161.331,17.3z"/>
	<circle style="fill:#99A439;" cx="182.831" cy="100.499" r="1.7"/>
	<circle style="fill:#99A439;" cx="188.632" cy="94.3" r="1.1"/>
	<circle style="fill:#99A439;" cx="180.531" cy="91" r="1.1"/>
</g>
</svg>
