<?xml version="1.0" encoding="utf-8"?>
<!-- Generator: Adobe Illustrator 18.1.1, SVG Export Plug-In . SVG Version: 6.00 Build 0)  -->
<!DOCTYPE svg PUBLIC "-//W3C//DTD SVG 1.1//EN" "http://www.w3.org/Graphics/SVG/1.1/DTD/svg11.dtd">
<svg version="1.1" id="Layer_1" xmlns="http://www.w3.org/2000/svg" xmlns:xlink="http://www.w3.org/1999/xlink" x="0px" y="0px"
	 viewBox="0 0 952.2 579.2" enable-background="new 0 0 952.2 579.2" xml:space="preserve">
<path fill="#EDE1B3" d="M9.9,435.4c-8,7.5-3.7,22.2,5.5,28.1c9.3,5.9,21.1,5.6,32.1,4.5c63.7-6.3,125.1-29.6,180-62.6
	c10.8-6.5,22-14.1,26.7-25.9c0.8-2.1,1.4-4.5,0.4-6.5c-0.7-1.5-2.2-2.5-3.6-3.3c-11.5-6.2-25.7-3.3-38.1,0.8
	c-53.1,17.6-100.2,55.7-156,59.2L9.9,435.4z"/>
<path fill="#EDE1B3" d="M242,532.6c0,0-185.2-55.9-130.7-172.7c0,0-20.9-109.9,146-151.6c0,0,132.4-40.4,174-60.4
	c0,0,60-24.6,75.4-33.9C567.9,77.2,663.2,48.3,756,90.9c0,0,177.5,94.5,193.6,195.1c0,0,31.1,92.7-122.8,143.4
	c0,0-93.9,27.7-227.8,97c0,0-110.8,58.5-192.4,52.3c0,0-33.9,3.1-106.2-26.2C300.5,552.6,268.1,541.8,242,532.6z"/>
<path fill="#FBB03D" d="M223.5,476.1c0,0-143.2-44.7-130.7-172.7c0,0-20.9-109.9,146-151.6c0,0,132.4-40.4,174-60.4
	c0,0,60-24.6,75.4-33.9c61.3-36.8,156.5-65.7,249.3-23.1c0,0,192.4,35.4,203.1,180.1c0,0,21.5,107.7-132.3,158.5
	c0,0-93.9,27.7-227.8,97c0,0-110.8,58.5-192.4,52.3c0,0-33.9,3.1-106.2-26.2C282,496.1,249.7,485.3,223.5,476.1z"/>
<path fill="#F7942F" d="M941.3,215c-1-13.4-3.6-25.9-7.4-37.5c-1.3,32.9-18.4,102.5-133.3,140.4c0,0-147.7,58.8-221.6,103.3
	c0,0-106,57.4-173.4,60.8c0,0-97.7,2.2-181.8-39.1c0,0-101.9-51.2-131-130.3c-5.4,121.3,131.3,164,131.3,164
	c26.2,9.2,58.5,20,58.5,20c72.3,29.2,106.2,26.2,106.2,26.2c81.6,6.2,192.4-52.3,192.4-52.3c133.9-69.3,227.8-97,227.8-97
	C962.9,322.7,941.3,215,941.3,215z"/>
<path fill="#F7942F" d="M155.5,426.6c0,0-17.4-81.5,67.3-99.9l-9.8-38c0,0-86.4,3.8-88.8,122.5L155.5,426.6z"/>
<path fill="#7A2020" d="M400.6,526c-4.3,0-8.4-0.1-12.4-0.4c-0.5,0-1.5,0.1-3.1,0.1c-11.7,0-45.1-2.6-104.2-26.5
	c-2-0.7-33.2-11.1-58.4-20c-2.2-0.7-37.1-12-71.1-38.9c-45.6-36.2-67-83.5-62-136.8c-0.7-4-4.2-30.4,10.8-61.7
	c9.3-19.5,23.9-36.7,43.4-51.4c24.1-18.1,55.9-32.2,94.3-41.8c3.9-1.2,133-40.8,173.4-60.2l0.2-0.1c0.6-0.2,60-24.6,75-33.6
	c27.8-16.7,84.8-44.7,153.3-44.7c34.6,0,67.8,7.2,98.7,21.3c4.9,1,51.2,10.5,98.1,36c29.1,15.8,52.7,34.7,70.3,55.9
	c22,26.7,34.5,57.2,37,90.8c0.5,2.8,4.9,29.3-8.7,61.9c-8.2,19.8-21.4,37.7-39.2,53.3c-22,19.4-51.2,35.1-86.8,46.8
	c-1,0.3-95.3,28.5-227.3,96.8C581.1,473.4,480.5,526,400.6,526z M388.2,518.9l0.3,0c3.9,0.3,8,0.4,12.2,0.4
	c78.2,0,177.4-51.9,178.4-52.4c132.7-68.6,227.4-96.9,228.4-97.2c34.5-11.4,62.8-26.6,84.1-45.3c17-14.9,29.6-31.9,37.5-50.7
	c13.4-32,8.5-58.4,8.4-58.7l-0.1-0.4c-2.4-32.3-14.3-61.6-35.5-87.2c-17-20.6-40-38.9-68.3-54.3c-48.4-26.4-96.2-35.4-96.7-35.5
	l-0.4-0.1l-0.4-0.2c-30.2-13.8-62.6-20.9-96.3-20.9c-66.9,0-122.7,27.4-149.9,43.8c-15.3,9.2-72.2,32.6-75.8,34
	c-41.4,19.9-168.9,58.9-174.4,60.6l-0.2,0c-37.6,9.4-68.6,23.1-92,40.7c-18.6,14-32.5,30.4-41.4,48.9C91.2,276,96,302.5,96,302.8
	l0.1,0.5l0,0.5c-2.8,28.5,2.2,55.1,14.8,79.1c10.1,19.2,25.1,36.8,44.7,52.3c33.4,26.5,68.6,37.7,69,37.8l0.1,0
	c25.8,9.1,58.1,19.9,58.4,20l0.2,0.1c59.7,24.1,93.1,26,101.9,26c1.9,0,2.8-0.1,2.8-0.1L388.2,518.9z"/>
<path fill="#F7942F" d="M697.1,225.2c0,0,174.6,87.2,211.7-7.1c0,0,29.2-95.5-126.7-128.6l-6.6,46.3c0,0,93.8,12.1,76.1,62.9
	c0,0-19.9,35.3-115.8-16.5L697.1,225.2z"/>
<path fill="#F7942F" d="M552.6,154.6c0,0-125.8-44.1-77.2-111.4c0,0,35.3-69.5,179.8,19.9l-46.3,35.3c0,0-66.2-57.4-90.5-29.8
	c0,0-23.2,25.4,60.7,58.5L552.6,154.6z"/>
<path fill="#E75325" d="M234.3,270.8c-15.6-20.3-31.2-40.7-46.8-61c-5.5-7.1-11.3-14.5-19.4-18.5c-13.1-6.3-29.5-1.7-40.5,7.9
	c-11,9.6-17.4,23.3-22.5,36.9c-16.7,44.7-21.8,92.8-33.8,139c-2.4,9.4-5.6,19.4-13.1,25.6c-14.7,12.1-40.7,5.6-51.6,21.1
	c-5.7,8.2-3.8,20.6,3.9,26.8c7.5,6,18.1,5.7,27.7,5.1c8.6-0.5,17.3-1.1,25.6-3.4c25.3-7.2,43.1-30.7,51.8-55.5
	c8.6-24.9,9.8-51.6,13.1-77.7c2-16.3,4.8-32.4,8.5-48.4c1.9-8.2,4-16.4,7.6-23.9c2-4.1,5.5-8.5,10-7.9c2.2,0.3,4.1,1.8,5.8,3.3
	c21.3,18.5,37.9,42.4,47.8,68.9L234.3,270.8z"/>
<path fill="#7A2020" d="M30.6,457.4c-8,0-15.8-1.2-22-6.1C-0.7,444-2.8,429.7,3.9,420c6.7-9.6,18.1-11.7,29.2-13.8
	c8.7-1.6,17-3.1,23-8c6.8-5.6,9.7-14.9,12-23.9c4.4-17.1,8-34.7,11.4-51.8c5.8-29.1,11.9-59.2,22.5-87.5c4.9-13,11.5-27.8,23.4-38.3
	c10.9-9.5,28.7-15.8,44.1-8.4c9,4.3,15.1,12.4,20.6,19.4l46.8,61l-5.3,4l-46.8-61c-5-6.5-10.6-13.8-18.2-17.5
	c-9.1-4.4-24.1-3.8-36.9,7.4c-10.9,9.5-17,23.3-21.6,35.6C97.8,265.2,91.8,295,86,323.9c-3.4,17.2-7,34.9-11.5,52.1
	c-2.5,9.6-5.9,20.5-14.2,27.3c-7.3,6-16.8,7.8-26,9.4c-10.2,1.9-19.8,3.6-24.9,11c-4.7,6.8-3.2,17.2,3.3,22.3
	c6.4,5.1,15.7,5,25.5,4.4c8.3-0.5,16.9-1,24.8-3.3c21.5-6.2,40.1-26.1,49.5-53.4c6.7-19.1,8.9-39.9,11-60c0.6-5.6,1.2-11.3,1.9-17
	c2-16.3,4.9-32.7,8.5-48.7c1.7-7.7,3.9-16.5,7.9-24.6c3.3-6.9,8.2-10.5,13.4-9.8c3.1,0.4,5.5,2.3,7.5,4.1
	c21.8,18.9,38.6,43.2,48.7,70.2l-6.2,2.3c-9.7-26-25.9-49.3-46.9-67.5c-1.3-1.2-2.8-2.3-4-2.5c-2.5-0.3-5.1,2.9-6.6,6.1
	c-3.6,7.5-5.7,15.9-7.4,23.2c-3.6,15.8-6.4,32-8.4,48.1c-0.7,5.6-1.3,11.3-1.9,16.9c-2.2,20.5-4.4,41.6-11.3,61.5
	c-10.2,29.3-30.4,50.9-54,57.6c-8.7,2.5-17.6,3-26.3,3.6C35.9,457.2,33.2,457.4,30.6,457.4z"/>
<path fill="#E75325" d="M550.4,140.5c0,0-125.8-44.1-77.2-111.4c0,0,35.3-69.5,179.8,19.9l-46.3,35.3c0,0-66.2-57.4-90.5-29.8
	c0,0-23.2,25.4,60.7,58.5L550.4,140.5z"/>
<path fill="#7A2020" d="M551.3,144.3l-2-0.7c-3-1.1-74.9-26.7-88.4-69.8c-4.8-15.4-1.6-31,9.5-46.5C471.9,24.4,486.5,0,529.1,0
	c33.9,0,76.2,15.5,125.6,46.1l4.1,2.5l-52.3,39.8l-2-1.8c-0.4-0.4-42.4-36.5-70.2-36.5c-6.7,0-11.8,2.1-15.6,6.4
	c-0.1,0.2-3.2,3.8-1.7,10.1c4.5,18.3,40.2,34.9,61.1,43.1l4.6,1.8L551.3,144.3z M529.1,6.6c-40.1,0-52.5,23-53,24l-0.3,0.4
	c-9.9,13.7-12.8,27.5-8.6,40.8c11.4,36.2,70.7,60.4,82.3,64.8l21.6-22.5c-36.6-15-57-30.5-60.6-46.1c-2.2-9.6,3-15.5,3.2-15.8
	c5-5.7,11.9-8.6,20.5-8.6c26.9,0,63.4,28.8,72.5,36.4l40.4-30.8C600.5,20.9,560.8,6.6,529.1,6.6z"/>
<path fill="#E75325" d="M698.2,210c0,0,166.6,83.8,204.1-26.5c0,0,24.3-76.1-119.1-109.2l-6.6,46.3c0,0,93.8,12.1,76.1,62.9
	c0,0-19.9,35.3-115.8-16.5L698.2,210z"/>
<path fill="#7A2020" d="M815.1,243.8C815.1,243.8,815.1,243.8,815.1,243.8c-56.5,0-115.9-29.6-118.4-30.9l-3.9-1.9l43.2-48.2
	l2.3,1.2c34.3,18.5,62.4,27.9,83.7,27.9c19.9,0,26.6-8.4,27.6-9.9c3.2-9.3,2.4-17.6-2.2-25.1c-15.8-25.6-70.8-33-71.3-33l-3.3-0.4
	l7.6-53.2l3.5,0.8c58.4,13.5,96.8,35.6,113.9,65.7c14.5,25.4,7.9,46.8,7.6,47.7C892,223.9,861.7,243.8,815.1,243.8z M703.6,208.9
	c14.2,6.6,64.7,28.3,111.5,28.3c43.4,0,71.7-18.4,84-54.7c0-0.1,5.9-19.7-7.2-42.6c-15.7-27.4-52.3-48.6-106-61.5l-5.6,39.5
	c12.7,2.1,57.5,11,72.8,35.6c5.8,9.3,6.7,19.8,2.7,31.1l-0.2,0.5c-0.3,0.5-7.8,13.4-33.5,13.4c0,0,0,0,0,0
	c-21.9,0-50.3-9.2-84.5-27.4L703.6,208.9z"/>
<path fill="#E75325" d="M225,404.1c0,0-105.9-92.7,54.1-166.6c0,0,30.9-16.5,111.4-37.5c0,0,122.4-32,169.9-87.1
	c0,0,108.1-130.2,196.4-97.1c0,0,90.5,26.5,17.6,145.6c0,0-37.5,70.6-218.4,129.1c0,0-87.1,25.4-144.5,38.6c0,0-99.3,15.4-123.5,96
	C287.8,425.1,253.6,427.3,225,404.1z"/>
<path fill="#7A2020" d="M285.4,428.4c-8.3,0-37.5-1.6-62.5-21.8l-0.1-0.1c-1.7-1.5-41.3-36.7-34.8-82.2c5-34.4,35.1-64.7,89.5-89.8
	c2.2-1.2,33.4-17.3,112.1-37.7c1.2-0.3,122-32.4,168.2-86.1c0.2-0.2,21.8-26.1,53.1-51.6c42.2-34.5,81.1-52,115.4-52
	c11,0,21.6,1.9,31.5,5.6c2.5,0.8,31.7,10.2,43.5,40.7c11.1,28.6,3,65.5-24,109.7c-0.9,1.6-10.9,19.1-42.2,43.6
	c-53.3,41.6-126.2,70.2-178.1,87c-1,0.3-88,25.6-144.8,38.7l-0.2,0c-0.2,0-24.8,4-51.9,17.6c-24.8,12.4-56.8,35.7-69,76.1l-0.7,2.2
	l-2.3,0.1C288,428.4,287,428.4,285.4,428.4z M227.1,401.6c23.3,18.8,50.5,20.2,58.3,20.2c0,0,0,0,0,0c10.6-32.8,35.4-59.7,71.8-77.9
	c27.3-13.6,51.4-17.7,53.5-18.1c56.6-13.1,143.3-38.3,144.2-38.5C732.5,230,771,160.6,771.4,159.9l0.1-0.2
	c25.9-42.3,33.8-77.3,23.6-103.8C784.2,27.7,756,19.1,755.7,19l-0.2-0.1c-9.2-3.4-19-5.2-29.3-5.2c-22.5,0-60,8.7-111.1,50.4
	c-30.8,25.1-52.1,50.6-52.3,50.9c-47.6,55.3-166.5,86.9-171.6,88.2c-79.1,20.6-110.4,37.1-110.7,37.2l-0.2,0.1
	c-52.3,24.2-81.2,52.7-85.9,84.8c-3.1,21.8,5.9,41.4,14,53.9C217.1,392.5,226.4,401,227.1,401.6z"/>
<path fill="#7A2020" d="M637.5,87.7c-0.3,0-0.5,0-0.6,0c-3.2-0.3-5.8-1.8-7.5-4.3c-5.6-7.9-1.5-24.5-1-26.3l6.4,1.7
	c-1.5,5.9-2.9,16.8,0,20.9c0.6,0.9,1.5,1.4,2.6,1.5c0.5,0,14.6,0.5,25.5-19.3l5.8,3.2C656.9,86.5,640.9,87.7,637.5,87.7z"/>
<path fill="#7A2020" d="M711.6,75.5l-2.4-2.3L711.6,75.5C711.6,75.5,711.6,75.5,711.6,75.5L711.6,75.5z"/>
<path fill="#7A2020" d="M688.4,130.5c-25.6,0-43.8-5.3-53.9-15.9c-8.1-8.4-7.8-17-7.8-17.3l6.6,0.2l-3.3-0.1l3.3,0.1
	c0,0.3,0,6.4,6.2,12.7c6.1,6.2,19.6,13.7,49,13.7V130.5z"/>
<path fill="#E75325" d="M360.6,330.5c-19-27.7-37.9-55.4-56.9-83.1c-13.2-19.4-26.8-39-45.1-53.7c-38.4-30.7-92.2-34.8-140.7-26.3
	c-9.7,1.7-20.1,3.7-28.9-0.7c-17-8.6-16.5-35.1-32.2-46c-9.5-8.8-36.6-7.5-38.9,15.9c-2.1,21.3,5.8,48.7,21,63.8
	c17.6,17.4,39.5,10.8,64,6.9c40-6.4,83.6-9.9,118.4,10.7c51.3,30.3,64.4,100.8,110.4,138.6L360.6,330.5z"/>
<path fill="#7A2020" d="M329.8,359.2c-21.5-17.7-36-42.4-50-66.3c-16.9-28.8-32.8-56-60-72c-33.8-20-75.8-16.8-116.2-10.3
	c-3,0.5-5.9,1-8.8,1.5c-21.3,3.7-41.4,7.3-58.1-9.3c-15.1-14.9-24.3-42.8-22-66.5c1-10.6,6.8-18.3,16.2-21.9c9.6-3.6,21.6-2,28,3.8
	c8.1,5.7,12.1,14.9,15.9,23.8c4,9.2,7.8,17.9,15.6,21.8c7.5,3.8,16.9,2.2,25.9,0.6l0.9-0.2c33.6-5.9,96.9-10.2,143.3,27
	c18.9,15.1,32.5,35.1,45.7,54.4l56.9,83.1l-5.5,3.7L301,249.3c-12.9-18.9-26.3-38.5-44.4-53c-44.4-35.5-105.5-31.3-138-25.6
	l-0.9,0.2c-9.7,1.7-20.6,3.6-30.1-1.2c-10-5.1-14.4-15.2-18.7-25.1c-3.7-8.5-7.2-16.5-13.8-21.1l-0.4-0.3
	c-3.9-3.6-13.2-5.7-21.4-2.6c-4.9,1.9-11,6.2-12,16.4c-2.1,21.8,6.3,47.5,20.1,61.1c14.3,14.1,31.9,11,52.3,7.4
	c2.9-0.5,5.9-1,8.9-1.5c41.6-6.6,85-9.9,120.6,11.2c28.6,16.9,45.7,46.1,62.3,74.4c13.7,23.4,27.9,47.6,48.5,64.6L329.8,359.2z"/>
<g>
	<path fill="#FFFFFF" d="M716.2,115.5c8.9,2.6,19.9-2.3,23.8-11.1c1.7-3.8,4.8-17.6-4.1-25.9c-8.7-8.1-19.3-5.8-22.3-4.9
		c-6.3,1.9-15.4,11-14.1,22.9C700.5,105.5,707.8,113.1,716.2,115.5z"/>
	<path fill="#7A2020" d="M721.2,119C721.2,119,721.2,119,721.2,119c-2,0-3.9-0.3-5.8-0.8c-9.9-2.9-17.6-11.7-18.7-21.4
		c-1.5-13.2,8.4-23.5,16-25.8c1.4-0.4,4.3-1.1,7.9-1.1c6.5,0,12.4,2.3,17.1,6.7c10.4,9.7,6.4,25.4,4.8,29.1
		C739,113.5,730.2,119,721.2,119z M720.7,75.4c-3,0-5.4,0.6-6.3,0.9c-4.7,1.4-13.4,9-12.1,19.9c0.9,7.6,6.9,14.4,14.7,16.7
		c1.3,0.4,2.8,0.6,4.2,0.6c0,0,0,0,0,0c6.9,0,13.6-4.2,16.3-10.2c1.2-2.7,4.4-15.3-3.5-22.7C730.3,77.1,725.8,75.4,720.7,75.4z"/>
</g>
<circle fill="#7A2020" cx="721.5" cy="93.4" r="5.1"/>
<path fill="#FDC20F" stroke="#7A2020" stroke-width="6.7378" stroke-miterlimit="10" d="M632.5,164.2c-1.5,1.8-3.5,3-5.6,3.9
	c-21.4,9.2-56.8-10.5-71.6,8c-4.6,5.8-7.3,24.8-10.8,31.6c-7.9,15.3-14.8,14.1-30.4,13.1c-17-1.1-29.1-9.7-42,1
	c-8.3,6.9-22.3,36.3-31.1,42.4c-11.5,7.9-27.6,2-41.4-3.2c-13.9-5.2-28.3-5.5-40.1,2.3c-15.5,10.3-29.8,7.6-32.5-4.2
	c-2.7-11.9,4.5-23.3,14.2-28.2c14.2-7.3,34.6-6.2,50.8-1.6c17.3,4.9,24.2,9.6,35.2,4.7c11.8-5.3,20.6-37.3,32.1-43.4
	c8.6-4.6,19.3-2.2,29.3-0.8c10,1.4,25.2,6.6,31-1.6c2.8-4,7.4-21.3,9.1-26c8.9-24.6,29.5-25.5,53-27c14.5-0.9,36.5-2.4,48.8,7.7
	C637.1,148.3,637.4,158,632.5,164.2z"/>
</svg>
