<?xml version="1.0" encoding="utf-8"?>
<!-- Generator: Adobe Illustrator 16.2.1, SVG Export Plug-In . SVG Version: 6.00 Build 0)  -->
<!DOCTYPE svg PUBLIC "-//W3C//DTD SVG 1.1//EN" "http://www.w3.org/Graphics/SVG/1.1/DTD/svg11.dtd">
<svg version="1.1" id="Layer_1" xmlns="http://www.w3.org/2000/svg" xmlns:xlink="http://www.w3.org/1999/xlink" x="0px" y="0px"
	 width="470px" height="345.6px" viewBox="0 0 470 345.6" style="enable-background:new 0 0 470 345.6;" xml:space="preserve">
<g>
	<path style="fill:#039680;" d="M351.7,51.4c4.5,2.2,9.7,3.5,15.2,3.5c17.5,0,17.5-55,0-55c-15.8,0-28.7,10-31.2,23.1
		c-0.3,1.4-0.5,2.9-0.5,4.4C335.2,37.9,341.9,46.8,351.7,51.4z"/>
	<path style="fill:#039680;" d="M363.4,190.9c7-31-1.4-63.7-11.8-92.9c-2.9-8.1-22.3-50.6-27.4-59c-2.6-5.1-8-11.7-17-9.3
		l-61.1,16.7c-7.3,2-11.6,9.5-9.6,16.8c1.7,6.1,7.2,10.1,13.2,10.1c1.2,0,30.9-8,30.9-8c8.6,11.8,33.9,81.8,36,102.4
		c1.4,13.9,3,30.9-8,40.1c-15.9,13.2-43.8,16.8-52.7,11.7c-10.7-6.2-14.7-22-16.1-35.4c3.9-0.8,7.1-1.8,9.3-3.2
		c8.4-5.6,12.4-30-5.1-39.3c-6.7-3.5-38.8-4.2-66.4-3.4V25.9c0-5.1-4.2-9.3-9.3-9.3H9.3c-5.1,0-9.3,4.2-9.3,9.3v148.7
		c0,5.1,4.2,9.3,9.3,9.3h51.4c-11.7,15.6-21.6,34.1-18.3,49.4c3.8,17.6,36,25.9,41,27.5c-3,7-4.3,21.4-4.3,22.6
		c0,34.3,27.9,62.2,62.2,62.2c29.6,0,54.2-20.7,60.6-48.3c1.6-6.9,1.6-12.5,1.2-18.4c37.2-1,74.2-8.6,103.7-24
		C332.2,241.7,356.9,219.8,363.4,190.9z M52.5,91.8c-5.9-7.1-13.3-16-4.2-24.5c1.9-1.8,4.6-2.7,7.6-2.7c4.8,0,10.5,2.4,15.1,5.5
		c2.6-7.5,8.3-15.5,17.8-15.5c9.5,0,15.2,7.9,17.8,15.5c4.6-3.1,10.3-5.5,15.1-5.5c3,0,5.7,0.9,7.6,2.7c9.2,8.4,1.8,17.3-4.2,24.5
		c-5,6.1-10.8,12.9-10.8,21.2v16.8c0,2.5-2,4.5-4.5,4.5H67.7c-2.5,0-4.5-2-4.5-4.5V113C63.2,104.8,57.5,97.9,52.5,91.8z M172,296.8
		c-4.8,11.9-16.9,20-30.5,20c-17.2,0-31.1-13-33-29.7c-0.5-4.4-0.2-11.4,3-18.1c18.8,5.2,40.7,8.4,62.9,9.5
		C174.7,287.4,175.4,288.4,172,296.8z"/>
	<path style="fill:#039680;" d="M451.3,239c4.9-5.1,9.2-10.7,12-17.7c1.3-3.4-0.3-7.2-3.5-8.7l-75.5-34.5
		c-2,26.6-18.2,60.4-53.7,84.1c5.7,1.1,11.7,2,18,2.6c-1.9,5.9-3.1,12-3.1,18.5c0,34.3,27.9,62.2,62.2,62.2
		c34.4,0,62.2-27.9,62.2-62.2C470,266,462.8,250.3,451.3,239z M407.8,316.8c-18.4,0-33.4-14.9-33.4-33.4c0-6.7,2-12.9,5.4-18.1
		c16-1,32.2-3.9,46.3-9.7c9.1,6,15,16.2,15,27.9C441.1,301.8,426.2,316.8,407.8,316.8z"/>
</g>
</svg>
