<?xml version="1.0" encoding="utf-8"?>
<!-- Generator: Adobe Illustrator 16.2.1, SVG Export Plug-In . SVG Version: 6.00 Build 0)  -->
<!DOCTYPE svg PUBLIC "-//W3C//DTD SVG 1.1//EN" "http://www.w3.org/Graphics/SVG/1.1/DTD/svg11.dtd">
<svg version="1.1" id="Layer_1" xmlns="http://www.w3.org/2000/svg" xmlns:xlink="http://www.w3.org/1999/xlink" x="0px" y="0px"
	 width="328.1px" height="418.4px" viewBox="0 0 328.1 418.4" style="enable-background:new 0 0 328.1 418.4;" xml:space="preserve"
	>
<g>
	<path style="fill:#039680;" d="M302.6,183.9c-0.9-4.1-2.4-8.3-4.5-12.3c11.6-65.2-2.1-114.5-36-128.9c-16.6-7-51.8-21.3-78.5-27.3
		C183.3,6.8,174.7,0,164,0c-10.6,0-19.2,6.7-19.6,15.2c-22.8,5-53.5,16.3-71.7,24.7C56.6,47.4,42.5,65.6,34.1,90
		c-8.6,25-10.5,54.5-5.3,82.9c0,0.2,0.1,0.5,0.1,0.7c-1.6,3.4-2.7,6.8-3.5,10.3c-6.1,2.9-10.5,6.7-13.5,10.2
		c-10.7,12.5-14.4,32-10.6,56.3c4.1,26.1,17.8,40,29.3,46c12.8,44.7,38.4,73.3,58.1,89.6c24.1,20,52.9,32.4,75.3,32.4
		c22.6,0,51.5-12.2,75.4-31.7c19.9-16.2,45.5-44.9,57.9-90.3c11.4-6.1,25.1-20,29.2-46c3.8-24.3,0.2-43.8-10.5-56.3
		C313,190.6,308.7,186.8,302.6,183.9z M282,271.8l-8.6,1.3l-2.2,9.5c-17.3,74.7-79.3,107-107.2,107c-11.9,0-34-6.7-56.9-25.7
		c-17.4-14.4-40.3-40.3-50.5-81.5l-1.4-9.2l-9.3-1.4c-2.1-0.7-12.9-5.2-16.2-25.8c-2-12.9-1.3-23.5,1.9-30c2.7,3.5,6,6.4,9.8,8.6
		c1.4,0.8,2.8,1.5,4.3,2v10.4c0,6.5,5.3,11.9,11.9,11.9s11.9-5.3,11.9-11.9v-9.6c9.9-2.4,20.2-7.5,31.6-13.2
		c18.5-9.2,39.5-19.7,62.8-19.7s44.3,10.4,62.8,19.7c11.4,5.7,21.7,10.8,31.6,13.2v9.6c0,6.5,5.3,11.9,11.9,11.9s11.9-5.3,11.9-11.9
		v-10.4c1.5-0.6,2.9-1.2,4.3-2c3.8-2.2,7.2-5.1,9.8-8.6c3.2,6.5,3.9,17.1,1.9,30C295,266.6,284.1,271.2,282,271.8z M130.3,78.8
		c0-19.5,15.9-35.5,35.5-35.5c11.2,0,21.6,5.2,28.3,14.2l-15.2,11.4c-3.1-4.2-7.9-6.6-13.2-6.6c-9.1,0-16.5,7.4-16.5,16.5
		c0,9.1,7.4,16.5,16.5,16.5c5.2,0,10-2.4,13.2-6.6l15.2,11.4c-4.1,5.5-9.6,9.5-15.7,11.9c-4,1.5-8.2,2.3-12.6,2.3
		c-4.6,0-8.9-0.9-12.9-2.5C139.6,106.6,130.3,93.8,130.3,78.8z M164,172.7c-10.9,0-21.2,1.8-30.8,4.5c-13.4,3.8-25.6,9.4-36.4,14.8
		c-1.8,0.9-3.6,1.8-5.4,2.7c-7.8,3.9-15.2,7.6-21.8,9.9c-3.2,1.1-6.2,1.9-8.9,2.2c-0.8,0.1-1.6,0.2-2.3,0.2c-2.3,0-4.2-0.5-5.9-1.5
		c0,0,0,0,0,0c-3-1.7-5.1-5-5.8-9c-0.2-1.3-0.3-2.7-0.2-4.2c0.1-1.7,0.4-3.5,0.9-5.3c0.8-2.7,2-5.5,3.7-8.2c0.9-1.4,1.9-2.9,3-4.3
		c0.3-0.4,0.7-0.9,1.1-1.3c2.1-2.2,4.3-4.3,6.7-6.3c24.2-20.9,60.2-33.2,98.6-33.3h7c36.7,0.1,71.2,11.4,95.3,30.6
		c3.6,2.8,6.9,5.9,10,9.1c0.4,0.4,0.7,0.9,1.1,1.3c0.8,1,1.6,2.1,2.3,3.2c1.6,2.5,2.9,5,3.8,7.4c0.7,2,1.2,3.9,1.4,5.8
		c0.2,1.9,0.2,3.8-0.1,5.6c-0.3,1.7-0.8,3.2-1.6,4.5c-1,1.9-2.5,3.5-4.2,4.5c-1.7,1-3.6,1.5-5.9,1.5c-1,0-2-0.1-3.1-0.2
		c-2.5-0.4-5.2-1.1-8.1-2.2c-6.5-2.3-14-6-21.8-9.9c-2.3-1.1-4.6-2.3-7-3.5c-9.3-4.5-19.5-9.2-30.6-12.7
		C188.2,175.1,176.5,172.7,164,172.7z"/>
	<path style="fill:#039680;" d="M115.6,241.6c-12,0-21.7,9.7-21.7,21.7c0,12,9.7,21.7,21.7,21.7c11.9,0,21.7-9.7,21.7-21.7
		C137.3,251.3,127.5,241.6,115.6,241.6z"/>
	<path style="fill:#039680;" d="M212.8,241.6c-12,0-21.7,9.7-21.7,21.7c0,12,9.7,21.7,21.7,21.7c11.9,0,21.6-9.7,21.6-21.7
		C234.4,251.3,224.7,241.6,212.8,241.6z"/>
</g>
</svg>
