<?xml version="1.0" encoding="utf-8"?>
<!-- Generator: Adobe Illustrator 16.2.1, SVG Export Plug-In . SVG Version: 6.00 Build 0)  -->
<!DOCTYPE svg PUBLIC "-//W3C//DTD SVG 1.1//EN" "http://www.w3.org/Graphics/SVG/1.1/DTD/svg11.dtd">
<svg version="1.1" id="Layer_1" xmlns="http://www.w3.org/2000/svg" xmlns:xlink="http://www.w3.org/1999/xlink" x="0px" y="0px"
	 width="210.3px" height="210.3px" viewBox="0 0 210.3 210.3" style="enable-background:new 0 0 210.3 210.3;" xml:space="preserve"
	>
<g>
	<path style="fill:#00957F;" d="M196.9,193.7c9.7-9.7,13.3-21.8,13.4-38.2c0-1.5-0.8-2.8-2.1-3.5l-59.4-32.6
		c-1.6-0.9-3.5-0.6-4.7,0.7L118.2,146c-1.1,1.1-2.8,1.3-4.1,0.5c-10-6.1-19.5-13.6-28.1-22.2c-8.6-8.6-16.1-18.1-22.2-28.1
		c-0.8-1.3-0.6-3,0.5-4.1l25.9-25.9c1.3-1.3,1.5-3.2,0.7-4.7L58.3,2.1c-0.7-1.3-2-2.1-3.5-2.1C38.4,0.1,24.7,5.3,15,15
		C0.3,29.6-3.7,52.9,3.5,80.4c7.1,26.8,24.1,54.7,47.9,78.5c31.7,31.7,71.4,50.3,103.7,51.4C178.5,211.1,190.9,198.7,196.9,193.7"/>
</g>
</svg>
