<?xml version="1.0" encoding="utf-8"?>
<!-- Generator: Adobe Illustrator 16.2.1, SVG Export Plug-In . SVG Version: 6.00 Build 0)  -->
<!DOCTYPE svg PUBLIC "-//W3C//DTD SVG 1.1//EN" "http://www.w3.org/Graphics/SVG/1.1/DTD/svg11.dtd">
<svg version="1.1" id="Layer_1" xmlns="http://www.w3.org/2000/svg" xmlns:xlink="http://www.w3.org/1999/xlink" x="0px" y="0px"
	 width="348px" height="447.5px" viewBox="0 0 348 447.5" style="enable-background:new 0 0 348 447.5;" xml:space="preserve">
<g>
	<path style="fill:#039680;" d="M112.2,141.6c6.4,0.3,21.8,2.1,36.9,10.4c-57.3,4.8-81.5,49.8-85.9,73.7h19.6
		c7.1-29.6,40.7-61.5,89.2-53.8c3.2,4.2,5.8,8.8,7.9,14.5c-32-5.1-64.5,13.6-69.2,39.3h19.8c4.9-13.4,29.7-26.5,54-18.6
		c0.6,5.4,1.1,11.5,1.3,18.6H205c-1.2-37.4-7.9-56-25.1-74c-12.8-13.4-27.8-20.7-40.9-24.6c5.1-1.3,10.6-2.1,16.4-2.1
		c9,0,17.7,1.9,26,5.6c41,18.5,49.7,67.7,51.2,95.2h19.3c-1-20-5.9-46.8-16.7-67.8c27,15.6,38.7,44.7,43.8,67.8h19.7
		c-3.4-17.3-11.7-46.4-33.1-68.3c0,0,76-67,76.8-68.1c8.8-10.7,7.1-26.5-3.6-35.3c-10.7-8.8-26.5-7.1-35.3,3.6l-65.3,80.1
		c-2-0.9-12.8-5.1-16-6.2c0,0,39.4-99.9,39.7-101.2c2.9-13.5-5.7-26.9-19.2-29.8c-13.5-2.9-26.9,5.7-29.8,19.2l-20.4,94.7
		c-17.1-8.5-57.8-17.4-90.1,10.2c0,0,0,0,0,0c-58.1,19.9-82.3,65.8-86,101.1h19.3C39.4,195.9,63.9,156.6,112.2,141.6z"/>
	<path style="fill:#039680;" d="M220.7,350.3c-1.6,1.4-3.6,2.2-5.7,2.2H98.8c-2.1,0-4.1-0.8-5.7-2.2L6.7,271.8l48.6,170.6
		c0.9,3.1,3.7,5.2,6.9,5.2h189.5c3.2,0,6-2.1,6.9-5.2l48.6-170.6L220.7,350.3z"/>
	<polygon style="fill:#039680;" points="313.8,242.7 0,242.7 102.1,335.5 211.7,335.5 	"/>
</g>
</svg>
