<?xml version="1.0" encoding="utf-8"?>
<!-- Generator: Adobe Illustrator 16.2.1, SVG Export Plug-In . SVG Version: 6.00 Build 0)  -->
<!DOCTYPE svg PUBLIC "-//W3C//DTD SVG 1.1//EN" "http://www.w3.org/Graphics/SVG/1.1/DTD/svg11.dtd">
<svg version="1.1" id="Layer_1" xmlns="http://www.w3.org/2000/svg" xmlns:xlink="http://www.w3.org/1999/xlink" x="0px" y="0px"
	 width="376.5px" height="314.6px" viewBox="0 0 376.5 314.6" style="enable-background:new 0 0 376.5 314.6;" xml:space="preserve"
	>
<g>
	<path style="fill:#039680;" d="M341.5,268.9v1.5c0,9.7,7.9,17.5,17.5,17.5c9.7,0,17.5-7.9,17.5-17.5V17.5C376.5,7.9,368.7,0,359,0
		c-9.7,0-17.5,7.9-17.5,17.5v5L48.6,106.5L15,96.1c-3.5-1.1-7.3-0.4-10.3,1.7c-3,2.2-4.7,5.6-4.7,9.3v77.3c0,3.7,1.7,7.1,4.7,9.3
		c2,1.5,4.4,2.3,6.9,2.3c1.1,0,2.3-0.2,3.4-0.5l33.6-10.4L341.5,268.9z M341.5,54.1v7.4v42.8v7.2L75.2,145.1c-0.3,0-0.6,0.1-0.9,0.1
		c0,0,0,0,0,0c-3.3,0-6.3-2.4-7-5.7c-0.7-3.7,1.4-7.3,5-8.3l1.9-0.6L341.5,54.1z"/>
	<path style="fill:#039680;" d="M117.1,221.3l-31.7-9.1l-4.5,15.8c-4.2,14.8-2.5,30.3,5,43.8c7.5,13.5,19.7,23.2,34.5,27.4l45.5,13
		c5.3,1.5,10.6,2.3,16,2.3c9.6,0,19.2-2.4,27.8-7.2c13.5-7.5,23.2-19.7,27.4-34.5l4.5-15.8l-31.7-9.1l-4.5,15.8
		c-1.8,6.3-6,11.6-11.7,14.8c-5.8,3.2-12.4,3.9-18.7,2.1l-45.5-13c-6.3-1.8-11.6-6-14.8-11.7c-3.2-5.8-3.9-12.4-2.1-18.7
		L117.1,221.3z"/>
</g>
</svg>
