<?xml version="1.0" encoding="utf-8"?>
<!-- Generator: Adobe Illustrator 16.2.1, SVG Export Plug-In . SVG Version: 6.00 Build 0)  -->
<!DOCTYPE svg PUBLIC "-//W3C//DTD SVG 1.1//EN" "http://www.w3.org/Graphics/SVG/1.1/DTD/svg11.dtd">
<svg version="1.1" id="Isolation_Mode" xmlns="http://www.w3.org/2000/svg" xmlns:xlink="http://www.w3.org/1999/xlink" x="0px"
	 y="0px" width="302.8px" height="465px" viewBox="0 0 302.8 465" style="enable-background:new 0 0 302.8 465;"
	 xml:space="preserve">
<path style="fill:#00957F;" d="M151.4,0C67.9,0,0,67.9,0,151.4c0,34.2,11.8,67.9,33.3,94.5c12.2,15.1,26.4,28.5,38.8,43.5
	c15.6,18.9,35.2,46.1,48.6,79c12,29.4,6,71.8,11,83.7c3.8,9.1,12.3,12.9,19.7,12.9c8.9,0,21.6-7.1,22-22c0.2-21.6,1.8-52.3,9-75.2
	c8.2-26,38.9-67.1,48.3-78.4c13.4-16.2,29.1-30.8,41.9-47.4c12.5-16.1,21.5-35.8,26.2-55.6c2.7-11.3,4-23.3,4-35
	C302.8,67.9,234.9,0,151.4,0z M151.3,214c-33.7,0-61-27.3-61-61s27.3-61,61-61s61,27.3,61,61S185,214,151.3,214z"/>
</svg>
