<?xml version="1.0" encoding="utf-8"?>
<!-- Generator: Adobe Illustrator 16.2.1, SVG Export Plug-In . SVG Version: 6.00 Build 0)  -->
<!DOCTYPE svg PUBLIC "-//W3C//DTD SVG 1.1//EN" "http://www.w3.org/Graphics/SVG/1.1/DTD/svg11.dtd">
<svg version="1.1" id="Layer_1" xmlns="http://www.w3.org/2000/svg" xmlns:xlink="http://www.w3.org/1999/xlink" x="0px" y="0px"
	 width="432.8px" height="298px" viewBox="0 0 432.8 298" style="enable-background:new 0 0 432.8 298;" xml:space="preserve">
<g>
	<path style="fill:#039680;" d="M196.7,229.8h115.7c0,0,0,0,0,0c4.5,0,8.1-3.6,8.1-8.1c0-4.5-3.6-8.1-8.1-8.1H196.7
		c-4.5,0-8.1,3.6-8.1,8.1c0,0.8,0.2,1.5,0.4,2.2C190,227.3,193,229.8,196.7,229.8z"/>
	<path style="fill:#039680;" d="M399.5,103.6H178.1c-18.4,0-33.3,14.9-33.3,33.3l11.5,0h-11.5l0,34.2v17.2l0,51.8v23.3
		c-0.2,0.9-0.2,1.6,0,1.9c0,0.1,0,0.2,0,0.2c0.3,18.1,15.2,32.6,33.3,32.6h221.4c18.4,0,33.3-14.9,33.3-33.3V136.9
		C432.8,118.5,417.9,103.6,399.5,103.6z M409.9,264.7c0,5.8-4.6,10.4-10.4,10.4H178.1c-5.5,0-10-4.3-10.3-9.6v-33.9l0-39.1h242.2
		V264.7z M409.9,151.8H167.7v-14.9c0-5.8,4.7-10.4,10.4-10.4h221.4c5.7,0,10.4,4.6,10.4,10.4V151.8z"/>
	<path style="fill:#039680;" d="M295.8,85.5l-23.2-63.6C267.7,8.4,255,0,241.4,0c-3.9,0-7.7,0.7-11.4,2L21.9,77.7
		C8.4,82.6,0,95.4,0,109c0,3.8,0.6,7.7,2,11.4v0l43.7,120.2c4.9,13.5,17.6,21.9,31.2,21.9c3.8,0,7.7-0.6,11.4-2l38.3-14l0-51.7
		l-43.1,15.7c-0.9,0.3-1.8,0.5-2.8,0.5c-3.3,0-6.4-2.1-7.6-5.3c-1.5-4.2,0.7-8.8,4.8-10.4l48.6-17.7l0-40.7c0-0.4,0-0.8,0.1-1.2
		c0.7-27.7,23.4-50.1,51.3-50.1H295.8z M97.5,155.2l-24.2,8.8c-1.5,0.5-3.1,0.8-4.6,0.8c-5.5,0-10.6-3.3-12.5-8.7l-5.9-16.2
		c-0.6-1.5-0.9-3-0.9-4.6c0-5.5,3.4-10.6,8.8-12.5l24.2-8.8c1.5-0.5,3.1-0.8,4.6-0.8c5.4,0,10.5,3.4,12.5,8.8l5.9,16.2
		c0.6,1.5,0.8,3.1,0.8,4.6C106.2,148.2,102.8,153.2,97.5,155.2z"/>
</g>
</svg>
