<?xml version="1.0" encoding="utf-8"?>
<!-- Generator: Adobe Illustrator 16.2.1, SVG Export Plug-In . SVG Version: 6.00 Build 0)  -->
<!DOCTYPE svg PUBLIC "-//W3C//DTD SVG 1.1//EN" "http://www.w3.org/Graphics/SVG/1.1/DTD/svg11.dtd">
<svg version="1.1" id="Layer_1" xmlns="http://www.w3.org/2000/svg" xmlns:xlink="http://www.w3.org/1999/xlink" x="0px" y="0px"
	 width="310.1px" height="421.4px" viewBox="0 0 310.1 421.4" style="enable-background:new 0 0 310.1 421.4;" xml:space="preserve"
	>
<g>
	<path style="fill:#039680;" d="M110,53.1h9.7v24.9c2-0.4,4-0.7,6-1c2-0.3,4-0.5,6-0.7c5.8-0.6,11.7-0.9,17.7-0.9s11.9,0.3,17.7,0.9
		c2,0.2,4,0.5,6,0.7c2,0.3,4,0.6,6,1V53.1h9.7c3.3,0,6-2.7,6-6V6c0-3.3-2.7-6-6-6H110c-3.3,0-6,2.7-6,6v41.1
		C104,50.4,106.7,53.1,110,53.1z"/>
	<path style="fill:#039680;" d="M256.2,113.9c7.2,6,13.9,12.6,20,19.7c1.3,1.5,2.6,3.1,3.8,4.6c1.3,1.6,2.5,3.1,3.7,4.8l24.5-23.7
		c2.4-2.3,2.4-6.1,0.1-8.5L280.6,82c-1.1-1.1-2.6-1.8-4.2-1.8c-1.6,0-3.1,0.6-4.3,1.7l-25.5,24.7c1.6,1.2,3.3,2.4,4.9,3.6
		C253,111.3,254.6,112.6,256.2,113.9z"/>
	<path style="fill:#039680;" d="M46.1,350.5L62.4,338l16.4-12.7c-23.3-20-38.1-49.6-38.1-82.6c0-60,48.8-108.7,108.7-108.7
		c60,0,108.7,48.8,108.7,108.7c0,56.8-43.8,103.5-99.3,108.3v-18v-9c0-2.7-1.5-5.1-3.8-6.3c-2.4-1.2-5.2-1.1-7.4,0.5l-13.1,9.1
		l-5.7,3.9l-18.7,13l-19.5,13.5l-8.1,5.6c-1.9,1.3-3.1,3.5-3.1,5.9s1.1,4.5,3.1,5.9l5.9,4.1l13,9l30.4,21l15.8,11
		c1.2,0.8,2.6,1.3,4.1,1.3c1.1,0,2.3-0.3,3.3-0.8c2.4-1.2,3.8-3.7,3.8-6.3v-4.5v-18c78-4.9,140-69.9,140-149.1
		c0-32.5-10.5-62.6-28.2-87.2c-1.2-1.6-2.4-3.2-3.6-4.8c-1.2-1.6-2.5-3.1-3.8-4.6c-6.1-7.1-12.8-13.7-20.1-19.6
		c-1.6-1.3-3.2-2.5-4.8-3.7c-1.6-1.2-3.3-2.4-5-3.5c-16.1-11-34.5-18.9-54.3-22.9c-2-0.4-4-0.8-6-1.1c-2-0.3-4-0.6-6-0.8
		c-5.8-0.7-11.7-1.1-17.7-1.1s-11.9,0.4-17.7,1.1c-2,0.2-4,0.5-6,0.8c-2,0.3-4,0.7-6,1.1C51.5,110,0,170.5,0,242.7
		C0,285,17.7,323.3,46.1,350.5z"/>
	<path style="fill:#039680;" d="M149.4,271c15.7,0,28.3-12.7,28.3-28.3c0-10.9-6.2-20.4-15.2-25.1l-3-54.3c-0.3-5.2-4.5-9.4-9.7-9.7
		c-5.7-0.3-10.5,4.1-10.7,9.7l-2.6,54.2c-9.1,4.7-15.3,14.2-15.3,25.2C121.1,258.3,133.8,271,149.4,271z"/>
</g>
</svg>
