<?xml version="1.0" encoding="utf-8"?>
<!-- Generator: Adobe Illustrator 16.2.1, SVG Export Plug-In . SVG Version: 6.00 Build 0)  -->
<!DOCTYPE svg PUBLIC "-//W3C//DTD SVG 1.1//EN" "http://www.w3.org/Graphics/SVG/1.1/DTD/svg11.dtd">
<svg version="1.1" id="Layer_1" xmlns="http://www.w3.org/2000/svg" xmlns:xlink="http://www.w3.org/1999/xlink" x="0px" y="0px"
	 width="302.8px" height="465px" viewBox="0 0 302.8 465" style="enable-background:new 0 0 302.8 465;" xml:space="preserve">
<g>
	<path style="fill:#039680;" d="M151.4,0C67.9,0,0,67.9,0,151.4c0,34.2,11.8,67.9,33.3,94.5c12.2,15.1,26.4,28.5,38.8,43.5
		c15.6,18.9,35.2,46.1,48.6,79c12,29.4,6,71.8,11,83.7c3.8,9.1,12.3,12.9,19.7,12.9c8.9,0,21.6-7.1,22-22c0.2-21.6,1.8-52.3,9-75.2
		c8.2-26,38.9-67.1,48.3-78.4c13.4-16.2,29.1-30.8,41.9-47.4c12.5-16.1,21.5-35.8,26.2-55.6c2.7-11.3,4-23.3,4-35
		C302.8,67.9,234.9,0,151.4,0z M143.5,128.6c-0.1,11.1-10.2,21-21,24.7c0,0,6.2,40.2,6.2,87.9c0,8.1-7.7,14.9-17.2,14.9
		c-9.5,0-17.2-6.8-17.2-14.9c0-47.7,6.2-87.9,6.2-87.9c-10.8-3.7-20.9-13.7-21-24.7l0-42.8c0-3.4,2.9-6.1,6.5-6.1
		c3.6,0,6.5,2.7,6.5,6.1v42.8v0H105V85.8c0-3.4,2.9-6.1,6.5-6.1c3.6,0,6.5,2.7,6.5,6.1v42.8l12.4,0V85.8c0-3.4,2.9-6.1,6.5-6.1
		c3.6,0,6.5,2.7,6.5,6.1V128.6z M217.7,242.4c0,7.6-7.9,13.7-17.4,13.7c-9.5,0-17.2-6.1-17.2-13.7c0-47.1,10.6-57,10.6-68.2
		s-15.8-16.6-15.8-38.7c0-54.2,39.8-72.7,39.8-48.5C217.7,124,217.7,242.4,217.7,242.4z"/>
</g>
</svg>
