<?xml version="1.0" encoding="utf-8"?>
<!-- Generator: Adobe Illustrator 16.2.1, SVG Export Plug-In . SVG Version: 6.00 Build 0)  -->
<!DOCTYPE svg PUBLIC "-//W3C//DTD SVG 1.1//EN" "http://www.w3.org/Graphics/SVG/1.1/DTD/svg11.dtd">
<svg version="1.1" id="Layer_1" xmlns="http://www.w3.org/2000/svg" xmlns:xlink="http://www.w3.org/1999/xlink" x="0px" y="0px"
	 width="345.3px" height="416.1px" viewBox="0 0 345.3 416.1" style="enable-background:new 0 0 345.3 416.1;" xml:space="preserve"
	>
<g>
	<path style="fill:#039680;" d="M139.9,253v-0.3c13.6-4.6,20.3-14,20.3-25.7c0-15.2-13.1-27.6-36.6-27.6c-14.5,0-27.6,4.1-34.2,8.3
		l5.3,18.7c4.4-2.7,14-6.6,23-6.6c11.1,0,16.3,4.9,16.3,11.6c0,9.4-10.9,12.8-19.6,12.8h-10.2v18.6h10.6c11.4,0,22.3,4.9,22.3,16
		c0,8.2-6.8,14.6-20.3,14.6c-10.6,0-21.1-4.3-25.7-6.8l-5.3,19.6c6.5,3.9,18.6,7.7,32.9,7.7c28.1,0,45.3-14.3,45.3-33.7
		C163.9,265.5,153.2,255.4,139.9,253z"/>
	<path style="fill:#039680;" d="M222.3,199.4c-28.6,0-42.1,25.2-42.1,57.4c0.2,31.3,12.8,57,41.4,57c28.1,0,41.9-23.7,41.9-57.7
		C263.5,225.8,251.8,199.4,222.3,199.4z M222.2,294.2c-9.9,0-16-12.1-16-37.5c0-25.9,6.5-37.8,15.8-37.8c10.4,0,15.7,12.9,15.7,37.5
		C237.7,281.6,232.2,294.2,222.2,294.2z"/>
	<path style="fill:#039680;" d="M130.8,56.3h10.3v26.4c10.2-1.8,20.8-2.8,31.5-2.8c10.8,0,21.3,1,31.5,2.8V56.3h10.3
		c3.5,0,6.4-2.8,6.4-6.4V6.4c0-3.5-2.8-6.4-6.4-6.4h-83.7c-3.5,0-6.4,2.8-6.4,6.4V50C124.4,53.5,127.3,56.3,130.8,56.3z"/>
	<path style="fill:#039680;" d="M343.5,117.5L314,87c-1.2-1.2-2.8-1.9-4.5-1.9c-1.7,0-3.3,0.6-4.5,1.8l-28,27.1
		c15,10.9,28.1,24.1,39.1,39l27.3-26.3C345.9,124.1,345.9,120.1,343.5,117.5z"/>
	<path style="fill:#039680;" d="M68.3,113.9l-28-27.1c-1.2-1.2-2.8-1.8-4.5-1.8c-1.7,0-3.3,0.7-4.5,1.9L1.8,117.5
		c-1.2,1.2-1.8,2.8-1.8,4.5c0,1.7,0.7,3.3,1.9,4.5l27.3,26.3C40.2,137.9,53.3,124.8,68.3,113.9z"/>
	<path style="fill:#039680;" d="M172.6,99C85.2,99,14.1,170.1,14.1,257.5c0,87.4,71.1,158.6,158.6,158.6S331.2,345,331.2,257.5
		C331.2,170.1,260.1,99,172.6,99z M172.6,372.9c-63.6,0-115.4-51.8-115.4-115.4c0-63.6,51.8-115.4,115.4-115.4S288,193.9,288,257.5
		C288,321.2,236.3,372.9,172.6,372.9z"/>
</g>
</svg>
