<?xml version="1.0" encoding="utf-8"?>
<!-- Generator: Adobe Illustrator 16.2.1, SVG Export Plug-In . SVG Version: 6.00 Build 0)  -->
<!DOCTYPE svg PUBLIC "-//W3C//DTD SVG 1.1//EN" "http://www.w3.org/Graphics/SVG/1.1/DTD/svg11.dtd">
<svg version="1.1" id="Layer_1" xmlns="http://www.w3.org/2000/svg" xmlns:xlink="http://www.w3.org/1999/xlink" x="0px" y="0px"
	 width="405px" height="459.1px" viewBox="0 0 405 459.1" style="enable-background:new 0 0 405 459.1;" xml:space="preserve">
<g>
	<path style="fill:#039680;" d="M127.3,320.3c0-10.8-8.8-19.6-19.6-19.6c-10.8,0-19.6,8.8-19.6,19.6c0,10.8,8.8,19.6,19.6,19.6
		C118.5,339.9,127.3,331.1,127.3,320.3z"/>
	<path style="fill:#039680;" d="M215.1,320.3c0-10.8-8.8-19.6-19.6-19.6c-10.8,0-19.6,8.8-19.6,19.6c0,10.8,8.8,19.6,19.6,19.6
		C206.3,339.9,215.1,331.1,215.1,320.3z"/>
	<path style="fill:#039680;" d="M402.1,86.4c-1.8-1.1-4.1-1.2-6-0.2c-5.2,2.8-10.4,4.2-15.9,4.2c-18.9,0-39-16.4-62.3-35.4
		C286.4,29.2,250.6,0,203.5,0c-14.7,0-29.9,3-45,8.8c-25.5,9.9-43.7,31.5-52.7,62.5c-1.5,5.3-2.7,10.4-3.5,15.2
		c-53.6,18.9-85,62.2-81.6,94.5v50.6c-31.6,19-25.5,90,7.8,108.4c13.5,46.3,39.3,78.7,65.8,98.3c-3-11.7-0.5-22.3,4-30.5
		c-36.1-34.5-43-69.4-47.6-88.6l-8.2-1.3c-17.4-6.4-21.8-52.8-9.9-62.9c16.7,22.7,63.8,39.1,119.3,39.1
		c55.7,0,102.9-16.5,119.4-39.4c11,8.6,8.2,44.8-2.2,57.5h0c-6,7.2-8.7,5.4-14.7,6.9c-4.9,29.7-25.1,65.3-40.3,81.8
		c43.6-4.9,47.3-19.9,58.9-51.6l0,0.3c0.1-0.2,0.1-0.3,0.2-0.5c4.5,12.1,8.2,29.7-0.1,43.6c-10.3,17.5-38.1,26.9-80.8,27.5
		c-4.8-13.1-20.7-22.8-39.7-23c-0.1,0-0.3,0-0.4,0c-22.7,0-41.1,13.7-41.2,30.7c-0.1,17.1,18.3,31.1,41.2,31.3c0.1,0,0.3,0,0.4,0
		c15,0,28.2-6,35.4-15c55,0,90.6-13.3,106-39.5c17.1-29.2,2.8-63.9-3.9-77.1c13.2-17,26.5-73.9-4.7-95v-57.8
		c-4.1-66.6-61.3-76.5-86.2-85.5c-12.2-4.4-5.5-5.1,1.1-5.1c83.8,0,105.3,62.3,110.7,88.4c5.1,0.6,9.9,1,14.6,1
		c39.4,0,59-22.5,68.5-41.3c10-19.9,10.9-39.6,10.9-40.5C405,89.6,404,87.5,402.1,86.4z M49.9,239.5c0,0,10.5-12.5,53.4-18.7
		c7.5,28.4,29.2,55.4,29.2,55.4S75,273.5,49.9,239.5z M261.3,178v34c-21.6-12.9-62.5-17.8-109.4-17.8c-45.5,0-85.3,4.6-107.4,16.6
		c-0.2-12.1-0.4-31.4,0.2-32.8c0.7-2.1,19-22.3,107.8-22.3C241.3,155.7,261.3,178,261.3,178z"/>
</g>
</svg>
