<?xml version="1.0" encoding="utf-8"?>
<!-- Generator: Adobe Illustrator 16.2.1, SVG Export Plug-In . SVG Version: 6.00 Build 0)  -->
<!DOCTYPE svg PUBLIC "-//W3C//DTD SVG 1.1//EN" "http://www.w3.org/Graphics/SVG/1.1/DTD/svg11.dtd">
<svg version="1.1" id="Layer_1" xmlns="http://www.w3.org/2000/svg" xmlns:xlink="http://www.w3.org/1999/xlink" x="0px" y="0px"
	 width="390.9px" height="291.7px" viewBox="0 0 390.9 291.7" style="enable-background:new 0 0 390.9 291.7;" xml:space="preserve"
	>
<g>
	<path style="fill:#00957F;" d="M366.9,82.8c0,57.7,0,115.3,0,173c-107.4,46.9-214.7-61.6-322.1-33.6c0,8,0,16,0,23.9
		c115.4-30.1,230.7,97.4,346.1,20.4c0-65.7,0-131.3,0-197C382.9,75,374.9,79.3,366.9,82.8z"/>
	<path style="fill:#00957F;" d="M346.1,242.5c0-65.7,0-131.3,0-197C230.7,75.6,115.4-51.9,0,25.1c0,65.7,0,131.3,0,197
		C115.4,145.1,230.7,272.6,346.1,242.5z M60.8,174.5c-4.4-17.5-18.7-30-36.9-26.5c0-25,0-50,0-75c18.2-12.4,32.6-28.6,36.9-47.6
		c74.7-10.5,149.5,38,224.2,47.2c4.4,18.8,18.7,35.2,37,38c0,25,0,50,0,75c-18.2,6-32.6,18.3-37,36.1
		C210.4,212.6,135.6,164,60.8,174.5z"/>
	<circle style="fill:#00957F;" cx="69.9" cy="97.2" r="15.6"/>
	<circle style="fill:#00957F;" cx="276.7" cy="146.5" r="15.6"/>
</g>
<g>
	<path style="fill:#00957F;" d="M173,56.7c-32.9-11-59.5,11.3-59.5,44.4c0,32.7,26.7,63.7,59.5,74.7c32.9,10.9,59.5-7.1,59.5-40.2
		C232.6,102.9,205.9,67.6,173,56.7z M180.6,152.8V164l-12.6-4.6v-10.2c-7.7-3.1-15.2-8-19.5-11.7l3.6-14c5,4.2,11.8,9.1,19.3,11.9
		c5.6,2,9.5,1.9,9.5-1.6c0-3.4-3.2-6.7-11.5-12.2c-11.9-8.2-20.4-16.9-20.4-28c0-10,6.9-15.4,19.5-13.4V70l12.6,4.6v9.3
		c7.6,3.1,12.8,6.5,16.6,9.6l-3.5,13.4c-3-2.3-8.3-6.8-16.6-9.8c-6.5-2.4-8.5-0.8-8.5,1.6c0,2.8,3.7,6.2,13,12.9
		C196,121,201,129.2,201,139.2C201,149.4,193.8,155.3,180.6,152.8z"/>
</g>
</svg>
