<?xml version="1.0" encoding="utf-8"?>
<!-- Generator: Adobe Illustrator 16.2.1, SVG Export Plug-In . SVG Version: 6.00 Build 0)  -->
<!DOCTYPE svg PUBLIC "-//W3C//DTD SVG 1.1//EN" "http://www.w3.org/Graphics/SVG/1.1/DTD/svg11.dtd">
<svg version="1.1" id="Layer_1" xmlns="http://www.w3.org/2000/svg" xmlns:xlink="http://www.w3.org/1999/xlink" x="0px" y="0px"
	 width="370.5px" height="465.6px" viewBox="0 0 370.5 465.6" style="enable-background:new 0 0 370.5 465.6;" xml:space="preserve"
	>
<g>
	<path style="fill:#039680;" d="M136.3,332.1c11.9,0,21.7-9.7,21.7-21.7c0-12-9.7-21.7-21.7-21.7c-12,0-21.7,9.7-21.7,21.7
		C114.7,322.4,124.3,332.1,136.3,332.1z"/>
	<path style="fill:#039680;" d="M233.5,288.8c-12,0-21.7,9.7-21.7,21.7c0,12,9.7,21.7,21.7,21.7c11.9,0,21.6-9.7,21.6-21.7
		C255.1,298.5,245.4,288.8,233.5,288.8z"/>
	<path style="fill:#039680;" d="M370.5,102c0-43.3-35.2-78.6-78.5-78.6c-11.7,0-23.1,2.6-33.5,7.5C239.3,11.2,213.2,0,185.2,0
		c-27.9,0-54.1,11.2-73.2,30.9c-10.4-4.9-21.8-7.5-33.5-7.5C35.2,23.5,0,58.7,0,102c0,34,21.5,63.6,52.8,74.3l-0.1,52.3
		c-9.6,2.8-16,8-20,12.7c-10.7,12.5-14.3,32-10.6,56.3c4.1,26.1,17.8,40,29.3,46c12.8,44.7,38.4,73.3,58.1,89.6
		c24.1,20,52.9,32.4,75.3,32.4c22.6,0,51.5-12.2,75.4-31.7c19.9-16.2,45.5-44.9,57.9-90.3c11.4-6.1,25.1-20,29.1-46
		c3.8-24.3,0.2-43.8-10.5-56.3c-4-4.6-10.3-9.9-19.9-12.7l0.1-52.1C348.6,166.1,370.5,136.3,370.5,102z M318.9,293.2
		c-3.2,20.6-14,25.1-16.2,25.8l-8.6,1.3l-2.2,9.5c-17.3,74.7-79.3,107-107.2,107c-11.9,0-34-6.7-56.9-25.7
		c-17.4-14.4-40.3-40.3-50.5-81.5l-1.4-9.2l-9.3-1.4c-2.1-0.7-12.9-5.2-16.2-25.8c-2.4-15.3-0.9-27.4,4-33.2
		c1.6-1.9,4.5-4.3,11.6-4.5v22.9c0,6.5,5.3,11.9,11.9,11.9c6.5,0,11.8-5.3,11.8-11.9v-13.2c2.4-0.2,5-0.7,7.7-1.6
		c21.3-7.1,35.3-17.6,44.5-28.2c18.5,21.4,57.7,43.9,136.5,18.6v24.4c0,6.5,5.3,11.9,11.9,11.9s11.9-5.3,11.9-11.9v-22.9h0.1
		c7.7,0,10.8,2.6,12.5,4.5C319.8,265.8,321.3,277.9,318.9,293.2z M301.2,153.4c-6.3,1.1-10.8,6.6-10.8,13v16.8v8.4v12.9
		c-0.7-0.2-1.5-0.3-2.2-0.5c-20.7-4.4-56.9-10.2-102.6-10.2c-21.3,0-40.5,1.3-57.1,3.1c-19.7,2.1-35.7,5-47,7.4
		c-0.5,0.1-1,0.2-1.4,0.3v-6.9v-4.1v-10.2v-16.8c0-6.4-4.6-11.8-10.8-13c-24.8-4.5-42.9-26.1-42.9-51.4c0-28.8,23.4-52.2,52.2-52.2
		c10.4,0,20.4,3,29,8.8c5.8,3.9,13.5,2.6,17.7-2.9c14.5-18.7,36.3-29.4,59.9-29.4c23.6,0,45.4,10.7,59.9,29.4
		c4.2,5.5,12,6.7,17.7,2.9c8.6-5.8,18.6-8.8,29-8.8c28.8,0,52.2,23.4,52.2,52.2C344.1,127.3,326.1,148.9,301.2,153.4z"/>
	<path style="fill:#039680;" d="M250.6,376.6c-1.2-0.9-2.8-0.8-4,0.2c-6.3,5.5-11.9,8.2-16.7,8.2c-7.3,0-12.6-6.5-17.8-12.9
		c-5-6.2-9.7-12-16.5-12c-2.8,0-5.6,1.1-8.4,3.2c-0.9,0.7-1.7,1.5-2.3,2.4c-0.6-0.9-1.4-1.7-2.3-2.4c-2.8-2.1-5.6-3.2-8.4-3.2
		c-6.7,0-11.5,5.8-16.5,12c-5.1,6.3-10.4,12.9-17.8,12.9h0c-4.8,0-10.4-2.8-16.7-8.2c-1.1-1-2.8-1-4-0.2s-1.6,2.5-1,3.8
		c8.7,19.8,21.2,23.9,30.2,23.9c15.3,0,31.1-12.5,36.4-24.5c5.3,12,21.1,24.5,36.4,24.5c9,0,21.5-4.1,30.2-23.9
		C252.2,379,251.8,377.5,250.6,376.6z"/>
</g>
</svg>
