<?xml version="1.0" encoding="utf-8"?>
<!-- Generator: Adobe Illustrator 17.1.0, SVG Export Plug-In . SVG Version: 6.00 Build 0)  -->
<!DOCTYPE svg PUBLIC "-//W3C//DTD SVG 1.1//EN" "http://www.w3.org/Graphics/SVG/1.1/DTD/svg11.dtd">
<svg version="1.1" id="Layer_1" xmlns="http://www.w3.org/2000/svg" xmlns:xlink="http://www.w3.org/1999/xlink" x="0px" y="0px"
	 viewBox="0 0 444.4 228.1" enable-background="new 0 0 444.4 228.1" xml:space="preserve">
<ellipse fill="#EDE1B3" cx="223.6" cy="193.1" rx="43.1" ry="13.4"/>
<path fill="#95523B" d="M247.6,129.9c6.6,5.7,14,16.4,14,35.9c0,2.6-2.1,4.8-4.8,4.8c-2.6,0-4.8-2.1-4.8-4.8c0,0,0-0.8,0-1.5
	c-0.3,0-0.6,0-0.6,0c-1.7,0-3-1.3-3-3c0-1.7,1.3-3,3-3c0,0,0.1,0,0.2,0c-1.8-13.8-7.2-18.9-11.7-22.2c0.6,16.8,1.3,54.1,1.3,54.1
	c0,0.1,0,0.2,0,0.3c0,0.1,0,0.1,0,0.2c0,2.7-2.2,4.9-4.9,4.9c-2.7,0-4.8-2.1-4.9-4.8h0v-11.5c-0.2-4.7-4.1-8.5-8.8-8.5
	c-4.6,0-8.4,3.5-8.8,8v12h0c-0.1,2.6-2.2,4.8-4.9,4.8c-2.7,0-4.9-2.2-4.9-4.9c0-0.1,0-0.1,0-0.2c0-0.1,0-0.2,0-0.3
	c0,0,0.4-43.4,0.5-54.4c-4.6,3.3-10.4,8.2-12.2,22.6c0,0,0.2,0,0.2,0c1.7,0,3,1.3,3,3c0,1.7-1.4,3-3,3c0,0-0.4,0-0.6,0
	c0,0.8,0,1.5,0,1.5c0,2.6-2.1,4.8-4.8,4.8c-2.6,0-4.8-2.1-4.8-4.8c0-19.5,7.4-30.2,14-35.9c0,0,9.7-8.3,24.5-8.3
	C220.7,121.6,237.2,121.5,247.6,129.9z"/>
<path fill="#82453B" d="M199.2,140.2c1.7-2,3.5-3.4,5.2-4.5c0,1.5,0,3.6,0,6.1c9.3,2.4,19.2,3.1,28,3.1c2.6,0,5.2,0,7.8-0.1
	c-0.1-3.2-0.2-6.2-0.3-8.7c2.6,1.9,5.4,4.3,7.7,8.5c3.3-0.2,6.7-0.5,9.9-0.9c-2.7-6.3-6.4-10.7-9.9-13.7
	c-10.4-8.5-26.8-8.3-26.8-8.3c-14.8,0-24.5,8.3-24.5,8.3c-2,1.7-4,3.8-5.8,6.4C193.2,137.9,196.2,139.2,199.2,140.2z"/>
<path fill="#F8971D" d="M221.4,0c-33,0-73.6,14-77.3,60.3c-3.8,47.5,34.2,74.8,78.1,74.8c49.3,0,82.8-28.2,78.4-74.8
	C296.3,14,254.4,0,221.4,0z"/>
<path fill="#F57E20" d="M209.4,83.6c-4-19.7-10.8-29.8-20.6-42.6c-5.9-7.7-16-15.7-27.1-20.3c-9.5,9.3-16.2,22.1-17.6,39.6
	c-3.8,47.5,34.2,74.8,78.1,74.8c3.1,0,6.1-0.1,9.1-0.3C219.9,123.9,212.5,98.9,209.4,83.6z"/>
<path fill="#FCC8A0" d="M266.9,76.2c5.8,5.1,9.2,11.2,9.2,17.9c0,17.6-15.7,31.9-53.5,31.9C187,126,170,111.6,170,94.1
	c0-6.6,3.3-12.7,9.1-17.8c9.5-8.5,25.7-4,44-4C241.3,72.3,257.3,67.8,266.9,76.2z"/>
<path fill="#FBBD92" d="M206.4,71.6c-11.7-0.8-20.6-1.2-27.3,4.7c-5.7,5.1-9.1,11.2-9.1,17.8c0,17.6,17,31.9,52.6,31.9
	c0.7,0,1.3,0,2,0C211.9,112.3,215.8,84.4,206.4,71.6z"/>
<path fill="#F58663" d="M224.6,99.5c0,1-0.8,1.9-1.9,1.9c-1,0-1.9-0.8-1.9-1.9c0-1,0.8-1.9,1.9-1.9
	C223.8,97.6,224.6,98.4,224.6,99.5z"/>
<path fill="#FDF9D1" d="M224,141.3c0,1-0.8,1.9-1.9,1.9c-1,0-1.9-0.8-1.9-1.9c0-1,0.8-1.9,1.9-1.9C223.1,139.4,224,140.3,224,141.3z
	"/>
<path fill="#FDF9D1" d="M224,150.1c0,1-0.8,1.9-1.9,1.9c-1,0-1.9-0.8-1.9-1.9c0-1,0.8-1.9,1.9-1.9C223.1,148.3,224,149.1,224,150.1z
	"/>
<path fill="#FFFFFF" d="M209.2,92.8c0,5.7-4.6,10.3-10.3,10.3c-5.7,0-10.3-4.6-10.3-10.3c0-5.7,4.6-10.3,10.3-10.3
	C204.6,82.5,209.2,87.1,209.2,92.8z"/>
<path fill="#A25049" d="M202.6,93c0,2-1.6,3.6-3.6,3.6c-2,0-3.6-1.6-3.6-3.6c0-2,1.6-3.6,3.6-3.6C201,89.4,202.6,91,202.6,93z"/>
<path fill="#FFFFFF" d="M236.3,92.8c0,5.7,4.6,10.3,10.3,10.3c5.7,0,10.3-4.6,10.3-10.3c0-5.7-4.6-10.3-10.3-10.3
	C240.9,82.5,236.3,87.1,236.3,92.8z"/>
<path fill="#A25049" d="M242.9,93c0,2,1.6,3.6,3.6,3.6c2,0,3.6-1.6,3.6-3.6c0-2-1.6-3.6-3.6-3.6C244.6,89.4,242.9,91,242.9,93z"/>
<polygon fill="#87AD3F" points="202.1,7.9 205.3,12.2 211.1,8.9 209,14 215.9,14.4 209.7,17.3 213.5,21.3 206.9,20.3 205.4,25.5 
	202.2,21.2 196.4,24.5 198.5,19.5 191.6,19 197.8,16.1 194,12.1 200.7,13.1 "/>
<circle fill="#FEC23A" cx="246.8" cy="37" r="1.7"/>
<circle fill="#FEC23A" cx="254.6" cy="34.5" r="1.7"/>
<circle fill="#FEC23A" cx="262.4" cy="32" r="1.7"/>
<circle fill="#FEC23A" cx="270.2" cy="29.5" r="1.7"/>
<circle fill="#FEC23A" cx="278" cy="27" r="1.7"/>
<circle fill="#FEC23A" cx="252.9" cy="41.8" r="1.7"/>
<circle fill="#FEC23A" cx="260.7" cy="39.3" r="1.7"/>
<circle fill="#FEC23A" cx="268.5" cy="36.8" r="1.7"/>
<circle fill="#FEC23A" cx="258.7" cy="47.2" r="1.7"/>
<circle fill="#FEC23A" cx="266.5" cy="44.7" r="1.7"/>
<circle fill="#FEC23A" cx="258.2" cy="18.9" r="1.7"/>
<circle fill="#FEC23A" cx="274.3" cy="42.2" r="1.7"/>
<circle fill="#FEC23A" cx="276.3" cy="34.3" r="1.7"/>
<circle fill="#FEC23A" cx="248.8" cy="29.1" r="1.7"/>
<circle fill="#FEC23A" cx="256.6" cy="26.6" r="1.7"/>
<circle fill="#FEC23A" cx="264.4" cy="24.1" r="1.7"/>
<circle fill="#FEC23A" cx="272.2" cy="21.6" r="1.7"/>
<circle fill="#F8971D" cx="155.4" cy="57.7" r="1.7"/>
<circle fill="#F8971D" cx="163.2" cy="55.2" r="1.7"/>
<circle fill="#F8971D" cx="171" cy="52.7" r="1.7"/>
<circle fill="#F8971D" cx="178.8" cy="50.2" r="1.7"/>
<circle fill="#F8971D" cx="186.6" cy="47.7" r="1.7"/>
<circle fill="#F8971D" cx="161.5" cy="62.5" r="1.7"/>
<circle fill="#F8971D" cx="169.3" cy="60" r="1.7"/>
<circle fill="#F8971D" cx="177.1" cy="57.5" r="1.7"/>
<circle fill="#F8971D" cx="167.3" cy="67.9" r="1.7"/>
<circle fill="#F8971D" cx="175.1" cy="65.4" r="1.7"/>
<circle fill="#F8971D" cx="166.8" cy="39.6" r="1.7"/>
<circle fill="#F8971D" cx="182.9" cy="62.9" r="1.7"/>
<circle fill="#F8971D" cx="184.9" cy="55" r="1.7"/>
<circle fill="#F8971D" cx="157.4" cy="49.8" r="1.7"/>
<circle fill="#F8971D" cx="165.2" cy="47.3" r="1.7"/>
<circle fill="#F8971D" cx="173" cy="44.8" r="1.7"/>
<circle fill="#F8971D" cx="180.8" cy="42.3" r="1.7"/>
<ellipse fill="#E8E5DB" cx="289.4" cy="180.7" rx="8.1" ry="2.6"/>
<ellipse fill="#FEC23A" cx="311.4" cy="182.9" rx="23.3" ry="6.9"/>
<ellipse fill="#EDE1B3" cx="132.5" cy="187.1" rx="12.7" ry="5.1"/>
<path fill="#F8971D" d="M131.3,166.3c-5.6,0-12.5,2.4-13.1,10.2c-0.6,8.1,5.8,12.7,13.3,12.7c8.4,0,14.1-4.8,13.3-12.7
	C144.1,168.7,136.9,166.3,131.3,166.3z"/>
<path fill="#F8971D" d="M290.8,164.6c-4.3,0-9.7,1.8-10.1,7.9c-0.5,6.2,4.5,9.8,10.3,9.8c6.5,0,10.9-3.7,10.3-9.8
	C300.6,166.4,295.1,164.6,290.8,164.6z"/>
<path fill="#F57E20" d="M289.2,175.6c-0.5-2.6-1.4-3.9-2.7-5.6c-0.8-1-2.1-2.1-3.6-2.7c-1.2,1.2-2.1,2.9-2.3,5.2
	c-0.5,6.2,4.5,9.8,10.3,9.8c0.4,0,0.8,0,1.2,0C290.6,180.8,289.6,177.6,289.2,175.6z"/>
<polygon fill="#87AD3F" points="288.2,165.6 288.7,166.2 289.4,165.7 289.2,166.4 290,166.5 289.2,166.9 289.7,167.4 288.9,167.2 
	288.7,167.9 288.3,167.4 287.5,167.8 287.8,167.1 286.9,167.1 287.7,166.7 287.2,166.2 288.1,166.3 "/>
<circle fill="#FEC23A" cx="294.1" cy="169.4" r="0.2"/>
<circle fill="#FEC23A" cx="295.1" cy="169.1" r="0.2"/>
<circle fill="#FEC23A" cx="296.2" cy="168.8" r="0.2"/>
<circle fill="#FEC23A" cx="297.2" cy="168.5" r="0.2"/>
<circle fill="#FEC23A" cx="298.2" cy="168.1" r="0.2"/>
<circle fill="#FEC23A" cx="294.9" cy="170.1" r="0.2"/>
<circle fill="#FEC23A" cx="295.9" cy="169.7" r="0.2"/>
<circle fill="#FEC23A" cx="297" cy="169.4" r="0.2"/>
<circle fill="#FEC23A" cx="295.7" cy="170.8" r="0.2"/>
<circle fill="#FEC23A" cx="296.7" cy="170.5" r="0.2"/>
<circle fill="#FEC23A" cx="295.6" cy="167.1" r="0.2"/>
<circle fill="#FEC23A" cx="297.7" cy="170.1" r="0.2"/>
<circle fill="#FEC23A" cx="298" cy="169.1" r="0.2"/>
<circle fill="#FEC23A" cx="294.4" cy="168.4" r="0.2"/>
<circle fill="#FEC23A" cx="295.4" cy="168.1" r="0.2"/>
<circle fill="#FEC23A" cx="296.4" cy="167.7" r="0.2"/>
<circle fill="#FEC23A" cx="297.4" cy="167.4" r="0.2"/>
<circle fill="#F8971D" cx="282.1" cy="172.2" r="0.2"/>
<circle fill="#F8971D" cx="283.1" cy="171.8" r="0.2"/>
<circle fill="#F8971D" cx="284.2" cy="171.5" r="0.2"/>
<circle fill="#F8971D" cx="285.2" cy="171.2" r="0.2"/>
<circle fill="#F8971D" cx="286.2" cy="170.8" r="0.2"/>
<circle fill="#F8971D" cx="282.9" cy="172.8" r="0.2"/>
<circle fill="#F8971D" cx="283.9" cy="172.5" r="0.2"/>
<circle fill="#F8971D" cx="285" cy="172.1" r="0.2"/>
<circle fill="#F8971D" cx="283.7" cy="173.5" r="0.2"/>
<circle fill="#F8971D" cx="284.7" cy="173.2" r="0.2"/>
<circle fill="#F8971D" cx="283.6" cy="169.8" r="0.2"/>
<circle fill="#F8971D" cx="285.7" cy="172.8" r="0.2"/>
<circle fill="#F8971D" cx="286" cy="171.8" r="0.2"/>
<circle fill="#F8971D" cx="282.4" cy="171.1" r="0.2"/>
<circle fill="#F8971D" cx="283.4" cy="170.8" r="0.2"/>
<circle fill="#F8971D" cx="284.4" cy="170.5" r="0.2"/>
<circle fill="#F8971D" cx="285.4" cy="170.1" r="0.2"/>
<ellipse fill="#FEC23A" cx="329.6" cy="188.3" rx="7.6" ry="2.6"/>
<ellipse fill="#FEC23A" cx="322.5" cy="195.3" rx="3.3" ry="1.3"/>
<ellipse fill="#F58663" cx="223.2" cy="114.6" rx="8.2" ry="5.4"/>
<ellipse fill="#EDE1B3" cx="370.3" cy="206.8" rx="12.7" ry="5.1"/>
<ellipse fill="#EDE1B3" cx="316.6" cy="223" rx="12.7" ry="5.1"/>
<ellipse fill="#EDE1B3" cx="52.8" cy="201.8" rx="11.8" ry="5.3"/>
<ellipse fill="#FEC23A" cx="89.7" cy="203.8" rx="23.3" ry="6.9"/>
<path fill="#F8971D" d="M50.7,180.9c-5.6,0-12.5,2.4-13.1,10.2c-0.6,8.1,5.8,12.7,13.3,12.7c8.4,0,14.1-4.8,13.3-12.7
	C63.4,183.3,56.3,180.9,50.7,180.9z"/>
<path fill="#F57E20" d="M48.6,195.1c-0.7-3.3-1.8-5.1-3.5-7.2c-1-1.3-2.7-2.7-4.6-3.5c-1.6,1.6-2.7,3.8-3,6.7
	c-0.6,8.1,5.8,12.7,13.3,12.7c0.5,0,1,0,1.5-0.1C50.4,202,49.1,197.7,48.6,195.1z"/>
<circle fill="#FEC23A" cx="57" cy="189" r="0.3"/>
<circle fill="#FEC23A" cx="58.3" cy="188.5" r="0.3"/>
<circle fill="#FEC23A" cx="59.6" cy="188.1" r="0.3"/>
<circle fill="#F8971D" cx="39.4" cy="190.7" r="0.3"/>
<circle fill="#F8971D" cx="40.8" cy="190.3" r="0.3"/>
<circle fill="#F8971D" cx="42.1" cy="189.9" r="0.3"/>
<circle fill="#F8971D" cx="43.4" cy="189.5" r="0.3"/>
<circle fill="#F8971D" cx="44.7" cy="189" r="0.3"/>
<circle fill="#F8971D" cx="40.5" cy="191.6" r="0.3"/>
<circle fill="#F8971D" cx="41.8" cy="191.1" r="0.3"/>
<circle fill="#F8971D" cx="43.1" cy="190.7" r="0.3"/>
<circle fill="#F8971D" cx="41.5" cy="192.5" r="0.3"/>
<circle fill="#F8971D" cx="42.8" cy="192.1" r="0.3"/>
<circle fill="#F8971D" cx="44.1" cy="191.6" r="0.3"/>
<circle fill="#F8971D" cx="44.4" cy="190.3" r="0.3"/>
<circle fill="#F8971D" cx="39.8" cy="189.4" r="0.3"/>
<circle fill="#F8971D" cx="41.1" cy="189" r="0.3"/>
<circle fill="#F8971D" cx="42.4" cy="188.5" r="0.3"/>
<circle fill="#F8971D" cx="43.8" cy="188.1" r="0.3"/>
<path fill="#F8971D" d="M369.2,185.9c-5.6,0-12.5,2.4-13.1,10.2c-0.6,8.1,5.8,12.7,13.3,12.7c8.4,0,14.1-4.8,13.3-12.7
	C381.9,188.3,374.8,185.9,369.2,185.9z"/>
<path fill="#F57E20" d="M367.1,200.1c-0.7-3.3-1.8-5.1-3.5-7.2c-1-1.3-2.7-2.7-4.6-3.5c-1.6,1.6-2.7,3.8-3,6.7
	c-0.6,8.1,5.8,12.7,13.3,12.7c0.5,0,1,0,1.5-0.1C368.9,207,367.6,202.7,367.1,200.1z"/>
<polygon fill="#87AD3F" points="365.9,187.3 366.4,188 367.4,187.4 367.1,188.3 368.2,188.4 367.2,188.9 367.8,189.5 366.7,189.4 
	366.4,190.3 365.9,189.5 364.9,190.1 365.3,189.2 364.1,189.2 365.1,188.7 364.5,188 365.6,188.2 "/>
<circle fill="#FEC23A" cx="373.5" cy="192.2" r="0.3"/>
<circle fill="#FEC23A" cx="374.8" cy="191.8" r="0.3"/>
<circle fill="#FEC23A" cx="376.1" cy="191.4" r="0.3"/>
<circle fill="#FEC23A" cx="377.5" cy="190.9" r="0.3"/>
<circle fill="#FEC23A" cx="378.8" cy="190.5" r="0.3"/>
<circle fill="#FEC23A" cx="374.5" cy="193" r="0.3"/>
<circle fill="#FEC23A" cx="375.8" cy="192.6" r="0.3"/>
<circle fill="#FEC23A" cx="377.2" cy="192.2" r="0.3"/>
<circle fill="#FEC23A" cx="375.5" cy="194" r="0.3"/>
<circle fill="#FEC23A" cx="376.8" cy="193.5" r="0.3"/>
<circle fill="#FEC23A" cx="375.4" cy="189.1" r="0.3"/>
<circle fill="#FEC23A" cx="378.1" cy="193.1" r="0.3"/>
<circle fill="#FEC23A" cx="378.5" cy="191.8" r="0.3"/>
<circle fill="#FEC23A" cx="373.8" cy="190.9" r="0.3"/>
<circle fill="#FEC23A" cx="375.1" cy="190.5" r="0.3"/>
<circle fill="#FEC23A" cx="376.5" cy="190" r="0.3"/>
<circle fill="#FEC23A" cx="377.8" cy="189.6" r="0.3"/>
<circle fill="#F8971D" cx="357.9" cy="195.7" r="0.3"/>
<circle fill="#F8971D" cx="359.3" cy="195.3" r="0.3"/>
<circle fill="#F8971D" cx="360.6" cy="194.9" r="0.3"/>
<circle fill="#F8971D" cx="361.9" cy="194.5" r="0.3"/>
<circle fill="#F8971D" cx="363.2" cy="194" r="0.3"/>
<circle fill="#F8971D" cx="359" cy="196.6" r="0.3"/>
<circle fill="#F8971D" cx="360.3" cy="196.1" r="0.3"/>
<circle fill="#F8971D" cx="361.6" cy="195.7" r="0.3"/>
<circle fill="#F8971D" cx="360" cy="197.5" r="0.3"/>
<circle fill="#F8971D" cx="361.3" cy="197" r="0.3"/>
<circle fill="#F8971D" cx="359.9" cy="192.7" r="0.3"/>
<circle fill="#F8971D" cx="362.6" cy="196.6" r="0.3"/>
<circle fill="#F8971D" cx="363" cy="195.3" r="0.3"/>
<circle fill="#F8971D" cx="358.3" cy="194.4" r="0.3"/>
<circle fill="#F8971D" cx="359.6" cy="194" r="0.3"/>
<circle fill="#F8971D" cx="360.9" cy="193.5" r="0.3"/>
<circle fill="#F8971D" cx="362.3" cy="193.1" r="0.3"/>
<path fill="#F8971D" d="M314.4,201.9c-5.6,0-12.5,2.4-13.1,10.2c-0.6,8.1,5.8,12.7,13.3,12.7c8.4,0,14.1-4.8,13.3-12.7
	C327.1,204.3,320,201.9,314.4,201.9z"/>
<path fill="#F57E20" d="M312.4,216.1c-0.7-3.3-1.8-5.1-3.5-7.2c-1-1.3-2.7-2.7-4.6-3.5c-1.6,1.6-2.7,3.8-3,6.7
	c-0.6,8.1,5.8,12.7,13.3,12.7c0.5,0,1,0,1.5-0.1C314.2,223,312.9,218.7,312.4,216.1z"/>
<polygon fill="#87AD3F" points="311.1,203.3 311.7,204 312.7,203.4 312.3,204.3 313.5,204.4 312.4,204.9 313.1,205.5 311.9,205.4 
	311.7,206.3 311.2,205.5 310.2,206.1 310.5,205.2 309.4,205.2 310.4,204.7 309.8,204 310.9,204.2 "/>
<circle fill="#FEC23A" cx="318.7" cy="208.2" r="0.3"/>
<circle fill="#FEC23A" cx="320.1" cy="207.8" r="0.3"/>
<circle fill="#FEC23A" cx="321.4" cy="207.4" r="0.3"/>
<circle fill="#FEC23A" cx="322.7" cy="206.9" r="0.3"/>
<circle fill="#FEC23A" cx="324" cy="206.5" r="0.3"/>
<circle fill="#FEC23A" cx="319.8" cy="209" r="0.3"/>
<circle fill="#FEC23A" cx="321.1" cy="208.6" r="0.3"/>
<circle fill="#FEC23A" cx="322.4" cy="208.2" r="0.3"/>
<circle fill="#FEC23A" cx="320.8" cy="210" r="0.3"/>
<circle fill="#FEC23A" cx="322.1" cy="209.5" r="0.3"/>
<circle fill="#FEC23A" cx="320.7" cy="205.1" r="0.3"/>
<circle fill="#FEC23A" cx="323.4" cy="209.1" r="0.3"/>
<circle fill="#FEC23A" cx="323.7" cy="207.8" r="0.3"/>
<circle fill="#FEC23A" cx="319.1" cy="206.9" r="0.3"/>
<circle fill="#FEC23A" cx="320.4" cy="206.5" r="0.3"/>
<circle fill="#FEC23A" cx="321.7" cy="206" r="0.3"/>
<circle fill="#FEC23A" cx="323.1" cy="205.6" r="0.3"/>
<circle fill="#F8971D" cx="303.2" cy="211.7" r="0.3"/>
<circle fill="#F8971D" cx="304.5" cy="211.3" r="0.3"/>
<circle fill="#F8971D" cx="305.9" cy="210.9" r="0.3"/>
<circle fill="#F8971D" cx="307.2" cy="210.5" r="0.3"/>
<circle fill="#F8971D" cx="308.5" cy="210" r="0.3"/>
<circle fill="#F8971D" cx="304.2" cy="212.6" r="0.3"/>
<circle fill="#F8971D" cx="305.6" cy="212.1" r="0.3"/>
<circle fill="#F8971D" cx="306.9" cy="211.7" r="0.3"/>
<circle fill="#F8971D" cx="305.2" cy="213.5" r="0.3"/>
<circle fill="#F8971D" cx="306.5" cy="213" r="0.3"/>
<circle fill="#F8971D" cx="305.1" cy="208.7" r="0.3"/>
<circle fill="#F8971D" cx="307.9" cy="212.6" r="0.3"/>
<circle fill="#F8971D" cx="308.2" cy="211.3" r="0.3"/>
<circle fill="#F8971D" cx="303.5" cy="210.4" r="0.3"/>
<circle fill="#F8971D" cx="304.9" cy="210" r="0.3"/>
<circle fill="#F8971D" cx="306.2" cy="209.5" r="0.3"/>
<circle fill="#F8971D" cx="307.5" cy="209.1" r="0.3"/>
<ellipse fill="#FEC23A" cx="348.3" cy="203.1" rx="3.3" ry="1.3"/>
<ellipse fill="#FEC23A" cx="155.6" cy="200" rx="3.3" ry="1.3"/>
<ellipse fill="#FEC23A" cx="69.7" cy="199.4" rx="3.3" ry="1.3"/>
<g>
	<path fill="#81443C" d="M60.5,65.5l-2.6-11.5c-0.3-1.5,0.2-2.4,1.5-2.7l0.5-0.1c1.1-0.3,1.6,0,2.5,0.6l7.3,6.1l-1.4-6.2
		c-0.3-1.5,0.2-2.4,1.6-2.7l0.4-0.1c1.3-0.3,2.2,0.3,2.6,1.8l2.6,11.5c0.3,1.5-0.2,2.4-1.5,2.7l-0.4,0.1c-1.2,0.3-1.6,0.1-2.4-0.6
		l-7.5-6.2l1.4,6.3c0.3,1.5-0.2,2.4-1.6,2.8l-0.4,0.1C61.8,67.6,60.9,67,60.5,65.5z"/>
	<path fill="#81443C" d="M76.2,57.9c-0.9-3.8,1.2-6.9,5.2-7.8c3.9-0.9,7.1,1,8,4.8c0.9,3.8-1.2,6.9-5.2,7.8
		C80.2,63.7,77.1,61.8,76.2,57.9z M85.5,55.8c-0.4-1.6-1.7-2.5-3.3-2.2s-2.4,1.7-2,3.4c0.4,1.6,1.7,2.5,3.3,2.2
		C85,58.8,85.8,57.4,85.5,55.8z"/>
</g>
</svg>
