<?xml version="1.0" encoding="utf-8"?>
<!-- Generator: Adobe Illustrator 16.2.1, SVG Export Plug-In . SVG Version: 6.00 Build 0)  -->
<!DOCTYPE svg PUBLIC "-//W3C//DTD SVG 1.1//EN" "http://www.w3.org/Graphics/SVG/1.1/DTD/svg11.dtd">
<svg version="1.1" id="Layer_1" xmlns="http://www.w3.org/2000/svg" xmlns:xlink="http://www.w3.org/1999/xlink" x="0px" y="0px"
	 width="345.504px" height="228.096px" viewBox="0 0 345.504 228.096" style="enable-background:new 0 0 345.504 228.096;"
	 xml:space="preserve">
<ellipse style="fill:#EDE1B3;" cx="186.113" cy="193.131" rx="43.129" ry="13.439"/>
<path style="fill:#95523B;" d="M210.088,129.949c6.641,5.721,14.011,16.445,14.011,35.887c0,2.631-2.137,4.76-4.763,4.76
	c-2.619,0-4.752-2.129-4.752-4.76c0,0-0.021-0.766-0.038-1.539c-0.257,0-0.628,0-0.628,0c-1.66,0-3.008-1.348-3.008-3.01
	c0-1.66,1.348-3.008,3.008-3.008c0,0,0.145,0,0.173,0c-1.753-13.806-7.17-18.879-11.715-22.189
	c0.605,16.763,1.341,54.059,1.341,54.059c0,0.117-0.017,0.225-0.025,0.341c0,0.062,0.021,0.122,0.021,0.187
	c0,2.706-2.191,4.895-4.896,4.895c-2.663,0-4.82-2.14-4.877-4.787h-0.018v-11.51c-0.167-4.744-4.057-8.538-8.842-8.538
	c-4.604,0-8.393,3.517-8.812,8.015v12.033h-0.018c-0.059,2.647-2.214,4.787-4.885,4.787c-2.697,0-4.887-2.188-4.887-4.895
	c0-0.064,0.02-0.123,0.02-0.182c-0.007-0.115-0.027-0.229-0.027-0.346c0,0,0.438-43.393,0.497-54.444
	c-4.646,3.309-10.426,8.226-12.247,22.575c0.027,0,0.174,0,0.174,0c1.654,0,3.003,1.348,3.003,3.008c0,1.662-1.35,3.01-3.003,3.01
	c0,0-0.372,0-0.627,0c-0.022,0.773-0.039,1.539-0.039,1.539c0,2.631-2.133,4.76-4.759,4.76c-2.621,0-4.758-2.129-4.758-4.76
	c0-19.464,7.386-30.192,14.038-35.91c0,0,9.74-8.294,24.517-8.294C183.268,121.632,199.703,121.494,210.088,129.949z"/>
<path style="fill:#82453B;" d="M161.775,140.238c1.721-1.955,3.529-3.35,5.192-4.534c-0.009,1.496-0.022,3.588-0.043,6.083
	c9.261,2.385,19.162,3.082,27.958,3.082c2.614,0,5.202-0.012,7.771-0.053c-0.094-3.24-0.188-6.215-0.278-8.727
	c2.553,1.859,5.382,4.275,7.682,8.484c3.348-0.176,6.657-0.461,9.929-0.912c-2.717-6.312-6.408-10.705-9.898-13.713
	c-10.385-8.455-26.82-8.317-26.82-8.317c-14.777,0-24.517,8.294-24.517,8.294c-1.951,1.677-3.963,3.789-5.836,6.422
	C155.705,137.896,158.68,139.182,161.775,140.238z"/>
<path style="fill:#F8971D;" d="M183.947,0c-33.026,0-73.611,13.977-77.295,60.316c-3.777,47.492,34.152,74.788,78.129,74.788
	c49.273,0,82.826-28.158,78.438-74.788C258.863,14.035,216.973,0,183.947,0z"/>
<path style="fill:#F57E20;" d="M171.922,83.635c-3.994-19.666-10.781-29.756-20.588-42.629
	c-5.894-7.736-15.984-15.738-27.109-20.335c-9.524,9.26-16.182,22.144-17.574,39.646c-3.777,47.492,34.152,74.788,78.128,74.788
	c3.082,0,6.1-0.109,9.053-0.327C182.383,123.857,175.032,98.949,171.922,83.635z"/>
<path style="fill:#FCC8A0;" d="M229.407,76.202c5.79,5.095,9.175,11.244,9.175,17.87c0,17.551-15.695,31.882-53.455,31.882
	c-35.631,0-52.621-14.331-52.621-31.882c0-6.586,3.341-12.697,9.058-17.77c9.533-8.455,25.674-3.981,43.981-3.981
	C203.777,72.321,219.865,67.807,229.407,76.202z"/>
<path style="fill:#FBBD92;" d="M168.875,71.561c-11.654-0.785-20.625-1.188-27.312,4.742c-5.717,5.072-9.058,11.184-9.058,17.77
	c0,17.551,16.99,31.882,52.621,31.882c0.672,0,1.322-0.015,1.98-0.023C174.434,112.289,178.346,84.352,168.875,71.561z"/>
<path style="fill:#F58663;" d="M187.137,99.452c0,1.034-0.836,1.873-1.863,1.873c-1.029,0-1.871-0.839-1.871-1.873
	c0-1.024,0.842-1.858,1.871-1.858C186.301,97.594,187.137,98.428,187.137,99.452z"/>
<path style="fill:#FDF9D1;" d="M186.489,141.281c0,1.035-0.835,1.873-1.862,1.873c-1.029,0-1.872-0.838-1.872-1.873
	c0-1.023,0.843-1.857,1.872-1.857C185.654,139.424,186.489,140.258,186.489,141.281z"/>
<path style="fill:#FDF9D1;" d="M186.489,150.122c0,1.034-0.835,1.873-1.862,1.873c-1.029,0-1.872-0.839-1.872-1.873
	c0-1.024,0.843-1.858,1.872-1.858C185.654,148.264,186.489,149.098,186.489,150.122z"/>
<path style="fill:#FFFFFF;" d="M171.757,92.807c0,5.682-4.605,10.291-10.288,10.291c-5.685,0-10.299-4.609-10.299-10.291
	c0-5.684,4.615-10.296,10.299-10.296C167.151,82.511,171.757,87.123,171.757,92.807z"/>
<path style="fill:#A25049;" d="M165.115,93.044c0,2.015-1.629,3.646-3.646,3.646c-2.014,0-3.647-1.631-3.647-3.646
	c0-2.007,1.633-3.646,3.647-3.646C163.486,89.398,165.115,91.037,165.115,93.044z"/>
<path style="fill:#FFFFFF;" d="M198.823,92.807c0,5.682,4.605,10.291,10.288,10.291c5.685,0,10.299-4.609,10.299-10.291
	c0-5.684-4.614-10.296-10.299-10.296C203.429,82.511,198.823,87.123,198.823,92.807z"/>
<path style="fill:#A25049;" d="M205.465,93.044c0,2.015,1.629,3.646,3.646,3.646c2.014,0,3.646-1.631,3.646-3.646
	c0-2.007-1.633-3.646-3.646-3.646C207.094,89.398,205.465,91.037,205.465,93.044z"/>
<polygon style="fill:#87AD3F;" points="164.613,7.933 167.831,12.211 173.67,8.869 171.562,13.96 178.401,14.396 172.202,17.316 
	176.035,21.277 169.375,20.316 167.957,25.479 164.739,21.199 158.9,24.542 161.008,19.451 154.169,19.016 160.367,16.094 
	156.536,12.135 163.194,13.095 "/>
<circle style="fill:#FEC23A;" cx="209.359" cy="36.998" r="1.725"/>
<circle style="fill:#FEC23A;" cx="217.162" cy="34.497" r="1.725"/>
<circle style="fill:#FEC23A;" cx="224.965" cy="31.996" r="1.725"/>
<circle style="fill:#FEC23A;" cx="232.767" cy="29.495" r="1.725"/>
<circle style="fill:#FEC23A;" cx="240.568" cy="26.993" r="1.725"/>
<circle style="fill:#FEC23A;" cx="215.44" cy="41.841" r="1.724"/>
<circle style="fill:#FEC23A;" cx="223.243" cy="39.341" r="1.724"/>
<circle style="fill:#FEC23A;" cx="231.045" cy="36.839" r="1.725"/>
<circle style="fill:#FEC23A;" cx="221.242" cy="47.227" r="1.725"/>
<circle style="fill:#FEC23A;" cx="229.045" cy="44.727" r="1.725"/>
<circle style="fill:#FEC23A;" cx="220.752" cy="18.854" r="1.725"/>
<circle style="fill:#FEC23A;" cx="236.848" cy="42.226" r="1.725"/>
<circle style="fill:#FEC23A;" cx="238.848" cy="34.338" r="1.725"/>
<circle style="fill:#FEC23A;" cx="211.36" cy="29.111" r="1.725"/>
<circle style="fill:#FEC23A;" cx="219.162" cy="26.61" r="1.725"/>
<circle style="fill:#FEC23A;" cx="226.965" cy="24.108" r="1.725"/>
<circle style="fill:#FEC23A;" cx="234.767" cy="21.608" r="1.725"/>
<circle style="fill:#F8971D;" cx="117.938" cy="57.697" r="1.725"/>
<circle style="fill:#F8971D;" cx="125.74" cy="55.196" r="1.725"/>
<circle style="fill:#F8971D;" cx="133.543" cy="52.696" r="1.725"/>
<circle style="fill:#F8971D;" cx="141.345" cy="50.194" r="1.725"/>
<circle style="fill:#F8971D;" cx="149.147" cy="47.692" r="1.725"/>
<circle style="fill:#F8971D;" cx="124.019" cy="62.54" r="1.725"/>
<circle style="fill:#F8971D;" cx="131.821" cy="60.04" r="1.725"/>
<circle style="fill:#F8971D;" cx="139.623" cy="57.539" r="1.725"/>
<circle style="fill:#F8971D;" cx="129.821" cy="67.926" r="1.725"/>
<circle style="fill:#F8971D;" cx="137.624" cy="65.426" r="1.725"/>
<circle style="fill:#F8971D;" cx="129.33" cy="39.554" r="1.725"/>
<circle style="fill:#F8971D;" cx="145.426" cy="62.925" r="1.725"/>
<circle style="fill:#F8971D;" cx="147.426" cy="55.038" r="1.725"/>
<circle style="fill:#F8971D;" cx="119.938" cy="49.81" r="1.725"/>
<circle style="fill:#F8971D;" cx="127.74" cy="47.309" r="1.725"/>
<circle style="fill:#F8971D;" cx="135.543" cy="44.808" r="1.725"/>
<circle style="fill:#F8971D;" cx="143.345" cy="42.308" r="1.725"/>
<ellipse style="fill:#E8E5DB;" cx="251.953" cy="180.727" rx="8.104" ry="2.639"/>
<ellipse style="fill:#FEC23A;" cx="273.877" cy="182.909" rx="23.264" ry="6.851"/>
<ellipse style="fill:#EDE1B3;" cx="95" cy="187.128" rx="12.671" ry="5.076"/>
<path style="fill:#F8971D;" d="M93.849,166.3c-5.61,0-12.506,2.374-13.131,10.247c-0.642,8.068,5.802,12.705,13.272,12.705
	c8.371,0,14.071-4.783,13.326-12.705C106.576,168.684,99.46,166.3,93.849,166.3z"/>
<path style="fill:#F8971D;" d="M253.302,164.581c-4.335,0-9.66,1.834-10.144,7.915c-0.496,6.232,4.481,9.814,10.252,9.814
	c6.467,0,10.87-3.695,10.294-9.814C263.133,166.422,257.636,164.581,253.302,164.581z"/>
<path style="fill:#F57E20;" d="M251.723,175.557c-0.523-2.582-1.414-3.905-2.701-5.595c-0.773-1.015-2.098-2.065-3.558-2.669
	c-1.25,1.215-2.124,2.906-2.307,5.203c-0.495,6.232,4.482,9.814,10.253,9.814c0.405,0,0.801-0.015,1.188-0.043
	C253.096,180.834,252.131,177.566,251.723,175.557z"/>
<polygon style="fill:#87AD3F;" points="250.764,165.621 251.187,166.184 251.953,165.745 251.676,166.412 252.574,166.47 
	251.76,166.854 252.263,167.373 251.39,167.247 251.203,167.924 250.781,167.363 250.015,167.801 250.291,167.133 249.394,167.076 
	250.207,166.692 249.704,166.173 250.578,166.299 "/>
<circle style="fill:#FEC23A;" cx="256.636" cy="169.436" r="0.226"/>
<circle style="fill:#FEC23A;" cx="257.661" cy="169.108" r="0.226"/>
<circle style="fill:#FEC23A;" cx="258.685" cy="168.779" r="0.226"/>
<circle style="fill:#FEC23A;" cx="259.708" cy="168.451" r="0.227"/>
<circle style="fill:#FEC23A;" cx="260.732" cy="168.123" r="0.226"/>
<circle style="fill:#FEC23A;" cx="257.435" cy="170.071" r="0.227"/>
<circle style="fill:#FEC23A;" cx="258.458" cy="169.743" r="0.227"/>
<circle style="fill:#FEC23A;" cx="259.482" cy="169.415" r="0.226"/>
<circle style="fill:#FEC23A;" cx="258.196" cy="170.778" r="0.226"/>
<circle style="fill:#FEC23A;" cx="259.22" cy="170.45" r="0.227"/>
<circle style="fill:#FEC23A;" cx="258.131" cy="167.055" r="0.226"/>
<circle style="fill:#FEC23A;" cx="260.243" cy="170.122" r="0.227"/>
<circle style="fill:#FEC23A;" cx="260.506" cy="169.087" r="0.226"/>
<circle style="fill:#FEC23A;" cx="256.899" cy="168.401" r="0.226"/>
<circle style="fill:#FEC23A;" cx="257.923" cy="168.073" r="0.227"/>
<circle style="fill:#FEC23A;" cx="258.946" cy="167.745" r="0.227"/>
<circle style="fill:#FEC23A;" cx="259.971" cy="167.417" r="0.227"/>
<circle style="fill:#F8971D;" cx="244.639" cy="172.152" r="0.226"/>
<circle style="fill:#F8971D;" cx="245.663" cy="171.824" r="0.226"/>
<circle style="fill:#F8971D;" cx="246.687" cy="171.496" r="0.227"/>
<circle style="fill:#F8971D;" cx="247.71" cy="171.167" r="0.226"/>
<circle style="fill:#F8971D;" cx="248.734" cy="170.839" r="0.227"/>
<circle style="fill:#F8971D;" cx="245.437" cy="172.788" r="0.226"/>
<circle style="fill:#F8971D;" cx="246.461" cy="172.46" r="0.227"/>
<circle style="fill:#F8971D;" cx="247.484" cy="172.132" r="0.227"/>
<circle style="fill:#F8971D;" cx="246.198" cy="173.495" r="0.227"/>
<circle style="fill:#F8971D;" cx="247.222" cy="173.167" r="0.226"/>
<circle style="fill:#F8971D;" cx="246.134" cy="169.771" r="0.227"/>
<circle style="fill:#F8971D;" cx="248.246" cy="172.838" r="0.227"/>
<circle style="fill:#F8971D;" cx="248.509" cy="171.803" r="0.227"/>
<circle style="fill:#F8971D;" cx="244.901" cy="171.117" r="0.227"/>
<circle style="fill:#F8971D;" cx="245.925" cy="170.79" r="0.226"/>
<circle style="fill:#F8971D;" cx="246.949" cy="170.46" r="0.227"/>
<circle style="fill:#F8971D;" cx="247.973" cy="170.133" r="0.226"/>
<ellipse style="fill:#FEC23A;" cx="292.145" cy="188.332" rx="7.564" ry="2.569"/>
<ellipse style="fill:#FEC23A;" cx="285.009" cy="195.325" rx="3.282" ry="1.284"/>
<ellipse style="fill:#F58663;" cx="185.744" cy="114.627" rx="8.195" ry="5.418"/>
<ellipse style="fill:#EDE1B3;" cx="332.833" cy="206.762" rx="12.671" ry="5.076"/>
<ellipse style="fill:#EDE1B3;" cx="279.094" cy="223.032" rx="12.671" ry="5.063"/>
<ellipse style="fill:#EDE1B3;" cx="15.32" cy="201.775" rx="11.833" ry="5.273"/>
<ellipse style="fill:#FEC23A;" cx="52.177" cy="203.804" rx="23.264" ry="6.851"/>
<path style="fill:#F8971D;" d="M13.176,180.936c-5.61,0-12.506,2.375-13.132,10.247c-0.642,8.068,5.803,12.706,13.273,12.706
	c8.371,0,14.07-4.784,13.325-12.706C25.902,183.32,18.786,180.936,13.176,180.936z"/>
<path style="fill:#F57E20;" d="M11.133,195.145c-0.679-3.342-1.832-5.055-3.498-7.242c-1.001-1.314-2.716-2.674-4.605-3.455
	c-1.618,1.573-2.749,3.762-2.985,6.735c-0.642,8.068,5.803,12.706,13.272,12.706c0.524,0,1.037-0.02,1.538-0.057
	C12.91,201.978,11.661,197.746,11.133,195.145z"/>
<circle style="fill:#FEC23A;" cx="19.511" cy="188.959" r="0.293"/>
<circle style="fill:#FEC23A;" cx="20.837" cy="188.535" r="0.293"/>
<circle style="fill:#FEC23A;" cx="22.163" cy="188.109" r="0.293"/>
<circle style="fill:#F8971D;" cx="1.962" cy="190.738" r="0.293"/>
<circle style="fill:#F8971D;" cx="3.287" cy="190.313" r="0.293"/>
<circle style="fill:#F8971D;" cx="4.612" cy="189.888" r="0.293"/>
<circle style="fill:#F8971D;" cx="5.938" cy="189.463" r="0.293"/>
<circle style="fill:#F8971D;" cx="7.263" cy="189.039" r="0.293"/>
<circle style="fill:#F8971D;" cx="2.995" cy="191.561" r="0.293"/>
<circle style="fill:#F8971D;" cx="4.32" cy="191.136" r="0.293"/>
<circle style="fill:#F8971D;" cx="5.646" cy="190.71" r="0.293"/>
<circle style="fill:#F8971D;" cx="3.98" cy="192.475" r="0.293"/>
<circle style="fill:#F8971D;" cx="5.306" cy="192.051" r="0.293"/>
<circle style="fill:#F8971D;" cx="6.631" cy="191.625" r="0.293"/>
<circle style="fill:#F8971D;" cx="6.971" cy="190.286" r="0.293"/>
<circle style="fill:#F8971D;" cx="2.301" cy="189.398" r="0.293"/>
<circle style="fill:#F8971D;" cx="3.626" cy="188.973" r="0.293"/>
<circle style="fill:#F8971D;" cx="4.952" cy="188.548" r="0.293"/>
<circle style="fill:#F8971D;" cx="6.278" cy="188.123" r="0.293"/>
<path style="fill:#F8971D;" d="M331.681,185.934c-5.61,0-12.506,2.374-13.131,10.247c-0.642,8.068,5.802,12.705,13.272,12.705
	c8.371,0,14.071-4.783,13.326-12.705C344.408,188.317,337.292,185.934,331.681,185.934z"/>
<path style="fill:#F57E20;" d="M329.638,200.142c-0.679-3.341-1.831-5.055-3.497-7.242c-1.002-1.313-2.716-2.674-4.605-3.454
	c-1.618,1.573-2.749,3.761-2.985,6.735c-0.643,8.068,5.802,12.705,13.272,12.705c0.524,0,1.036-0.019,1.538-0.056
	C331.415,206.975,330.167,202.743,329.638,200.142z"/>
<polygon style="fill:#87AD3F;" points="328.396,187.281 328.942,188.008 329.936,187.44 329.577,188.305 330.739,188.38 
	329.686,188.876 330.337,189.548 329.206,189.385 328.964,190.263 328.418,189.535 327.426,190.103 327.784,189.237 
	326.622,189.164 327.675,188.667 327.024,187.995 328.155,188.158 "/>
<circle style="fill:#FEC23A;" cx="335.998" cy="192.219" r="0.293"/>
<circle style="fill:#FEC23A;" cx="337.324" cy="191.794" r="0.293"/>
<circle style="fill:#FEC23A;" cx="338.649" cy="191.369" r="0.293"/>
<circle style="fill:#FEC23A;" cx="339.975" cy="190.944" r="0.293"/>
<circle style="fill:#FEC23A;" cx="341.3" cy="190.519" r="0.293"/>
<circle style="fill:#FEC23A;" cx="337.031" cy="193.042" r="0.293"/>
<circle style="fill:#FEC23A;" cx="338.356" cy="192.617" r="0.293"/>
<circle style="fill:#FEC23A;" cx="339.683" cy="192.192" r="0.293"/>
<circle style="fill:#FEC23A;" cx="338.017" cy="193.957" r="0.293"/>
<circle style="fill:#FEC23A;" cx="339.342" cy="193.532" r="0.293"/>
<circle style="fill:#FEC23A;" cx="337.934" cy="189.136" r="0.293"/>
<circle style="fill:#FEC23A;" cx="340.668" cy="193.107" r="0.293"/>
<circle style="fill:#FEC23A;" cx="341.008" cy="191.767" r="0.293"/>
<circle style="fill:#FEC23A;" cx="336.338" cy="190.879" r="0.293"/>
<circle style="fill:#FEC23A;" cx="337.664" cy="190.454" r="0.293"/>
<circle style="fill:#FEC23A;" cx="338.989" cy="190.03" r="0.293"/>
<circle style="fill:#FEC23A;" cx="340.314" cy="189.604" r="0.293"/>
<circle style="fill:#F8971D;" cx="320.467" cy="195.735" r="0.292"/>
<circle style="fill:#F8971D;" cx="321.792" cy="195.311" r="0.293"/>
<circle style="fill:#F8971D;" cx="323.118" cy="194.886" r="0.293"/>
<circle style="fill:#F8971D;" cx="324.443" cy="194.461" r="0.293"/>
<circle style="fill:#F8971D;" cx="325.769" cy="194.036" r="0.293"/>
<circle style="fill:#F8971D;" cx="321.5" cy="196.558" r="0.293"/>
<circle style="fill:#F8971D;" cx="322.826" cy="196.133" r="0.293"/>
<circle style="fill:#F8971D;" cx="324.151" cy="195.708" r="0.293"/>
<circle style="fill:#F8971D;" cx="322.485" cy="197.473" r="0.293"/>
<circle style="fill:#F8971D;" cx="323.812" cy="197.048" r="0.293"/>
<circle style="fill:#F8971D;" cx="322.402" cy="192.653" r="0.293"/>
<circle style="fill:#F8971D;" cx="325.137" cy="196.624" r="0.293"/>
<circle style="fill:#F8971D;" cx="325.477" cy="195.284" r="0.293"/>
<circle style="fill:#F8971D;" cx="320.807" cy="194.396" r="0.293"/>
<circle style="fill:#F8971D;" cx="322.132" cy="193.971" r="0.293"/>
<circle style="fill:#F8971D;" cx="323.458" cy="193.546" r="0.293"/>
<circle style="fill:#F8971D;" cx="324.783" cy="193.121" r="0.293"/>
<path style="fill:#F8971D;" d="M276.943,201.932c-5.611,0-12.506,2.375-13.131,10.247c-0.643,8.068,5.801,12.706,13.272,12.706
	c8.37,0,14.071-4.784,13.325-12.706C289.67,204.316,282.554,201.932,276.943,201.932z"/>
<path style="fill:#F57E20;" d="M274.9,216.141c-0.679-3.341-1.832-5.056-3.498-7.242c-1.001-1.314-2.715-2.674-4.605-3.455
	c-1.617,1.573-2.749,3.762-2.985,6.735c-0.642,8.068,5.802,12.706,13.273,12.706c0.523,0,1.036-0.019,1.538-0.056
	C276.678,222.974,275.429,218.742,274.9,216.141z"/>
<polygon style="fill:#87AD3F;" points="273.658,203.279 274.205,204.007 275.197,203.438 274.839,204.304 276.001,204.378 
	274.947,204.874 275.599,205.546 274.468,205.384 274.227,206.261 273.68,205.533 272.688,206.102 273.046,205.236 271.885,205.162 
	272.938,204.666 272.286,203.993 273.418,204.157 "/>
<circle style="fill:#FEC23A;" cx="281.26" cy="208.217" r="0.293"/>
<circle style="fill:#FEC23A;" cx="282.586" cy="207.792" r="0.293"/>
<circle style="fill:#FEC23A;" cx="283.912" cy="207.368" r="0.293"/>
<circle style="fill:#FEC23A;" cx="285.237" cy="206.942" r="0.293"/>
<circle style="fill:#FEC23A;" cx="286.562" cy="206.518" r="0.293"/>
<circle style="fill:#FEC23A;" cx="282.293" cy="209.041" r="0.293"/>
<circle style="fill:#FEC23A;" cx="283.619" cy="208.615" r="0.293"/>
<circle style="fill:#FEC23A;" cx="284.944" cy="208.19" r="0.293"/>
<circle style="fill:#FEC23A;" cx="283.279" cy="209.956" r="0.293"/>
<circle style="fill:#FEC23A;" cx="284.605" cy="209.53" r="0.293"/>
<circle style="fill:#FEC23A;" cx="283.196" cy="205.135" r="0.293"/>
<circle style="fill:#FEC23A;" cx="285.93" cy="209.106" r="0.293"/>
<circle style="fill:#FEC23A;" cx="286.27" cy="207.765" r="0.293"/>
<circle style="fill:#FEC23A;" cx="281.6" cy="206.877" r="0.293"/>
<circle style="fill:#FEC23A;" cx="282.926" cy="206.453" r="0.293"/>
<circle style="fill:#FEC23A;" cx="284.251" cy="206.028" r="0.293"/>
<circle style="fill:#FEC23A;" cx="285.577" cy="205.603" r="0.293"/>
<circle style="fill:#F8971D;" cx="265.729" cy="211.734" r="0.293"/>
<circle style="fill:#F8971D;" cx="267.055" cy="211.309" r="0.293"/>
<circle style="fill:#F8971D;" cx="268.38" cy="210.884" r="0.293"/>
<circle style="fill:#F8971D;" cx="269.706" cy="210.459" r="0.293"/>
<circle style="fill:#F8971D;" cx="271.031" cy="210.034" r="0.293"/>
<circle style="fill:#F8971D;" cx="266.762" cy="212.557" r="0.293"/>
<circle style="fill:#F8971D;" cx="268.087" cy="212.132" r="0.293"/>
<circle style="fill:#F8971D;" cx="269.413" cy="211.707" r="0.293"/>
<circle style="fill:#F8971D;" cx="267.748" cy="213.472" r="0.293"/>
<circle style="fill:#F8971D;" cx="269.073" cy="213.046" r="0.293"/>
<circle style="fill:#F8971D;" cx="267.664" cy="208.651" r="0.293"/>
<circle style="fill:#F8971D;" cx="270.399" cy="212.622" r="0.293"/>
<circle style="fill:#F8971D;" cx="270.739" cy="211.282" r="0.293"/>
<circle style="fill:#F8971D;" cx="266.069" cy="210.394" r="0.293"/>
<circle style="fill:#F8971D;" cx="267.395" cy="209.969" r="0.293"/>
<circle style="fill:#F8971D;" cx="268.72" cy="209.544" r="0.293"/>
<circle style="fill:#F8971D;" cx="270.045" cy="209.12" r="0.293"/>
<ellipse style="fill:#FEC23A;" cx="310.832" cy="203.057" rx="3.282" ry="1.285"/>
<ellipse style="fill:#FEC23A;" cx="118.103" cy="199.993" rx="3.283" ry="1.285"/>
<ellipse style="fill:#FEC23A;" cx="32.196" cy="199.379" rx="3.283" ry="1.284"/>
</svg>
