<?xml version="1.0" encoding="utf-8"?>
<!-- Generator: Adobe Illustrator 16.2.1, SVG Export Plug-In . SVG Version: 6.00 Build 0)  -->
<!DOCTYPE svg PUBLIC "-//W3C//DTD SVG 1.1//EN" "http://www.w3.org/Graphics/SVG/1.1/DTD/svg11.dtd">
<svg version="1.1" id="Layer_1" xmlns="http://www.w3.org/2000/svg" xmlns:xlink="http://www.w3.org/1999/xlink" x="0px" y="0px"
	 width="444.407px" height="228.096px" viewBox="0 0 444.407 228.096" style="enable-background:new 0 0 444.407 228.096;"
	 xml:space="preserve">
<ellipse style="fill:#EDE1B3;" cx="223.588" cy="193.131" rx="43.129" ry="13.439"/>
<path style="fill:#95523B;" d="M247.563,129.949c6.641,5.721,14.011,16.445,14.011,35.887c0,2.631-2.137,4.76-4.763,4.76
	c-2.619,0-4.752-2.129-4.752-4.76c0,0-0.021-0.766-0.038-1.539c-0.257,0-0.628,0-0.628,0c-1.66,0-3.008-1.348-3.008-3.01
	c0-1.66,1.348-3.008,3.008-3.008c0,0,0.145,0,0.173,0c-1.753-13.806-7.17-18.879-11.715-22.189
	c0.605,16.763,1.341,54.059,1.341,54.059c0,0.117-0.017,0.225-0.025,0.341c0,0.062,0.021,0.122,0.021,0.187
	c0,2.706-2.191,4.895-4.896,4.895c-2.663,0-4.82-2.14-4.877-4.787h-0.018v-11.51c-0.167-4.744-4.057-8.538-8.842-8.538
	c-4.604,0-8.393,3.517-8.812,8.015v12.033h-0.018c-0.059,2.647-2.214,4.787-4.885,4.787c-2.697,0-4.887-2.188-4.887-4.895
	c0-0.064,0.02-0.123,0.02-0.182c-0.007-0.115-0.027-0.229-0.027-0.346c0,0,0.438-43.393,0.497-54.444
	c-4.646,3.309-10.426,8.226-12.247,22.575c0.027,0,0.174,0,0.174,0c1.654,0,3.003,1.348,3.003,3.008c0,1.662-1.35,3.01-3.003,3.01
	c0,0-0.372,0-0.627,0c-0.022,0.773-0.039,1.539-0.039,1.539c0,2.631-2.133,4.76-4.759,4.76c-2.621,0-4.758-2.129-4.758-4.76
	c0-19.464,7.386-30.192,14.038-35.91c0,0,9.74-8.294,24.517-8.294C220.743,121.632,237.178,121.494,247.563,129.949z"/>
<path style="fill:#82453B;" d="M199.25,140.238c1.721-1.955,3.529-3.35,5.192-4.534c-0.009,1.496-0.022,3.588-0.043,6.083
	c9.261,2.385,19.162,3.082,27.958,3.082c2.614,0,5.202-0.012,7.771-0.053c-0.094-3.24-0.188-6.215-0.278-8.727
	c2.553,1.859,5.382,4.275,7.682,8.484c3.348-0.176,6.657-0.461,9.929-0.912c-2.717-6.312-6.408-10.705-9.898-13.713
	c-10.385-8.455-26.82-8.317-26.82-8.317c-14.777,0-24.517,8.294-24.517,8.294c-1.951,1.677-3.963,3.789-5.836,6.422
	C193.18,137.896,196.155,139.182,199.25,140.238z"/>
<path style="fill:#F8971D;" d="M221.422,0c-33.026,0-73.611,13.977-77.295,60.316c-3.777,47.492,34.152,74.788,78.129,74.788
	c49.273,0,82.826-28.158,78.438-74.788C296.338,14.035,254.448,0,221.422,0z"/>
<path style="fill:#F57E20;" d="M209.397,83.635c-3.994-19.666-10.781-29.756-20.588-42.629
	c-5.894-7.736-15.984-15.738-27.109-20.335c-9.524,9.26-16.182,22.144-17.574,39.646c-3.777,47.492,34.152,74.788,78.128,74.788
	c3.082,0,6.1-0.109,9.053-0.327C219.858,123.857,212.507,98.949,209.397,83.635z"/>
<path style="fill:#FCC8A0;" d="M266.882,76.202c5.79,5.095,9.175,11.244,9.175,17.87c0,17.551-15.695,31.882-53.455,31.882
	c-35.631,0-52.621-14.331-52.621-31.882c0-6.586,3.341-12.697,9.058-17.77c9.533-8.455,25.674-3.981,43.981-3.981
	C241.252,72.321,257.34,67.807,266.882,76.202z"/>
<path style="fill:#FBBD92;" d="M206.35,71.561c-11.654-0.785-20.625-1.188-27.312,4.742c-5.717,5.072-9.058,11.184-9.058,17.77
	c0,17.551,16.99,31.882,52.621,31.882c0.672,0,1.322-0.015,1.98-0.023C211.909,112.289,215.821,84.352,206.35,71.561z"/>
<path style="fill:#F58663;" d="M224.612,99.452c0,1.034-0.836,1.873-1.863,1.873c-1.029,0-1.871-0.839-1.871-1.873
	c0-1.024,0.842-1.858,1.871-1.858C223.776,97.594,224.612,98.428,224.612,99.452z"/>
<path style="fill:#FDF9D1;" d="M223.964,141.281c0,1.035-0.835,1.873-1.862,1.873c-1.029,0-1.872-0.838-1.872-1.873
	c0-1.023,0.843-1.857,1.872-1.857C223.129,139.424,223.964,140.258,223.964,141.281z"/>
<path style="fill:#FDF9D1;" d="M223.964,150.122c0,1.034-0.835,1.873-1.862,1.873c-1.029,0-1.872-0.839-1.872-1.873
	c0-1.024,0.843-1.858,1.872-1.858C223.129,148.264,223.964,149.098,223.964,150.122z"/>
<path style="fill:#FFFFFF;" d="M209.232,92.807c0,5.682-4.605,10.291-10.288,10.291c-5.685,0-10.299-4.609-10.299-10.291
	c0-5.684,4.615-10.296,10.299-10.296C204.626,82.511,209.232,87.123,209.232,92.807z"/>
<path style="fill:#A25049;" d="M202.59,93.044c0,2.015-1.629,3.646-3.646,3.646c-2.014,0-3.647-1.631-3.647-3.646
	c0-2.007,1.633-3.646,3.647-3.646C200.961,89.398,202.59,91.037,202.59,93.044z"/>
<path style="fill:#FFFFFF;" d="M236.298,92.807c0,5.682,4.605,10.291,10.288,10.291c5.685,0,10.299-4.609,10.299-10.291
	c0-5.684-4.614-10.296-10.299-10.296C240.904,82.511,236.298,87.123,236.298,92.807z"/>
<path style="fill:#A25049;" d="M242.94,93.044c0,2.015,1.629,3.646,3.646,3.646c2.014,0,3.646-1.631,3.646-3.646
	c0-2.007-1.633-3.646-3.646-3.646C244.569,89.398,242.94,91.037,242.94,93.044z"/>
<polygon style="fill:#87AD3F;" points="202.088,7.933 205.306,12.211 211.145,8.869 209.038,13.96 215.876,14.396 209.677,17.316 
	213.51,21.277 206.85,20.316 205.432,25.479 202.214,21.199 196.375,24.542 198.483,19.451 191.645,19.016 197.842,16.094 
	194.011,12.135 200.669,13.095 "/>
<circle style="fill:#FEC23A;" cx="246.834" cy="36.998" r="1.725"/>
<circle style="fill:#FEC23A;" cx="254.637" cy="34.497" r="1.725"/>
<circle style="fill:#FEC23A;" cx="262.44" cy="31.996" r="1.725"/>
<circle style="fill:#FEC23A;" cx="270.242" cy="29.495" r="1.725"/>
<circle style="fill:#FEC23A;" cx="278.043" cy="26.993" r="1.725"/>
<circle style="fill:#FEC23A;" cx="252.915" cy="41.841" r="1.724"/>
<circle style="fill:#FEC23A;" cx="260.718" cy="39.341" r="1.724"/>
<circle style="fill:#FEC23A;" cx="268.52" cy="36.839" r="1.725"/>
<circle style="fill:#FEC23A;" cx="258.717" cy="47.227" r="1.725"/>
<circle style="fill:#FEC23A;" cx="266.52" cy="44.727" r="1.725"/>
<circle style="fill:#FEC23A;" cx="258.227" cy="18.854" r="1.725"/>
<circle style="fill:#FEC23A;" cx="274.323" cy="42.226" r="1.725"/>
<circle style="fill:#FEC23A;" cx="276.323" cy="34.338" r="1.725"/>
<circle style="fill:#FEC23A;" cx="248.835" cy="29.111" r="1.725"/>
<circle style="fill:#FEC23A;" cx="256.637" cy="26.61" r="1.725"/>
<circle style="fill:#FEC23A;" cx="264.44" cy="24.108" r="1.725"/>
<circle style="fill:#FEC23A;" cx="272.242" cy="21.608" r="1.725"/>
<circle style="fill:#F8971D;" cx="155.413" cy="57.697" r="1.725"/>
<circle style="fill:#F8971D;" cx="163.215" cy="55.196" r="1.725"/>
<circle style="fill:#F8971D;" cx="171.018" cy="52.696" r="1.725"/>
<circle style="fill:#F8971D;" cx="178.82" cy="50.194" r="1.725"/>
<circle style="fill:#F8971D;" cx="186.622" cy="47.692" r="1.725"/>
<circle style="fill:#F8971D;" cx="161.494" cy="62.54" r="1.725"/>
<circle style="fill:#F8971D;" cx="169.296" cy="60.04" r="1.725"/>
<circle style="fill:#F8971D;" cx="177.098" cy="57.539" r="1.725"/>
<circle style="fill:#F8971D;" cx="167.296" cy="67.926" r="1.725"/>
<circle style="fill:#F8971D;" cx="175.099" cy="65.426" r="1.725"/>
<circle style="fill:#F8971D;" cx="166.805" cy="39.554" r="1.725"/>
<circle style="fill:#F8971D;" cx="182.901" cy="62.925" r="1.725"/>
<circle style="fill:#F8971D;" cx="184.901" cy="55.038" r="1.725"/>
<circle style="fill:#F8971D;" cx="157.413" cy="49.81" r="1.725"/>
<circle style="fill:#F8971D;" cx="165.216" cy="47.309" r="1.725"/>
<circle style="fill:#F8971D;" cx="173.018" cy="44.808" r="1.725"/>
<circle style="fill:#F8971D;" cx="180.821" cy="42.308" r="1.725"/>
<ellipse style="fill:#E8E5DB;" cx="289.428" cy="180.727" rx="8.104" ry="2.639"/>
<ellipse style="fill:#FEC23A;" cx="311.352" cy="182.909" rx="23.264" ry="6.851"/>
<ellipse style="fill:#EDE1B3;" cx="132.476" cy="187.128" rx="12.671" ry="5.076"/>
<path style="fill:#F8971D;" d="M131.324,166.3c-5.61,0-12.506,2.374-13.131,10.247c-0.642,8.068,5.802,12.705,13.272,12.705
	c8.371,0,14.071-4.783,13.326-12.705C144.051,168.684,136.935,166.3,131.324,166.3z"/>
<path style="fill:#F8971D;" d="M290.777,164.581c-4.335,0-9.66,1.834-10.144,7.915c-0.496,6.232,4.481,9.814,10.252,9.814
	c6.467,0,10.87-3.695,10.294-9.814C300.608,166.422,295.111,164.581,290.777,164.581z"/>
<path style="fill:#F57E20;" d="M289.198,175.557c-0.523-2.582-1.414-3.905-2.701-5.595c-0.773-1.015-2.098-2.065-3.558-2.669
	c-1.25,1.215-2.124,2.906-2.307,5.203c-0.495,6.232,4.482,9.814,10.253,9.814c0.405,0,0.801-0.015,1.188-0.043
	C290.571,180.834,289.606,177.566,289.198,175.557z"/>
<polygon style="fill:#87AD3F;" points="288.239,165.621 288.662,166.184 289.428,165.745 289.151,166.412 290.049,166.47 
	289.235,166.854 289.738,167.373 288.865,167.247 288.678,167.924 288.256,167.363 287.49,167.801 287.766,167.133 286.869,167.076 
	287.682,166.692 287.179,166.173 288.053,166.299 "/>
<circle style="fill:#FEC23A;" cx="294.111" cy="169.436" r="0.226"/>
<circle style="fill:#FEC23A;" cx="295.136" cy="169.108" r="0.226"/>
<circle style="fill:#FEC23A;" cx="296.16" cy="168.779" r="0.226"/>
<circle style="fill:#FEC23A;" cx="297.183" cy="168.451" r="0.227"/>
<circle style="fill:#FEC23A;" cx="298.207" cy="168.123" r="0.226"/>
<circle style="fill:#FEC23A;" cx="294.91" cy="170.071" r="0.227"/>
<circle style="fill:#FEC23A;" cx="295.933" cy="169.743" r="0.227"/>
<circle style="fill:#FEC23A;" cx="296.957" cy="169.415" r="0.226"/>
<circle style="fill:#FEC23A;" cx="295.671" cy="170.778" r="0.226"/>
<circle style="fill:#FEC23A;" cx="296.695" cy="170.45" r="0.227"/>
<circle style="fill:#FEC23A;" cx="295.606" cy="167.055" r="0.226"/>
<circle style="fill:#FEC23A;" cx="297.718" cy="170.122" r="0.227"/>
<circle style="fill:#FEC23A;" cx="297.981" cy="169.087" r="0.226"/>
<circle style="fill:#FEC23A;" cx="294.374" cy="168.401" r="0.226"/>
<circle style="fill:#FEC23A;" cx="295.398" cy="168.073" r="0.227"/>
<circle style="fill:#FEC23A;" cx="296.421" cy="167.745" r="0.227"/>
<circle style="fill:#FEC23A;" cx="297.446" cy="167.417" r="0.227"/>
<circle style="fill:#F8971D;" cx="282.114" cy="172.152" r="0.226"/>
<circle style="fill:#F8971D;" cx="283.138" cy="171.824" r="0.226"/>
<circle style="fill:#F8971D;" cx="284.162" cy="171.496" r="0.227"/>
<circle style="fill:#F8971D;" cx="285.186" cy="171.167" r="0.226"/>
<circle style="fill:#F8971D;" cx="286.209" cy="170.839" r="0.227"/>
<circle style="fill:#F8971D;" cx="282.912" cy="172.788" r="0.226"/>
<circle style="fill:#F8971D;" cx="283.936" cy="172.46" r="0.227"/>
<circle style="fill:#F8971D;" cx="284.959" cy="172.132" r="0.227"/>
<circle style="fill:#F8971D;" cx="283.673" cy="173.495" r="0.227"/>
<circle style="fill:#F8971D;" cx="284.697" cy="173.167" r="0.226"/>
<circle style="fill:#F8971D;" cx="283.609" cy="169.771" r="0.227"/>
<circle style="fill:#F8971D;" cx="285.721" cy="172.838" r="0.227"/>
<circle style="fill:#F8971D;" cx="285.984" cy="171.803" r="0.227"/>
<circle style="fill:#F8971D;" cx="282.376" cy="171.117" r="0.227"/>
<circle style="fill:#F8971D;" cx="283.4" cy="170.79" r="0.226"/>
<circle style="fill:#F8971D;" cx="284.424" cy="170.46" r="0.227"/>
<circle style="fill:#F8971D;" cx="285.448" cy="170.133" r="0.226"/>
<ellipse style="fill:#FEC23A;" cx="329.62" cy="188.332" rx="7.564" ry="2.569"/>
<ellipse style="fill:#FEC23A;" cx="322.484" cy="195.325" rx="3.282" ry="1.284"/>
<ellipse style="fill:#F58663;" cx="223.219" cy="114.627" rx="8.195" ry="5.418"/>
<ellipse style="fill:#EDE1B3;" cx="370.308" cy="206.762" rx="12.671" ry="5.076"/>
<ellipse style="fill:#EDE1B3;" cx="316.569" cy="223.032" rx="12.671" ry="5.063"/>
<ellipse style="fill:#EDE1B3;" cx="52.795" cy="201.775" rx="11.833" ry="5.273"/>
<ellipse style="fill:#FEC23A;" cx="89.652" cy="203.804" rx="23.264" ry="6.851"/>
<path style="fill:#F8971D;" d="M50.651,180.936c-5.61,0-12.506,2.375-13.132,10.247c-0.642,8.068,5.803,12.706,13.273,12.706
	c8.371,0,14.07-4.784,13.325-12.706C63.377,183.32,56.261,180.936,50.651,180.936z"/>
<path style="fill:#F57E20;" d="M48.608,195.145c-0.679-3.342-1.832-5.055-3.498-7.242c-1.001-1.314-2.716-2.674-4.605-3.455
	c-1.618,1.573-2.749,3.762-2.985,6.735c-0.642,8.068,5.803,12.706,13.272,12.706c0.524,0,1.037-0.02,1.538-0.057
	C50.385,201.978,49.136,197.746,48.608,195.145z"/>
<circle style="fill:#FEC23A;" cx="56.986" cy="188.959" r="0.293"/>
<circle style="fill:#FEC23A;" cx="58.312" cy="188.535" r="0.293"/>
<circle style="fill:#FEC23A;" cx="59.638" cy="188.109" r="0.293"/>
<circle style="fill:#F8971D;" cx="39.437" cy="190.738" r="0.293"/>
<circle style="fill:#F8971D;" cx="40.762" cy="190.313" r="0.293"/>
<circle style="fill:#F8971D;" cx="42.087" cy="189.888" r="0.293"/>
<circle style="fill:#F8971D;" cx="43.413" cy="189.463" r="0.293"/>
<circle style="fill:#F8971D;" cx="44.738" cy="189.039" r="0.293"/>
<circle style="fill:#F8971D;" cx="40.47" cy="191.561" r="0.293"/>
<circle style="fill:#F8971D;" cx="41.795" cy="191.136" r="0.293"/>
<circle style="fill:#F8971D;" cx="43.121" cy="190.71" r="0.293"/>
<circle style="fill:#F8971D;" cx="41.456" cy="192.475" r="0.293"/>
<circle style="fill:#F8971D;" cx="42.781" cy="192.051" r="0.293"/>
<circle style="fill:#F8971D;" cx="44.106" cy="191.625" r="0.293"/>
<circle style="fill:#F8971D;" cx="44.446" cy="190.286" r="0.293"/>
<circle style="fill:#F8971D;" cx="39.776" cy="189.398" r="0.293"/>
<circle style="fill:#F8971D;" cx="41.102" cy="188.973" r="0.293"/>
<circle style="fill:#F8971D;" cx="42.427" cy="188.548" r="0.293"/>
<circle style="fill:#F8971D;" cx="43.753" cy="188.123" r="0.293"/>
<path style="fill:#F8971D;" d="M369.156,185.934c-5.61,0-12.506,2.374-13.131,10.247c-0.642,8.068,5.802,12.705,13.272,12.705
	c8.371,0,14.071-4.783,13.326-12.705C381.883,188.317,374.767,185.934,369.156,185.934z"/>
<path style="fill:#F57E20;" d="M367.113,200.142c-0.679-3.341-1.831-5.055-3.497-7.242c-1.002-1.313-2.716-2.674-4.605-3.454
	c-1.618,1.573-2.749,3.761-2.985,6.735c-0.643,8.068,5.802,12.705,13.272,12.705c0.524,0,1.036-0.019,1.538-0.056
	C368.89,206.975,367.642,202.743,367.113,200.142z"/>
<polygon style="fill:#87AD3F;" points="365.872,187.281 366.417,188.008 367.411,187.44 367.052,188.305 368.214,188.38 
	367.161,188.876 367.812,189.548 366.681,189.385 366.439,190.263 365.893,189.535 364.901,190.103 365.259,189.237 
	364.097,189.164 365.15,188.667 364.5,187.995 365.63,188.158 "/>
<circle style="fill:#FEC23A;" cx="373.473" cy="192.219" r="0.293"/>
<circle style="fill:#FEC23A;" cx="374.799" cy="191.794" r="0.293"/>
<circle style="fill:#FEC23A;" cx="376.125" cy="191.369" r="0.293"/>
<circle style="fill:#FEC23A;" cx="377.45" cy="190.944" r="0.293"/>
<circle style="fill:#FEC23A;" cx="378.775" cy="190.519" r="0.293"/>
<circle style="fill:#FEC23A;" cx="374.506" cy="193.042" r="0.293"/>
<circle style="fill:#FEC23A;" cx="375.832" cy="192.617" r="0.293"/>
<circle style="fill:#FEC23A;" cx="377.158" cy="192.192" r="0.293"/>
<circle style="fill:#FEC23A;" cx="375.492" cy="193.957" r="0.293"/>
<circle style="fill:#FEC23A;" cx="376.817" cy="193.532" r="0.293"/>
<circle style="fill:#FEC23A;" cx="375.409" cy="189.136" r="0.293"/>
<circle style="fill:#FEC23A;" cx="378.144" cy="193.107" r="0.293"/>
<circle style="fill:#FEC23A;" cx="378.483" cy="191.767" r="0.293"/>
<circle style="fill:#FEC23A;" cx="373.813" cy="190.879" r="0.293"/>
<circle style="fill:#FEC23A;" cx="375.139" cy="190.454" r="0.293"/>
<circle style="fill:#FEC23A;" cx="376.464" cy="190.03" r="0.293"/>
<circle style="fill:#FEC23A;" cx="377.79" cy="189.604" r="0.293"/>
<circle style="fill:#F8971D;" cx="357.942" cy="195.735" r="0.292"/>
<circle style="fill:#F8971D;" cx="359.268" cy="195.311" r="0.293"/>
<circle style="fill:#F8971D;" cx="360.593" cy="194.886" r="0.293"/>
<circle style="fill:#F8971D;" cx="361.918" cy="194.461" r="0.293"/>
<circle style="fill:#F8971D;" cx="363.244" cy="194.036" r="0.293"/>
<circle style="fill:#F8971D;" cx="358.975" cy="196.558" r="0.293"/>
<circle style="fill:#F8971D;" cx="360.301" cy="196.133" r="0.293"/>
<circle style="fill:#F8971D;" cx="361.626" cy="195.708" r="0.293"/>
<circle style="fill:#F8971D;" cx="359.96" cy="197.473" r="0.293"/>
<circle style="fill:#F8971D;" cx="361.287" cy="197.048" r="0.293"/>
<circle style="fill:#F8971D;" cx="359.877" cy="192.653" r="0.293"/>
<circle style="fill:#F8971D;" cx="362.612" cy="196.624" r="0.293"/>
<circle style="fill:#F8971D;" cx="362.952" cy="195.284" r="0.293"/>
<circle style="fill:#F8971D;" cx="358.282" cy="194.396" r="0.293"/>
<circle style="fill:#F8971D;" cx="359.607" cy="193.971" r="0.293"/>
<circle style="fill:#F8971D;" cx="360.933" cy="193.546" r="0.293"/>
<circle style="fill:#F8971D;" cx="362.258" cy="193.121" r="0.293"/>
<path style="fill:#F8971D;" d="M314.418,201.932c-5.611,0-12.506,2.375-13.131,10.247c-0.643,8.068,5.801,12.706,13.272,12.706
	c8.37,0,14.071-4.784,13.325-12.706C327.145,204.316,320.029,201.932,314.418,201.932z"/>
<path style="fill:#F57E20;" d="M312.375,216.141c-0.679-3.341-1.832-5.056-3.498-7.242c-1.001-1.314-2.715-2.674-4.605-3.455
	c-1.617,1.573-2.749,3.762-2.985,6.735c-0.642,8.068,5.802,12.706,13.273,12.706c0.523,0,1.036-0.019,1.538-0.056
	C314.153,222.974,312.904,218.742,312.375,216.141z"/>
<polygon style="fill:#87AD3F;" points="311.133,203.279 311.68,204.007 312.672,203.438 312.314,204.304 313.476,204.378 
	312.422,204.874 313.074,205.546 311.943,205.384 311.702,206.261 311.155,205.533 310.163,206.102 310.521,205.236 309.36,205.162 
	310.413,204.666 309.761,203.993 310.893,204.157 "/>
<circle style="fill:#FEC23A;" cx="318.735" cy="208.217" r="0.293"/>
<circle style="fill:#FEC23A;" cx="320.061" cy="207.792" r="0.293"/>
<circle style="fill:#FEC23A;" cx="321.387" cy="207.368" r="0.293"/>
<circle style="fill:#FEC23A;" cx="322.712" cy="206.942" r="0.293"/>
<circle style="fill:#FEC23A;" cx="324.038" cy="206.518" r="0.293"/>
<circle style="fill:#FEC23A;" cx="319.769" cy="209.041" r="0.293"/>
<circle style="fill:#FEC23A;" cx="321.094" cy="208.615" r="0.293"/>
<circle style="fill:#FEC23A;" cx="322.419" cy="208.19" r="0.293"/>
<circle style="fill:#FEC23A;" cx="320.754" cy="209.956" r="0.293"/>
<circle style="fill:#FEC23A;" cx="322.08" cy="209.53" r="0.293"/>
<circle style="fill:#FEC23A;" cx="320.671" cy="205.135" r="0.293"/>
<circle style="fill:#FEC23A;" cx="323.405" cy="209.106" r="0.293"/>
<circle style="fill:#FEC23A;" cx="323.745" cy="207.765" r="0.293"/>
<circle style="fill:#FEC23A;" cx="319.075" cy="206.877" r="0.293"/>
<circle style="fill:#FEC23A;" cx="320.401" cy="206.453" r="0.293"/>
<circle style="fill:#FEC23A;" cx="321.727" cy="206.028" r="0.293"/>
<circle style="fill:#FEC23A;" cx="323.052" cy="205.603" r="0.293"/>
<circle style="fill:#F8971D;" cx="303.204" cy="211.734" r="0.293"/>
<circle style="fill:#F8971D;" cx="304.53" cy="211.309" r="0.293"/>
<circle style="fill:#F8971D;" cx="305.855" cy="210.884" r="0.293"/>
<circle style="fill:#F8971D;" cx="307.181" cy="210.459" r="0.293"/>
<circle style="fill:#F8971D;" cx="308.506" cy="210.034" r="0.293"/>
<circle style="fill:#F8971D;" cx="304.237" cy="212.557" r="0.293"/>
<circle style="fill:#F8971D;" cx="305.562" cy="212.132" r="0.293"/>
<circle style="fill:#F8971D;" cx="306.888" cy="211.707" r="0.293"/>
<circle style="fill:#F8971D;" cx="305.223" cy="213.472" r="0.293"/>
<circle style="fill:#F8971D;" cx="306.548" cy="213.046" r="0.293"/>
<circle style="fill:#F8971D;" cx="305.139" cy="208.651" r="0.293"/>
<circle style="fill:#F8971D;" cx="307.874" cy="212.622" r="0.293"/>
<circle style="fill:#F8971D;" cx="308.214" cy="211.282" r="0.293"/>
<circle style="fill:#F8971D;" cx="303.544" cy="210.394" r="0.293"/>
<circle style="fill:#F8971D;" cx="304.87" cy="209.969" r="0.293"/>
<circle style="fill:#F8971D;" cx="306.195" cy="209.544" r="0.293"/>
<circle style="fill:#F8971D;" cx="307.521" cy="209.12" r="0.293"/>
<ellipse style="fill:#FEC23A;" cx="348.307" cy="203.057" rx="3.282" ry="1.285"/>
<ellipse style="fill:#FEC23A;" cx="155.578" cy="199.993" rx="3.283" ry="1.285"/>
<ellipse style="fill:#FEC23A;" cx="69.671" cy="199.379" rx="3.283" ry="1.284"/>
<g>
	<path style="fill:#81443C;" d="M60.539,65.531l-2.614-11.478c-0.344-1.51,0.239-2.438,1.507-2.727l0.463-0.106
		c1.146-0.261,1.589-0.003,2.454,0.646l7.33,6.072L68.257,51.7c-0.339-1.486,0.19-2.427,1.604-2.749l0.415-0.094
		c1.34-0.306,2.225,0.313,2.562,1.8l2.614,11.478c0.345,1.511-0.238,2.438-1.457,2.716l-0.39,0.089
		c-1.17,0.267-1.578,0.052-2.413-0.578l-7.48-6.167l1.433,6.287c0.339,1.487-0.215,2.434-1.604,2.75l-0.415,0.095
		C61.762,67.637,60.877,67.018,60.539,65.531z"/>
	<path style="fill:#81443C;" d="M76.232,57.881c-0.86-3.777,1.219-6.917,5.215-7.827c3.948-0.899,7.133,1.042,7.999,4.843
		c0.877,3.85-1.189,6.936-5.186,7.847C80.24,63.659,77.114,61.756,76.232,57.881z M85.473,55.802
		c-0.372-1.633-1.729-2.528-3.265-2.179s-2.371,1.745-2.004,3.353c0.371,1.633,1.704,2.534,3.265,2.179
		C84.98,58.811,85.834,57.386,85.473,55.802z"/>
</g>
</svg>
