<?xml version="1.0" encoding="utf-8"?>
<!-- Generator: Adobe Illustrator 16.2.1, SVG Export Plug-In . SVG Version: 6.00 Build 0)  -->
<!DOCTYPE svg PUBLIC "-//W3C//DTD SVG 1.1//EN" "http://www.w3.org/Graphics/SVG/1.1/DTD/svg11.dtd">
<svg version="1.1" id="Layer_1" xmlns="http://www.w3.org/2000/svg" xmlns:xlink="http://www.w3.org/1999/xlink" x="0px" y="0px"
	 width="155px" height="175px" viewBox="0 0 155 175" style="enable-background:new 0 0 155 175;" xml:space="preserve">
<g>
	<g>
		<path style="fill:#E26729;" d="M155,158.7c0-0.4,0-0.9,0-1.5c0-1.3,0-15.9,0-17.9c0-3.9,0-8.6,0-11.5c0-0.5,0-2.6,0-3.3
			c0-2-0.9-3.7-1.8-4.8c-1-1.2-2.1-2-3.3-2.7c-2.4-1.4-5.3-2.4-8.8-3.4c-6.9-1.9-16.3-3.2-27.2-4l0,0c-0.1,0-0.2,0-0.3,0
			c-1.4,0-2.6,0-3.9,0c-0.2-1-0.4-1.9-0.5-2.6c-0.5-8.2-1.7-16.7,0-24.9c2.4-11.3,14.4-17.4,13.3-30.3c-1-12.1-2.3-24.1-3-36.3
			c-0.2-2.8,0.6-7-0.3-9.7c-1.4-4.4-7.4-5.3-11.3-5.4c-14.5-0.5-29.2,0-43.7,0c-10.1,6-18.5,14.9-23.1,26.1c0,0,0,0,0,0.1
			c0,0,0,0,0,0.1c-1.7,4.4-2.4,8.6-3.2,12.4c-0.8,3.8-1.6,7.2-3.2,10c-0.4,0.8-1.6,2.3-3,4c-1.4,1.7-3.2,3.6-4.7,5.8
			c-1.5,2.2-2.9,4.6-3.4,7.8c-0.6,3.1,0.4,6.9,2.9,9.6c0,0,0,0,0,0l0,0c3.4,3.9,8.4,5.2,12.7,5c4.5-0.1,8.8-1.5,12.7-3.4
			c4.3-2.2,8-4.9,10.4-8.5c0,0,0,0,0,0c1.2-1.8,2.1-3.9,3.4-6.5c1.2-2.5,2.6-5.2,4-7.2c0.7-1,1.3-1.8,1.8-2.3
			c0.1-0.1,0.2-0.2,0.3-0.2c0.2,0.2,0.5,0.5,0.8,1c1.4,2,2.2,6.3,2.1,11.1c0,4.8-0.7,9.9-1.1,14c-0.6,5.8-2.7,15.7-2.8,25.3
			c0,1.7,0,3.4,0.1,5.1c-0.3,0-0.5,0-0.8,0l0,0c0,0-0.1,0-0.1,0l0,0c-10.7,0.8-19.9,2.2-26.7,4.1c-3.4,0.9-6.3,2-8.6,3.4
			c-1.2,0.7-2.3,1.5-3.3,2.7c-1,1.1-1.8,2.8-1.8,4.8c0,0.6,0,2.7,0,3.3v21.7H24c-0.5,0-0.9,0.4-0.9,0.9s0.4,0.9,0.9,0.9h5.6v2.2h-19
			c-0.5,0-0.9,0.4-0.9,0.9c0,0.5,0.4,0.9,0.9,0.9h19v2.2H0.9c-0.5,0-0.9,0.4-0.9,0.9c0,0.5,0.4,0.9,0.9,0.9h28.8v0.4
			c0,0.6,0.1,1.2,0.2,1.7H1.1c-0.5,0-0.9,0.4-0.9,0.9s0.4,0.9,0.9,0.9h29.4c0.5,0.9,1.1,1.6,1.7,2.2H11.6c-0.5,0-0.9,0.4-0.9,0.9
			s0.4,0.9,0.9,0.9h22.9c0.8,0.5,1.7,1,2.6,1.4c0.6,0.3,1.3,0.5,2,0.8h-8.5c-0.5,0-0.9,0.4-0.9,0.9c0,0.5,0.4,0.9,0.9,0.9h14.2
			c1.8,0.4,3.7,0.9,5.8,1.2c1.8,0.3,3.6,0.6,5.6,0.9H49c-0.5,0-0.9,0.4-0.9,0.9c0,0.5,0.4,0.9,0.9,0.9h24.1c6,0.4,12.5,0.6,19.2,0.6
			c16.2,0,30.9-1.2,41.7-3.2c5.5-1,9.9-2.2,13.5-3.8c1.8-0.8,3.3-1.6,4.7-2.9c1.3-1.2,2.6-3,2.8-5.5c0-0.1,0-0.1,0-0.1
			c0-0.1,0-0.1,0-0.2c0,0,0,0,0-0.1v-0.1C155,159,155,158.9,155,158.7z M71.5,52.7L71.5,52.7C71.5,52.7,71.5,52.7,71.5,52.7
			C71.5,52.7,71.5,52.7,71.5,52.7z M60.8,38.8c0,0,5.1,5.3,8.5,9.9c-4.9,3.3-9.1,14.8-11.1,17.7c-1.7,2.5-4.8,5-8.5,6.8
			c-6.7,3.4-15.2,4.6-19.5-0.4c-6.3-7.2,5.7-15.6,8.9-21.5c3.9-7.2,3.6-15.5,6.6-23c3.9-9.8,11.2-17.8,20.1-23.3c1-0.6,4.4,0,5.6,0
			h13.1c9.6,0,19.4-0.6,28.9,0.4c1.5,0.2,2.4,12.1,2.4,25.4c0,5.9,0.2,11.7,0.8,17.5c0.5,5,0,10.2-2.4,14.7
			c-2.2,4.1-5.5,7.5-6.9,12.1c-3.3,10.2-3.8,21.6-3,32.2c0.5,5.5,4.3,12.2,0.3,17.1c-3.7,4.5-15.5,4.1-20.2,1.5
			c-14.1-7.9-7.2-33.7-5.9-46.3c0.8-7.8,2.4-16.5,0.1-24.2C76.2,47.5,68.4,41.6,60.8,38.8z M149.9,159.3c0,5.9-25.9,10.8-57.7,10.8
			c-31.9,0-57.7-4.8-57.7-10.8v-0.4c10.8,4.2,26.2,7.2,44.4,8.2c0,0,0,0,0.1,0c0.5,0,0.8-0.4,0.9-0.8c0-0.5-0.3-0.9-0.8-0.9
			c-18.1-1.1-33.9-4.2-44.5-8.5v-4.2c1.1,0.4,2.1,0.8,3.3,1.2c12.3,4.2,29.1,6.8,47.2,7.4c0,0,0,0,0,0c0.5,0,0.8-0.4,0.9-0.8
			c0-0.5-0.4-0.9-0.8-0.9c-20.6-0.7-38.7-4-50.6-8.7v-4.1c13.6,5.3,34.6,8.7,58.5,8.7c0.5,0,0.9-0.4,0.9-0.9c0-0.5-0.4-0.9-0.9-0.9
			c-23.6,0-45-3.5-58.5-8.9v-4c13.6,5.3,34.6,8.7,58.5,8.7c2.7,0,5.4,0,8-0.1c0.5,0,0.8-0.4,0.8-0.9c0-0.5-0.4-0.9-0.9-0.8
			c-2.6,0.1-5.3,0.1-8,0.1c-23.6,0-45-3.5-58.5-8.9v-4c13.6,5.3,34.6,8.7,58.5,8.7c6.7,0,13.3-0.3,19.8-0.8c0.5,0,0.8-0.5,0.8-0.9
			c0-0.5-0.5-0.8-0.9-0.8c-6.4,0.5-13,0.8-19.6,0.8c-23.6,0-45-3.5-58.5-8.9v-5.2c6.9,6.7,36.8,9.2,57.7,9.2
			c20.9,0,50.8-2.5,57.7-9.2C149.9,133.7,149.9,159.2,149.9,159.3C149.9,159.3,149.9,159.3,149.9,159.3z M92.9,135.2
			c-31.9,0-57.7-4.8-57.7-10.8c0-4.5,14.8-8.4,35.9-10c1.5-0.1,2.8-0.2,4-0.2c1.3,6.4,4.3,10.8,9,13.4c5.5,3.1,18.4,3.4,22.8-2
			c2.8-3.5,2.5-7.5,1.7-11.3c1.7,0,3.6,0,5.6,0.1c21.4,1.6,36.5,5.5,36.5,10C150.7,130.4,124.8,135.2,92.9,135.2z M37.7,124.7
			c20.3-6.5,34.9-6.1,34.9-6.1l-0.4-2C42.1,118.6,37.7,124.7,37.7,124.7z"/>
	</g>
</g>
</svg>
