<?xml version="1.0" encoding="utf-8"?>
<!-- Generator: Adobe Illustrator 16.2.1, SVG Export Plug-In . SVG Version: 6.00 Build 0)  -->
<!DOCTYPE svg PUBLIC "-//W3C//DTD SVG 1.1//EN" "http://www.w3.org/Graphics/SVG/1.1/DTD/svg11.dtd">
<svg version="1.1" id="Layer_1" xmlns="http://www.w3.org/2000/svg" xmlns:xlink="http://www.w3.org/1999/xlink" x="0px" y="0px"
	 width="231.8px" height="308.403px" viewBox="191.1 242.798 231.8 308.403"
	 style="enable-background:new 191.1 242.798 231.8 308.403;" xml:space="preserve">
<g>
	<g>
		<path style="fill:#00BD9E;" d="M315,551c-0.699,0-1.299,0-2,0c-4.1-3.5,0.801-4,2-4.8c8.201-5.3,10-9.4,7.201-18.9
			c-1.4-4.898-2.701-10-5-14.6c-13.101-26.602-27-52.7-49.5-73c-0.9-0.8-1.601-1.602-2.5-2.5C255,427.098,246.5,415,232.5,409.098
			c-1.398-0.6-2.5-2.198-3.398-3.6c-11.7-17.2-23.398-34.398-35-51.6c-0.898-1.4-1.602-2.9-2.5-4.7c4.102,0.3,7.3,0.5,11.398,0.8
			c-1.898-2.898-3.299-4.898-4.6-7c-3.699-5.898-2.3-9.8,4.301-12.3c2.899-1.1,5.899-2.3,8.6-4c21.699-13.8,43.4-27.6,64.9-41.6
			c21.6-14,43.1-28.2,64.699-42.302c1,0,2,0,3,0c1.199,1.602,2.6,3,3.699,4.7c19.201,30.2,38.4,60.4,57.5,90.602
			c1.201,1.898,2,4,3.301,6.6c-4,1.5-7.4,2.9-10.801,4c-10.898,3.7-10.898,3.6-6.6,14.2c1.201,2.898,3.801,5.898-0.1,8.6
			c11.6,14.602,22.898,28.8,31.898,46.4c-3.801-0.802-6.201-1.102-8.6-1.7c-19.5-5.4-39.102-10.7-58.5-16.3
			c-4-1.102-7.301-0.7-10.701,1.898c-11.699,8.9-23.5,17.5-35.299,26.102c-3,2.198-3.701,4.198-1.5,7.398
			C314,444,319.5,452.9,325.3,461.7c11.1,16.898,24.199,32.5,31.5,51.898c4.6,12.302,6.299,9.2-5.6,16.102
			C339.099,537,327.099,544,315,551z"/>
		<g style="enable-background:new    ;">
			<path style="fill:#FFFFFF;" d="M256.003,336.623h5.383l-8.547,25.14h-5.812l-8.528-25.14h5.383l4.729,14.959
				c0.264,0.883,0.535,1.912,0.816,3.087s0.455,1.992,0.523,2.45c0.127-1.055,0.557-2.9,1.291-5.537L256.003,336.623z"/>
			<path style="fill:#FFFFFF;" d="M272.837,362.105c-3.094,0-5.514-0.854-7.256-2.562s-2.613-4.127-2.613-7.257
				c0-3.221,0.805-5.711,2.416-7.471c1.609-1.76,3.837-2.641,6.68-2.641c2.717,0,4.832,0.773,6.346,2.321s2.271,3.687,2.271,6.414
				v2.545h-12.398c0.058,1.49,0.499,2.653,1.324,3.49c0.826,0.837,1.983,1.255,3.474,1.255c1.157,0,2.254-0.12,3.284-0.361
				c1.031-0.239,2.109-0.624,3.231-1.15v4.058c-0.916,0.459-1.895,0.8-2.938,1.023C275.612,361.994,274.339,362.105,272.837,362.105
				z M272.099,345.908c-1.112,0-1.984,0.353-2.614,1.058s-0.991,1.705-1.083,3h7.359c-0.023-1.295-0.361-2.295-1.016-3
				C274.091,346.261,273.21,345.908,272.099,345.908z"/>
			<path style="fill:#FFFFFF;" d="M302.689,361.76h-5.244v-11.229c0-1.387-0.246-2.427-0.74-3.121
				c-0.492-0.693-1.276-1.04-2.354-1.04c-1.468,0-2.526,0.49-3.183,1.471c-0.651,0.979-0.979,2.604-0.979,4.874v9.045h-5.245
				v-19.224h4.009l0.703,2.459h0.293c0.584-0.929,1.391-1.631,2.415-2.105c1.026-0.477,2.193-0.715,3.5-0.715
				c2.234,0,3.933,0.604,5.091,1.814c1.156,1.209,1.735,2.954,1.735,5.235L302.689,361.76L302.689,361.76z"/>
			<path style="fill:#FFFFFF;" d="M307.865,337.568c0-1.708,0.951-2.562,2.854-2.562c1.904,0,2.855,0.854,2.855,2.562
				c0,0.813-0.238,1.447-0.715,1.899c-0.477,0.453-1.189,0.68-2.141,0.68C308.816,340.147,307.865,339.288,307.865,337.568z
				 M313.332,361.76h-5.244v-19.224h5.244V361.76z"/>
			<path style="fill:#FFFFFF;" d="M326.64,362.105c-5.982,0-8.975-3.284-8.975-9.854c0-3.267,0.811-5.763,2.441-7.487
				c1.627-1.727,3.959-2.589,6.996-2.589c2.225,0,4.221,0.437,5.984,1.308l-1.549,4.059c-0.824-0.333-1.592-0.604-2.303-0.816
				c-0.711-0.212-1.422-0.318-2.133-0.318c-2.729,0-4.092,1.938-4.092,5.812c0,3.76,1.363,5.64,4.092,5.64
				c1.008,0,1.943-0.135,2.803-0.404c0.859-0.269,1.719-0.689,2.58-1.264v4.488c-0.85,0.539-1.705,0.91-2.57,1.116
				C329.05,362.003,327.958,362.105,326.64,362.105z"/>
			<path style="fill:#FFFFFF;" d="M345.64,362.105c-3.094,0-5.514-0.854-7.256-2.562s-2.613-4.127-2.613-7.257
				c0-3.221,0.807-5.711,2.416-7.471c1.611-1.76,3.838-2.641,6.682-2.641c2.717,0,4.83,0.773,6.344,2.321s2.271,3.687,2.271,6.414
				v2.545h-12.398c0.059,1.49,0.5,2.653,1.324,3.49c0.826,0.837,1.982,1.255,3.475,1.255c1.156,0,2.252-0.12,3.283-0.361
				c1.031-0.239,2.109-0.624,3.232-1.15v4.058c-0.916,0.459-1.896,0.8-2.939,1.023C348.417,361.992,347.142,362.105,345.64,362.105z
				 M344.902,345.908c-1.111,0-1.982,0.353-2.613,1.058s-0.992,1.705-1.084,3h7.359c-0.021-1.295-0.361-2.295-1.014-3
				C346.896,346.26,346.013,345.908,344.902,345.908z"/>
		</g>
		<path style="fill:none;" d="M341,243c-21.6,14.102-43.1,28.3-64.699,42.3c-21.598,14-43.2,27.801-64.9,41.601
			c-2.6,1.7-5.6,2.8-8.6,4c-6.6,2.5-8,6.398-4.301,12.3c1.301,2.1,2.701,4.1,4.601,7c-4.2-0.3-7.3-0.5-11.399-0.8
			c1,1.8,1.6,3.398,2.5,4.7c11.6,17.198,23.299,34.398,35,51.6c0.899,1.398,2,3,3.399,3.6c13.899,5.9,22.399,18,32.7,28.102
			c0.8,0.8,1.6,1.698,2.5,2.5c22.5,20.3,36.4,46.3,49.5,73c2.199,4.6,3.6,9.6,5,14.6c2.799,9.5,1,13.6-7.201,18.9
			c-1.299,0.8-6.1,1.3-2,4.8c-40.699,0-81.299,0-121.999,0c0-102.7,0-205.3,0-308C241,243,291,243,341,243z"/>
		<path style="fill:none;" d="M315,551c12.1-7,24.1-14,36.201-21c11.898-6.9,10.199-3.8,5.6-16.1c-7.301-19.302-20.398-35-31.5-51.9
			c-5.801-8.8-11.301-17.7-17.1-26.4c-2.102-3.198-1.5-5.198,1.5-7.398c11.898-8.602,23.699-17.3,35.299-26.102
			c3.4-2.6,6.6-3.1,10.701-1.898c19.5,5.5,39,10.898,58.5,16.3c2.299,0.6,4.799,1,8.6,1.7c-9-17.602-20.301-31.899-31.898-46.399
			c4-2.699,1.301-5.699,0.1-8.601c-4.199-10.6-4.299-10.6,6.6-14.2c3.4-1.1,6.801-2.5,10.801-4c-1.301-2.6-2.1-4.7-3.301-6.6
			C386,308.2,366.8,278,347.599,247.8c-1.1-1.698-2.398-3.1-3.699-4.698c26.301,0,52.699,0,79,0c0,102.698,0,205.3,0,307.998
			C387,551,351,551,315,551z"/>
	</g>
</g>
</svg>
