<?xml version="1.0" encoding="utf-8"?>
<!-- Generator: Adobe Illustrator 16.2.1, SVG Export Plug-In . SVG Version: 6.00 Build 0)  -->
<!DOCTYPE svg PUBLIC "-//W3C//DTD SVG 1.1//EN" "http://www.w3.org/Graphics/SVG/1.1/DTD/svg11.dtd">
<svg version="1.1" id="Layer_1" xmlns="http://www.w3.org/2000/svg" xmlns:xlink="http://www.w3.org/1999/xlink" x="0px" y="0px"
	 width="262px" height="313.2px" viewBox="0 0 262 313.2" style="enable-background:new 0 0 262 313.2;" xml:space="preserve">
<g id="x6Potm_1_">
	<g>
		<g>
			<path style="fill:#00BD9E;" d="M0,97c0-0.3,0-0.7,0-1c0.5-0.3,1.1-0.6,1.6-1c12-11.7,23.9-23.5,35.8-35.2
				c8.7-8.5,17.5-17,26.3-25.4C74.6,23.9,85.5,13.5,96.3,3c2.4-2.3,4.2-2.2,6.3,0c3.6,3.6,7.2,7.2,10.8,10.9
				c12.2,12.2,24.4,24.4,36.4,36.7c9.8,10.1,19.3,20.5,29.2,30.5c15.3,15.5,30.7,30.7,46.1,46.1
				C237.4,139.5,249.7,151.8,261.9,164.1c0,0.7,0,1.301,0,2c-0.801,0.601-1.601,1-2.2,1.7c-8.4,8.5-16.7,17.101-25.3,25.5
				c-9.101,8.9-18.5,17.601-27.5,26.601c-14.7,14.6-29.101,29.5-43.7,44.199c-11.2,11.301-22.5,22.5-33.5,34
				c-4.5,4.7-8.5,10-12.7,15c-1.7,0-3.3,0-5,0c-5.5-4-6.6-8-4.7-15.3c2.6-9.7,5-19.399,7.1-29.2c1-4.3,0.6-9,1.8-13.199
				c1.7-6.7,3.9-13.301,6.5-19.7c2.4-6,2.9-12.9,8.899-17.4c3.9-2.899,7.301-6.7,10.101-10.7c4.1-5.699,4.8-6.199,11.5-4.6
				c1.6,0.4,4.6,0.7,5,0c2.8-5.4,8.399-6.5,13.1-8.4c11.3-4.5,18.3-13.199,23.3-23.699c4.2-8.601,1.301-19.101,6.301-27.7
				c0.1-0.2-0.2-0.6-0.301-0.9c-5.399-0.4-8.699,4.8-8.899,14.3c5.3,0.7,4.3,4.1,3,7.7c-2.101,6-4.7,11.3-9.2,16.4
				c-5.3,6.2-11.8,9.1-18.5,12.2c-2.1,1-4.3,1.899-5.9,3.399c-2.199,2.101-3.899,2.9-7,1.601c-5.6-2.2-10.8-1.5-14.5,4
				c-1.699,2.6-3.1,5.6-5.3,7.8s-5.2,3.5-7.9,5.2c-0.6-2.7-1.9-5.4-1.6-8c1-9.101-4.2-15.4-9.1-21.7c-1.3-1.7-4.1-2.2-5.2-2.7
				c3.3,5.9,7.9,11.8,9.8,18.4c1.9,6.699,1.1,14.199,1.6,21.3c-0.6,0.1-1.2,0.2-1.8,0.3c-0.7-1.7-1.5-3.3-2.1-5.1
				c-4.2-11.2-8-23-18.4-30.101c-5.6-3.8-10.3-8.2-14-13.6c-2.9-4.3-6.7-8.7-7.8-13.5c-1.5-6.5-5.7-11.5-12.6-12.5
				c-8.8-1.3-17.8-2.3-26.1-5.1c-8.1-2.8-15.5-7.7-17.6-17.3c-0.4-1.7-2-3.2-3.2-4.7c-4.9-6.2-13-9.8-14.5-18.8
				C3.6,100.1,1.3,98.6,0,97z"/>
			<path style="fill:none;" d="M0,97c1.3,1.6,3.6,3.1,3.9,4.9c1.5,9,9.6,12.6,14.5,18.8c1.2,1.5,2.8,3,3.2,4.7
				c2.2,9.6,9.6,14.5,17.6,17.3c8.3,2.9,17.3,3.8,26.1,5.1c6.9,1,11,6,12.6,12.5c1.1,4.9,4.9,9.2,7.8,13.5
				c3.7,5.5,8.4,9.8,14,13.601c10.4,7.1,14.2,18.8,18.4,30.1c0.6,1.7,1.4,3.4,2.1,5.1c0.6-0.1,1.2-0.199,1.8-0.3
				c-0.4-7.1,0.4-14.6-1.6-21.3c-1.9-6.7-6.6-12.6-9.8-18.4c1.2,0.601,3.9,1.101,5.2,2.7c4.9,6.4,10.2,12.7,9.1,21.7
				c-0.3,2.6,1,5.3,1.6,8c2.7-1.7,5.7-3.1,7.9-5.2c2.199-2.2,3.5-5.2,5.3-7.8c3.6-5.6,8.899-6.3,14.5-4c3.1,1.2,4.8,0.4,7-1.6
				c1.6-1.5,3.8-2.4,5.899-3.4c6.801-3.2,13.2-6,18.5-12.2c4.4-5.1,7.101-10.399,9.2-16.399c1.3-3.601,2.3-7-3-7.7
				c0.2-9.5,3.5-14.6,8.9-14.3c0.1,0.3,0.399,0.7,0.3,0.9c-4.9,8.6-2.1,19.101-6.3,27.7c-5,10.4-12,19.1-23.3,23.7
				c-4.801,1.899-10.301,3-13.101,8.399c-0.399,0.7-3.399,0.4-5,0c-6.7-1.6-7.399-1.1-11.5,4.601c-2.899,4-6.3,7.8-10.1,10.7
				c-6,4.5-6.4,11.399-8.9,17.399c-2.6,6.4-4.7,13-6.5,19.7c-1.1,4.3-0.8,8.9-1.8,13.2c-2.2,9.8-4.6,19.5-7.1,29.2
				c-1.9,7.199-0.8,11.199,4.7,15.3c-37.3,0-74.6,0-112,0C0,241,0,169,0,97z"/>
			<path style="fill:none;" d="M262,164c-12.3-12.3-24.5-24.6-36.8-36.9C209.8,111.7,194.4,96.5,179.1,81
				C169.2,71,159.8,60.6,149.9,50.5c-12-12.3-24.3-24.5-36.4-36.7c-3.6-3.6-7.2-7.2-10.8-10.9c-2.1-2.2-4-2.3-6.3,0
				c-10.9,10.6-21.8,21-32.7,31.4c-8.8,8.5-17.6,16.9-26.3,25.4C25.4,71.5,13.5,83.2,1.6,95c-0.4,0.4-1,0.7-1.6,1C0,64,0,32,0,0
				c87.3,0,174.7,0,262,0C262,54.7,262,109.3,262,164z"/>
			<path style="fill:none;" d="M117,313c4.2-5,8.2-10.3,12.7-15c11-11.5,22.399-22.7,33.5-34c14.6-14.7,29-29.6,43.7-44.2
				c9-9,18.5-17.6,27.5-26.6c8.5-8.4,16.8-17,25.3-25.5c0.7-0.7,1.5-1.101,2.2-1.7c0,49,0,98,0,147C213.7,313,165.3,313,117,313z"/>
		</g>
	</g>
</g>
<g style="enable-background:new    ;">
	<path style="fill:#FFFFFF;" d="M101.033,100.164c0,6.224-1.771,10.99-5.314,14.301c-3.543,3.31-8.659,4.965-15.348,4.965H69.665
		V81.622h11.87c6.172,0,10.965,1.629,14.378,4.888C99.326,89.768,101.033,94.319,101.033,100.164z M92.706,100.371
		c0-8.12-3.586-12.181-10.758-12.181h-4.267v24.619h3.439C88.844,112.81,92.706,108.663,92.706,100.371z"/>
	<path style="fill:#FFFFFF;" d="M124.928,87.751c-3.017,0-5.353,1.134-7.008,3.4c-1.655,2.268-2.483,5.427-2.483,9.478
		c0,8.431,3.164,12.646,9.491,12.646c2.655,0,5.871-0.664,9.646-1.991v6.724c-3.104,1.293-6.569,1.939-10.396,1.939
		c-5.5,0-9.707-1.668-12.62-5.004c-2.914-3.336-4.371-8.125-4.371-14.366c0-3.931,0.715-7.374,2.146-10.331
		c1.431-2.956,3.487-5.224,6.168-6.801c2.68-1.578,5.822-2.366,9.426-2.366c3.672,0,7.361,0.888,11.068,2.663l-2.586,6.518
		c-1.414-0.673-2.836-1.259-4.267-1.759C127.712,88.001,126.307,87.751,124.928,87.751z"/>
</g>
</svg>
