<?xml version="1.0" encoding="utf-8"?>
<!-- Generator: Adobe Illustrator 16.2.1, SVG Export Plug-In . SVG Version: 6.00 Build 0)  -->
<!DOCTYPE svg PUBLIC "-//W3C//DTD SVG 1.1//EN" "http://www.w3.org/Graphics/SVG/1.1/DTD/svg11.dtd">
<svg version="1.1" id="Layer_1" xmlns="http://www.w3.org/2000/svg" xmlns:xlink="http://www.w3.org/1999/xlink" x="0px" y="0px"
	 width="500px" height="622px" viewBox="57.1 85.697 500 622" style="enable-background:new 57.1 85.697 500 622;"
	 xml:space="preserve">
<g>
	<g>
		<path style="fill:#00BD9E;" d="M557,175c0,1.3,0,2.7,0,4c-3.2,5.6-5.4,11.9-11.6,15.3c-0.602,0.3-0.802,2.4-0.4,3.2
			c1.4,3,3.4,5.8,4.9,8.8c1.1,2.4,3.198,6.6,2.5,7.2c-3.7,3-1.9,6.1-0.9,8.9c1.5,4.1-0.1,6.5-3.1,8.9c-1.5,1.1-3.2,2.8-3.5,4.5
			c-1,5.6-0.9,11.5-2.302,17c-2.1,8.1,2.602,14.2,5.9,20.3c4.5,8.2,5.2,15-0.1,23.1c-2.102,3.2-5.102,6.7-5.102,10.1
			c0.102,7.601-4.1,13.601-6,20.4c-0.7,2.399-2.5,4.899-4.5,6.3c-4.898,3.5-10.3,6.4-15.5,9.5c-2,1.2-4.3,2-6.1,3.3
			c-3.5,2.601-7.3,5-9.9,8.3c-8,9.801-5.8,21.4-4.398,32.602c0.1,1,0.3,2.1,0.898,2.8c3,4.101,1.2,7.8-1.398,10.8
			c-2.602,2.9-9,2.102-12.301-0.8c-3.801-3.3-7.699-6.101-13.301-4.899c-2.199,0.5-4.699-0.5-6.8,0.101c-3.7,1-7.899,1.898-10.6,4.3
			c-5.801,5.2-10.7,11.4-16.4,17.5c-5.1-8.3-10.1-16.6-15.399-24.8c-5.301-8.4-10.899-16.601-16.399-24.9
			c-0.7,0.4-1.4,0.7-2.101,1.101c5.5,12.801,10.899,25.601,15.801,37.101c3.199,0.8,5.1,1.3,8,2c-2.602,2-3.9,2.9-5.301,4
			c2.199,5.1,4.199,10.1,6.301,14.9c2.8,6.398,2.898,6.398-3.7,9c-0.4,0.198-0.9,0.398-1.3,0.6c0.1,2.1,0.199,4,0.3,5.9
			c3.399,0.6,6.2-4.5,10.7-0.7c-3.5,1.8-6.2,3.3-9.7,5.2c2.6,5.398,5.3,10.898,7.5,15.6c4.8,1.5,9.3-6,13.399,2
			c-3.699,1.4-7,2.7-10.199,4c1.5,5.2,1.1,11,6.398,14.4c0.602,0.398,0.4,1.898,0.7,2.8c1.5,4.398,2.5,9,4.7,13
			c1.5,2.7,4.6,4.398,7.3,6.8c1.2-0.9,3.2-2.5,6.101-4.8c1.699,8.6-7.601,8.6-9,14.8c1.399,0.4,3.5,1.6,4.199,1
			c4.2-3.2,6.2-0.4,8,2.7c3.2-2.602,6.102-5,9.7-7.9c3.7,3.4,7.5,6.301,10.7,9.7c9.2,9.7,18.2,19.5,27.1,29.5
			c5.7,6.4,11.602,12.7,16.102,19.9c6.398,10.198,11.3,21.3,17.5,31.698c2.7,4.602-0.4,7.102-2.102,9.9
			c-0.898,1.5-4.1,2.4-6.198,2.4c-18.802-0.2-37.602-1.2-56.4-0.802c-18.1,0.302-36.2,2-54.2,3.102c-4.2,0.3-8.398,0.7-13,1.1
			c16.5,23.5-1.8,47.3-22.8,53.3c-4.3,12.802-2.2,28.302-15.5,37.2c-4.6-2-9.5-3.5-13.7-6.1c-4.2-2.602-8.1-5.9-11.5-9.4
			c-6-6.1-13-9.5-21.398-10.7c-5.602-0.8-11.102-2.698-16.7-4c6-21.5,11.7-42.3,17.5-63.3c-1-0.2-1.602-0.398-2.3-0.398
			c-17.802,0.198-35.602-0.4-53.4,0.8c-10.3,0.7-16.899-2.102-22.4-11c-4-6.602-7.9-12.602-8.8-20.602c-1-8.6,0.9-18.3-6.6-25.3
			c-0.4-0.398-0.4-1.2-0.6-1.898c-1.1-4.9-2.7-9.7-3-14.602c-0.6-9.898-1.1-19.898-0.6-29.898c0.4-8.7-0.5-16.102-8.6-21.2
			c-1.6-1-2.6-3-3.5-4.8c-1.9-3.7-3.7-7.5-5.1-11.302c-1.1-3.1-3.1-3.898-6.1-3.5c-12.9,1.4-25.9,2.102-38.7,4.102
			c-22.5,3.6-45.5,4.8-67.2,12.6c-1.1-2.1-2.3-4.199-3.7-6.8c-4.2,4.101-8.3,5.9-13.3,2.3c-0.9-0.699-2.6-0.6-3.9-0.5
			c-4.2,0.102-5.2-2-4.3-5.699c0.4-1.399,0.6-2.899,0.7-3.301c2-1.699,3.7-2.6,4.5-4c1.6-2.699,2.7-5.6,4.5-9.6
			c-4.4-4-7.9-10.4-8.4-18.8c4.1,0,7.8,0,12.2,0C80.9,409.3,72.3,378.9,63.4,347.8c15.8-1.1,31.1-2.2,45.4-3.2
			c0.4-4.199,0.1-8.1,1.3-11.398c1.5-3.801,0.6-6.102-1.5-9.4c-3.8-6.1-7.4-12.7-9.4-19.5c-2.3-8.3-4.4-10.7-13-10
			c-2.1,0.2-4.6,0.8-6.3,0c-5.2-2.4-10.4-5-15.1-8.3c-2.9-2-7.3-4.7-5.7-9c2.2-5.8,2.2-10.9-1.2-15.9c10.8-9.6,21.4-19,32-28.3
			c18.6-16.4,37.2-32.8,55.7-49.4c26.3-23.6,52.4-47.3,78.6-71c9.6-8.7,19.2-17.4,28.7-26.1c3.699,0,7.3,0,11,0
			c5.899,1.2,11.8,2.4,17.699,3.5c23.899,4.3,47.699,8.5,71.601,12.7c9.1,1.6,18.2,3.4,25.399,4.8c2.801,4.8,5,8,6.699,11.5
			c1.801,3.6,4.301,4.5,8.301,4.4c30.101-0.7,60.199-0.8,90.301-1.7c18.398-0.6,37,1.8,55.1-3.2c2.2-0.6,4.5-0.8,6.6-1.2
			c-3.698,8.7-0.198,17.4-0.8,25.9c-0.398,5.5,0.7,11.2-0.1,16.6c-0.9,6.2,0.1,9.1,6,11.6C553.1,172,555,173.7,557,175z"/>
		<path style="fill:none;" d="M253,86c-9.6,8.7-19.1,17.4-28.7,26.1c-26.2,23.7-52.3,47.4-78.6,71c-18.5,16.6-37.1,32.9-55.7,49.4
			c-10.6,9.4-21.2,18.7-32,28.3c3.3,5,3.4,10.1,1.2,15.9c-1.6,4.3,2.7,6.9,5.7,9c4.7,3.3,9.9,5.9,15.1,8.3c1.7,0.8,4.2,0.1,6.3,0
			c8.6-0.7,10.7,1.7,13,10c1.9,6.9,5.5,13.4,9.4,19.5c2.1,3.3,2.9,5.6,1.5,9.4c-1.2,3.3-0.9,7.1-1.3,11.398
			c-14.3,1-29.6,2.102-45.4,3.2c8.9,31.101,17.5,61.5,26.4,92.6c-4.4,0-8.1,0-12.2,0c0.5,8.4,4.1,14.7,8.4,18.802
			c-1.8,4-2.9,6.898-4.5,9.6c-0.8,1.4-2.5,2.3-4.5,4c-0.1,0.4-0.3,1.8-0.7,3.3c-1,3.7,0.1,5.8,4.3,5.7c1.3,0,3-0.1,3.9,0.5
			c5,3.6,9.1,1.8,13.3-2.3c1.4,2.6,2.6,4.7,3.7,6.8c21.8-7.8,44.8-8.9,67.2-12.6c12.8-2.102,25.8-2.7,38.7-4.102
			c3-0.3,4.9,0.4,6.1,3.5c1.4,3.9,3.3,7.602,5.1,11.3c0.9,1.802,2,3.802,3.5,4.802c8.1,5.1,9,12.5,8.6,21.198
			c-0.5,9.9,0,19.9,0.6,29.9c0.3,4.9,2,9.7,3,14.6c0.1,0.7,0.2,1.5,0.6,1.9c7.5,7,5.6,16.7,6.6,25.3c0.9,8,4.8,14,8.8,20.602
			c5.5,8.898,12.1,11.6,22.4,11c17.7-1.102,35.602-0.602,53.4-0.802c0.6,0,1.3,0.2,2.3,0.4c-5.8,21-11.6,41.8-17.5,63.3
			c5.6,1.4,11.1,3.2,16.7,4c8.398,1.3,15.398,4.602,21.398,10.7c3.4,3.5,7.302,6.9,11.5,9.4c4.2,2.6,9.102,4.1,13.7,6.1
			c13.3-8.9,11.2-24.4,15.5-37.2c20.9-6,39.3-29.8,22.8-53.3c4.5-0.4,8.7-0.8,13-1.1c18.102-1.102,36.102-2.7,54.2-3.102
			c18.8-0.398,37.602,0.602,56.4,0.8c2.1,0,5.3-0.898,6.2-2.398c1.6-2.8,4.8-5.3,2.1-9.9c-6.2-10.3-11.1-21.5-17.5-31.7
			c-4.5-7.198-10.5-13.5-16.1-19.898c-8.9-10-17.9-19.8-27.102-29.5c-3.2-3.4-7-6.4-10.7-9.7c-3.6,2.9-6.5,5.3-9.698,7.9
			c-1.802-3.102-3.802-5.9-8-2.7c-0.7,0.6-2.802-0.7-4.2-1c1.398-6.2,10.7-6.3,9-14.8c-2.9,2.3-4.9,3.8-6.102,4.8
			c-2.6-2.4-5.8-4.102-7.3-6.8c-2.2-4-3.2-8.602-4.7-13c-0.3-0.9-0.198-2.4-0.698-2.802c-5.4-3.3-4.9-9.198-6.4-14.398
			c3.2-1.3,6.5-2.5,10.2-4c-4.102-8-8.5-0.5-13.4-2c-2.3-4.7-4.898-10.2-7.5-15.602c3.5-1.898,6.2-3.3,9.7-5.198
			c-4.5-3.7-7.3,1.3-10.7,0.698c-0.1-1.898-0.2-3.8-0.3-5.898c0.4-0.2,0.8-0.4,1.3-0.602c6.602-2.6,6.602-2.6,3.7-9
			c-2.1-4.8-4.1-9.8-6.3-14.898c1.5-1.102,2.7-2,5.3-4c-3-0.7-4.8-1.2-8-2c-4.9-11.4-10.3-24.2-15.8-37.101
			c0.7-0.4,1.398-0.699,2.1-1.101c5.5,8.3,11,16.5,16.4,24.899c5.2,8.199,10.2,16.501,15.398,24.801
			c5.602-6.102,10.602-12.3,16.4-17.5c2.7-2.4,6.9-3.301,10.6-4.301c2.102-0.601,4.602,0.399,6.802-0.101
			c5.6-1.2,9.6,1.601,13.3,4.9c3.2,2.898,9.6,3.8,12.3,0.8s4.4-6.7,1.4-10.801c-0.602-0.699-0.7-1.899-0.9-2.799
			c-1.4-11.302-3.6-22.802,4.4-32.602c2.698-3.3,6.5-5.7,9.898-8.3c1.8-1.4,4.101-2.101,6.101-3.302c5.199-3.1,10.5-6,15.5-9.5
			c2-1.398,3.801-3.898,4.5-6.299c1.899-6.801,6.199-12.801,6-20.399c-0.101-3.3,3-6.9,5.101-10.1c5.3-8.1,4.7-14.9,0.1-23.1
			c-3.3-6-7.898-12.1-5.898-20.3c1.398-5.5,1.2-11.4,2.3-17c0.3-1.7,2.1-3.3,3.5-4.5c3.1-2.4,4.6-4.8,3.1-8.9c-1-2.8-2.8-6,0.9-8.9
			c0.7-0.6-1.4-4.8-2.5-7.2c-1.5-3-3.4-5.8-4.9-8.8c-0.398-0.9-0.2-2.9,0.4-3.2c6.2-3.4,8.4-9.7,11.6-15.3c0,176.3,0,352.7,0,529
			c-166.7,0-333.3,0-500,0c0-207.301,0-414.7,0-622C122.3,86,187.7,86,253,86z"/>
		<path style="fill:none;" d="M557,175c-2-1.3-3.9-3-6.1-4c-5.9-2.6-6.9-5.5-6-11.6c0.8-5.4-0.302-11.1,0.1-16.6
			c0.6-8.5-2.9-17.2,0.8-25.9c-2.1,0.4-4.398,0.6-6.6,1.2c-18.2,5-36.7,2.6-55.102,3.2c-30.1,0.9-60.198,1-90.3,1.7
			c-4,0.1-6.5-0.8-8.3-4.4c-1.7-3.5-3.9-6.7-6.7-11.5c-7.2-1.4-16.3-3.1-25.398-4.8c-23.9-4.3-47.7-8.5-71.602-12.7
			c-5.898-1.1-11.8-2.3-17.699-3.5c97.699,0,195.301,0,292.999,0C557,115.7,557,145.3,557,175z"/>
	</g>
</g>
<g style="enable-background:new    ;">
	<path style="fill:#FFFFFF;" d="M165.568,242.577c0,5.412-1.691,9.551-5.073,12.417c-3.383,2.867-8.192,4.3-14.429,4.3h-4.574
		v17.886h-10.663v-50.286h16.063c6.099,0,10.737,1.312,13.913,3.938C163.98,233.457,165.568,237.373,165.568,242.577z
		 M141.492,250.558H145c3.279,0,5.732-0.647,7.36-1.943c1.628-1.296,2.442-3.182,2.442-5.658c0-2.499-0.683-4.346-2.047-5.538
		c-1.364-1.191-3.503-1.788-6.415-1.788h-4.85v14.927H141.492z"/>
	<path style="fill:#FFFFFF;" d="M195.699,238.003c1.421,0,2.602,0.104,3.542,0.31l-0.791,9.837c-0.849-0.229-1.88-0.344-3.096-0.344
		c-3.348,0-5.956,0.86-7.825,2.58c-1.869,1.72-2.803,4.127-2.803,7.223v19.571h-10.491v-38.454h7.945l1.548,6.466h0.516
		c1.192-2.155,2.803-3.892,4.833-5.211C191.107,238.662,193.314,238.003,195.699,238.003z"/>
	<path style="fill:#FFFFFF;" d="M241.17,257.884c0,6.26-1.651,11.156-4.953,14.688c-3.302,3.532-7.9,5.297-13.793,5.297
		c-3.692,0-6.948-0.808-9.768-2.425c-2.821-1.616-4.988-3.938-6.501-6.965c-1.514-3.026-2.27-6.558-2.27-10.594
		c0-6.282,1.639-11.167,4.918-14.652c3.279-3.485,7.888-5.229,13.827-5.229c3.691,0,6.948,0.803,9.768,2.408
		c2.821,1.604,4.988,3.909,6.501,6.913C240.414,250.328,241.17,253.848,241.17,257.884z M214.582,257.884
		c0,3.807,0.625,6.685,1.875,8.633c1.25,1.949,3.285,2.924,6.105,2.924c2.797,0,4.81-0.968,6.037-2.906
		c1.226-1.938,1.84-4.82,1.84-8.65c0-3.807-0.619-6.661-1.857-8.563c-1.238-1.903-3.268-2.855-6.088-2.855
		c-2.798,0-4.815,0.946-6.054,2.838C215.201,251.196,214.582,254.055,214.582,257.884z"/>
	<path style="fill:#FFFFFF;" d="M258.986,277.18l-14.652-38.454h10.973l7.43,21.91c0.824,2.774,1.342,5.399,1.548,7.876h0.206
		c0.115-2.201,0.631-4.826,1.548-7.876l7.396-21.91h10.973l-14.652,38.454H258.986z"/>
	<path style="fill:#FFFFFF;" d="M289.462,228.785c0-3.417,1.903-5.125,5.71-5.125s5.709,1.708,5.709,5.125
		c0,1.628-0.477,2.895-1.427,3.801c-0.952,0.906-2.38,1.358-4.282,1.358C291.365,233.944,289.462,232.225,289.462,228.785z
		 M300.4,277.18h-10.491v-38.454H300.4V277.18z"/>
	<path style="fill:#FFFFFF;" d="M323.582,277.867c-4.518,0-8.065-1.754-10.646-5.262c-2.578-3.509-3.868-8.37-3.868-14.584
		c0-6.306,1.312-11.219,3.938-14.738c2.625-3.521,6.242-5.28,10.853-5.28c4.838,0,8.529,1.881,11.074,5.641h0.346
		c-0.528-2.866-0.791-5.423-0.791-7.67V223.66h10.523v53.52h-8.049l-2.029-4.987h-0.445
		C332.101,275.976,328.467,277.867,323.582,277.867z M327.263,269.51c2.684,0,4.648-0.779,5.899-2.339
		c1.249-1.56,1.931-4.208,2.046-7.945v-1.136c0-4.127-0.636-7.085-1.909-8.874c-1.271-1.788-3.342-2.683-6.208-2.683
		c-2.339,0-4.157,0.992-5.452,2.976c-1.295,1.984-1.942,4.866-1.942,8.65c0,3.783,0.653,6.621,1.961,8.513
		C322.964,268.564,324.832,269.51,327.263,269.51z"/>
	<path style="fill:#FFFFFF;" d="M373.387,277.867c-6.19,0-11.028-1.708-14.515-5.125c-3.485-3.416-5.229-8.255-5.229-14.515
		c0-6.443,1.609-11.425,4.832-14.944c3.222-3.521,7.677-5.28,13.363-5.28c5.435,0,9.664,1.548,12.691,4.644
		c3.026,3.096,4.54,7.372,4.54,12.829v5.091H364.27c0.115,2.981,0.998,5.309,2.648,6.982c1.652,1.674,3.967,2.511,6.949,2.511
		c2.314,0,4.506-0.24,6.567-0.722c2.064-0.482,4.221-1.25,6.468-2.305v8.117c-1.834,0.917-3.795,1.6-5.881,2.047
		C378.936,277.644,376.391,277.867,373.387,277.867z M371.908,245.467c-2.226,0-3.967,0.705-5.229,2.115
		c-1.262,1.41-1.982,3.411-2.167,6.002h14.723c-0.047-2.591-0.724-4.592-2.029-6.002S374.132,245.467,371.908,245.467z"/>
	<path style="fill:#FFFFFF;" d="M433.099,277.18h-10.49v-22.46c0-2.774-0.493-4.854-1.479-6.243
		c-0.986-1.387-2.558-2.081-4.713-2.081c-2.936,0-5.056,0.98-6.363,2.94c-1.307,1.961-1.96,5.211-1.96,9.752v18.092h-10.491v-38.454
		h8.016l1.41,4.918h0.585c1.17-1.857,2.778-3.262,4.832-4.213c2.053-0.951,4.386-1.428,7-1.428c4.471,0,7.864,1.21,10.182,3.629
		c2.315,2.419,3.474,5.91,3.474,10.474L433.099,277.18L433.099,277.18z"/>
	<path style="fill:#FFFFFF;" d="M459.515,277.867c-11.97,0-17.955-6.569-17.955-19.708c0-6.535,1.629-11.528,4.886-14.979
		c3.256-3.451,7.922-5.177,13.999-5.177c4.447,0,8.438,0.872,11.97,2.614l-3.096,8.117c-1.651-0.665-3.188-1.209-4.609-1.634
		c-1.422-0.424-2.844-0.637-4.265-0.637c-5.458,0-8.188,3.876-8.188,11.626c0,7.521,2.729,11.282,8.188,11.282
		c2.018,0,3.887-0.27,5.605-0.809c1.72-0.538,3.439-1.381,5.159-2.528v8.978c-1.697,1.078-3.411,1.823-5.143,2.235
		C464.335,277.661,462.151,277.867,459.515,277.867z"/>
	<path style="fill:#FFFFFF;" d="M497.521,277.867c-6.19,0-11.029-1.708-14.516-5.125c-3.484-3.416-5.229-8.255-5.229-14.515
		c0-6.443,1.61-11.425,4.833-14.944c3.222-3.521,7.676-5.28,13.361-5.28c5.436,0,9.666,1.548,12.692,4.644
		c3.025,3.096,4.54,7.372,4.54,12.829v5.091h-24.799c0.113,2.981,0.997,5.309,2.647,6.982c1.65,1.674,3.967,2.511,6.947,2.511
		c2.316,0,4.506-0.24,6.57-0.722c2.062-0.482,4.219-1.25,6.466-2.305v8.117c-1.835,0.917-3.795,1.6-5.882,2.047
		C503.07,277.644,500.525,277.867,497.521,277.867z M496.043,245.467c-2.225,0-3.968,0.705-5.229,2.115
		c-1.262,1.41-1.983,3.411-2.167,6.002h14.722c-0.046-2.591-0.723-4.592-2.029-6.002
		C500.032,246.172,498.267,245.467,496.043,245.467z"/>
</g>
</svg>
