<?xml version="1.0" encoding="utf-8"?>
<!-- Generator: Adobe Illustrator 16.2.1, SVG Export Plug-In . SVG Version: 6.00 Build 0)  -->
<!DOCTYPE svg PUBLIC "-//W3C//DTD SVG 1.1//EN" "http://www.w3.org/Graphics/SVG/1.1/DTD/svg11.dtd">
<svg version="1.1" id="Layer_1" xmlns="http://www.w3.org/2000/svg" xmlns:xlink="http://www.w3.org/1999/xlink" x="0px" y="0px"
	 width="600px" height="630px" viewBox="7 82 600 630" style="enable-background:new 7 82 600 630;" xml:space="preserve">
<g>
	<g>
		<path style="fill:none;" d="M7,712C7,502,7,292,7,82c200,0,400,0,600,0c0,210,0,420,0,630C407,712,207,712,7,712z M400.3,544.7
			c1.602,2.398,4.5,3,6.5,4.6c0.8,0.7,2.602,0.7,2,2.3c-1.2,3.4,1.102,3.7,3.2,3.5c2.2-0.198,3.7,0.7,5.5,1.802
			c4.8,3.1,8.2,7.198,11.4,12.1c4.3,6.7,9.898,12.4,14.398,19s6.4,13.7,5.8,21.6c-0.398,4.802-4,9.602-8.898,10.4
			c-8.8,1.4-15.2,7-22.2,11.6c-3.4,2.2-3.7,6.4-5.6,9.302c-2.5,3.698-3.802,7.1-3.4,11.3c0.1,1.398-0.5,2.5-1.3,3.6
			c-3.602,4.9-2,9.8,4,11.7c2.5,0.8,5.1,1.4,7.5,2.7c5.398,3,8.7,1.398,8.7-4.7c0-4.3,1.898-5.2,5.6-4.4
			c5.1,1.102,9.2-1.699,12.3-4.898c2-2.102,3.4-2.801,5.8-1.801c2.302,1,3.602,0.5,4.7-1.801c1.7-3.6,4-6.699,8.8-4.6
			c0.5,0.2,1.602,0.1,1.802-0.3c2.6-4.102,7.1-6.5,8.398-11.9c1.2-4.8,0.9-9.5,0.9-14.2c-0.5-31.1,0-62.199-1.102-93.3
			c-0.698-18.6,1.5-37.2-1-55.8c-0.698-4.9,0.5-9.8,3-14.4c3-5.5,5.9-11.1,8.7-16.8c14-28.6,27.3-57.601,40.3-86.8
			c2.302-5.1,2.7-11.4,8-14.9c6.9-21.899,13.5-43.899,20.7-65.8c7.7-23.3,13.8-47,20.2-70.7c1-3.6,2.2-7.6,0.2-11.7
			c-7.4,2.4-15.2,2.5-22,6.2c-7.3,4.1-15.3,5.8-23.5,7.3c-11,2-22.3,0.1-33.2,2.9c-9.3,2.4-18.4,5.7-28.1,6.3
			c-1.302,4.5-4.2,7.6-8.602,9c-4.6,1.5-7.5,3.7-4.5,9.2c-2.5,0.8-4.7,1.7-6.898,2.2c-9,2.1-18.2,3.8-27.102,6.3
			c-3.8,1-6.2,0.1-8.898-2.2c-10.2-8.7-20.5-17.4-30.9-25.9c-2.9-2.3-5.4-5.3-9.6-5.8c-20.2-2.5-40.602-4-60.802-7.1
			c-13.398-2-27-3.4-40.5-5.4c-16.1-2.4-32.1-4.9-48.2-7.6c-3.3-0.6-14.4-10.1-15.1-13.3c-0.1-0.6,0.1-1.3,0.4-1.8
			c4.4-9.2,9.1-18.1,20.4-20c0-4.6,0-9.2,0-13.8c-4,0.1-7.2-0.8-10.3-2.6c1.9-3.8,3.5-7.3,5.1-10.5c-5.3-6.4-12-7.8-19.2-6.8
			c-3.9,0.6-2.8,5.2-5.1,7.6c-1,0-2.1,0.1-3.3,0c-4.9-0.8-7.4,1.1-7.7,6.2c-0.1,1.9,0.2,4.4-1.9,5.9c-2.4-1.4-4.9-1.9-7.5-1.5
			c-2,4.7-0.3,9.7-1.8,14.4c-9-3.2-9.3-11.8-11.8-18.9c-7.4,0.6-14.4,1.1-21.8,1.7c4.4,8.8,7.2,17.4,11.9,25.5
			c-12.2,6-23.9,11.9-35.7,17.6c-9.5,4.6-17.7,10.1-19,22c-1,9-6.6,15.3-13,21.1c-2.9,2.6-5.5,5.1-5.3,9.5c0.1,1.7-1.1,3-2.4,4.2
			c-7.5,7-14.9,14.2-22.4,21.2c-3.5,3.2-5.6,6.7-6.3,11.7c-2,14.8-1.9,29.7-3.8,45.2c53.5,5.8,106,15.399,159.7,19.399
			c-2.1,5.7-1.4,11-3.7,15.5c-1.6,3.101-1.1,5.601,1,8.101c2.6,3.101,3.3,6.8,2.4,10.699c-1.7,8,1.1,14.5,7.2,19.2
			c4.1,3.2,5.9,6.399,3.5,12c8.3-1.899,10.8,4,14.2,9.2c-3,1.7-4.6,4.6-6.4,7.3c-0.8,1.2-1.3,2.602,0,3.602
			c5.2,4.3,10.2,8.698,15.7,12c2.2-1.2,1.6-4.302,4.2-4.302c4.9,13,15.8,20.4,26.7,28c-2.8,2.5-5.2,4-4.101,7.302
			c2.5,7.5,3.899,15.398,6.701,22.898c1.1,2.8,2.698,3.602,5.198,3.102c4.302-0.7,8.5-1.7,12.7-2.4c2.5-0.4,5.3-1,4.4,3.4
			c-0.4,1.898,1.6,3.898,2.699,3.5c5.601-2.102,7.301,2.8,10.5,5.6c1.699-2.2,4.801-3.2,3.899-6.5c-1.2-4.7,2-4.6,4.4-3.7
			c4.1,1.7,6.3-1.1,6.898-3.5c0.7-2.6,2.7-2.7,4.102-3.8c-1.4-3.6-1.301-7.3-2.7-9.2c16.3-18.6,28.899-38.898,39.3-60.3
			c3,0.3,6.101,2.1,7.7-0.1c3.3-4.5,6.899-3.302,10.8-1.602c2.3-1.3,3.3-4.8,5.8-4.5c6.5,0.8,10.2-3.898,14-7.399
			c1.9-1.7,3.2-2.899,5.602-2.7c3.1,0.301,6.1,0.7,10,1.101c-2.301,4.8-6.301,6.4-9.602,8.7c-1.398,1-3.3,2.1-1.6,3.8
			c2.8,2.9,1,5.4,0.399,8.5c-2.801-0.2-6.199-1-5.801,3.4c0.7,2,4.102,0.398,3.9,3.2c-0.2,2.6-2.5,2.8-4.2,3.5
			c-3.1,1.398-3.899,4.1-4.3,7c-0.5,4.198,1,7.3,6.7,8.8c-8.7,1.398-8.7,1.398-8.301,4.6c5.801,1.102,8.399,2.602,8,5.602
			c-0.899,7.698-2.101,15.3-3.101,22.898c-1.2,0.102-2,0.2-2.8,0.3c-1.601,0.2-4-1.8-4.601,1c-0.5,2.5,2,3.4,3.801,3.7
			c2.6,0.4,3.8,2,5.3,4c2,2.8,2.2,6.3,3.8,9.102c5.3,9.3,1.601,19.898,4.8,29.398c0.2,0.5-0.199,1.3-0.5,1.9
			C407.2,530,403.8,537.2,400.3,544.7z"/>
		<path style="fill:#00BD9E;" d="M400.3,544.7c3.5-7.5,6.9-14.7,10.2-21.9c0.3-0.6,0.7-1.398,0.5-1.898
			c-3.2-9.5,0.5-20.102-4.8-29.4c-1.602-2.8-1.8-6.3-3.8-9.1c-1.4-2-2.602-3.602-5.302-4c-1.898-0.302-4.398-1.2-3.8-3.7
			c0.602-2.8,3-0.8,4.602-1c0.8-0.102,1.6-0.2,2.8-0.3c1.1-7.602,2.3-15.302,3.1-22.9c0.3-2.9-2.2-4.5-8-5.6
			c-0.3-3.2-0.3-3.2,8.3-4.602c-5.6-1.5-7.198-4.7-6.698-8.8c0.398-2.9,1.198-5.6,4.3-7c1.7-0.8,4-1,4.2-3.5
			c0.198-2.8-3.2-1.2-3.9-3.2c-0.4-4.398,3-3.6,5.8-3.398c0.602-3.102,2.4-5.7-0.398-8.5c-1.602-1.602,0.198-2.7,1.6-3.802
			c3.3-2.3,7.3-4,9.6-8.699c-3.898-0.399-7-0.801-10-1.101c-2.398-0.2-3.698,1-5.6,2.7c-3.8,3.5-7.4,8.2-14,7.4
			c-2.5-0.302-3.5,3.198-5.8,4.5c-3.8-1.7-7.5-2.9-10.8,1.6c-1.602,2.2-4.602,0.4-7.7,0.1c-10.3,21.5-22.9,41.7-39.3,60.302
			c1.5,1.8,1.398,5.5,2.699,9.198c-1.399,1-3.399,1.102-4.101,3.802c-0.6,2.398-2.8,5.198-6.899,3.5c-2.399-1-5.699-1-4.399,3.698
			c0.899,3.302-2.2,4.302-3.9,6.5c-3.2-2.8-4.898-7.8-10.499-5.6c-1.101,0.4-3.101-1.6-2.701-3.5c0.9-4.4-1.898-3.8-4.398-3.4
			c-4.3,0.7-8.5,1.7-12.7,2.4c-2.5,0.4-4.2-0.3-5.2-3.1c-2.8-7.5-4.199-15.302-6.699-22.9c-1.101-3.3,1.301-4.8,4.101-7.3
			c-10.9-7.602-21.8-15-26.7-28c-2.6,0.1-2,3.1-4.2,4.3c-5.5-3.3-10.6-7.7-15.7-12c-1.2-1-0.8-2.3,0-3.6
			c1.8-2.7,3.4-5.602,6.4-7.302c-3.4-5.1-5.9-11.1-14.2-9.198c2.4-5.602,0.6-8.801-3.5-12c-6.1-4.801-8.9-11.2-7.2-19.2
			c0.8-3.9,0.2-7.601-2.4-10.7c-2.1-2.5-2.6-4.9-1-8.1c2.3-4.5,1.6-9.801,3.7-15.5c-53.7-4-106.2-13.602-159.7-19.4
			c1.9-15.5,1.8-30.4,3.8-45.2c0.7-5,2.8-8.5,6.3-11.7c7.6-7,14.9-14.1,22.4-21.2c1.3-1.2,2.4-2.5,2.4-4.2c-0.2-4.4,2.4-6.9,5.3-9.5
			c6.3-5.7,12-12.1,13-21.1c1.3-11.9,9.5-17.4,19-22c11.8-5.7,23.5-11.5,35.7-17.6c-4.7-8.1-7.4-16.7-11.9-25.5
			c7.4-0.6,14.4-1.1,21.8-1.7c2.5,7.1,2.8,15.6,11.8,18.9c1.5-4.7-0.2-9.7,1.8-14.4c2.6-0.5,5.1,0.1,7.5,1.5
			c2.1-1.4,1.8-3.9,1.9-5.9c0.4-5.1,2.8-7,7.7-6.2c1.1,0.2,2.3,0,3.3,0c2.3-2.4,1.2-7,5.1-7.6c7.2-1,13.9,0.4,19.2,6.8
			c-1.6,3.2-3.3,6.7-5.1,10.5c3.1,1.8,6.3,2.7,10.3,2.6c0,4.7,0,9.3,0,13.8c-11.3,1.9-16,10.8-20.4,20c-0.3,0.6-0.5,1.3-0.4,1.8
			c0.7,3.2,11.8,12.8,15.1,13.3c16,2.7,32.1,5.1,48.2,7.6c13.4,2,27,3.4,40.5,5.4c20.2,3,40.5,4.6,60.8,7.1
			c4.2,0.5,6.801,3.5,9.602,5.8c10.398,8.5,20.699,17.1,30.898,25.9c2.7,2.3,5.102,3.2,8.9,2.2c8.899-2.4,18.1-4.2,27.1-6.3
			c2.2-0.5,4.4-1.4,6.9-2.2c-3-5.4-0.101-7.7,4.5-9.2c4.399-1.4,7.3-4.5,8.6-9c9.7-0.7,18.801-3.9,28.102-6.3
			c10.898-2.8,22.199-0.8,33.199-2.9c8.199-1.5,16.199-3.2,23.5-7.3c6.801-3.8,14.601-3.9,22-6.2c2,4.1,0.801,8.1-0.199,11.7
			c-6.4,23.6-12.5,47.4-20.2,70.7c-7.2,21.8-13.8,43.8-20.7,65.8c-5.3,3.6-5.7,9.8-8,14.899c-13,29.101-26.2,58.101-40.3,86.801
			c-2.8,5.6-5.7,11.198-8.7,16.8c-2.5,4.6-3.6,9.398-3,14.398c2.5,18.602,0.3,37.2,1,55.802c1.101,31.1,0.601,62.198,1.101,93.3
			c0.101,4.8,0.301,9.398-0.899,14.2c-1.3,5.3-5.8,7.8-8.399,11.898c-0.2,0.3-1.301,0.5-1.801,0.3c-4.8-2.1-7.1,1-8.8,4.602
			c-1.101,2.3-2.399,2.8-4.7,1.8c-2.3-1-3.699-0.3-5.8,1.8c-3,3.2-7.101,6-12.3,4.9c-3.7-0.8-5.602,0.1-5.602,4.398
			c0,6.102-3.3,7.802-8.699,4.7c-2.301-1.3-4.899-1.898-7.5-2.7c-6-1.8-7.699-6.8-4-11.698c0.801-1.102,1.399-2.2,1.301-3.602
			c-0.4-4.2,0.898-7.6,3.398-11.3c1.9-2.9,2.2-7,5.602-9.3c7-4.602,13.398-10.2,22.199-11.602c4.899-0.8,8.5-5.6,8.899-10.398
			c0.601-7.9-1.399-15-5.8-21.602c-4.5-6.6-10.2-12.398-14.4-19c-3.1-4.898-6.5-9-11.398-12.1c-1.7-1.1-3.2-2-5.5-1.8
			c-2.102,0.2-4.5-0.102-3.2-3.5c0.601-1.602-1.2-1.7-2-2.3C404.8,547.7,402,547.1,400.3,544.7z"/>
	</g>
</g>
<g style="enable-background:new    ;">
	<path style="fill:#FFFFFF;" d="M153.476,296.198h-13.562l-21.891-38.068h-0.31c0.436,6.724,0.654,11.52,0.654,14.388v23.681h-9.534
		v-50.322h13.458l21.857,37.689h0.241c-0.344-6.54-0.516-11.164-0.516-13.872v-23.818h9.603V296.198z"/>
	<path style="fill:#FFFFFF;" d="M182.733,296.887c-6.196,0-11.038-1.709-14.525-5.129c-3.488-3.419-5.232-8.261-5.232-14.525
		c0-6.447,1.612-11.433,4.836-14.955s7.681-5.283,13.373-5.283c5.438,0,9.672,1.549,12.701,4.646
		c3.029,3.098,4.543,7.378,4.543,12.839v5.094h-24.817c0.115,2.982,0.999,5.312,2.65,6.986c1.652,1.676,3.97,2.514,6.953,2.514
		c2.317,0,4.509-0.241,6.574-0.723c2.065-0.482,4.222-1.252,6.471-2.308v8.123c-1.836,0.919-3.798,1.601-5.886,2.049
		C188.286,296.663,185.739,296.887,182.733,296.887z M181.253,264.463c-2.226,0-3.97,0.706-5.232,2.117s-1.985,3.413-2.168,6.006
		h14.732c-0.046-2.593-0.723-4.595-2.031-6.006C185.246,265.169,183.478,264.463,181.253,264.463z"/>
	<path style="fill:#FFFFFF;" d="M238.596,296.198l-2.96-13.458l-3.993-17.004h-0.241l-7.021,30.462h-11.29l-10.945-38.481h10.464
		l4.44,17.038c0.711,3.052,1.434,7.263,2.168,12.632h0.207c0.091-1.742,0.493-4.509,1.205-8.295l0.551-2.926l4.75-18.449h11.565
		l4.509,18.449c0.091,0.505,0.235,1.251,0.43,2.236c0.195,0.986,0.384,2.037,0.568,3.149c0.184,1.113,0.35,2.203,0.499,3.271
		c0.149,1.066,0.235,1.922,0.258,2.563h0.207c0.207-1.651,0.573-3.918,1.102-6.798c0.527-2.88,0.906-4.824,1.136-5.834l4.612-17.038
		h10.292l-11.083,38.481L238.596,296.198L238.596,296.198z"/>
	<path style="fill:#FFFFFF;" d="M327.676,296.198h-10.637v-21.719h-19.93v21.719h-10.67v-50.322h10.67v19.723h19.93v-19.723h10.637
		V296.198z"/>
	<path style="fill:#FFFFFF;" d="M363.988,296.198l-2.03-5.231h-0.275c-1.767,2.227-3.585,3.77-5.456,4.629
		c-1.869,0.86-4.308,1.291-7.312,1.291c-3.694,0-6.604-1.056-8.726-3.166c-2.123-2.111-3.185-5.117-3.185-9.019
		c0-4.084,1.428-7.097,4.285-9.035c2.855-1.939,7.164-3.012,12.924-3.219l6.678-0.206v-1.687c0-3.901-1.995-5.852-5.987-5.852
		c-3.076,0-6.689,0.929-10.843,2.788l-3.477-7.091c4.428-2.317,9.338-3.477,14.73-3.477c5.164,0,9.122,1.125,11.875,3.373
		c2.754,2.249,4.131,5.668,4.131,10.258v25.644L363.988,296.198L363.988,296.198z M360.891,278.368l-4.061,0.138
		c-3.053,0.094-5.324,0.645-6.816,1.652c-1.49,1.011-2.235,2.548-2.235,4.611c0,2.961,1.696,4.44,5.094,4.44
		c2.432,0,4.377-0.698,5.834-2.101c1.457-1.398,2.186-3.258,2.186-5.575L360.891,278.368L360.891,278.368z"/>
	<path style="fill:#FFFFFF;" d="M391.284,296.198l-14.663-38.481h10.979l7.435,21.926c0.826,2.776,1.344,5.403,1.55,7.883h0.206
		c0.115-2.203,0.631-4.83,1.549-7.883l7.4-21.926h10.979l-14.663,38.481H391.284z"/>
	<path style="fill:#FFFFFF;" d="M439.645,296.887c-6.194,0-11.038-1.709-14.524-5.129c-3.488-3.419-5.232-8.261-5.232-14.525
		c0-6.447,1.611-11.433,4.836-14.955c3.226-3.522,7.683-5.283,13.373-5.283c5.438,0,9.672,1.549,12.701,4.646
		c3.027,3.098,4.543,7.378,4.543,12.839v5.094h-24.815c0.112,2.982,0.998,5.312,2.649,6.986c1.65,1.676,3.969,2.514,6.951,2.514
		c2.318,0,4.51-0.241,6.574-0.723c2.065-0.482,4.223-1.252,6.473-2.308v8.123c-1.836,0.919-3.799,1.601-5.887,2.049
		C445.197,296.663,442.65,296.887,439.645,296.887z M438.164,264.463c-2.227,0-3.971,0.706-5.232,2.117
		c-1.261,1.411-1.983,3.413-2.168,6.006h14.732c-0.047-2.593-0.723-4.595-2.031-6.006
		C442.157,265.169,440.389,264.463,438.164,264.463z"/>
	<path style="fill:#FFFFFF;" d="M499.396,296.198h-10.498v-22.477c0-2.776-0.492-4.858-1.479-6.247
		c-0.988-1.388-2.561-2.082-4.717-2.082c-2.938,0-5.06,0.98-6.367,2.942s-1.963,5.215-1.963,9.759v18.104h-10.498v-38.481h8.021
		l1.41,4.922h0.586c1.17-1.858,2.781-3.264,4.836-4.217c2.054-0.951,4.39-1.428,7.005-1.428c4.475,0,7.87,1.21,10.188,3.631
		c2.316,2.421,3.475,5.915,3.475,10.481v25.093H499.396z"/>
</g>
</svg>
