<?xml version="1.0" encoding="utf-8"?>
<!-- Generator: Adobe Illustrator 16.2.1, SVG Export Plug-In . SVG Version: 6.00 Build 0)  -->
<!DOCTYPE svg PUBLIC "-//W3C//DTD SVG 1.1//EN" "http://www.w3.org/Graphics/SVG/1.1/DTD/svg11.dtd">
<svg version="1.1" id="Layer_1" xmlns="http://www.w3.org/2000/svg" xmlns:xlink="http://www.w3.org/1999/xlink" x="0px" y="0px"
	 width="198.8px" height="53.2px" viewBox="0 0 198.8 53.2" style="enable-background:new 0 0 198.8 53.2;" xml:space="preserve">
<ellipse style="fill:#EDE1B3;" cx="137.9" cy="22.5" rx="12.7" ry="5.1"/>
<ellipse style="fill:#EDE1B3;" cx="170.1" cy="33.1" rx="12.7" ry="5.1"/>
<ellipse style="fill:#EDE1B3;" cx="73.9" cy="44.3" rx="11.8" ry="5.3"/>
<ellipse style="fill:#E8E5DB;" cx="8.8" cy="16.1" rx="8.1" ry="2.6"/>
<ellipse style="fill:#FEC23A;" cx="30.8" cy="18.3" rx="23.3" ry="6.9"/>
<ellipse style="fill:#FEC23A;" cx="110.8" cy="46.4" rx="23.3" ry="6.9"/>
<path style="fill:#F8971D;" d="M71.8,23.5c-5.6,0-12.5,2.4-13.1,10.2c-0.6,8.1,5.8,12.7,13.3,12.7c8.4,0,14.1-4.8,13.3-12.7
	C84.5,25.9,77.4,23.5,71.8,23.5z"/>
<path style="fill:#F57E20;" d="M69.8,37.7c-0.7-3.3-1.8-5.1-3.5-7.2c-1-1.3-2.7-2.7-4.6-3.5c-1.6,1.6-2.7,3.8-3,6.7
	c-0.6,8.1,5.8,12.7,13.3,12.7c0.5,0,1,0,1.5-0.1C71.5,44.5,70.3,40.3,69.8,37.7z"/>
<polygon style="fill:#87AD3F;" points="68.5,24.8 69.1,25.6 70.1,25 69.7,25.9 70.9,25.9 69.8,26.4 70.5,27.1 69.3,26.9 69.1,27.8 
	68.5,27.1 67.5,27.7 67.9,26.8 66.7,26.7 67.8,26.2 67.1,25.6 68.3,25.7 "/>
<circle style="fill:#FEC23A;" cx="76.1" cy="29.8" r="0.3"/>
<circle style="fill:#FEC23A;" cx="77.4" cy="29.4" r="0.3"/>
<circle style="fill:#FEC23A;" cx="78.8" cy="28.9" r="0.3"/>
<circle style="fill:#FEC23A;" cx="80.1" cy="28.5" r="0.3"/>
<circle style="fill:#FEC23A;" cx="81.4" cy="28.1" r="0.3"/>
<circle style="fill:#FEC23A;" cx="77.1" cy="30.6" r="0.3"/>
<circle style="fill:#FEC23A;" cx="78.5" cy="30.2" r="0.3"/>
<circle style="fill:#FEC23A;" cx="79.8" cy="29.8" r="0.3"/>
<circle style="fill:#FEC23A;" cx="78.1" cy="31.5" r="0.3"/>
<circle style="fill:#FEC23A;" cx="79.5" cy="31.1" r="0.3"/>
<circle style="fill:#FEC23A;" cx="78.1" cy="26.7" r="0.3"/>
<circle style="fill:#FEC23A;" cx="80.8" cy="30.7" r="0.3"/>
<circle style="fill:#FEC23A;" cx="81.1" cy="29.3" r="0.3"/>
<circle style="fill:#FEC23A;" cx="76.5" cy="28.4" r="0.3"/>
<circle style="fill:#FEC23A;" cx="77.8" cy="28" r="0.3"/>
<circle style="fill:#FEC23A;" cx="79.1" cy="27.6" r="0.3"/>
<circle style="fill:#FEC23A;" cx="80.4" cy="27.2" r="0.3"/>
<circle style="fill:#F8971D;" cx="60.6" cy="33.3" r="0.3"/>
<circle style="fill:#F8971D;" cx="61.9" cy="32.9" r="0.3"/>
<circle style="fill:#F8971D;" cx="63.2" cy="32.4" r="0.3"/>
<circle style="fill:#F8971D;" cx="64.6" cy="32" r="0.3"/>
<circle style="fill:#F8971D;" cx="65.9" cy="31.6" r="0.3"/>
<circle style="fill:#F8971D;" cx="61.6" cy="34.1" r="0.3"/>
<circle style="fill:#F8971D;" cx="62.9" cy="33.7" r="0.3"/>
<circle style="fill:#F8971D;" cx="64.3" cy="33.3" r="0.3"/>
<circle style="fill:#F8971D;" cx="62.6" cy="35" r="0.3"/>
<circle style="fill:#F8971D;" cx="63.9" cy="34.6" r="0.3"/>
<circle style="fill:#F8971D;" cx="62.5" cy="30.2" r="0.3"/>
<circle style="fill:#F8971D;" cx="65.3" cy="34.2" r="0.3"/>
<circle style="fill:#F8971D;" cx="65.6" cy="32.8" r="0.3"/>
<circle style="fill:#F8971D;" cx="60.9" cy="32" r="0.3"/>
<circle style="fill:#F8971D;" cx="62.2" cy="31.5" r="0.3"/>
<circle style="fill:#F8971D;" cx="63.6" cy="31.1" r="0.3"/>
<circle style="fill:#F8971D;" cx="64.9" cy="30.7" r="0.3"/>
<path style="fill:#F8971D;" d="M136.7,1.7c-5.6,0-12.5,2.4-13.1,10.2c-0.6,8.1,5.8,12.7,13.3,12.7c8.4,0,14.1-4.8,13.3-12.7
	C149.5,4.1,142.3,1.7,136.7,1.7z"/>
<path style="fill:#F57E20;" d="M134.7,15.9c-0.7-3.3-1.8-5.1-3.5-7.2c-1-1.3-2.7-2.7-4.6-3.5c-1.6,1.6-2.7,3.8-3,6.7
	c-0.6,8.1,5.8,12.7,13.3,12.7c0.5,0,1,0,1.5-0.1C136.5,22.8,135.2,18.5,134.7,15.9z"/>
<polygon style="fill:#87AD3F;" points="133.4,3.1 134,3.8 135,3.2 134.6,4.1 135.8,4.2 134.7,4.7 135.4,5.3 134.3,5.2 134,6 
	133.5,5.3 132.5,5.9 132.8,5 131.7,4.9 132.7,4.5 132.1,3.8 133.2,3.9 "/>
<circle style="fill:#FEC23A;" cx="141" cy="8" r="0.3"/>
<circle style="fill:#FEC23A;" cx="142.4" cy="7.6" r="0.3"/>
<circle style="fill:#FEC23A;" cx="143.7" cy="7.2" r="0.3"/>
<circle style="fill:#FEC23A;" cx="145" cy="6.7" r="0.3"/>
<circle style="fill:#FEC23A;" cx="146.3" cy="6.3" r="0.3"/>
<circle style="fill:#FEC23A;" cx="142.1" cy="8.8" r="0.3"/>
<circle style="fill:#FEC23A;" cx="143.4" cy="8.4" r="0.3"/>
<circle style="fill:#FEC23A;" cx="144.7" cy="8" r="0.3"/>
<circle style="fill:#FEC23A;" cx="143.1" cy="9.7" r="0.3"/>
<circle style="fill:#FEC23A;" cx="144.4" cy="9.3" r="0.3"/>
<circle style="fill:#FEC23A;" cx="143" cy="4.9" r="0.3"/>
<circle style="fill:#FEC23A;" cx="145.7" cy="8.9" r="0.3"/>
<circle style="fill:#FEC23A;" cx="146.1" cy="7.6" r="0.3"/>
<circle style="fill:#FEC23A;" cx="141.4" cy="6.7" r="0.3"/>
<circle style="fill:#FEC23A;" cx="142.7" cy="6.2" r="0.3"/>
<circle style="fill:#FEC23A;" cx="144" cy="5.8" r="0.3"/>
<circle style="fill:#FEC23A;" cx="145.4" cy="5.4" r="0.3"/>
<circle style="fill:#F8971D;" cx="125.5" cy="11.5" r="0.3"/>
<circle style="fill:#F8971D;" cx="126.8" cy="11.1" r="0.3"/>
<circle style="fill:#F8971D;" cx="128.2" cy="10.7" r="0.3"/>
<circle style="fill:#F8971D;" cx="129.5" cy="10.2" r="0.3"/>
<circle style="fill:#F8971D;" cx="130.8" cy="9.8" r="0.3"/>
<circle style="fill:#F8971D;" cx="126.5" cy="12.3" r="0.3"/>
<circle style="fill:#F8971D;" cx="127.9" cy="11.9" r="0.3"/>
<circle style="fill:#F8971D;" cx="129.2" cy="11.5" r="0.3"/>
<circle style="fill:#F8971D;" cx="127.5" cy="13.3" r="0.3"/>
<circle style="fill:#F8971D;" cx="128.9" cy="12.8" r="0.3"/>
<circle style="fill:#F8971D;" cx="127.4" cy="8.4" r="0.3"/>
<circle style="fill:#F8971D;" cx="130.2" cy="12.4" r="0.3"/>
<circle style="fill:#F8971D;" cx="130.5" cy="11.1" r="0.3"/>
<circle style="fill:#F8971D;" cx="125.9" cy="10.2" r="0.3"/>
<circle style="fill:#F8971D;" cx="127.2" cy="9.8" r="0.3"/>
<circle style="fill:#F8971D;" cx="128.5" cy="9.3" r="0.3"/>
<circle style="fill:#F8971D;" cx="129.8" cy="8.9" r="0.3"/>
<path style="fill:#F8971D;" d="M168,12c-5.6,0-12.5,2.4-13.1,10.2c-0.6,8.1,5.8,12.7,13.3,12.7c8.4,0,14.1-4.8,13.3-12.7
	C180.7,14.4,173.6,12,168,12z"/>
<path style="fill:#F57E20;" d="M165.9,26.2c-0.7-3.3-1.8-5.1-3.5-7.2c-1-1.3-2.7-2.7-4.6-3.5c-1.6,1.6-2.7,3.8-3,6.7
	c-0.6,8.1,5.8,12.7,13.3,12.7c0.5,0,1,0,1.5-0.1C167.7,33,166.5,28.8,165.9,26.2z"/>
<polygon style="fill:#87AD3F;" points="164.7,13.3 165.2,14.1 166.2,13.5 165.9,14.4 167,14.4 166,14.9 166.6,15.6 165.5,15.4 
	165.3,16.3 164.7,15.6 163.7,16.2 164.1,15.3 162.9,15.2 164,14.7 163.3,14.1 164.5,14.2 "/>
<circle style="fill:#FEC23A;" cx="172.3" cy="18.3" r="0.3"/>
<circle style="fill:#FEC23A;" cx="173.6" cy="17.9" r="0.3"/>
<circle style="fill:#FEC23A;" cx="174.9" cy="17.4" r="0.3"/>
<circle style="fill:#FEC23A;" cx="176.3" cy="17" r="0.3"/>
<circle style="fill:#FEC23A;" cx="177.6" cy="16.6" r="0.3"/>
<circle style="fill:#FEC23A;" cx="173.3" cy="19.1" r="0.3"/>
<circle style="fill:#FEC23A;" cx="174.7" cy="18.7" r="0.3"/>
<circle style="fill:#FEC23A;" cx="176" cy="18.3" r="0.3"/>
<circle style="fill:#FEC23A;" cx="174.3" cy="20" r="0.3"/>
<circle style="fill:#FEC23A;" cx="175.6" cy="19.6" r="0.3"/>
<circle style="fill:#FEC23A;" cx="174.2" cy="15.2" r="0.3"/>
<circle style="fill:#FEC23A;" cx="177" cy="19.2" r="0.3"/>
<circle style="fill:#FEC23A;" cx="177.3" cy="17.8" r="0.3"/>
<circle style="fill:#FEC23A;" cx="172.6" cy="16.9" r="0.3"/>
<circle style="fill:#FEC23A;" cx="174" cy="16.5" r="0.3"/>
<circle style="fill:#FEC23A;" cx="175.3" cy="16.1" r="0.3"/>
<circle style="fill:#FEC23A;" cx="176.6" cy="15.7" r="0.3"/>
<circle style="fill:#F8971D;" cx="156.8" cy="21.8" r="0.3"/>
<circle style="fill:#F8971D;" cx="158.1" cy="21.4" r="0.3"/>
<circle style="fill:#F8971D;" cx="159.4" cy="20.9" r="0.3"/>
<circle style="fill:#F8971D;" cx="160.7" cy="20.5" r="0.3"/>
<circle style="fill:#F8971D;" cx="162.1" cy="20.1" r="0.3"/>
<circle style="fill:#F8971D;" cx="157.8" cy="22.6" r="0.3"/>
<circle style="fill:#F8971D;" cx="159.1" cy="22.2" r="0.3"/>
<circle style="fill:#F8971D;" cx="160.5" cy="21.8" r="0.3"/>
<circle style="fill:#F8971D;" cx="158.8" cy="23.5" r="0.3"/>
<circle style="fill:#F8971D;" cx="160.1" cy="23.1" r="0.3"/>
<circle style="fill:#F8971D;" cx="158.7" cy="18.7" r="0.3"/>
<circle style="fill:#F8971D;" cx="161.4" cy="22.7" r="0.3"/>
<circle style="fill:#F8971D;" cx="161.8" cy="21.3" r="0.3"/>
<circle style="fill:#F8971D;" cx="157.1" cy="20.5" r="0.3"/>
<circle style="fill:#F8971D;" cx="158.4" cy="20" r="0.3"/>
<circle style="fill:#F8971D;" cx="159.8" cy="19.6" r="0.3"/>
<circle style="fill:#F8971D;" cx="161.1" cy="19.2" r="0.3"/>
<path style="fill:#F8971D;" d="M10.2,0C5.8,0,0.5,1.8,0,7.9c-0.5,6.2,4.5,9.8,10.3,9.8c6.5,0,10.9-3.7,10.3-9.8
	C20,1.8,14.5,0,10.2,0z"/>
<path style="fill:#F57E20;" d="M8.6,11C8.1,8.4,7.2,7.1,5.9,5.4c-0.8-1-2.1-2.1-3.6-2.7C1.1,3.9,0.2,5.6,0,7.9
	c-0.5,6.2,4.5,9.8,10.3,9.8c0.4,0,0.8,0,1.2,0C10,16.3,9,13,8.6,11z"/>
<polygon style="fill:#87AD3F;" points="7.6,1 8.1,1.6 8.8,1.2 8.6,1.8 9.5,1.9 8.6,2.3 9.1,2.8 8.3,2.7 8.1,3.3 7.7,2.8 6.9,3.2 
	7.2,2.6 6.3,2.5 7.1,2.1 6.6,1.6 7.5,1.7 "/>
<circle style="fill:#FEC23A;" cx="13.5" cy="4.9" r="0.2"/>
<circle style="fill:#FEC23A;" cx="14.5" cy="4.5" r="0.2"/>
<circle style="fill:#FEC23A;" cx="15.6" cy="4.2" r="0.2"/>
<circle style="fill:#FEC23A;" cx="16.6" cy="3.9" r="0.2"/>
<circle style="fill:#FEC23A;" cx="17.6" cy="3.5" r="0.2"/>
<circle style="fill:#FEC23A;" cx="14.3" cy="5.5" r="0.2"/>
<circle style="fill:#FEC23A;" cx="15.3" cy="5.2" r="0.2"/>
<circle style="fill:#FEC23A;" cx="16.4" cy="4.8" r="0.2"/>
<circle style="fill:#FEC23A;" cx="15.1" cy="6.2" r="0.2"/>
<circle style="fill:#FEC23A;" cx="16.1" cy="5.9" r="0.2"/>
<circle style="fill:#FEC23A;" cx="15" cy="2.5" r="0.2"/>
<circle style="fill:#FEC23A;" cx="17.1" cy="5.5" r="0.2"/>
<circle style="fill:#FEC23A;" cx="17.4" cy="4.5" r="0.2"/>
<circle style="fill:#FEC23A;" cx="13.8" cy="3.8" r="0.2"/>
<circle style="fill:#FEC23A;" cx="14.8" cy="3.5" r="0.2"/>
<circle style="fill:#FEC23A;" cx="15.8" cy="3.2" r="0.2"/>
<circle style="fill:#FEC23A;" cx="16.8" cy="2.8" r="0.2"/>
<circle style="fill:#F8971D;" cx="1.5" cy="7.6" r="0.2"/>
<circle style="fill:#F8971D;" cx="2.5" cy="7.2" r="0.2"/>
<circle style="fill:#F8971D;" cx="3.6" cy="6.9" r="0.2"/>
<circle style="fill:#F8971D;" cx="4.6" cy="6.6" r="0.2"/>
<circle style="fill:#F8971D;" cx="5.6" cy="6.3" r="0.2"/>
<circle style="fill:#F8971D;" cx="2.3" cy="8.2" r="0.2"/>
<circle style="fill:#F8971D;" cx="3.3" cy="7.9" r="0.2"/>
<circle style="fill:#F8971D;" cx="4.4" cy="7.6" r="0.2"/>
<circle style="fill:#F8971D;" cx="3.1" cy="8.9" r="0.2"/>
<circle style="fill:#F8971D;" cx="4.1" cy="8.6" r="0.2"/>
<circle style="fill:#F8971D;" cx="3" cy="5.2" r="0.2"/>
<circle style="fill:#F8971D;" cx="5.1" cy="8.3" r="0.2"/>
<circle style="fill:#F8971D;" cx="5.4" cy="7.2" r="0.2"/>
<circle style="fill:#F8971D;" cx="1.8" cy="6.5" r="0.2"/>
<circle style="fill:#F8971D;" cx="2.8" cy="6.2" r="0.2"/>
<circle style="fill:#F8971D;" cx="3.8" cy="5.9" r="0.2"/>
<circle style="fill:#F8971D;" cx="4.9" cy="5.6" r="0.2"/>
<ellipse style="fill:#FEC23A;" cx="49" cy="23.8" rx="7.6" ry="2.6"/>
<ellipse style="fill:#FEC23A;" cx="41.9" cy="30.7" rx="3.3" ry="1.3"/>
<ellipse style="fill:#FEC23A;" cx="195.6" cy="16.2" rx="3.3" ry="1.3"/>
<ellipse style="fill:#FEC23A;" cx="136.8" cy="33.6" rx="3.3" ry="1.3"/>
<ellipse style="fill:#FEC23A;" cx="90.8" cy="41.9" rx="3.3" ry="1.3"/>
</svg>
