<?xml version="1.0" encoding="utf-8"?>
<!-- Generator: Adobe Illustrator 17.1.0, SVG Export Plug-In . SVG Version: 6.00 Build 0)  -->
<!DOCTYPE svg PUBLIC "-//W3C//DTD SVG 1.1//EN" "http://www.w3.org/Graphics/SVG/1.1/DTD/svg11.dtd">
<svg version="1.1" id="Layer_1" xmlns="http://www.w3.org/2000/svg" xmlns:xlink="http://www.w3.org/1999/xlink" x="0px" y="0px"
	 viewBox="0 0 130.547 212.224" enable-background="new 0 0 130.547 212.224" xml:space="preserve">
<ellipse fill="#EDE1B3" cx="66.2" cy="201.064" rx="35.814" ry="11.16"/>
<path fill="#AEAF36" d="M86.109,148.6c5.515,4.751,11.635,13.655,11.635,29.801c0,2.183-1.774,3.95-3.955,3.95
	c-2.175,0-3.946-1.767-3.946-3.95c0,0-0.019-0.638-0.032-1.279c-0.212,0-0.52,0-0.52,0c-1.38,0-2.498-1.119-2.498-2.5
	c0-1.378,1.118-2.497,2.498-2.497c0,0,0.119,0,0.143,0c-1.455-11.463-5.954-15.678-9.729-18.426
	c0.504,13.919,1.114,44.89,1.114,44.89c0,0.097-0.014,0.186-0.021,0.282c0,0.052,0.017,0.102,0.017,0.155
	c0,2.248-1.819,4.064-4.064,4.064c-2.211,0-4.002-1.776-4.051-3.976h-0.014v-9.556c-0.139-3.941-3.369-7.091-7.344-7.091
	c-3.822,0-6.968,2.92-7.316,6.657v9.99h-0.016c-0.047,2.2-1.838,3.976-4.055,3.976c-2.24,0-4.059-1.816-4.059-4.064
	c0-0.053,0.017-0.102,0.017-0.15c-0.006-0.097-0.022-0.191-0.022-0.288c0,0,0.363-36.032,0.412-45.21
	c-3.858,2.747-8.657,6.831-10.169,18.746c0.022,0,0.144,0,0.144,0c1.374,0,2.495,1.119,2.495,2.497c0,1.381-1.121,2.5-2.495,2.5
	c0,0-0.308,0-0.52,0c-0.019,0.642-0.033,1.279-0.033,1.279c0,2.183-1.771,3.95-3.951,3.95c-2.177,0-3.951-1.767-3.951-3.95
	c0-16.164,6.134-25.073,11.658-29.82c0,0,8.088-6.888,20.357-6.888C63.837,141.692,77.485,141.578,86.109,148.6z"/>
<g>
	<path fill="#FDD39D" d="M40.276,172.124c0,0-0.121,0-0.144,0c0.028-0.23,0.065-0.434,0.099-0.656l-7.886-0.789
		c-0.331,2.373-0.525,4.932-0.525,7.721c0,2.183,1.775,3.95,3.951,3.95c2.181,0,3.951-1.767,3.951-3.95c0,0,0.015-0.638,0.033-1.279
		c0.212,0,0.52,0,0.52,0c1.374,0,2.495-1.119,2.495-2.5C42.772,173.243,41.65,172.124,40.276,172.124z"/>
	<path fill="#FDD39D" d="M32.163,170.654c-0.348,2.499-0.523,5.105-0.523,7.747c0,2.281,1.854,4.134,4.133,4.134
		c2.281,0,4.135-1.854,4.135-4.134c0,0.003,0.019-0.745,0.027-1.096c0.154,0,0.342,0,0.342,0c1.477,0,2.678-1.205,2.678-2.684
		c0-1.455-1.164-2.636-2.609-2.673c0.018-0.118,0.035-0.236,0.035-0.236l0.063-0.407l-0.192-0.019l-8.063-0.808L32.163,170.654z
		 M32.006,178.401c0-2.563,0.171-5.091,0.505-7.52c0.337,0.035,7.15,0.716,7.51,0.752c0,0.003-0.102,0.68-0.102,0.68l0.214-0.005
		h0.144c1.275,0,2.312,1.039,2.312,2.314c0,1.277-1.037,2.316-2.312,2.316h-0.699l-0.036,1.46c0,2.082-1.691,3.771-3.769,3.771
		C33.696,182.168,32.006,180.479,32.006,178.401z"/>
</g>
<path fill="#8B9237" d="M45.991,157.144c1.428-1.624,2.93-2.783,4.311-3.766c-0.006,1.242-0.018,2.98-0.035,5.051
	c7.689,1.981,15.912,2.56,23.217,2.56c2.17,0,4.319-0.009,6.452-0.045c-0.077-2.689-0.155-5.161-0.231-7.246
	c2.121,1.543,4.47,3.551,6.379,7.045c2.78-0.146,5.529-0.383,8.246-0.757c-2.257-5.241-5.322-8.889-8.221-11.386
	c-8.623-7.021-22.272-6.908-22.272-6.908c-12.27,0-20.357,6.888-20.357,6.888c-1.621,1.392-3.293,3.146-4.846,5.332
	C40.949,155.199,43.42,156.265,45.991,157.144z"/>
<path fill="#F2644A" d="M64.401,40.691c-27.425,0-61.126,11.606-64.185,50.085c-3.135,39.438,28.361,62.105,64.878,62.105
	c40.917,0,68.778-23.383,65.134-62.105C126.61,52.345,91.825,40.691,64.401,40.691z"/>
<path fill="#5B3E1D" d="M63.967,1.379c-0.179,7.689,0.11,13.849,0.106,21.559c-0.002,11.234-0.092,18.777,0.285,29.994
	c0,2.131,0.729,6.218,1.278,2.559c0.893-5.922,1.993-19.965,2.608-25.884c1.01-9.688,1.959-19.863,1.301-29.586
	c-1.576-0.065-4.043,0.031-5.542,0.239C63.96,0.6,63.905,1.032,63.967,1.379z"/>
<path fill="#F05131" d="M54.416,110.14C51.1,93.809,45.464,85.431,37.319,74.741c-4.894-6.425-13.273-13.069-22.512-16.887
	C6.9,65.545,1.371,76.242,0.216,90.776c-3.137,39.438,28.359,62.105,64.877,62.105c2.559,0,5.065-0.091,7.518-0.272
	C63.103,143.54,56.999,122.858,54.416,110.14z"/>
<path fill="#FDCAA2" d="M102.151,103.969c4.808,4.23,7.619,9.338,7.619,14.837c0,14.575-13.033,26.476-44.389,26.476
	c-29.588,0-43.697-11.9-43.697-26.476c0-5.467,2.774-10.542,7.521-14.754c7.916-7.022,21.32-3.306,36.523-3.306
	C80.869,100.746,94.228,96.997,102.151,103.969z"/>
<path fill="#FBBD90" d="M62.044,134.177c-3.449-8.723-6.592-18.372-8.521-27.542c-0.415-1.971-0.551-4.27-0.834-6.498
	c-9.678-0.652-17.93-1.011-23.482,3.915c-4.747,4.212-7.521,9.288-7.521,14.754c0,14.575,14.109,26.476,43.697,26.476
	c0.557,0,1.097-0.012,1.645-0.019C65.253,141.608,63.53,137.933,62.044,134.177z"/>
<path fill="#FFFFFF" d="M66.513,158.009c0,0.86-0.693,1.556-1.547,1.556c-0.854,0-1.554-0.696-1.554-1.556
	c0-0.85,0.699-1.542,1.554-1.542C65.819,156.467,66.513,157.159,66.513,158.009z"/>
<path fill="#FFFFFF" d="M66.513,165.35c0,0.859-0.693,1.556-1.547,1.556c-0.854,0-1.554-0.696-1.554-1.556
	c0-0.85,0.699-1.543,1.554-1.543C65.819,163.807,66.513,164.5,66.513,165.35z"/>
<path fill="#A25049" d="M48.763,117.953c0,1.674-1.352,3.027-3.027,3.027c-1.672,0-3.027-1.353-3.027-3.027
	c0-1.666,1.355-3.027,3.027-3.027C47.411,114.927,48.763,116.287,48.763,117.953z"/>
<path fill="#A25049" d="M82.271,117.953c0,1.674,1.352,3.027,3.027,3.027c1.672,0,3.027-1.353,3.027-3.027
	c0-1.666-1.355-3.027-3.027-3.027C83.622,114.927,82.271,116.287,82.271,117.953z"/>
<path fill="#99BE3C" d="M68.448,23.795C75.65,5.317,97.894,3.506,114.038,3.943c0.805,11.006-10.776,17.57-17.12,20.123
	c-4.862,1.957-23.765,8.36-28.435-0.181L68.448,23.795z"/>
<path fill="#88AE3F" d="M69.443,23.299c2.124-1.127,4.37-2.052,6.508-3.193c6.661-3.559,13.628-6.077,20.636-8.814
	c5.248-2.051,11.02-2.7,15.684-5.838c0.608-0.409,1.119-0.805,1.611-1.254c0.078-0.078,0.101-0.122,0.188-0.276
	C97.926,3.487,75.694,5.383,68.493,23.863l-0.021,0.029C68.837,23.664,69.176,23.441,69.443,23.299z"/>
<path fill="#F49A8E" d="M97.329,60.003c1.15,0.974,1.604,1.183,3.111,1.522c2.879,0.649,3.456-2.202,2.178-4.333
	c-0.664-1.108-3.712-3.339-5.029-3.268c-1.771,0.098-3.662,1.009-1.701,4.404L97.329,60.003z"/>
<path fill="#FDD39D" d="M89.288,172.124c0,0,0.121,0,0.144,0c-0.028-0.23-0.065-0.434-0.099-0.656l7.886-0.789
	c0.331,2.373,0.525,4.932,0.525,7.721c0,2.183-1.775,3.95-3.951,3.95c-2.181,0-3.951-1.767-3.951-3.95c0,0-0.015-0.638-0.033-1.279
	c-0.212,0-0.52,0-0.52,0c-1.374,0-2.495-1.119-2.495-2.5C86.793,173.243,87.914,172.124,89.288,172.124z"/>
<path fill="#F58663" d="M65.763,126.049c0,0.601-0.5,1-1,1c-0.601,0-1-0.5-1-1c0-0.6,0.5-1,1-1
	C65.362,124.95,65.763,125.45,65.763,126.049z"/>
<ellipse fill="#F58663" cx="64.963" cy="134.05" rx="7" ry="3.6"/>
</svg>
