<?xml version="1.0" encoding="utf-8"?>
<!-- Generator: Adobe Illustrator 16.2.1, SVG Export Plug-In . SVG Version: 6.00 Build 0)  -->
<!DOCTYPE svg PUBLIC "-//W3C//DTD SVG 1.1//EN" "http://www.w3.org/Graphics/SVG/1.1/DTD/svg11.dtd">
<svg version="1.1" id="Layer_1" xmlns="http://www.w3.org/2000/svg" xmlns:xlink="http://www.w3.org/1999/xlink" x="0px" y="0px"
	 width="138.7px" height="241.1px" viewBox="0 0 138.7 241.1" style="enable-background:new 0 0 138.7 241.1;" xml:space="preserve"
	>
<path style="fill:#AEAF35;" d="M97.5,12.8c-1,0-2.1,0-3.1,0.1C87.9,6.6,78.9,2.7,68.9,2.7c-9.9,0-18.9,3.8-25.3,10
	c-0.2,0-0.3,0-0.5,0c-19.8,0-35.9,15.4-35.9,34.3c0,19,16.1,34.3,35.9,34.3c1,0,1.9,0,2.9-0.1c2.3,29.4,1.8,59.9,1.8,59.9l22.8-3.4
	l22.8,3.4c0,0-0.6-30.5,1.8-59.9c0.8,0.1,1.7,0.1,2.5,0.1c19.8,0,35.9-15.4,35.9-34.3C133.3,28.1,117.3,12.8,97.5,12.8z"/>
<ellipse style="fill:#EDE1B3;" cx="72.7" cy="227.3" rx="44.1" ry="13.7"/>
<path style="fill:#AEAF35;" d="M103.3,146.6c8.5,7.3,17.9,21,17.9,45.8c0,3.4-2.7,6.1-6.1,6.1c-3.3,0-6.1-2.7-6.1-6.1c0,0,0-1,0-2
	c-0.3,0-0.8,0-0.8,0c-2.1,0-3.8-1.7-3.8-3.8c0-2.1,1.7-3.8,3.8-3.8c0,0,0.2,0,0.2,0c-2.2-17.6-9.2-24.1-15-28.3
	c0.8,21.4,1.7,69,1.7,69c0,0.1,0,0.3,0,0.4c0,0.1,0,0.2,0,0.2c0,3.5-2.8,6.2-6.3,6.2c-3.4,0-6.2-2.7-6.2-6.1h0v-14.7
	c-0.2-6.1-5.2-10.9-11.3-10.9c-5.9,0-10.7,4.5-11.3,10.2v15.4h0c-0.1,3.4-2.8,6.1-6.2,6.1c-3.4,0-6.2-2.8-6.2-6.2c0-0.1,0-0.2,0-0.2
	c0-0.1,0-0.3,0-0.4c0,0,0.6-55.4,0.6-69.5c-5.9,4.2-13.3,10.5-15.6,28.8c0,0,0.2,0,0.2,0c2.1,0,3.8,1.7,3.8,3.8
	c0,2.1-1.7,3.8-3.8,3.8c0,0-0.5,0-0.8,0c0,1,0,2,0,2c0,3.4-2.7,6.1-6.1,6.1c-3.3,0-6.1-2.7-6.1-6.1c0-24.9,9.4-38.6,17.9-45.9
	c0,0,12.4-10.6,31.3-10.6C69.1,136,90.1,135.8,103.3,146.6z"/>
<path style="fill:#AEAF35;" d="M41.6,159.8c2.2-2.5,4.5-4.3,6.6-5.8c0,1.9,0,4.6-0.1,7.8c11.8,3,24.5,3.9,35.7,3.9
	c3.3,0,6.6,0,9.9-0.1c-0.1-4.1-0.2-7.9-0.4-11.1c3.3,2.4,6.9,5.5,9.8,10.8c4.3-0.2,8.5-0.6,12.7-1.2c-3.5-8.1-8.2-13.7-12.6-17.5
	C90.1,135.8,69.1,136,69.1,136c-18.9,0-31.3,10.6-31.3,10.6c-2.5,2.1-5.1,4.8-7.5,8.2C33.9,156.8,37.7,158.4,41.6,159.8z"/>
<circle style="fill:#69703B;" cx="58" cy="107" r="2"/>
<circle style="fill:#69703B;" cx="84.7" cy="107" r="2"/>
<g>
	<rect x="70.6" y="104.6" style="fill:#69703B;" width="1" height="7.2"/>
</g>
<circle style="fill:#8A9137;" cx="36.1" cy="47.2" r="36.1"/>
<circle style="fill:#8A9137;" cx="69.1" cy="36.1" r="36.1"/>
<circle style="fill:#8A9137;" cx="102.6" cy="46" r="36.1"/>
<ellipse style="fill:#8A9137;" cx="70.3" cy="68.1" rx="31" ry="14.8"/>
<path style="fill:#798335;" d="M112.9,56.7c-3.2-0.9-6.2-3.3-9-4.3c-3.5-1.2-5.1,0.1-8.5,1.7c-10.2,4.9-20.8,9-31.9,4.1
	c-4-1.7-8.3-5.3-12.7-5.7c-3.3-0.3-6.3,2-9.3,3.1c-9.8,3.6-21.3,7.1-31.8,4.3C7,59.1,4,57.8,1.1,56.1c3.9,15.6,18.1,27.2,35,27.2
	c5.5,0,10.7-1.2,15.3-3.4c5.2,1.9,11.8,3.1,18.9,3.1c7.3,0,14.1-1.2,19.4-3.3c4,1.5,8.4,2.4,12.9,2.4c15.5,0,28.7-9.8,33.8-23.5
	C128.5,59.5,120.2,58.7,112.9,56.7z"/>
<circle style="fill:#798335;" cx="10.5" cy="30.7" r="1.3"/>
<circle style="fill:#798335;" cx="15.5" cy="25.7" r="1.4"/>
<circle style="fill:#798335;" cx="20.5" cy="20.7" r="1.4"/>
<circle style="fill:#798335;" cx="25.6" cy="15.7" r="1.3"/>
<circle style="fill:#798335;" cx="10.5" cy="38.4" r="1.3"/>
<circle style="fill:#798335;" cx="15.5" cy="33.4" r="1.4"/>
<circle style="fill:#798335;" cx="20.5" cy="28.4" r="1.4"/>
<circle style="fill:#798335;" cx="25.6" cy="23.4" r="1.3"/>
<circle style="fill:#798335;" cx="10.5" cy="46.1" r="1.3"/>
<circle style="fill:#798335;" cx="15.5" cy="41.1" r="1.4"/>
<circle style="fill:#798335;" cx="20.5" cy="36.1" r="1.4"/>
<circle style="fill:#798335;" cx="25.6" cy="31.1" r="1.3"/>
<circle style="fill:#798335;" cx="10.5" cy="53.8" r="1.3"/>
<circle style="fill:#798335;" cx="15.5" cy="48.8" r="1.4"/>
<circle style="fill:#798335;" cx="20.5" cy="43.8" r="1.4"/>
<circle style="fill:#798335;" cx="25.6" cy="38.8" r="1.3"/>
<circle style="fill:#798335;" cx="44.4" cy="19.9" r="1.4"/>
<circle style="fill:#798335;" cx="49.5" cy="14.9" r="1.4"/>
<circle style="fill:#798335;" cx="54.5" cy="9.9" r="1.3"/>
<circle style="fill:#798335;" cx="59.5" cy="4.9" r="1.3"/>
<circle style="fill:#798335;" cx="44.4" cy="27.6" r="1.4"/>
<circle style="fill:#798335;" cx="39" cy="33" r="1.3"/>
<circle style="fill:#798335;" cx="49.5" cy="22.6" r="1.4"/>
<circle style="fill:#798335;" cx="54.5" cy="17.6" r="1.3"/>
<circle style="fill:#798335;" cx="59.5" cy="12.6" r="1.3"/>
<circle style="fill:#798335;" cx="44.4" cy="35.3" r="1.4"/>
<circle style="fill:#798335;" cx="49.5" cy="30.3" r="1.4"/>
<circle style="fill:#798335;" cx="54.5" cy="25.3" r="1.3"/>
<circle style="fill:#798335;" cx="59.5" cy="20.3" r="1.3"/>
<circle style="fill:#798335;" cx="44.4" cy="43" r="1.4"/>
<circle style="fill:#798335;" cx="49.5" cy="38" r="1.4"/>
<circle style="fill:#798335;" cx="54.5" cy="33" r="1.3"/>
<circle style="fill:#798335;" cx="59.5" cy="28" r="1.3"/>
<circle style="fill:#798335;" cx="64" cy="8" r="1.3"/>
<circle style="fill:#798335;" cx="64" cy="15.7" r="1.3"/>
<circle style="fill:#798335;" cx="64" cy="23.5" r="1.3"/>
<circle style="fill:#798335;" cx="88.4" cy="28.4" r="1.3"/>
<circle style="fill:#798335;" cx="93.4" cy="23.4" r="1.3"/>
<circle style="fill:#798335;" cx="98.4" cy="18.4" r="1.3"/>
<circle style="fill:#798335;" cx="103.5" cy="13.3" r="1.3"/>
<circle style="fill:#798335;" cx="88.4" cy="36.1" r="1.3"/>
<circle style="fill:#798335;" cx="93.4" cy="31.1" r="1.3"/>
<circle style="fill:#798335;" cx="98.4" cy="26.1" r="1.3"/>
<circle style="fill:#798335;" cx="103.5" cy="21.1" r="1.3"/>
<circle style="fill:#798335;" cx="88.4" cy="43.8" r="1.3"/>
<circle style="fill:#798335;" cx="93.4" cy="38.8" r="1.3"/>
<circle style="fill:#798335;" cx="98.4" cy="33.8" r="1.3"/>
<circle style="fill:#798335;" cx="103.5" cy="28.8" r="1.3"/>
<circle style="fill:#798335;" cx="88.4" cy="51.5" r="1.3"/>
<circle style="fill:#798335;" cx="93.4" cy="46.5" r="1.3"/>
<circle style="fill:#798335;" cx="98.4" cy="41.5" r="1.3"/>
<circle style="fill:#798335;" cx="103.5" cy="36.5" r="1.3"/>
<circle style="fill:#798335;" cx="108.9" cy="39.6" r="1.3"/>
<circle style="fill:#798335;" cx="108.5" cy="31.7" r="1.4"/>
<circle style="fill:#798335;" cx="108.9" cy="24.3" r="1.3"/>
<circle style="fill:#798335;" cx="108.5" cy="16.4" r="1.4"/>
<circle style="fill:#798335;" cx="114.3" cy="27.6" r="1.4"/>
<circle style="fill:#798335;" cx="119.3" cy="22.6" r="1.4"/>
<circle style="fill:#798335;" cx="114.3" cy="35.3" r="1.4"/>
<circle style="fill:#798335;" cx="119.3" cy="30.3" r="1.4"/>
<circle style="fill:#798335;" cx="114.3" cy="43" r="1.4"/>
<circle style="fill:#798335;" cx="119.3" cy="38" r="1.4"/>
<circle style="fill:#798335;" cx="114.3" cy="50.7" r="1.4"/>
<circle style="fill:#798335;" cx="119.3" cy="45.7" r="1.4"/>
<circle style="fill:#798335;" cx="124.7" cy="48.8" r="1.3"/>
<circle style="fill:#798335;" cx="124.3" cy="40.9" r="1.3"/>
<circle style="fill:#798335;" cx="124.7" cy="33.6" r="1.3"/>
<circle style="fill:#798335;" cx="124.3" cy="25.7" r="1.3"/>
<ellipse style="fill:#F58468;" cx="71.1" cy="121.3" rx="7.5" ry="3.9"/>
</svg>
