<?xml version="1.0" encoding="utf-8"?>
<!-- Generator: Adobe Illustrator 16.2.1, SVG Export Plug-In . SVG Version: 6.00 Build 0)  -->
<!DOCTYPE svg PUBLIC "-//W3C//DTD SVG 1.1//EN" "http://www.w3.org/Graphics/SVG/1.1/DTD/svg11.dtd">
<svg version="1.1" id="Layer_1" xmlns="http://www.w3.org/2000/svg" xmlns:xlink="http://www.w3.org/1999/xlink" x="0px" y="0px"
	 width="157.2px" height="206.6px" viewBox="0 0 157.2 206.6" style="enable-background:new 0 0 157.2 206.6;" xml:space="preserve"
	>
<ellipse style="fill:#EDE1B3;" cx="79.7" cy="193.1" rx="43.1" ry="13.4"/>
<path style="fill:#95523B;" d="M103.7,129.9c6.6,5.7,14,16.4,14,35.9c0,2.6-2.1,4.8-4.8,4.8c-2.6,0-4.8-2.1-4.8-4.8c0,0,0-0.8,0-1.5
	c-0.3,0-0.6,0-0.6,0c-1.7,0-3-1.3-3-3c0-1.7,1.3-3,3-3c0,0,0.1,0,0.2,0c-1.8-13.8-7.2-18.9-11.7-22.2c0.6,16.8,1.3,54.1,1.3,54.1
	c0,0.1,0,0.2,0,0.3c0,0.1,0,0.1,0,0.2c0,2.7-2.2,4.9-4.9,4.9c-2.7,0-4.8-2.1-4.9-4.8h0v-11.5c-0.2-4.7-4.1-8.5-8.8-8.5
	c-4.6,0-8.4,3.5-8.8,8v12h0c-0.1,2.6-2.2,4.8-4.9,4.8c-2.7,0-4.9-2.2-4.9-4.9c0-0.1,0-0.1,0-0.2c0-0.1,0-0.2,0-0.3
	c0,0,0.4-43.4,0.5-54.4c-4.6,3.3-10.4,8.2-12.2,22.6c0,0,0.2,0,0.2,0c1.7,0,3,1.3,3,3c0,1.7-1.3,3-3,3c0,0-0.4,0-0.6,0
	c0,0.8,0,1.5,0,1.5c0,2.6-2.1,4.8-4.8,4.8c-2.6,0-4.8-2.1-4.8-4.8c0-19.5,7.4-30.2,14-35.9c0,0,9.7-8.3,24.5-8.3
	C76.9,121.6,93.3,121.5,103.7,129.9z"/>
<path style="fill:#82453B;" d="M55.4,140.2c1.7-2,3.5-3.3,5.2-4.5c0,1.5,0,3.6,0,6.1c9.3,2.4,19.2,3.1,28,3.1c2.6,0,5.2,0,7.8-0.1
	c-0.1-3.2-0.2-6.2-0.3-8.7c2.6,1.9,5.4,4.3,7.7,8.5c3.3-0.2,6.7-0.5,9.9-0.9c-2.7-6.3-6.4-10.7-9.9-13.7
	c-10.4-8.5-26.8-8.3-26.8-8.3c-14.8,0-24.5,8.3-24.5,8.3c-2,1.7-4,3.8-5.8,6.4C49.3,137.9,52.3,139.2,55.4,140.2z"/>
<path style="fill:#F8971D;" d="M77.6,0C44.5,0,3.9,14,0.3,60.3c-3.8,47.5,34.2,74.8,78.1,74.8c49.3,0,82.8-28.2,78.4-74.8
	C152.5,14,110.6,0,77.6,0z"/>
<path style="fill:#F57E20;" d="M65.5,83.6C61.5,64,54.7,53.9,44.9,41C39,33.3,29,25.3,17.8,20.7C8.3,29.9,1.7,42.8,0.3,60.3
	c-3.8,47.5,34.2,74.8,78.1,74.8c3.1,0,6.1-0.1,9.1-0.3C76,123.9,68.6,98.9,65.5,83.6z"/>
<path style="fill:#FCC8A0;" d="M123,76.2c5.8,5.1,9.2,11.2,9.2,17.9c0,17.6-15.7,31.9-53.5,31.9c-35.6,0-52.6-14.3-52.6-31.9
	c0-6.6,3.3-12.7,9.1-17.8c9.5-8.5,25.7-4,44-4C97.4,72.3,113.5,67.8,123,76.2z"/>
<path style="fill:#FBBD92;" d="M62.5,71.6c-11.7-0.8-20.6-1.2-27.3,4.7c-5.7,5.1-9.1,11.2-9.1,17.8c0,17.6,17,31.9,52.6,31.9
	c0.7,0,1.3,0,2,0C68,112.3,72,84.4,62.5,71.6z"/>
<path style="fill:#F58663;" d="M80.7,99.5c0,1-0.8,1.9-1.9,1.9c-1,0-1.9-0.8-1.9-1.9c0-1,0.8-1.9,1.9-1.9
	C79.9,97.6,80.7,98.4,80.7,99.5z"/>
<path style="fill:#FDF9D1;" d="M80.1,141.3c0,1-0.8,1.9-1.9,1.9c-1,0-1.9-0.8-1.9-1.9c0-1,0.8-1.9,1.9-1.9
	C79.3,139.4,80.1,140.3,80.1,141.3z"/>
<path style="fill:#FDF9D1;" d="M80.1,150.1c0,1-0.8,1.9-1.9,1.9c-1,0-1.9-0.8-1.9-1.9c0-1,0.8-1.9,1.9-1.9
	C79.3,148.3,80.1,149.1,80.1,150.1z"/>
<path style="fill:#A25049;" d="M58.7,93c0,2-1.6,3.6-3.6,3.6c-2,0-3.6-1.6-3.6-3.6c0-2,1.6-3.6,3.6-3.6C57.1,89.4,58.7,91,58.7,93z"
	/>
<polygon style="fill:#87AD3F;" points="58.2,7.9 61.4,12.2 67.3,8.9 65.2,14 72,14.4 65.8,17.3 69.6,21.3 63,20.3 61.6,25.5 
	58.3,21.2 52.5,24.5 54.6,19.5 47.8,19 54,16.1 50.1,12.1 56.8,13.1 "/>
<ellipse style="fill:#F58663;" cx="80" cy="113.9" rx="10.4" ry="5.4"/>
<path style="fill:#A25049;" d="M106.7,93c0,2-1.6,3.6-3.6,3.6c-2,0-3.6-1.6-3.6-3.6c0-2,1.6-3.6,3.6-3.6
	C105.1,89.4,106.7,91,106.7,93z"/>
</svg>
