<?xml version="1.0" encoding="utf-8"?>
<!-- Generator: Adobe Illustrator 16.2.1, SVG Export Plug-In . SVG Version: 6.00 Build 0)  -->
<!DOCTYPE svg PUBLIC "-//W3C//DTD SVG 1.1//EN" "http://www.w3.org/Graphics/SVG/1.1/DTD/svg11.dtd">
<svg version="1.1" id="Layer_1" xmlns="http://www.w3.org/2000/svg" xmlns:xlink="http://www.w3.org/1999/xlink" x="0px" y="0px"
	 width="133px" height="310.7px" viewBox="0 0 133 310.7" style="enable-background:new 0 0 133 310.7;" xml:space="preserve">
<path style="fill:#EDE1B3;" d="M123,293.9c0,9.3-24.1,16.8-53.8,16.8c-29.7,0-53.8-7.5-53.8-16.8c0-9.3,24.1-16.8,53.8-16.8
	C99,277.2,123,284.7,123,293.9z"/>
<path style="fill:#FDB72D;" d="M109.5,188.3c11.1,9.6,23.5,27.5,23.5,60.1c0,4.4-3.6,8-8,8c-4.4,0-8-3.6-8-8c0,0,0-1.3-0.1-2.6
	c-0.4,0-1,0-1,0c-2.8,0-5-2.3-5-5c0-2.8,2.3-5,5-5c0,0,0.2,0,0.3,0c-2.9-23.1-12-31.6-19.6-37.2c1,28.1,2.2,90.5,2.2,90.5
	c0,0.2,0,0.4,0,0.6c0,0.1,0,0.2,0,0.3c0,4.5-3.7,8.2-8.2,8.2c-4.5,0-8.1-3.6-8.2-8h0v-19.3c-0.3-7.9-6.8-14.3-14.8-14.3
	c-7.7,0-14.1,5.9-14.8,13.4v20.1h0c-0.1,4.4-3.7,8-8.2,8c-4.5,0-8.2-3.7-8.2-8.2c0-0.1,0-0.2,0-0.3c0-0.2,0-0.4,0-0.6
	c0,0,0.7-72.7,0.8-91.2c-7.8,5.5-17.5,13.8-20.5,37.8c0.1,0,0.3,0,0.3,0c2.8,0,5,2.3,5,5c0,2.8-2.3,5-5,5c0,0-0.6,0-1.1,0
	c0,1.3-0.1,2.6-0.1,2.6c0,4.4-3.6,8-8,8c-4.4,0-8-3.6-8-8c0-32.6,12.4-50.6,23.5-60.2c0,0,16.3-13.9,41.1-13.9
	C64.6,174.3,92.1,174.1,109.5,188.3z"/>
<path style="fill:#FFC845;" d="M109.5,188.3c-15.8-12.8-39.9-13.8-44.2-13.9v82.4c0.8-0.1,1.6-0.2,2.4-0.2c8,0,14.5,6.4,14.8,14.3
	v19.3h0c0.1,4.4,3.7,8,8.2,8c4.5,0,8.2-3.7,8.2-8.2c0-0.1,0-0.2,0-0.3c0-0.2,0-0.4,0-0.6c0,0-1.2-62.5-2.2-90.5
	c7.6,5.5,16.7,14,19.6,37.2c0,0-0.3,0-0.3,0c-2.8,0-5,2.3-5,5c0,2.8,2.3,5,5,5c0,0,0.6,0,1,0c0,1.3,0.1,2.6,0.1,2.6c0,4.4,3.6,8,8,8
	c4.4,0,8-3.6,8-8C133,215.8,120.6,197.8,109.5,188.3z"/>
<path style="fill:#FFC845;" d="M65.4,190.5l-27-7.4c0,0-9.4-40.7,3.8-124.1c0,0-3.1-28.2-13.7-42.2l18-10.6c0,0,1.1,25.1,12.5,51.3
	c0,0,47.6,35.8,38.8,133.1L65.4,190.5z"/>
<path style="fill:#FDB72D;" d="M53,61.8c0,0,14,27.5,14,88.1l0.5,41.5l-28.4,2c0,0-13-61,2.8-134.7C41.9,58.8,48.5,40.5,53,61.8z"/>
<path style="fill:#FFFFFF;" d="M70,207.2c0,1.7-1.4,3.1-3.1,3.1c-1.7,0-3.1-1.4-3.1-3.1c0-1.7,1.4-3.1,3.1-3.1
	C68.6,204.1,70,205.5,70,207.2z"/>
<path style="fill:#FFFFFF;" d="M70,222.1c0,1.7-1.4,3.1-3.1,3.1c-1.7,0-3.1-1.4-3.1-3.1c0-1.7,1.4-3.1,3.1-3.1
	C68.6,218.9,70,220.3,70,222.1z"/>
<path style="fill:#5B3E1D;" d="M70.2,163c0,0.8-0.7,1.5-1.5,1.5c-0.8,0-1.5-0.7-1.5-1.5c0-0.8,0.7-1.5,1.5-1.5
	C69.5,161.5,70.2,162.2,70.2,163z"/>
<path style="fill:#5B3E1D;" d="M52.5,157.8c0,1.6-1.3,2.9-2.9,2.9c-1.6,0-2.9-1.3-2.9-2.9c0-1.6,1.3-2.9,2.9-2.9
	C51.2,154.9,52.5,156.2,52.5,157.8z"/>
<path style="fill:#5B3E1D;" d="M85,157.8c0,1.6,1.3,2.9,2.9,2.9c1.6,0,2.9-1.3,2.9-2.9c0-1.6-1.3-2.9-2.9-2.9
	C86.3,154.9,85,156.2,85,157.8z"/>
<g>
	<path style="fill:#5B3E1D;" d="M62.5,171.5c-0.2-0.2-0.2-0.6,0-0.8c0.2-0.2,0.6-0.2,0.8,0c1.4,1.6,3.5,2.5,5.6,2.5
		c2.1,0,4.1-0.9,5.6-2.5c0.2-0.2,0.6-0.3,0.8,0c0.2,0.2,0.3,0.6,0,0.8c-1.6,1.8-4,2.8-6.4,2.8C66.5,174.4,64.1,173.3,62.5,171.5z"/>
</g>
<path style="fill:#5B3E1D;" d="M47.3,3.7l-23,6.8c0,0,10.4,20.1,17.3,49.4l17.9-1.4C59.5,58.4,56.5,38.8,47.3,3.7z"/>
<path style="fill:#915C40;" d="M47.4,3.9c1,3.4-3.4,7.5-9.8,9.2c-6.4,1.7-12.4,0.2-13.5-3.2c-1-3.4,3.4-7.5,9.8-9.2
	C40.3-1,46.3,0.5,47.4,3.9z"/>
</svg>
