<?xml version="1.0" encoding="utf-8"?>
<!-- Generator: Adobe Illustrator 18.1.1, SVG Export Plug-In . SVG Version: 6.00 Build 0)  -->
<!DOCTYPE svg PUBLIC "-//W3C//DTD SVG 1.1//EN" "http://www.w3.org/Graphics/SVG/1.1/DTD/svg11.dtd">
<svg version="1.1" id="Layer_1" xmlns="http://www.w3.org/2000/svg" xmlns:xlink="http://www.w3.org/1999/xlink" x="0px" y="0px"
	 viewBox="0 90.2 612 611.3" enable-background="new 0 90.2 612 611.3" xml:space="preserve">
<g>
	<g display="none">
		<polygon display="inline" fill="#414042" points="27,505.1 -139.4,505.1 -74.3,432.5 -139.4,365 27,365 		"/>
		<polygon display="inline" fill="#414042" points="-58,463.8 27,505.1 27,463.8 		"/>
	</g>
	<g display="none">
		<polygon display="inline" fill="#414042" points="582.5,504.8 748.9,504.8 683.8,432.3 748.9,364.7 582.5,364.7 		"/>
		<polygon display="inline" fill="#414042" points="667.5,463.6 582.5,504.8 582.5,463.6 		"/>
	</g>
	<g display="none">
		
			<line display="inline" fill="none" stroke="#000000" stroke-width="1.3" stroke-linecap="round" stroke-miterlimit="10" x1="-90.6" y1="380.2" x2="-8.8" y2="380.2"/>
		
			<line display="inline" fill="none" stroke="#000000" stroke-width="0.8" stroke-linecap="round" stroke-miterlimit="10" x1="-79.6" y1="392" x2="-8.8" y2="392"/>
		
			<line display="inline" fill="none" stroke="#000000" stroke-width="1.3" stroke-linecap="round" stroke-miterlimit="10" x1="-70.1" y1="403.8" x2="-8.8" y2="403.8"/>
		
			<line display="inline" fill="none" stroke="#000000" stroke-width="0.8" stroke-linecap="round" stroke-miterlimit="10" x1="-64.8" y1="415.5" x2="-8.8" y2="415.5"/>
		
			<line display="inline" fill="none" stroke="#000000" stroke-width="0.8" stroke-linecap="round" stroke-miterlimit="10" x1="-64.8" y1="438.8" x2="-8.8" y2="438.8"/>
		
			<line display="inline" fill="none" stroke="#000000" stroke-width="1.3" stroke-linecap="round" stroke-miterlimit="10" x1="-70.1" y1="427.3" x2="-8.8" y2="427.3"/>
		
			<line display="inline" fill="none" stroke="#000000" stroke-width="1.3" stroke-linecap="round" stroke-miterlimit="10" x1="-70.1" y1="450.5" x2="-8.8" y2="450.5"/>
		
			<line display="inline" fill="none" stroke="#000000" stroke-width="1.3" stroke-linecap="round" stroke-miterlimit="10" x1="-79.6" y1="474.1" x2="-8.8" y2="474.1"/>
		
			<line display="inline" fill="none" stroke="#000000" stroke-width="0.8" stroke-linecap="round" stroke-miterlimit="10" x1="-64.8" y1="462.3" x2="-8.8" y2="462.3"/>
		
			<line display="inline" fill="none" stroke="#000000" stroke-width="0.8" stroke-linecap="round" stroke-miterlimit="10" x1="-90.6" y1="485.8" x2="-8.8" y2="485.8"/>
	</g>
	<g display="none">
		
			<line display="inline" fill="none" stroke="#000000" stroke-width="1.3" stroke-linecap="round" stroke-miterlimit="10" x1="696.8" y1="380" x2="615" y2="380"/>
		
			<line display="inline" fill="none" stroke="#000000" stroke-width="0.8" stroke-linecap="round" stroke-miterlimit="10" x1="686.1" y1="391.7" x2="615" y2="391.7"/>
		
			<line display="inline" fill="none" stroke="#000000" stroke-width="1.3" stroke-linecap="round" stroke-miterlimit="10" x1="676.6" y1="403.5" x2="615" y2="403.5"/>
		
			<line display="inline" fill="none" stroke="#000000" stroke-width="0.8" stroke-linecap="round" stroke-miterlimit="10" x1="671.3" y1="415.3" x2="615" y2="415.3"/>
		
			<line display="inline" fill="none" stroke="#000000" stroke-width="0.8" stroke-linecap="round" stroke-miterlimit="10" x1="671.3" y1="438.5" x2="615" y2="438.5"/>
		
			<line display="inline" fill="none" stroke="#000000" stroke-width="1.3" stroke-linecap="round" stroke-miterlimit="10" x1="676.6" y1="427" x2="615" y2="427"/>
		
			<line display="inline" fill="none" stroke="#000000" stroke-width="1.3" stroke-linecap="round" stroke-miterlimit="10" x1="676.6" y1="450.3" x2="615" y2="450.3"/>
		
			<line display="inline" fill="none" stroke="#000000" stroke-width="1.3" stroke-linecap="round" stroke-miterlimit="10" x1="686.1" y1="473.8" x2="615" y2="473.8"/>
		
			<line display="inline" fill="none" stroke="#000000" stroke-width="0.8" stroke-linecap="round" stroke-miterlimit="10" x1="671.3" y1="462.1" x2="615" y2="462.1"/>
		
			<line display="inline" fill="none" stroke="#000000" stroke-width="0.8" stroke-linecap="round" stroke-miterlimit="10" x1="696.8" y1="485.6" x2="615" y2="485.6"/>
	</g>
	<g>
		<g>
			<g>
				<path fill="#414042" d="M79.6,352.5l-1,4l-7-1.8l5.3-20.5c2-8.5,9.5-12.8,18.3-10.5c8.8,2.3,13.3,9.5,11.3,18l-2,8.3l15.5,4
					l-2,8.3L79.6,352.5z M98.6,341.5c1.3-4.8-1.3-8-5.8-9.3c-4.5-1.3-8.3,0.8-9.3,5.3l-1.8,6.8l15.3,3.8L98.6,341.5z"/>
			</g>
			<g>
				<path fill="#414042" d="M94.8,305.9c-0.8-0.5-1.5-0.3-2,0.5l-1.3,2.5l-6.5-3.3l3.8-7.3c1.5-2.8,3.3-3.3,6-1.8l22.3,11.5
					c5.3,2.8,10.3,1,13-4c2.8-5,1.3-10.3-4-13l-22-11.5c-2.8-1.5-3.3-3.3-1.8-6l3.8-7.3l6.5,3.3l-1.3,2.5c-0.5,0.8-0.3,1.5,0.5,2
					l18.8,9.8c9,4.8,12,14.5,6.8,24c-5,9.8-14.8,12.8-23.8,8L94.8,305.9z"/>
			</g>
			<g>
				<path fill="#414042" d="M144.4,271.6c0,0,7.3,0,11.5-5c2.3-2.8,3-6.3,0.3-8.5c-6-5-19.5,11.8-30.5,2.5
					c-5.8-4.8-5.5-13.5,0.3-20.3c3.5-4,10.8-8.8,15.8-4.5l3.3,2.8l-5,5.8l-1.5-1.3c-1.8-1.5-4.8,0-6.8,2.3c-2.5,3-2.8,6.5-0.8,8.3
					c6,5,19-12.3,30.5-2.5c5.5,4.8,6.5,13.3,0.3,20.5c-6.8,7.8-15.8,7.3-15.8,7.3L144.4,271.6z"/>
			</g>
			<g>
				<path fill="#414042" d="M156.1,222.1c-0.5-0.8-1.3-0.8-2-0.3l-2.3,1.8l-4.3-6l6.8-5c2.5-1.8,4.3-1.5,6.3,1l9,12.3l16.5-12
					l-9-12.3c-1.8-2.5-1.5-4.3,1-6.3l6.8-5l4.3,5.8l-2.3,1.8c-0.8,0.5-0.8,1.3-0.3,2l22,30.3l-6.8,5l-11.8-15.3l-16.5,12l11.5,15.8
					l-6.8,5L156.1,222.1z"/>
			</g>
			<g>
				<path fill="#414042" d="M231.9,210.6l1-0.3c1-0.3,1.5-0.8,1.5-2l3.3-39.8l8.5-2.5l23.3,32.5c0.8,1,1.3,1.3,2.3,0.8l1-0.3l2,7
					l-5,1.3c-3.3,1-4.5,0.5-6.3-2.3l-5-7l-15,4.3l-0.5,8.5c-0.3,3-1,4.3-4.3,5l-5,1.5L231.9,210.6z M255,192.1l-7-10
					c-1.5-2.3-3.5-6.3-3.5-6.3h-0.3c0,0,0.3,4.5,0,7l-0.8,12.3L255,192.1z"/>
			</g>
			<g>
				<path fill="#414042" d="M305.5,165.3l-4.3-0.3l0.5-7.3l20,1.3c8.3,0.5,14,5,13.5,12.8c-0.3,5-3.3,8.3-6.3,9.5v0.3
					c5,1.8,7,6.5,6.8,11.3c-0.5,9.3-8,13-16.8,12.5l-11.5-0.8c-3-0.3-4.3-1.5-4.3-4.8L305.5,165.3z M313.8,197.6l6.5,0.5
					c4.3,0.3,6.8-2.5,7-6.3s-2-6.8-6-7l-8-0.5l-0.8,11.8C312.3,197.1,312.8,197.6,313.8,197.6z M320.8,177.8c3.5,0.3,5.8-2.3,6-5.5
					c0.3-3.3-1.5-5.8-5.3-6l-7.3-0.5l-0.8,11.5L320.8,177.8z"/>
			</g>
			<g>
				<path fill="#414042" d="M356,172.1c0.3-0.8,0-1.5-1-1.8l-2.8-0.8l2-7l8,2.5c3,1,3.8,2.5,3,5.5l-7.3,24c-1.8,5.8,0.8,10.3,6.5,12
					c5.5,1.8,10.3-0.5,12-6.3l7.3-23.8c1-3,2.5-3.8,5.5-3l8,2.5l-2,7l-2.8-0.8c-0.8-0.3-1.5,0-1.8,1l-6.3,20
					c-3,9.8-12,14.3-22.3,11.3c-10.5-3.3-15.3-12-12.3-21.8L356,172.1z"/>
			</g>
			<g>
				<path fill="#414042" d="M421.1,196.6l-6-3.8c-0.8-0.5-1.5-0.3-2,0.5l-1.5,2.5l-6.5-3.8l3.8-6.3c1.5-2.5,3-3,5.8-1.5l27.5,16.5
					c2.8,1.5,3,3,1.5,5.8l-3.8,6.3l-6.5-3.8l1.5-2.5c0.5-0.8,0.3-1.5-0.5-2l-6-3.8l-20,33.3l-7.3-4.5L421.1,196.6z"/>
			</g>
			<g>
				<path fill="#414042" d="M463.4,227.9l-5-5c-0.8-0.8-1.5-0.5-2,0l-2,2l-5.3-5.3l5-5.3c2.3-2.3,3.8-2.3,6,0l23,22.5
					c2.3,2.3,2.3,3.8,0,6l-5,5.3l-5.3-5.3l2-2c0.8-0.8,0.5-1.5,0-2l-5-5l-27,28l-6-6L463.4,227.9z"/>
			</g>
			<g>
				<path fill="#414042" d="M508.7,270.6c7.3,11.5,3.8,25.8-7.5,32.8c-11.5,7.3-26,4-33-7.5c-7.3-11.5-3.5-25.8,8-33
					C487.1,255.9,501.4,259.1,508.7,270.6z M474.9,291.7c4.5,7,14,9,21.8,4.3c7.5-4.8,9.8-14,5.3-21c-4.5-7-13.8-9.3-21.3-4.5
					C472.9,275.2,470.4,284.4,474.9,291.7z"/>
			</g>
			<g>
				<path fill="#414042" d="M490.2,318.7l0.8,2.8c0.3,0.8,1,1.3,1.8,1l36-10.5l2.3,7.3l-19.8,24c-2,2.5-5.3,5.5-5.3,5.5v0.3
					c0,0,3.5-1.5,6-2.3l20.3-6c3-0.8,4.5,0,5.5,3l2.3,8l-7,2l-0.8-2.8c-0.3-0.8-1-1.3-1.8-1l-36,10.5l-2-7.3l19.5-24
					c2-2.5,5.3-5.5,5.3-5.5l0,0c0,0-3.5,1.5-6,2.3l-20.3,5.8c-3,0.8-4.5,0-5.5-3l-2.3-8L490.2,318.7z"/>
			</g>
		</g>
	</g>
	<rect x="-58" y="298.4" display="none" fill="#414042" width="725.6" height="165.4"/>
	<rect x="-49.3" y="305.9" display="none" fill="#414042" width="708.1" height="140.1"/>
	
		<text transform="matrix(0.9091 0 0 1 27.2237 409.6908)" display="none" fill="#414042" enable-background="new    " font-family="'ArialMT'" font-size="90.8242">PUSH A BUTON</text>
	<g display="none">
		<polygon display="inline" fill="#414042" points="306,233.9 312.3,246.4 326,248.4 316,258.1 318.5,271.9 306,265.4 293.5,271.9 
			296,258.1 286,248.4 299.7,246.4 		"/>
		<polygon display="inline" fill="#414042" points="241.4,258.1 245.7,266.6 255,267.9 248.2,274.4 249.7,283.7 241.4,279.4 
			233.2,283.7 234.9,274.4 228.2,267.9 237.4,266.6 		"/>
		<polygon display="inline" fill="#414042" points="370.6,258.1 374.6,266.6 383.8,267.9 377.3,274.4 378.8,283.7 370.6,279.4 
			362.3,283.7 363.8,274.4 357,267.9 366.3,266.6 		"/>
	</g>
	<g display="none">
		<polygon display="inline" fill="#414042" points="306,501.1 313.5,516.3 330.5,518.9 318.3,530.9 321.3,547.6 306,539.6 
			291,547.6 293.7,530.9 281.5,518.9 298.5,516.3 		"/>
		<polygon display="inline" fill="#414042" points="384.8,486.8 389.8,497.1 401.1,498.6 393.1,506.6 394.8,517.8 384.8,512.6 
			374.8,517.8 376.6,506.6 368.6,498.6 379.8,497.1 		"/>
		<polygon display="inline" fill="#414042" points="227.2,486.8 232.2,497.1 243.7,498.6 235.4,506.6 237.4,517.8 227.2,512.6 
			217.2,517.8 219.2,506.6 210.9,498.6 222.2,497.1 		"/>
	</g>
	<g display="none">
		<circle display="inline" fill="#414042" cx="306" cy="396" r="224.9"/>
		
			<circle display="inline" fill="none" stroke="#FFFFFF" stroke-width="4.918" stroke-linecap="round" stroke-miterlimit="10" stroke-dasharray="0.5044,17.1499" cx="306" cy="396" r="224.9"/>
	</g>
	<path fill="#414042" d="M504.7,485.3c-0.8,0-1.5-0.3-2.3-0.5c-3-1.3-4.5-4.8-3.3-7.8l0.5-1c1.3-3,4.8-4.5,7.8-3.3
		c3,1.3,4.5,4.8,3.3,7.8l-0.5,1.3C509.2,484.1,506.9,485.3,504.7,485.3z M107.1,484.6c-2.3,0-4.5-1.3-5.5-3.5l-0.5-1.3
		c-1.3-3,0.3-6.5,3.3-7.8c3-1.3,6.5,0.3,7.8,3.3l0.5,1c1.3,3-0.3,6.5-3.3,7.8C108.6,484.3,107.8,484.6,107.1,484.6z M516.9,445
		c-0.5,0-0.8,0-1.3,0c-3.3-0.8-5.3-3.8-4.5-7l0.3-1.3c0.5-3.3,3.8-5.3,7-4.8c3.3,0.5,5.3,3.8,4.8,7l-0.3,1.3
		C522.2,443.3,519.7,445,516.9,445z M94.8,444c-2.8,0-5.3-2-5.8-4.8l-0.3-1c-0.5-3.3,1.5-6.5,4.5-7c3.3-0.8,6.3,1.3,7,4.5l0.3,1.3
		c0.8,3.3-1.5,6.3-4.5,7C95.6,444,95.3,444,94.8,444z M521.4,403L521.4,403c-3.3,0-6-2.8-6-6v-1.8c0-3.3,2.8-6,6-6c3.3,0,6,2.8,6,6
		v1.8C527.2,400.5,524.7,403,521.4,403z M90.6,402c-3.3,0-6-2.5-6-5.8V395c0-3.3,2.8-5.8,6-5.8l0,0c3.3,0,5.8,2.8,5.8,6v1
		C96.6,399.3,93.8,402,90.6,402z"/>
</g>
<g>
	<path fill="#414042" d="M472.1,568.1c-6,6-15.8,10.8-20,6.5l-4.8-4.8l5.8-5.8l2.5,2.5c2.3,2.3,7.3-0.3,10.8-3.8
		c7.3-7.3,7.3-16.3,0-23.5c-7.3-7.3-17-8-24.5-0.5c-2.8,2.8-7,8.5-4.3,11.3l3.5,3.8l6.3-6.3l4.8,4.8l-11.8,11.8l-10.3-10.3
		c-5.3-5.3,2-16,7.3-21c10.5-10.5,25.5-10.3,35.5-0.3C482.6,542.9,482.6,557.6,472.1,568.1z"/>
	<path fill="#414042" d="M423.1,555.9l-5,3l18,29.5l5-3l3.5,5.8l-30.3,18.5l-6.5-10.5l6.5-4l2.8,4.5l11.5-7l-7-11.3l-13.5,8.3
		l-3.8-6l13.5-8.3l-7-11.5l-12.3,7.5l2.8,4.5l-6.5,4l-6.5-10.8l31.3-19.3L423.1,555.9z"/>
	<path fill="#414042" d="M378.1,580.4l-5.5,1.8l11,32.3l8.5-3l-2.3-6.8l7-2.5l4.8,13.5l-39.8,13.8l-4.8-13.5l7-2.5l2.3,6.8l8.5-3
		l-11-32.3l-5.5,2l-2.3-6.3l19.3-6.8L378.1,580.4z"/>
	<path fill="#414042" d="M327.8,593.9l-5.8,0.3l1.3,34.5l5.8-0.3l0.3,6.8l-34.3,1.3l-0.5-12.5l7.5-0.3l0.3,5l12-0.5l-0.5-13.8
		l-15.5,0.5l-0.3-7l15.5-0.5l-0.5-13l-6.3,0.3l-0.3-6.5l21-0.8L327.8,593.9z"/>
	<path fill="#414042" d="M257.2,632.2c-14-2.8-22.3-15.3-19.8-28.8c2.8-13.8,15.3-22.5,29.3-19.8c14,2.8,22.3,15.5,19.5,29.5
		C283.5,626.4,271,634.9,257.2,632.2z M265.2,591.2c-8.5-1.8-17,4.3-18.8,14c-1.8,9.3,3.8,17.8,12.3,19.5c8.5,1.8,16.8-4,18.8-13.3
		C279.2,601.7,273.7,592.9,265.2,591.2z"/>
	<path fill="#414042" d="M195.4,611.2c-12.8-6.5-17.3-20.8-11.3-33c6.3-12.5,20.8-17.5,33.5-11.3c12.8,6.5,17.3,21,10.8,33.5
		C222.4,612.7,207.9,617.4,195.4,611.2z M214.2,573.6c-7.8-4-17.5-0.5-21.8,8.5c-4.3,8.5-1.3,18,6.5,22c7.8,4,17.3,0.8,21.5-7.8
		C224.7,587.7,221.9,577.6,214.2,573.6z"/>
	<path fill="#414042" d="M188.4,559.4l-4.3-3.8l-23,26l4.3,3.8l-4.5,5l-15.5-13.8c-3-2.5-5-4.8-6.8-7.5c-5.3-8.3-4.3-18.5,3.5-27.3
		c7.5-8.5,17.3-10.8,26-7c3.3,1.3,6,3.3,8.8,6l15.5,13.8L188.4,559.4z M172.9,546.1c-2.3-2-4.3-3.5-6.8-4.3c-5.5-2-11.8,0-17,5.8
		c-5.3,6-6.3,12.5-3.5,18c1.3,2.3,2.8,4,5,5.8l4.3,3.8l22.3-25.3L172.9,546.1z"/>
</g>
</svg>
