<?xml version="1.0" encoding="utf-8"?>
<!-- Generator: Adobe Illustrator 18.1.1, SVG Export Plug-In . SVG Version: 6.00 Build 0)  -->
<!DOCTYPE svg PUBLIC "-//W3C//DTD SVG 1.1//EN" "http://www.w3.org/Graphics/SVG/1.1/DTD/svg11.dtd">
<svg version="1.1" id="Layer_1" xmlns="http://www.w3.org/2000/svg" xmlns:xlink="http://www.w3.org/1999/xlink" x="0px" y="0px"
	 viewBox="0 90.2 612 611.3" enable-background="new 0 90.2 612 611.3" xml:space="preserve">
<g>
	<g display="none">
		<polygon display="inline" fill="#414042" points="27,505.1 -139.4,505.1 -74.3,432.5 -139.4,365 27,365 		"/>
		<polygon display="inline" fill="#414042" points="-58,463.8 27,505.1 27,463.8 		"/>
	</g>
	<g display="none">
		<polygon display="inline" fill="#414042" points="582.5,504.8 748.9,504.8 683.8,432.3 748.9,364.7 582.5,364.7 		"/>
		<polygon display="inline" fill="#414042" points="667.5,463.6 582.5,504.8 582.5,463.6 		"/>
	</g>
	<path fill="#414042" d="M597.2,434.3c1.8-12.8,14.8-25,14.8-38.3c0-13.3-13.3-25.5-14.8-38.3c-1.8-13,7.8-28.3,4.5-40.8
		c-3.5-12.8-19.3-21.3-24.3-33.3c-5-12.3,0.3-29.3-6.3-40.5c-6.5-11.3-24-15.5-32-25.8c-8-10.5-7.3-28.3-16.5-37.5
		c-9.3-9.3-27.3-8.8-37.5-16.5c-10.8-8.3-14.8-25.8-26-32.3c-11.3-6.5-28.5-1.3-40.5-6.3c-12-5-20.5-20.8-33.3-24.3
		c-12.5-3.3-27.8,6.3-40.8,4.5c-12.8-1.8-25-14.8-38.3-14.8c-13.5-0.3-25.8,13-38.5,14.5c-13,1.8-28.3-7.8-40.8-4.5
		c-12.8,3.5-21.3,19.3-33.3,24.3c-12.3,5-29.3-0.3-40.5,6.3c-11.5,6.8-15.5,24.3-25.8,32.3c-10.5,8-28.3,7.3-37.5,16.5
		c-9.3,9.3-8.8,27.3-16.5,37.5c-8.3,10.5-25.8,14.5-32.3,25.8c-6.5,11.3-1.3,28.5-6.3,40.5S14,303.9,10.5,316.7
		c-3.3,12.5,6.3,27.8,4.5,40.8S0,382.7,0,396c0,13.3,13.3,25.5,14.8,38.3c1.8,13-7.8,28.3-4.5,40.8c3.5,12.8,19.3,21.3,24.3,33.3
		c5,12.3-0.3,29.3,6.3,40.5s24,15.5,32,25.8c8,10.5,7.3,28.3,16.5,37.5c9.3,9.3,27.3,8.8,37.5,16.5c10.3,8,14.5,25.5,25.8,32
		c11.3,6.5,28.5,1.3,40.5,6.3c12,5,20.5,20.8,33.3,24.3c12.5,3.3,27.8-6.3,40.8-4.5c12.8,1.8,25,14.8,38.3,14.8
		c13.3,0,25.5-13.3,38.3-14.8c13-1.8,28.3,7.8,40.8,4.5c12.8-3.5,21.3-19.3,33.3-24.3c12.3-5,29.3,0.3,40.5-6.3
		c11.3-6.5,15.5-24,25.8-32c10.5-8,28.3-7.3,37.5-16.5c9.3-9.3,8.8-27.3,16.5-37.5c8-10.3,25.5-14.5,32-25.8s1.3-28.5,6.3-40.5
		c5-12,20.8-20.5,24.3-33.3C605,462.8,595.5,447.5,597.2,434.3z M306,666.5c-149.4,0-270.2-121.1-270.2-270.2
		C35.8,246.9,156.9,126,306,126c149.4,0,270.2,121.1,270.2,270.2C576.5,545.4,455.4,666.5,306,666.5z"/>
	<g display="none">
		
			<line display="inline" fill="none" stroke="#000000" stroke-width="1.3" stroke-linecap="round" stroke-miterlimit="10" x1="-90.6" y1="380.2" x2="-8.8" y2="380.2"/>
		
			<line display="inline" fill="none" stroke="#000000" stroke-width="0.8" stroke-linecap="round" stroke-miterlimit="10" x1="-79.6" y1="392" x2="-8.8" y2="392"/>
		
			<line display="inline" fill="none" stroke="#000000" stroke-width="1.3" stroke-linecap="round" stroke-miterlimit="10" x1="-70.1" y1="403.8" x2="-8.8" y2="403.8"/>
		
			<line display="inline" fill="none" stroke="#000000" stroke-width="0.8" stroke-linecap="round" stroke-miterlimit="10" x1="-64.8" y1="415.5" x2="-8.8" y2="415.5"/>
		
			<line display="inline" fill="none" stroke="#000000" stroke-width="0.8" stroke-linecap="round" stroke-miterlimit="10" x1="-64.8" y1="438.8" x2="-8.8" y2="438.8"/>
		
			<line display="inline" fill="none" stroke="#000000" stroke-width="1.3" stroke-linecap="round" stroke-miterlimit="10" x1="-70.1" y1="427.3" x2="-8.8" y2="427.3"/>
		
			<line display="inline" fill="none" stroke="#000000" stroke-width="1.3" stroke-linecap="round" stroke-miterlimit="10" x1="-70.1" y1="450.5" x2="-8.8" y2="450.5"/>
		
			<line display="inline" fill="none" stroke="#000000" stroke-width="1.3" stroke-linecap="round" stroke-miterlimit="10" x1="-79.6" y1="474.1" x2="-8.8" y2="474.1"/>
		
			<line display="inline" fill="none" stroke="#000000" stroke-width="0.8" stroke-linecap="round" stroke-miterlimit="10" x1="-64.8" y1="462.3" x2="-8.8" y2="462.3"/>
		
			<line display="inline" fill="none" stroke="#000000" stroke-width="0.8" stroke-linecap="round" stroke-miterlimit="10" x1="-90.6" y1="485.8" x2="-8.8" y2="485.8"/>
	</g>
	<g display="none">
		
			<line display="inline" fill="none" stroke="#000000" stroke-width="1.3" stroke-linecap="round" stroke-miterlimit="10" x1="696.8" y1="380" x2="615" y2="380"/>
		
			<line display="inline" fill="none" stroke="#000000" stroke-width="0.8" stroke-linecap="round" stroke-miterlimit="10" x1="686.1" y1="391.7" x2="615" y2="391.7"/>
		
			<line display="inline" fill="none" stroke="#000000" stroke-width="1.3" stroke-linecap="round" stroke-miterlimit="10" x1="676.6" y1="403.5" x2="615" y2="403.5"/>
		
			<line display="inline" fill="none" stroke="#000000" stroke-width="0.8" stroke-linecap="round" stroke-miterlimit="10" x1="671.3" y1="415.3" x2="615" y2="415.3"/>
		
			<line display="inline" fill="none" stroke="#000000" stroke-width="0.8" stroke-linecap="round" stroke-miterlimit="10" x1="671.3" y1="438.5" x2="615" y2="438.5"/>
		
			<line display="inline" fill="none" stroke="#000000" stroke-width="1.3" stroke-linecap="round" stroke-miterlimit="10" x1="676.6" y1="427" x2="615" y2="427"/>
		
			<line display="inline" fill="none" stroke="#000000" stroke-width="1.3" stroke-linecap="round" stroke-miterlimit="10" x1="676.6" y1="450.3" x2="615" y2="450.3"/>
		
			<line display="inline" fill="none" stroke="#000000" stroke-width="1.3" stroke-linecap="round" stroke-miterlimit="10" x1="686.1" y1="473.8" x2="615" y2="473.8"/>
		
			<line display="inline" fill="none" stroke="#000000" stroke-width="0.8" stroke-linecap="round" stroke-miterlimit="10" x1="671.3" y1="462.1" x2="615" y2="462.1"/>
		
			<line display="inline" fill="none" stroke="#000000" stroke-width="0.8" stroke-linecap="round" stroke-miterlimit="10" x1="696.8" y1="485.6" x2="615" y2="485.6"/>
	</g>
	<rect x="-58" y="298.4" display="none" fill="#414042" width="725.6" height="165.4"/>
	<rect x="-49.3" y="305.9" display="none" fill="#414042" width="708.1" height="140.1"/>
	
		<text transform="matrix(0.9091 0 0 1 27.2237 409.6908)" display="none" fill="#414042" enable-background="new    " font-family="'ArialMT'" font-size="90.8242">PUSH A BUTON</text>
	<g display="none">
		<polygon display="inline" fill="#414042" points="306,233.9 312.3,246.4 326,248.4 316,258.1 318.5,271.9 306,265.4 293.5,271.9 
			296,258.1 286,248.4 299.7,246.4 		"/>
		<polygon display="inline" fill="#414042" points="241.4,258.1 245.7,266.6 255,267.9 248.2,274.4 249.7,283.7 241.4,279.4 
			233.2,283.7 234.9,274.4 228.2,267.9 237.4,266.6 		"/>
		<polygon display="inline" fill="#414042" points="370.6,258.1 374.6,266.6 383.8,267.9 377.3,274.4 378.8,283.7 370.6,279.4 
			362.3,283.7 363.8,274.4 357,267.9 366.3,266.6 		"/>
	</g>
	<g display="none">
		<polygon display="inline" fill="#414042" points="306,501.1 313.5,516.3 330.5,518.9 318.3,530.9 321.3,547.6 306,539.6 
			291,547.6 293.7,530.9 281.5,518.9 298.5,516.3 		"/>
		<polygon display="inline" fill="#414042" points="384.8,486.8 389.8,497.1 401.1,498.6 393.1,506.6 394.8,517.8 384.8,512.6 
			374.8,517.8 376.6,506.6 368.6,498.6 379.8,497.1 		"/>
		<polygon display="inline" fill="#414042" points="227.2,486.8 232.2,497.1 243.7,498.6 235.4,506.6 237.4,517.8 227.2,512.6 
			217.2,517.8 219.2,506.6 210.9,498.6 222.2,497.1 		"/>
	</g>
	<g display="none">
		<circle display="inline" fill="#414042" cx="306" cy="396" r="224.9"/>
		
			<circle display="inline" fill="none" stroke="#FFFFFF" stroke-width="4.918" stroke-linecap="round" stroke-miterlimit="10" stroke-dasharray="0.5044,17.1499" cx="306" cy="396" r="224.9"/>
	</g>
	<g>
		<path fill="#414042" d="M172.6,460.3h-41.8c-0.8,0-1.3,0.5-1.3,1.3c0,0.8,0.5,1.3,1.3,1.3h42.3
			C173.1,461.8,172.9,461.1,172.6,460.3z"/>
		<path fill="#414042" d="M306,251.9c-74.6,0-135.1,42.8-135.1,95.6v53.8h-12.3c-0.8,0-1.3,0.5-1.3,1.3s0.5,1.3,1.3,1.3h12.3v6.8
			h-22.3c-1,0-2,0.8-2,2c0,1,0.8,2,2,2h22.3v6.8h-30c-0.8,0-1.3,0.5-1.3,1.3c0,0.8,0.5,1.3,1.3,1.3h29.8v6.8h-37.3c-1,0-2,0.8-2,2
			c0,1,0.8,2,2,2h37.3v6.8h-39.8c-0.8,0-1.3,0.5-1.3,1.3c0,0.8,0.5,1.3,1.3,1.3h39.8v1.5c0,1.8,0,3.5,0.3,5h-42.5c-1,0-2,0.8-2,2
			c0,1,0.8,2,2,2h43c-0.3-1-0.3-2-0.3-3.3c0.5,6.5,2,13,4.3,19h-42c-1,0-2,0.8-2,2c0,1,0.8,2,2,2h43.5c1,2.3,2.3,4.5,3.5,6.8h-42
			c-0.8,0-1.3,0.5-1.3,1.3c0,0.8,0.5,1.3,1.3,1.3h43.3c1.5,2.3,3,4.5,4.5,6.8l0,0h-40.5c-1,0-2,0.8-2,2c0,1,0.8,2,2,2h43.3
			c2,2.3,4,4.5,6,6.8h-26.5c-0.8,0-1.3,0.5-1.3,1.3c0,0.8,0.5,1.3,1.3,1.3h29.5l0,0c2.5,2.3,5,4.5,7.8,6.8l0,0h-20c-1,0-2,0.8-2,2
			c0,1,0.8,2,2,2h25c24.5,17,58,27.5,95.1,27.5c74.6,0,135.1-42.8,135.1-95.6V349C441.1,294.7,380.8,251.9,306,251.9z M437.4,444.5
			c0,50.5-59,91.8-131.4,91.8c-70.3,0-128.1-38.8-131.4-87.6c12.3,43.5,64.8,76.3,129.9,77.6l0,0c0.8,0,1.3-0.5,1.3-1.3
			s-0.5-1.3-1.3-1.3c-35-0.8-67.8-10.8-92.3-28.5c-20.8-15-33.5-34-36.8-54.5c12.8,36.8,55,65.6,109.6,72.3h0.3c1,0,1.8-0.8,1.8-1.8
			c0-1-0.5-2-1.8-2c-61-7.5-106.1-43-110.1-85.8c10,31,41.5,57.3,84.6,69.1h0.3c0.5,0,1-0.3,1.3-1c0.3-0.8-0.3-1.3-1-1.5
			c-48.5-13-82.1-45.3-85.8-81.3c8.5,26.5,32.5,49.8,67.1,63.3c0.3,0,0.5,0.3,0.8,0.3c0.8,0,1.5-0.5,1.8-1.3c0.5-1,0-2-1-2.5
			c-39.3-15.5-64.8-44-67.8-75.3c7.3,22.8,26,43.3,53,57c0.3,0,0.5,0.3,0.5,0.3c0.5,0,1-0.3,1-0.8c0.3-0.5,0-1.3-0.5-1.8
			c-31.8-16.3-51.8-41.8-54.8-69.1c6,18.3,19.3,35,39,48.5c0.3,0.3,0.8,0.3,1,0.3c0.5,0,1.3-0.3,1.5-0.8c0.5-0.8,0.3-2-0.5-2.5
			c-17.8-12-30-26.5-36.3-42.8c19.5,35.8,68.6,61,126.1,61c63.8,0,117.1-31.3,131.4-73.3v75.1H437.4z"/>
	</g>
</g>
</svg>
