<?xml version="1.0" encoding="UTF-8"?>
<!DOCTYPE svg PUBLIC "-//W3C//DTD SVG 1.1//EN" "http://www.w3.org/Graphics/SVG/1.1/DTD/svg11.dtd">
<svg version="1.1" xmlns="http://www.w3.org/2000/svg" xmlns:xlink="http://www.w3.org/1999/xlink" x="0px" y="0px" width="816" height="340" viewBox="0, 0, 816, 340">
  <g id="Background">
    <rect x="0" y="0" width="816" height="340" fill="#FFFFFF"/>
  </g>
  <g id="Background">
    <path d="M0,0 L816,0 L816,340 L0,340 z" fill="#FFFFFF"/>
  </g>
  <g id="background">
    <path d="M-18.289,-30.246 L845.421,-30.246 L845.421,391.543 L-18.289,391.543 z" fill="#382B27"/>
  </g>
  <g id="Layer 3">
    <path d="M26.853,77.819 C26.853,77.819 32.353,83.938 42.345,85.1 L42.345,93.389 L49.007,93.389 L49.007,85.1 C58.535,83.938 63.958,77.044 63.958,69.375 C63.958,52.953 37.853,55.742 37.853,45.826 C37.853,41.953 41.416,39.552 46.451,39.552 C52.881,39.552 58.535,44.277 58.535,44.277 L62.641,36.686 C62.641,36.686 57.993,31.805 49.007,31.031 L49.007,22.742 L42.345,22.742 L42.345,31.186 C33.747,32.58 27.86,38.467 27.86,45.981 C27.86,62.946 53.965,60.622 53.965,69.917 C53.965,74.101 50.169,76.579 45.754,76.579 C38.472,76.579 32.12,70.77 32.12,70.77 z" fill="#F7F7F7"/>
    <path d="M57.441,302.011 C57.441,308.849 62.414,314.018 69.514,314.018 C72.982,314.018 78.937,312.742 78.937,309.176 L78.937,302.698 L71.412,302.698 L71.412,305.25 L75.927,305.25 L75.927,308.292 C75.927,310.55 71.804,311.172 69.743,311.172 C64.312,311.172 60.844,307.245 60.844,301.913 C60.844,296.612 64.247,292.948 69.645,292.948 C72.36,292.948 75.403,293.897 75.403,295.827 L75.403,297.529 L78.413,297.529 L78.413,294.682 C78.413,291.77 73.604,290.134 69.547,290.134 C62.349,290.134 57.441,295.173 57.441,302.011 z" fill="#F7F7F7"/>
    <path d="M82.634,313.625 L91.696,313.625 L91.696,311.073 L88.784,311.073 L88.784,293.046 L91.696,293.046 L91.696,290.527 L82.634,290.527 L82.634,293.046 L85.513,293.046 L85.513,311.073 L82.634,311.073 z" fill="#F7F7F7"/>
    <path d="M95.132,313.625 L104.423,313.625 L104.423,311.073 L101.282,311.073 L101.282,303.679 L109.265,303.679 L109.265,300.996 L101.282,300.996 L101.282,293.341 L108.284,293.341 L108.284,295.991 L111.13,295.991 L111.13,290.527 L95.132,290.527 L95.132,293.046 L98.011,293.046 L98.011,311.073 L95.132,311.073 z" fill="#F7F7F7"/>
    <path d="M118.59,313.625 L127.685,313.625 L127.685,311.073 L124.773,311.073 L124.773,293.21 L130.204,293.21 L130.204,296.809 L133.051,296.809 L133.051,290.527 L113.224,290.527 L113.224,296.809 L116.07,296.809 L116.07,293.21 L121.502,293.21 L121.502,311.073 L118.59,311.073 z" fill="#F7F7F7"/>
    <path d="M143.782,301.945 C143.782,308.685 148.788,314.018 155.724,314.018 C158.93,314.018 164.721,312.873 164.721,309.47 L164.721,306.657 L161.678,306.657 L161.678,308.456 C161.678,310.583 157.556,311.172 155.92,311.172 C150.881,311.172 147.152,307.278 147.152,301.814 C147.152,296.58 150.783,292.948 155.724,292.948 C157.85,292.948 161.351,293.701 161.351,295.729 L161.351,297.529 L164.394,297.529 L164.394,294.715 C164.394,291.149 158.374,290.134 155.593,290.134 C148.918,290.134 143.782,295.173 143.782,301.945 z" fill="#F7F7F7"/>
    <path d="M166.88,313.625 L174.896,313.625 L174.896,311.073 L172.409,311.073 L174.209,305.937 L182.388,305.937 L184.187,311.073 L181.734,311.073 L181.734,313.625 L189.749,313.625 L189.749,311.073 L187.525,311.073 L180.163,290.527 L176.466,290.527 L169.105,311.073 L166.88,311.073 z M175.027,303.319 L177.873,295.304 C178.168,294.355 178.266,293.537 178.266,293.537 L178.364,293.537 C178.364,293.537 178.429,294.355 178.756,295.304 L181.57,303.319 z" fill="#F7F7F7"/>
    <path d="M191.843,313.625 L200.84,313.625 L200.84,311.073 L197.994,311.073 L197.994,304.301 L200.742,304.301 C202.149,304.301 202.574,304.595 203.163,305.577 L206.73,311.891 C207.515,313.265 207.973,313.625 209.936,313.625 L211.899,313.625 L211.899,311.073 L211.212,311.073 C210.394,311.073 209.969,310.943 209.609,310.321 L206.337,304.628 C205.944,303.876 205.355,303.548 205.355,303.548 L205.355,303.483 C208.3,302.73 210.132,300.342 210.132,297.005 C210.132,293.864 208.529,291.836 206.108,291.018 C204.832,290.592 203.491,290.527 201.855,290.527 L191.843,290.527 L191.843,293.046 L194.722,293.046 L194.722,311.073 L191.843,311.073 z M197.994,301.618 L197.994,293.21 L201.822,293.21 C202.934,293.21 203.916,293.341 204.668,293.635 C206.108,294.224 206.828,295.467 206.828,297.267 C206.828,299.982 205.159,301.618 202.64,301.618 z" fill="#F7F7F7"/>
    <path d="M214.647,313.625 L224.528,313.625 C226.36,313.625 227.897,313.494 229.402,313.004 C233.917,311.564 236.698,307.671 236.698,302.076 C236.698,296.449 233.819,292.457 229.402,291.083 C227.865,290.625 226.425,290.527 224.495,290.527 L214.647,290.527 L214.647,293.046 L217.526,293.046 L217.526,311.073 L214.647,311.073 z M220.798,310.943 L220.798,293.21 L224.331,293.21 C225.836,293.21 227.014,293.275 228.29,293.733 C231.365,294.846 233.296,297.823 233.296,302.076 C233.296,306.297 231.365,309.274 228.257,310.354 C227.08,310.812 225.836,310.943 224.331,310.943 z" fill="#F7F7F7"/>
    <path d="M304.583,303.293 C304.583,307.227 307.581,310.359 311.63,310.359 C313.195,310.359 314.609,309.901 315.735,309.003 L317.263,310.512 L318.676,308.946 L317.129,307.552 C318.103,306.349 318.676,304.859 318.676,303.14 C318.676,299.188 315.621,296.342 311.63,296.342 C307.562,296.342 304.583,299.359 304.583,303.293 z M307.161,303.293 C307.161,300.562 309.128,298.538 311.63,298.538 C314.189,298.538 316.155,300.601 316.155,303.255 C316.155,304.248 315.85,305.184 315.392,305.929 L313.482,304.038 L312.107,305.566 L314.017,307.399 C313.367,307.915 312.432,308.163 311.63,308.163 C309.128,308.163 307.161,306.043 307.161,303.293 z" fill="#C6C1BE"/>
    <path d="M321.445,306.654 C321.445,309.309 322.686,310.359 324.634,310.359 C327.079,310.359 328.072,308.545 328.186,308.22 L328.224,308.22 C328.224,308.22 328.205,308.43 328.205,308.678 L328.205,309.041 C328.205,309.729 328.606,310.13 329.466,310.13 L331.872,310.13 L331.872,308.335 L330.936,308.335 C330.669,308.335 330.516,308.182 330.516,307.915 L330.516,300.391 L326.601,300.391 L326.601,302.205 L328.091,302.205 L328.091,304.725 C328.091,306.482 327.079,308.201 325.398,308.201 C324.176,308.201 323.87,307.399 323.87,306.234 L323.87,300.391 L319.937,300.391 L319.937,302.205 L321.445,302.205 z" fill="#C6C1BE"/>
    <path d="M333.113,305.26 C333.113,308.029 335.118,310.359 338.345,310.359 C340.79,310.359 342.279,309.003 342.279,309.003 L341.344,307.284 C341.344,307.284 340.102,308.316 338.517,308.316 C337.047,308.316 335.748,307.399 335.596,305.604 L342.337,305.604 C342.337,305.604 342.394,305.069 342.394,304.783 C342.394,302.205 340.866,300.161 338.059,300.161 C335.137,300.161 333.113,302.262 333.113,305.26 z M335.653,304.172 C335.882,302.892 336.76,302.033 338.002,302.033 C339.033,302.033 339.854,302.835 339.892,304.172 z" fill="#C6C1BE"/>
    <path d="M343.769,308.01 C343.769,309.595 345.946,310.359 347.722,310.359 C349.956,310.359 351.827,309.366 351.827,307.399 C351.827,305.489 350.071,304.878 348.581,304.401 C347.493,304.076 346.538,303.752 346.538,302.949 C346.538,302.338 347.187,302.071 347.951,302.071 C348.81,302.071 349.383,302.377 349.383,302.873 L349.383,303.427 L351.465,303.427 L351.465,302.186 C351.465,300.715 349.364,300.161 347.951,300.161 C346.175,300.161 344.113,300.887 344.113,302.949 C344.113,304.802 345.755,305.47 347.187,305.967 C348.486,306.444 349.402,306.654 349.402,307.475 C349.402,308.125 348.715,308.468 347.741,308.468 C346.729,308.468 345.831,308.125 345.831,307.456 L345.831,306.883 L343.769,306.883 z" fill="#C6C1BE"/>
    <path d="M354.386,306.559 C354.386,309.824 357.079,310.225 358.454,310.225 C358.893,310.225 359.199,310.168 359.199,310.168 L359.199,308.182 C359.199,308.182 359.027,308.201 358.759,308.201 C358.072,308.201 356.812,307.972 356.812,306.31 L356.812,302.205 L359.027,302.205 L359.027,300.391 L356.812,300.391 L356.812,297.736 L354.463,297.736 L354.463,300.391 L352.897,300.391 L352.897,302.205 L354.386,302.205 z" fill="#C6C1BE"/>
    <path d="M362.063,298.729 L364.508,298.729 L364.508,296.571 L362.063,296.571 z M360.669,310.13 L365.902,310.13 L365.902,308.316 L364.508,308.316 L364.508,300.391 L360.574,300.391 L360.574,302.205 L362.082,302.205 L362.082,308.316 L360.669,308.316 z" fill="#C6C1BE"/>
    <path d="M367.124,305.26 C367.124,308.258 369.511,310.359 372.49,310.359 C375.45,310.359 377.837,308.258 377.837,305.26 C377.837,302.281 375.45,300.161 372.471,300.161 C369.511,300.161 367.124,302.281 367.124,305.26 z M369.587,305.26 C369.587,303.465 370.905,302.224 372.49,302.224 C374.056,302.224 375.373,303.465 375.373,305.26 C375.373,307.074 374.056,308.296 372.49,308.296 C370.905,308.296 369.587,307.074 369.587,305.26 z" fill="#C6C1BE"/>
    <path d="M379.365,310.13 L384.597,310.13 L384.597,308.316 L383.203,308.316 L383.203,305.757 C383.203,304.057 384.234,302.377 385.991,302.377 C387.213,302.377 387.538,303.179 387.538,304.363 L387.538,310.13 L391.357,310.13 L391.357,308.316 L389.944,308.316 L389.944,303.866 C389.944,301.288 388.76,300.161 386.678,300.161 C384.234,300.161 383.203,302.033 383.088,302.338 L383.05,302.338 C383.05,302.338 383.088,302.128 383.088,301.918 L383.088,301.479 C383.088,300.792 382.687,300.391 381.828,300.391 L379.269,300.391 L379.269,302.205 L380.358,302.205 C380.625,302.205 380.778,302.358 380.778,302.625 L380.778,308.316 L379.365,308.316 z" fill="#C6C1BE"/>
    <path d="M392.465,308.01 C392.465,309.595 394.642,310.359 396.418,310.359 C398.652,310.359 400.523,309.366 400.523,307.399 C400.523,305.489 398.766,304.878 397.277,304.401 C396.188,304.076 395.234,303.752 395.234,302.949 C395.234,302.338 395.883,302.071 396.647,302.071 C397.506,302.071 398.079,302.377 398.079,302.873 L398.079,303.427 L400.16,303.427 L400.16,302.186 C400.16,300.715 398.06,300.161 396.647,300.161 C394.871,300.161 392.808,300.887 392.808,302.949 C392.808,304.802 394.451,305.47 395.883,305.967 C397.181,306.444 398.098,306.654 398.098,307.475 C398.098,308.125 397.411,308.468 396.437,308.468 C395.425,308.468 394.527,308.125 394.527,307.456 L394.527,306.883 L392.465,306.883 z" fill="#C6C1BE"/>
    <path d="M402.853,310.13 L405.278,310.13 L405.278,307.685 L402.853,307.685 z M402.853,302.854 L405.278,302.854 L405.278,300.391 L402.853,300.391 z" fill="#C6C1BE"/>
    <path d="M412.516,303.293 C412.516,307.246 415.495,310.359 419.601,310.359 C421.472,310.359 424.967,309.71 424.967,307.685 L424.967,305.833 L422.694,305.833 L422.694,306.883 C422.694,307.953 420.574,308.22 419.753,308.22 C417.08,308.22 415.094,306.234 415.094,303.179 C415.094,300.314 417.003,298.481 419.62,298.481 C420.727,298.481 422.522,298.825 422.522,299.837 L422.522,300.887 L424.795,300.887 L424.795,299.054 C424.795,296.915 421.147,296.342 419.505,296.342 C415.571,296.342 412.516,299.283 412.516,303.293 z" fill="#C6C1BE"/>
    <path d="M426.456,307.399 C426.456,309.385 428.022,310.359 429.683,310.359 C431.937,310.359 432.758,308.487 432.758,308.487 L432.796,308.487 C432.796,308.487 432.739,308.678 432.739,308.984 L432.739,309.099 C432.739,309.652 433.083,310.13 433.98,310.13 L436.272,310.13 L436.272,308.316 L435.393,308.316 C435.126,308.316 434.973,308.182 434.973,307.895 L434.973,304 C434.973,301.517 433.579,300.161 430.963,300.161 C428.614,300.161 427.105,301.365 427.105,301.365 L428.003,303.045 C428.003,303.045 429.302,302.109 430.753,302.109 C431.765,302.109 432.548,302.548 432.548,303.79 L432.548,304.114 L431.937,304.114 C430.371,304.114 426.456,304.42 426.456,307.399 z M428.901,307.208 C428.901,305.738 431.211,305.585 432.166,305.585 L432.567,305.585 L432.567,305.909 C432.567,307.132 431.631,308.545 430.314,308.545 C429.416,308.545 428.901,307.934 428.901,307.208 z" fill="#C6C1BE"/>
    <path d="M438.067,307.036 C438.067,309.691 439.499,310.206 441.046,310.206 C441.523,310.206 441.924,310.149 441.924,310.149 L441.924,308.201 C441.924,308.201 441.733,308.22 441.466,308.22 C440.664,308.22 440.473,307.762 440.473,306.883 L440.473,296.571 L436.558,296.571 L436.558,298.385 L438.067,298.385 z" fill="#C6C1BE"/>
    <path d="M443.834,307.036 C443.834,309.691 445.266,310.206 446.813,310.206 C447.29,310.206 447.691,310.149 447.691,310.149 L447.691,308.201 C447.691,308.201 447.5,308.22 447.233,308.22 C446.431,308.22 446.24,307.762 446.24,306.883 L446.24,296.571 L442.325,296.571 L442.325,298.385 L443.834,298.385 z" fill="#C6C1BE"/>
    <path d="M453.707,305.26 C453.707,308.258 456.094,310.359 459.073,310.359 C462.033,310.359 464.42,308.258 464.42,305.26 C464.42,302.281 462.033,300.161 459.054,300.161 C456.094,300.161 453.707,302.281 453.707,305.26 z M456.17,305.26 C456.17,303.465 457.488,302.224 459.073,302.224 C460.639,302.224 461.956,303.465 461.956,305.26 C461.956,307.074 460.639,308.296 459.073,308.296 C457.488,308.296 456.17,307.074 456.17,305.26 z" fill="#C6C1BE"/>
    <path d="M465.948,310.13 L471.18,310.13 L471.18,308.316 L469.786,308.316 L469.786,306.196 C469.786,304.363 470.664,302.644 472.631,302.644 C472.975,302.644 473.223,302.682 473.223,302.682 L473.223,300.295 C473.223,300.295 473.013,300.257 472.784,300.257 C471.294,300.257 470.13,301.364 469.69,302.759 L469.652,302.759 C469.652,302.759 469.69,302.51 469.69,302.147 L469.69,301.575 C469.69,300.753 469.251,300.391 468.392,300.391 L465.852,300.391 L465.852,302.205 L466.941,302.205 C467.208,302.205 467.361,302.357 467.361,302.625 L467.361,308.316 L465.948,308.316 z" fill="#C6C1BE"/>
    <path d="M480.213,306.559 C480.213,309.824 482.905,310.225 484.28,310.225 C484.719,310.225 485.025,310.168 485.025,310.168 L485.025,308.182 C485.025,308.182 484.853,308.201 484.586,308.201 C483.898,308.201 482.638,307.972 482.638,306.31 L482.638,302.205 L484.853,302.205 L484.853,300.391 L482.638,300.391 L482.638,297.736 L480.289,297.736 L480.289,300.391 L478.723,300.391 L478.723,302.205 L480.213,302.205 z" fill="#C6C1BE"/>
    <path d="M486.285,305.26 C486.285,308.029 488.29,310.359 491.518,310.359 C493.962,310.359 495.451,309.003 495.451,309.003 L494.516,307.284 C494.516,307.284 493.274,308.316 491.689,308.316 C490.219,308.316 488.92,307.399 488.768,305.604 L495.509,305.604 C495.509,305.604 495.566,305.069 495.566,304.783 C495.566,302.205 494.038,300.161 491.231,300.161 C488.309,300.161 486.285,302.262 486.285,305.26 z M488.825,304.172 C489.054,302.892 489.933,302.033 491.174,302.033 C492.205,302.033 493.026,302.835 493.064,304.172 z" fill="#C6C1BE"/>
    <path d="M497.017,310.13 L499.825,310.13 L501.505,307.418 C501.715,307.074 501.868,306.711 501.868,306.711 L501.906,306.711 C501.906,306.711 502.078,307.093 502.288,307.399 L504.007,310.13 L506.699,310.13 L506.699,308.316 L505.515,308.316 L503.3,305.107 L505.305,302.205 L506.661,302.205 L506.661,300.391 L503.873,300.391 L502.345,302.854 C502.135,303.179 501.963,303.541 501.963,303.541 L501.925,303.541 C501.925,303.541 501.753,303.179 501.562,302.854 L500.054,300.391 L497.056,300.391 L497.056,302.205 L498.545,302.205 L500.55,305.165 L498.411,308.316 L497.017,308.316 z" fill="#C6C1BE"/>
    <path d="M509.258,306.559 C509.258,309.824 511.951,310.225 513.326,310.225 C513.765,310.225 514.07,310.168 514.07,310.168 L514.07,308.182 C514.07,308.182 513.899,308.201 513.631,308.201 C512.944,308.201 511.683,307.972 511.683,306.31 L511.683,302.205 L513.899,302.205 L513.899,300.391 L511.683,300.391 L511.683,297.736 L509.335,297.736 L509.335,300.391 L507.769,300.391 L507.769,302.205 L509.258,302.205 z" fill="#C6C1BE"/>
    <path d="M521.365,306.654 C521.365,309.309 522.606,310.359 524.554,310.359 C526.999,310.359 527.992,308.545 528.106,308.22 L528.144,308.22 C528.144,308.22 528.125,308.43 528.125,308.678 L528.125,309.041 C528.125,309.729 528.526,310.13 529.386,310.13 L531.792,310.13 L531.792,308.335 L530.856,308.335 C530.589,308.335 530.436,308.182 530.436,307.915 L530.436,300.391 L526.521,300.391 L526.521,302.205 L528.011,302.205 L528.011,304.725 C528.011,306.482 526.999,308.201 525.318,308.201 C524.096,308.201 523.79,307.399 523.79,306.234 L523.79,300.391 L519.857,300.391 L519.857,302.205 L521.365,302.205 z" fill="#C6C1BE"/>
    <path d="M533.033,308.01 C533.033,309.595 535.21,310.359 536.986,310.359 C539.22,310.359 541.092,309.366 541.092,307.399 C541.092,305.489 539.335,304.878 537.845,304.401 C536.757,304.076 535.802,303.752 535.802,302.949 C535.802,302.338 536.451,302.071 537.215,302.071 C538.075,302.071 538.647,302.377 538.647,302.873 L538.647,303.427 L540.729,303.427 L540.729,302.186 C540.729,300.715 538.628,300.161 537.215,300.161 C535.439,300.161 533.377,300.887 533.377,302.949 C533.377,304.802 535.019,305.47 536.451,305.967 C537.75,306.444 538.667,306.654 538.667,307.475 C538.667,308.125 537.979,308.468 537.005,308.468 C535.993,308.468 535.096,308.125 535.096,307.456 L535.096,306.883 L533.033,306.883 z" fill="#C6C1BE"/>
    <path d="M547.088,307.399 C547.088,309.385 548.654,310.359 550.315,310.359 C552.569,310.359 553.39,308.487 553.39,308.487 L553.428,308.487 C553.428,308.487 553.371,308.678 553.371,308.984 L553.371,309.099 C553.371,309.652 553.714,310.13 554.612,310.13 L556.904,310.13 L556.904,308.316 L556.025,308.316 C555.758,308.316 555.605,308.182 555.605,307.895 L555.605,304 C555.605,301.517 554.211,300.161 551.595,300.161 C549.246,300.161 547.737,301.365 547.737,301.365 L548.635,303.045 C548.635,303.045 549.933,302.109 551.385,302.109 C552.397,302.109 553.18,302.548 553.18,303.79 L553.18,304.114 L552.569,304.114 C551.003,304.114 547.088,304.42 547.088,307.399 z M549.532,307.208 C549.532,305.738 551.843,305.585 552.798,305.585 L553.199,305.585 L553.199,305.909 C553.199,307.132 552.263,308.545 550.945,308.545 C550.048,308.545 549.532,307.934 549.532,307.208 z" fill="#C6C1BE"/>
    <path d="M558.221,310.13 L563.454,310.13 L563.454,308.316 L562.06,308.316 L562.06,305.757 C562.06,304.057 563.091,302.377 564.848,302.377 C566.07,302.377 566.395,303.179 566.395,304.363 L566.395,310.13 L570.214,310.13 L570.214,308.316 L568.801,308.316 L568.801,303.866 C568.801,301.288 567.617,300.161 565.535,300.161 C563.091,300.161 562.06,302.033 561.945,302.338 L561.907,302.338 C561.907,302.338 561.945,302.128 561.945,301.918 L561.945,301.479 C561.945,300.792 561.544,300.391 560.685,300.391 L558.126,300.391 L558.126,302.205 L559.214,302.205 C559.482,302.205 559.634,302.358 559.634,302.625 L559.634,308.316 L558.221,308.316 z" fill="#C6C1BE"/>
    <path d="M571.627,311.696 L570.844,313.472 C570.844,313.472 571.799,314.14 573.212,314.14 C574.873,314.14 576.325,313.319 577.069,311.39 L580.659,302.205 L581.767,302.205 L581.767,300.391 L577.165,300.391 L577.165,302.205 L578.292,302.205 L576.535,307.132 C576.344,307.609 576.267,308.144 576.267,308.144 L576.21,308.144 C576.21,308.144 576.172,307.609 576,307.132 L574.224,302.205 L575.37,302.205 L575.37,300.391 L570.577,300.391 L570.577,302.205 L571.741,302.205 L575.083,310.416 L574.816,311.027 C574.51,311.734 573.88,312.154 573.097,312.154 C572.2,312.154 571.627,311.696 571.627,311.696 z" fill="#C6C1BE"/>
    <path d="M583.829,306.559 C583.829,309.824 586.522,310.225 587.897,310.225 C588.336,310.225 588.642,310.168 588.642,310.168 L588.642,308.182 C588.642,308.182 588.47,308.201 588.203,308.201 C587.515,308.201 586.255,307.972 586.255,306.31 L586.255,302.205 L588.47,302.205 L588.47,300.391 L586.255,300.391 L586.255,297.736 L583.906,297.736 L583.906,300.391 L582.34,300.391 L582.34,302.205 L583.829,302.205 z" fill="#C6C1BE"/>
    <path d="M591.506,298.729 L593.951,298.729 L593.951,296.571 L591.506,296.571 z M590.112,310.13 L595.345,310.13 L595.345,308.316 L593.951,308.316 L593.951,300.391 L590.017,300.391 L590.017,302.205 L591.525,302.205 L591.525,308.316 L590.112,308.316 z" fill="#C6C1BE"/>
    <path d="M596.796,310.13 L602.028,310.13 L602.028,308.316 L600.634,308.316 L600.634,305.948 C600.634,304.191 601.417,302.377 603.136,302.377 C604.282,302.377 604.454,303.274 604.454,304.324 L604.454,310.13 L608.273,310.13 L608.273,308.316 L606.86,308.316 L606.86,305.833 C606.86,304.038 607.681,302.377 609.342,302.377 C610.469,302.377 610.679,303.217 610.679,304.324 L610.679,310.13 L614.517,310.13 L614.517,308.316 L613.104,308.316 L613.104,303.866 C613.104,301.307 611.939,300.161 609.972,300.161 C608.426,300.161 607.127,301.135 606.592,302.281 L606.554,302.281 C606.172,300.792 605.198,300.161 603.842,300.161 C602.238,300.161 601.016,301.345 600.52,302.338 L600.482,302.338 C600.482,302.338 600.52,302.128 600.52,301.918 L600.52,301.479 C600.52,300.792 600.1,300.391 599.24,300.391 L596.7,300.391 L596.7,302.205 L597.789,302.205 C598.056,302.205 598.209,302.338 598.209,302.606 L598.209,308.316 L596.796,308.316 z" fill="#C6C1BE"/>
    <path d="M615.625,305.26 C615.625,308.029 617.63,310.359 620.857,310.359 C623.302,310.359 624.791,309.003 624.791,309.003 L623.856,307.284 C623.856,307.284 622.614,308.316 621.029,308.316 C619.559,308.316 618.26,307.399 618.108,305.604 L624.849,305.604 C624.849,305.604 624.906,305.069 624.906,304.783 C624.906,302.205 623.378,300.161 620.571,300.161 C617.649,300.161 615.625,302.262 615.625,305.26 z M618.165,304.172 C618.394,302.892 619.272,302.033 620.514,302.033 C621.545,302.033 622.366,302.835 622.404,304.172 z" fill="#C6C1BE"/>
    <path d="M630.921,307.399 C630.921,309.385 632.487,310.359 634.148,310.359 C636.402,310.359 637.223,308.487 637.223,308.487 L637.261,308.487 C637.261,308.487 637.204,308.678 637.204,308.984 L637.204,309.099 C637.204,309.652 637.548,310.13 638.445,310.13 L640.737,310.13 L640.737,308.316 L639.858,308.316 C639.591,308.316 639.438,308.182 639.438,307.895 L639.438,304 C639.438,301.517 638.044,300.161 635.428,300.161 C633.079,300.161 631.57,301.365 631.57,301.365 L632.468,303.045 C632.468,303.045 633.767,302.109 635.218,302.109 C636.23,302.109 637.013,302.548 637.013,303.79 L637.013,304.114 L636.402,304.114 C634.836,304.114 630.921,304.42 630.921,307.399 z M633.366,307.208 C633.366,305.738 635.676,305.585 636.631,305.585 L637.032,305.585 L637.032,305.909 C637.032,307.132 636.096,308.545 634.779,308.545 C633.881,308.545 633.366,307.934 633.366,307.208 z" fill="#C6C1BE"/>
    <path d="M642.914,306.559 C642.914,309.824 645.606,310.225 646.981,310.225 C647.42,310.225 647.726,310.168 647.726,310.168 L647.726,308.182 C647.726,308.182 647.554,308.201 647.287,308.201 C646.599,308.201 645.339,307.972 645.339,306.31 L645.339,302.205 L647.554,302.205 L647.554,300.391 L645.339,300.391 L645.339,297.736 L642.99,297.736 L642.99,300.391 L641.424,300.391 L641.424,302.205 L642.914,302.205 z" fill="#C6C1BE"/>
    <path d="M656.549,311.944 L658.592,311.944 C657.16,309.309 656.434,306.444 656.434,303.599 C656.434,300.906 657.198,298.328 658.592,295.979 L656.549,295.979 C655.097,298.271 654.276,300.83 654.276,303.58 C654.276,306.711 655.135,309.633 656.549,311.944 z" fill="#C6C1BE"/>
    <path d="M665.543,310.359 C668.255,310.359 670.164,308.316 670.164,305.776 C670.164,303.37 668.427,301.288 665.791,301.288 C664.703,301.288 663.633,301.67 663.118,302.243 L663.079,302.243 C663.423,300.352 664.588,298.538 666.727,298.538 C667.796,298.538 668.656,298.977 668.656,298.977 L669.362,296.915 C669.362,296.915 668.274,296.342 666.651,296.342 C662.354,296.342 660.311,300.276 660.311,304.019 C660.311,308.01 662.621,310.359 665.543,310.359 z M662.869,305.012 C662.869,304 663.767,303.293 664.97,303.293 C666.803,303.293 667.624,304.42 667.624,305.757 C667.624,307.17 666.822,308.163 665.524,308.163 C663.977,308.163 662.869,306.425 662.869,305.012 z" fill="#C6C1BE"/>
    <path d="M671.367,306.635 L677.707,306.635 L677.707,310.13 L680.152,310.13 L680.152,306.635 L681.889,306.635 L681.889,304.706 L680.152,304.706 L680.152,296.571 L677.23,296.571 L671.367,305.126 z M677.23,300.047 C677.535,299.569 677.765,299.016 677.765,299.016 L677.822,299.016 C677.822,299.016 677.707,299.684 677.707,300.181 L677.707,304.706 L673.926,304.706 L673.926,304.668 z" fill="#C6C1BE"/>
    <path d="M688.821,310.359 C691.533,310.359 693.443,308.316 693.443,305.776 C693.443,303.37 691.705,301.288 689.07,301.288 C687.981,301.288 686.912,301.67 686.396,302.243 L686.358,302.243 C686.702,300.352 687.867,298.538 690.005,298.538 C691.075,298.538 691.934,298.977 691.934,298.977 L692.641,296.915 C692.641,296.915 691.552,296.342 689.929,296.342 C685.632,296.342 683.589,300.276 683.589,304.019 C683.589,308.01 685.9,310.359 688.821,310.359 z M686.148,305.012 C686.148,304 687.045,303.293 688.249,303.293 C690.082,303.293 690.903,304.42 690.903,305.757 C690.903,307.17 690.101,308.163 688.802,308.163 C687.255,308.163 686.148,306.425 686.148,305.012 z" fill="#C6C1BE"/>
    <path d="M694.951,311.944 L697.014,311.944 C698.427,309.633 699.286,306.711 699.286,303.58 C699.286,300.83 698.465,298.271 697.014,295.979 L694.951,295.979 C696.365,298.328 697.109,300.906 697.109,303.599 C697.109,306.444 696.384,309.309 694.951,311.944 z" fill="#C6C1BE"/>
    <path d="M706.944,310.13 L709.503,310.13 L715.442,298.29 L715.442,296.571 L705.951,296.571 L705.951,300.181 L708.071,300.181 L708.071,298.576 L711.928,298.576 C712.425,298.576 712.806,298.519 712.806,298.519 L712.806,298.557 C712.806,298.557 712.577,298.806 712.348,299.302 z" fill="#C6C1BE"/>
    <path d="M716.702,306.291 C716.702,308.507 718.631,310.359 721.572,310.359 C724.608,310.359 726.365,308.392 726.365,306.349 C726.365,304.993 725.582,304.057 724.513,303.408 C724.799,303.102 726.04,301.746 726.04,300.009 C726.04,297.774 724.15,296.342 721.572,296.342 C718.631,296.342 717.237,298.194 717.237,300.028 C717.237,301.25 717.886,302.09 718.803,302.739 C718.364,303.045 716.702,304.286 716.702,306.291 z M719.662,300.066 C719.662,299.188 720.311,298.481 721.591,298.481 C722.832,298.481 723.653,299.13 723.653,300.295 C723.653,301.403 722.966,302.243 722.737,302.548 C721.113,301.861 719.662,301.384 719.662,300.066 z M719.166,306.024 C719.166,304.802 720.101,304.057 720.464,303.732 C722.412,304.611 723.863,305.012 723.863,306.31 C723.863,307.437 722.794,308.22 721.572,308.22 C720.254,308.22 719.166,307.342 719.166,306.024 z" fill="#C6C1BE"/>
    <path d="M728.542,300.181 L730.681,300.181 L730.681,298.576 L733.66,298.576 C733.984,298.576 734.424,298.519 734.424,298.519 L734.424,298.557 C734.424,298.557 734.099,298.825 733.851,299.111 L730.91,302.701 L731.464,303.904 C731.616,303.904 731.903,303.866 732.208,303.866 C733.755,303.866 734.863,304.668 734.863,306.005 C734.863,307.246 733.832,308.163 732.418,308.163 C730.623,308.163 729.306,306.788 729.306,306.788 L728.084,308.545 C728.084,308.545 729.707,310.359 732.571,310.359 C735.665,310.359 737.403,308.22 737.403,305.909 C737.403,303.58 735.646,302.358 733.908,302.09 L737.097,298.309 L737.097,296.571 L728.542,296.571 z" fill="#C6C1BE"/>
    <path d="M739.981,305.738 L745.729,305.738 L745.729,303.618 L739.981,303.618 z" fill="#C6C1BE"/>
    <path d="M747.887,310.13 L756.174,310.13 L756.174,308.125 L753.253,308.125 L753.253,296.571 L751.095,296.571 L747.696,299.837 L749.147,301.365 L750.235,300.333 C750.675,299.894 750.827,299.569 750.827,299.569 L750.866,299.569 C750.866,299.569 750.846,300.028 750.846,300.486 L750.846,308.125 L747.887,308.125 z" fill="#C6C1BE"/>
    <path d="M757.034,306.635 L763.374,306.635 L763.374,310.13 L765.818,310.13 L765.818,306.635 L767.556,306.635 L767.556,304.706 L765.818,304.706 L765.818,296.571 L762.896,296.571 L757.034,305.126 z M762.896,300.047 C763.202,299.569 763.431,299.016 763.431,299.016 L763.488,299.016 C763.488,299.016 763.374,299.684 763.374,300.181 L763.374,304.706 L759.593,304.706 L759.593,304.668 z" fill="#C6C1BE"/>
    <path d="M768.759,306.635 L775.099,306.635 L775.099,310.13 L777.543,310.13 L777.543,306.635 L779.281,306.635 L779.281,304.706 L777.543,304.706 L777.543,296.571 L774.621,296.571 L768.759,305.126 z M774.621,300.047 C774.927,299.569 775.156,299.016 775.156,299.016 L775.213,299.016 C775.213,299.016 775.099,299.684 775.099,300.181 L775.099,304.706 L771.318,304.706 L771.318,304.668 z" fill="#C6C1BE"/>
    <path d="M780.484,306.635 L786.824,306.635 L786.824,310.13 L789.268,310.13 L789.268,306.635 L791.006,306.635 L791.006,304.706 L789.268,304.706 L789.268,296.571 L786.347,296.571 L780.484,305.126 z M786.347,300.047 C786.652,299.569 786.881,299.016 786.881,299.016 L786.939,299.016 C786.939,299.016 786.824,299.684 786.824,300.181 L786.824,304.706 L783.043,304.706 L783.043,304.668 z" fill="#C6C1BE"/>
    <path d="M437.372,103.409 L444.62,103.409 L444.62,101.057 L442.556,101.057 L442.556,88.889 L445.796,88.889 L445.796,91.457 L448.46,91.457 L448.46,86.369 L433.532,86.369 L433.532,91.457 L436.196,91.457 L436.196,88.889 L439.412,88.889 L439.412,101.057 L437.372,101.057 z" fill="#FFFFFF"/>
    <path d="M449.108,97.289 C449.108,101.057 452.108,103.697 455.852,103.697 C459.572,103.697 462.572,101.057 462.572,97.289 C462.572,93.545 459.572,90.881 455.828,90.881 C452.108,90.881 449.108,93.545 449.108,97.289 z M452.204,97.289 C452.204,95.033 453.86,93.473 455.852,93.473 C457.82,93.473 459.476,95.033 459.476,97.289 C459.476,99.569 457.82,101.105 455.852,101.105 C453.86,101.105 452.204,99.569 452.204,97.289 z" fill="#FFFFFF"/>
    <path d="M470.492,103.409 L477.068,103.409 L477.068,101.129 L475.316,101.129 L475.316,98.465 C475.316,96.161 476.42,94.001 478.892,94.001 C479.324,94.001 479.636,94.049 479.636,94.049 L479.636,91.049 C479.636,91.049 479.372,91.001 479.084,91.001 C477.212,91.001 475.748,92.393 475.196,94.145 L475.148,94.145 C475.148,94.145 475.196,93.833 475.196,93.377 L475.196,92.657 C475.196,91.625 474.644,91.169 473.564,91.169 L470.372,91.169 L470.372,93.449 L471.74,93.449 C472.076,93.449 472.268,93.641 472.268,93.977 L472.268,101.129 L470.492,101.129 z" fill="#FFFFFF"/>
    <path d="M480.908,97.289 C480.908,100.769 483.428,103.697 487.484,103.697 C490.556,103.697 492.428,101.993 492.428,101.993 L491.252,99.833 C491.252,99.833 489.692,101.129 487.7,101.129 C485.852,101.129 484.22,99.977 484.028,97.721 L492.5,97.721 C492.5,97.721 492.572,97.049 492.572,96.689 C492.572,93.449 490.652,90.881 487.124,90.881 C483.452,90.881 480.908,93.521 480.908,97.289 z M484.1,95.921 C484.388,94.313 485.492,93.233 487.052,93.233 C488.348,93.233 489.38,94.241 489.428,95.921 z" fill="#FFFFFF"/>
    <path d="M494.324,97.289 C494.324,101.081 496.412,103.697 499.676,103.697 C502.724,103.697 503.684,101.417 503.684,101.417 L503.732,101.417 C503.732,101.417 503.66,101.633 503.66,101.969 L503.66,102.113 C503.66,102.809 504.116,103.409 505.22,103.409 L508.1,103.409 L508.1,101.129 L506.996,101.129 C506.66,101.129 506.468,100.961 506.468,100.601 L506.468,86.369 L501.548,86.369 L501.548,88.649 L503.444,88.649 L503.444,91.745 C503.444,92.249 503.492,92.609 503.492,92.609 L503.444,92.609 C503.444,92.609 502.532,90.881 499.916,90.881 C496.604,90.881 494.324,93.401 494.324,97.289 z M497.396,97.289 C497.396,94.865 498.788,93.497 500.516,93.497 C502.532,93.497 503.516,95.369 503.516,97.361 C503.516,99.977 502.028,101.129 500.42,101.129 C498.644,101.129 497.396,99.617 497.396,97.289 z" fill="#FFFFFF"/>
    <path d="M509.684,97.289 C509.684,100.769 512.204,103.697 516.26,103.697 C519.332,103.697 521.204,101.993 521.204,101.993 L520.028,99.833 C520.028,99.833 518.468,101.129 516.476,101.129 C514.628,101.129 512.996,99.977 512.804,97.721 L521.276,97.721 C521.276,97.721 521.348,97.049 521.348,96.689 C521.348,93.449 519.428,90.881 515.9,90.881 C512.228,90.881 509.684,93.521 509.684,97.289 z M512.876,95.921 C513.164,94.313 514.268,93.233 515.828,93.233 C517.124,93.233 518.156,94.241 518.204,95.921 z" fill="#FFFFFF"/>
    <path d="M523.076,97.289 C523.076,100.769 525.596,103.697 529.652,103.697 C532.724,103.697 534.596,101.993 534.596,101.993 L533.42,99.833 C533.42,99.833 531.86,101.129 529.868,101.129 C528.02,101.129 526.388,99.977 526.196,97.721 L534.668,97.721 C534.668,97.721 534.74,97.049 534.74,96.689 C534.74,93.449 532.82,90.881 529.292,90.881 C525.62,90.881 523.076,93.521 523.076,97.289 z M526.268,95.921 C526.556,94.313 527.66,93.233 529.22,93.233 C530.516,93.233 531.548,94.241 531.596,95.921 z" fill="#FFFFFF"/>
    <path d="M536.732,103.409 L543.308,103.409 L543.308,101.129 L541.556,101.129 L541.556,98.153 C541.556,95.945 542.54,93.665 544.7,93.665 C546.14,93.665 546.356,94.793 546.356,96.113 L546.356,103.409 L551.156,103.409 L551.156,101.129 L549.38,101.129 L549.38,98.009 C549.38,95.753 550.412,93.665 552.5,93.665 C553.916,93.665 554.18,94.721 554.18,96.113 L554.18,103.409 L559.004,103.409 L559.004,101.129 L557.228,101.129 L557.228,95.537 C557.228,92.321 555.764,90.881 553.292,90.881 C551.348,90.881 549.716,92.105 549.044,93.545 L548.996,93.545 C548.516,91.673 547.292,90.881 545.588,90.881 C543.572,90.881 542.036,92.369 541.412,93.617 L541.364,93.617 C541.364,93.617 541.412,93.353 541.412,93.089 L541.412,92.537 C541.412,91.673 540.884,91.169 539.804,91.169 L536.612,91.169 L536.612,93.449 L537.98,93.449 C538.316,93.449 538.508,93.617 538.508,93.953 L538.508,101.129 L536.732,101.129 z" fill="#FFFFFF"/>
    <path d="M565.796,93.449 L567.284,93.449 L571.004,103.409 L574.508,103.409 L578.252,93.449 L579.716,93.449 L579.716,91.169 L573.836,91.169 L573.836,93.449 L575.228,93.449 L573.092,99.497 C572.876,100.121 572.804,100.841 572.804,100.841 L572.732,100.841 C572.732,100.841 572.66,100.121 572.42,99.497 L570.308,93.449 L571.676,93.449 L571.676,91.169 L565.796,91.169 z" fill="#FFFFFF"/>
    <path d="M582.812,89.081 L585.884,89.081 L585.884,86.369 L582.812,86.369 z M581.06,103.409 L587.636,103.409 L587.636,101.129 L585.884,101.129 L585.884,91.169 L580.94,91.169 L580.94,93.449 L582.836,93.449 L582.836,101.129 L581.06,101.129 z" fill="#FFFFFF"/>
    <path d="M589.196,100.745 C589.196,102.737 591.932,103.697 594.164,103.697 C596.972,103.697 599.324,102.449 599.324,99.977 C599.324,97.577 597.116,96.809 595.244,96.209 C593.876,95.801 592.676,95.393 592.676,94.385 C592.676,93.617 593.492,93.281 594.452,93.281 C595.532,93.281 596.252,93.665 596.252,94.289 L596.252,94.985 L598.868,94.985 L598.868,93.425 C598.868,91.577 596.228,90.881 594.452,90.881 C592.22,90.881 589.628,91.793 589.628,94.385 C589.628,96.713 591.692,97.553 593.492,98.177 C595.124,98.777 596.276,99.041 596.276,100.073 C596.276,100.889 595.412,101.321 594.188,101.321 C592.916,101.321 591.788,100.889 591.788,100.049 L591.788,99.329 L589.196,99.329 z" fill="#FFFFFF"/>
    <path d="M603.044,89.081 L606.116,89.081 L606.116,86.369 L603.044,86.369 z M601.292,103.409 L607.868,103.409 L607.868,101.129 L606.116,101.129 L606.116,91.169 L601.172,91.169 L601.172,93.449 L603.068,93.449 L603.068,101.129 L601.292,101.129 z" fill="#FFFFFF"/>
    <path d="M610.796,98.921 C610.796,103.025 614.18,103.529 615.908,103.529 C616.46,103.529 616.844,103.457 616.844,103.457 L616.844,100.961 C616.844,100.961 616.628,100.985 616.292,100.985 C615.428,100.985 613.844,100.697 613.844,98.609 L613.844,93.449 L616.628,93.449 L616.628,91.169 L613.844,91.169 L613.844,87.833 L610.892,87.833 L610.892,91.169 L608.924,91.169 L608.924,93.449 L610.796,93.449 z" fill="#FFFFFF"/>
    <path d="M619.652,103.409 L622.7,103.409 L622.7,100.337 L619.652,100.337 z M619.652,94.265 L622.7,94.265 L622.7,91.169 L619.652,91.169 z" fill="#FFFFFF"/>
    <path d="M270.036,147.592 L790.006,147.592 L790.006,200.408 L270.036,200.408 z" fill-opacity="0" stroke="#FFFFFF" stroke-width="1.25"/>
  </g>
  <defs/>
</svg>
